<svg xmlns="http://www.w3.org/2000/svg" fill="none" viewBox="0 0 1920 1080"><g filter="url(#filter0_f_1_21)"><path fill="url(#paint0_radial_1_21)" d="M-109.275 555.177c-77.395-183.444-288.847-269.414-472.291-192.019l-37.876 15.98c-183.444 77.395-269.414 288.847-192.019 472.291l15.364 36.416c77.395 183.445 288.847 269.415 472.291 192.015l37.876-15.98c183.444-77.391 269.414-288.844 192.019-472.288l-15.364-36.415z"/><path stroke="#00E29A" stroke-width="42.359" d="M-109.275 555.177c-77.395-183.444-288.847-269.414-472.291-192.019l-37.876 15.98c-183.444 77.395-269.414 288.847-192.019 472.291l15.364 36.416c77.395 183.445 288.847 269.415 472.291 192.015l37.876-15.98c183.444-77.391 269.414-288.844 192.019-472.288l-15.364-36.415z"/></g><g filter="url(#filter1_f_1_21)"><rect width="706.644" height="705.822" fill="url(#paint1_radial_1_21)" rx="352.911" transform="scale(-1 1) rotate(30.043 -375.751 244.557)"/></g><g filter="url(#filter2_f_1_21)"><path fill="url(#paint2_radial_1_21)" d="M-233.625 123C-399.013-57.59-679.483-69.912-860.072 95.477l-85.943 78.708c-180.585 165.389-192.915 445.859-27.523 626.448l56.121 61.278c165.388 180.589 445.858 192.909 626.448 27.523l85.942-78.709c180.59-165.388 192.911-445.858 27.523-626.447L-233.625 123z"/></g><g filter="url(#filter3_f_1_21)"><rect width="1028" height="1026.81" fill="url(#paint3_radial_1_21)" rx="493.686" transform="scale(-1 1) rotate(30.043 410.025 -169.118)"/></g><g filter="url(#filter4_f_1_21)"><path fill="url(#paint4_angular_1_21)" d="M-29.213 859.26C65.751 684.842.682 466.107-173.736 371.144c-174.418-94.963-393.453-30.911-488.417 143.507-94.963 174.419-29.894 393.154 144.524 488.119 174.418 94.96 393.453 30.91 488.416-143.51z"/></g><g filter="url(#filter5_f_1_21)"><path fill="url(#paint5_radial_1_21)" d="M2175.72 599.177c-77.39-183.444-288.84-269.414-472.29-192.019l-37.87 15.98c-183.45 77.395-269.42 288.847-192.02 472.291l15.36 36.416c77.4 183.445 288.85 269.415 472.29 192.015l37.88-15.98c183.44-77.39 269.41-288.844 192.02-472.288l-15.37-36.415z"/><path stroke="#00E29A" stroke-width="42.359" d="M2175.72 599.177c-77.39-183.444-288.84-269.414-472.29-192.019l-37.87 15.98c-183.45 77.395-269.42 288.847-192.02 472.291l15.36 36.416c77.4 183.445 288.85 269.415 472.29 192.015l37.88-15.98c183.44-77.39 269.41-288.844 192.02-472.288l-15.37-36.415z"/></g><g filter="url(#filter6_f_1_21)"><rect width="706.644" height="705.822" fill="url(#paint6_radial_1_21)" rx="352.911" transform="scale(-1 1) rotate(30.043 -1600.23 -3990.91)"/></g><g filter="url(#filter7_f_1_21)"><path fill="url(#paint7_radial_1_21)" d="M2051.38 167c-165.39-180.59-445.86-192.912-626.45-27.523l-85.94 78.708c-180.59 165.389-192.92 445.859-27.53 626.448l56.12 61.278c165.39 180.589 445.86 192.909 626.45 27.523l85.94-78.709c180.59-165.388 192.91-445.858 27.53-626.447L2051.38 167z"/></g><g filter="url(#filter8_f_1_21)"><rect width="1028" height="1026.81" fill="url(#paint8_radial_1_21)" rx="493.686" transform="scale(-1 1) rotate(30.043 -814.456 -4404.59)"/></g><g filter="url(#filter9_f_1_21)"><path fill="url(#paint9_angular_1_21)" d="M2255.79 903.26c94.96-174.418 29.89-393.153-144.53-488.116-174.41-94.963-393.45-30.911-488.41 143.507-94.97 174.419-29.9 393.154 144.52 488.119 174.42 94.96 393.45 30.91 488.42-143.51z"/></g><defs><filter id="filter0_f_1_21" width="1220.58" height="1219.73" x="-1062.97" y="111.644" color-interpolation-filters="sRGB" filterUnits="userSpaceOnUse"><feFlood flood-opacity="0" result="BackgroundImageFix"/><feBlend in="SourceGraphic" in2="BackgroundImageFix" result="shape"/><feGaussianBlur result="effect1_foregroundBlur_1_21" stdDeviation="100.942"/></filter><filter id="filter1_f_1_21" width="1094.82" height="1094.4" x="-748.535" y="156.165" color-interpolation-filters="sRGB" filterUnits="userSpaceOnUse"><feFlood flood-opacity="0" result="BackgroundImageFix"/><feBlend in="SourceGraphic" in2="BackgroundImageFix" result="shape"/><feGaussianBlur result="effect1_foregroundBlur_1_21" stdDeviation="97.088"/></filter><filter id="filter2_f_1_21" width="1702.65" height="1700.57" x="-1426.85" y="-357.832" color-interpolation-filters="sRGB" filterUnits="userSpaceOnUse"><feFlood flood-opacity="0" result="BackgroundImageFix"/><feBlend in="SourceGraphic" in2="BackgroundImageFix" result="shape"/><feGaussianBlur result="effect1_foregroundBlur_1_21" stdDeviation="168.449"/></filter><filter id="filter3_f_1_21" width="1520.09" height="1519.65" x="-918.373" y="-286.066" color-interpolation-filters="sRGB" filterUnits="userSpaceOnUse"><feFlood flood-opacity="0" result="BackgroundImageFix"/><feBlend in="SourceGraphic" in2="BackgroundImageFix" result="shape"/><feGaussianBlur result="effect1_foregroundBlur_1_21" stdDeviation="119.41"/></filter><filter id="filter4_f_1_21" width="1224.71" height="1223.87" x="-958.038" y="75.022" color-interpolation-filters="sRGB" filterUnits="userSpaceOnUse"><feFlood flood-opacity="0" result="BackgroundImageFix"/><feBlend in="SourceGraphic" in2="BackgroundImageFix" result="shape"/><feGaussianBlur result="effect1_foregroundBlur_1_21" stdDeviation="126.098"/></filter><filter id="filter5_f_1_21" width="1220.58" height="1219.73" x="1222.03" y="155.644" color-interpolation-filters="sRGB" filterUnits="userSpaceOnUse"><feFlood flood-opacity="0" result="BackgroundImageFix"/><feBlend in="SourceGraphic" in2="BackgroundImageFix" result="shape"/><feGaussianBlur result="effect1_foregroundBlur_1_21" stdDeviation="100.942"/></filter><filter id="filter6_f_1_21" width="1094.82" height="1094.4" x="1536.47" y="200.165" color-interpolation-filters="sRGB" filterUnits="userSpaceOnUse"><feFlood flood-opacity="0" result="BackgroundImageFix"/><feBlend in="SourceGraphic" in2="BackgroundImageFix" result="shape"/><feGaussianBlur result="effect1_foregroundBlur_1_21" stdDeviation="97.088"/></filter><filter id="filter7_f_1_21" width="1702.65" height="1700.57" x="858.154" y="-313.832" color-interpolation-filters="sRGB" filterUnits="userSpaceOnUse"><feFlood flood-opacity="0" result="BackgroundImageFix"/><feBlend in="SourceGraphic" in2="BackgroundImageFix" result="shape"/><feGaussianBlur result="effect1_foregroundBlur_1_21" stdDeviation="168.449"/></filter><filter id="filter8_f_1_21" width="1520.09" height="1519.65" x="1366.63" y="-242.066" color-interpolation-filters="sRGB" filterUnits="userSpaceOnUse"><feFlood flood-opacity="0" result="BackgroundImageFix"/><feBlend in="SourceGraphic" in2="BackgroundImageFix" result="shape"/><feGaussianBlur result="effect1_foregroundBlur_1_21" stdDeviation="119.41"/></filter><filter id="filter9_f_1_21" width="1224.71" height="1223.87" x="1326.96" y="119.022" color-interpolation-filters="sRGB" filterUnits="userSpaceOnUse"><feFlood flood-opacity="0" result="BackgroundImageFix"/><feBlend in="SourceGraphic" in2="BackgroundImageFix" result="shape"/><feGaussianBlur result="effect1_foregroundBlur_1_21" stdDeviation="126.098"/></filter><radialGradient id="paint0_radial_1_21" cx="0" cy="0" r="1" gradientTransform="matrix(627.57524 1532.0446 -1535.23714 628.883 -300.82 649.604)" gradientUnits="userSpaceOnUse"><stop stop-color="#5AE9FD"/><stop offset="1" stop-color="#5AE9FD" stop-opacity="0"/></radialGradient><radialGradient id="paint1_radial_1_21" cx="0" cy="0" r="1" gradientTransform="matrix(0 352.911 -353.322 0 353.322 352.911)" gradientUnits="userSpaceOnUse"><stop stop-color="#38FF70"/><stop offset="1" stop-color="#4AE074" stop-opacity=".65"/></radialGradient><radialGradient id="paint2_radial_1_21" cx="0" cy="0" r="1" gradientTransform="rotate(47.516 -847.147 -407.515) scale(484.94 1595.22)" gradientUnits="userSpaceOnUse"><stop stop-color="#6012C3"/><stop offset="1" stop-color="#9949FF" stop-opacity=".37"/></radialGradient><radialGradient id="paint3_radial_1_21" cx="0" cy="0" r="1" gradientTransform="rotate(151.133 332.183 405.295) scale(484.984 485.549)" gradientUnits="userSpaceOnUse"><stop stop-color="#FFF9C5"/><stop offset=".755" stop-color="#FF5C00"/><stop offset="1" stop-color="#FF451C"/></radialGradient><radialGradient id="paint4_angular_1_21" cx="0" cy="0" r="1" gradientTransform="rotate(118.566 -376.922 240.783) scale(359.587 364.231)" gradientUnits="userSpaceOnUse"><stop stop-color="#FFF5CF"/><stop offset="1" stop-color="#FFD84B" stop-opacity="0"/></radialGradient><radialGradient id="paint5_radial_1_21" cx="0" cy="0" r="1" gradientTransform="matrix(627.57524 1532.0446 -1535.23714 628.883 1984.18 693.604)" gradientUnits="userSpaceOnUse"><stop stop-color="#5AE9FD"/><stop offset="1" stop-color="#5AE9FD" stop-opacity="0"/></radialGradient><radialGradient id="paint6_radial_1_21" cx="0" cy="0" r="1" gradientTransform="matrix(0 352.911 -353.322 0 353.322 352.911)" gradientUnits="userSpaceOnUse"><stop stop-color="#38FF70"/><stop offset="1" stop-color="#4AE074" stop-opacity=".65"/></radialGradient><radialGradient id="paint7_radial_1_21" cx="0" cy="0" r="1" gradientTransform="rotate(47.516 245.373 2210.05) scale(484.94 1595.22)" gradientUnits="userSpaceOnUse"><stop stop-color="#6012C3"/><stop offset="1" stop-color="#9949FF" stop-opacity=".37"/></radialGradient><radialGradient id="paint8_radial_1_21" cx="0" cy="0" r="1" gradientTransform="rotate(151.133 332.183 405.295) scale(484.984 485.549)" gradientUnits="userSpaceOnUse"><stop stop-color="#FFF9C5"/><stop offset=".755" stop-color="#FF5C00"/><stop offset="1" stop-color="#FF451C"/></radialGradient><radialGradient id="paint9_angular_1_21" cx="0" cy="0" r="1" gradientTransform="rotate(118.566 752.508 941.61) scale(359.587 364.231)" gradientUnits="userSpaceOnUse"><stop stop-color="#FFF5CF"/><stop offset="1" stop-color="#FFD84B" stop-opacity="0"/></radialGradient></defs></svg>