<svg width="206" height="164" viewBox="0 0 206 164" fill="none" xmlns="http://www.w3.org/2000/svg">
<path d="M158.397 11.6454L158.397 11.6454C158.747 11.8686 159.1 12.0844 159.452 12.2999C160.885 13.1773 162.309 14.0494 163.574 15.3914C165.137 17.0491 166.46 19.4355 167.152 23.4479C167.741 26.8691 167.348 29.434 167.015 31.6134C166.95 32.0407 166.886 32.4532 166.833 32.8545C166.672 34.0745 166.603 35.2063 166.879 36.3139C167.157 37.4295 167.777 38.4947 168.947 39.6005C170.145 40.7328 171.776 41.2602 173.526 41.6456C174.146 41.7821 174.777 41.9005 175.415 42.0201C176.608 42.2437 177.822 42.4715 179.024 42.8293C180.849 43.3727 182.583 44.2034 184.01 45.7335C185.437 47.2633 186.578 49.5166 187.172 52.944L187.457 52.8947L187.172 52.9441C188.076 58.1648 186.718 61.2296 184.858 63.2676C183.92 64.2955 182.846 65.0724 181.836 65.7359C181.583 65.9025 181.331 66.0634 181.086 66.2201C180.37 66.6775 179.709 67.0996 179.223 67.5264C179.088 67.6456 178.792 67.8454 178.332 68.1208C177.878 68.3923 177.283 68.7272 176.564 69.1151C175.127 69.8909 173.202 70.8751 170.943 71.9833C166.424 74.1995 160.57 76.9084 154.606 79.4325C148.64 81.9571 142.569 84.2939 137.613 85.7684C135.134 86.5059 132.943 87.0249 131.189 87.2457C130.311 87.356 129.551 87.3908 128.922 87.3438C128.29 87.2965 127.814 87.168 127.487 86.9703C122.764 84.1123 120.144 80.8203 118.749 77.6914C117.353 74.5595 117.175 71.5721 117.367 69.3151C117.393 69.0065 117.497 68.5538 117.665 67.9787C117.832 67.4081 118.057 66.7342 118.317 65.9897C118.541 65.3495 118.793 64.6516 119.055 63.925C119.397 62.9765 119.757 61.979 120.096 60.9966C120.696 59.2529 121.244 57.5119 121.541 56.0639C121.69 55.3403 121.778 54.6786 121.776 54.1201C121.773 53.5703 121.683 53.0751 121.43 52.7252C120.914 52.0117 120.461 50.8013 120.083 49.281C119.708 47.77 119.414 45.9854 119.199 44.1494C118.771 40.4745 118.664 36.6237 118.849 34.3907C118.969 32.9439 119.577 31.2235 120.2 29.4628C120.312 29.1472 120.424 28.8302 120.534 28.5133C120.891 27.4825 121.221 26.4572 121.416 25.5041C121.609 24.5541 121.674 23.6481 121.476 22.865C121.368 22.4374 121.22 21.954 121.058 21.4255C120.654 20.1061 120.164 18.5063 119.998 16.7966C119.769 14.4305 120.178 11.9359 122.336 9.87707C124.174 8.124 125.746 7.32855 127.352 6.71974C127.826 6.53996 128.31 6.37465 128.808 6.20453C129.988 5.80103 131.248 5.37048 132.65 4.65568M158.397 11.6454L132.518 4.39808M158.397 11.6454C157.48 11.0617 156.779 10.3157 156.149 9.49844C155.769 9.00529 155.404 8.47046 155.034 7.92849C154.801 7.58604 154.565 7.24073 154.322 6.90128C153.055 5.12843 151.48 3.33362 148.472 2.06921M158.397 11.6454L148.584 1.80259M132.65 4.65568L132.518 4.39808M132.65 4.65568C132.65 4.65569 132.65 4.65571 132.649 4.65573L132.518 4.39808M132.65 4.65568C132.987 4.48383 133.346 4.29267 133.726 4.09049C137.18 2.25095 142.349 -0.501364 148.472 2.06921M132.518 4.39808C132.851 4.22845 133.208 4.03841 133.586 3.83649C137.033 1.99829 142.327 -0.824449 148.584 1.80259M148.472 2.06921C148.472 2.0692 148.472 2.06918 148.472 2.06916L148.584 1.80259M148.472 2.06921L148.584 1.80259" fill="#161616" stroke="white" stroke-width="0.578331"/>
<path d="M152.568 36.7944L161.374 51.338L148.86 77.411L135.976 49.0823L152.568 36.7944Z" fill="#161616" stroke="white" stroke-width="0.578331" stroke-miterlimit="10" stroke-linecap="round" stroke-linejoin="round"/>
<path d="M122.545 24.0293C122.545 24.0293 123.958 40.8482 130.065 48.2702C135.458 54.8205 140.004 54.1359 144.825 48.9154C148.78 44.6356 152.858 37.7652 152.858 37.7652C152.858 37.7652 157.576 35.5243 156.069 31.7714C154.567 28.0186 150.671 30.7864 150.671 30.7864C150.671 30.7864 146.564 31.3085 146.515 24.5612C146.475 19.5919 142.166 12.9333 131.946 14.8146C121.732 16.7009 122.545 24.0293 122.545 24.0293Z" fill="#161616" stroke="white" stroke-width="0.578331" stroke-miterlimit="10" stroke-linecap="round" stroke-linejoin="round"/>
<path d="M129.817 42.2667C129.817 42.2667 131.822 42.3406 133.954 41.3556C136.087 40.3706 137.653 39.2034 137.653 39.2034C137.653 39.2034 138.559 43.2025 135.836 44.7539C132.472 46.6697 129.817 42.2667 129.817 42.2667Z" fill="white" stroke="white" stroke-width="0.578331" stroke-miterlimit="10" stroke-linecap="round" stroke-linejoin="round"/>
<path d="M129.401 27.5659C129.377 27.7334 130.16 31.8605 128.997 35.2834C128.731 36.0714 129.081 37.1008 130.278 37.1746C131.977 37.2781 132.612 36.3078 132.612 36.3078" stroke="white" stroke-width="0.578331" stroke-miterlimit="10" stroke-linecap="round" stroke-linejoin="round"/>
<path d="M139.773 65.0196L146.205 81.7548C146.205 81.7548 156.212 72.2593 161.187 64.0691C166.161 55.8837 172.849 51.7368 172.849 51.7368C172.849 51.7368 187.481 59.1785 193.904 70.7375C200.326 82.2965 200.208 94.55 202.69 106.34C204.423 114.585 204.99 128.178 205.221 132.985C205.581 140.456 204.857 148.538 204.443 151.956C204.074 155.019 201.936 158.703 200.094 160.136C198.247 161.57 186.408 163.761 184.871 163.554C183.334 163.347 175.464 157.758 175.134 155.167C174.302 148.632 184.349 143.652 180.35 142.116C176.351 140.579 172.765 140.397 172.765 140.397C172.765 140.397 154.001 143.771 145.988 141.682C137.975 139.594 144.88 137.289 144.88 137.289L132.173 110.492C132.173 110.492 118.497 121.618 117.453 123.356C116.408 125.095 114.67 128.459 113.513 128.69C112.355 128.922 111.193 130.66 109.223 131.355C107.253 132.049 105.746 129.848 105.746 129.848C105.746 129.848 106.903 120.805 102.5 117.097C98.0973 113.388 90.1877 114.555 90.1877 114.555C90.1877 114.555 90.1877 112.556 91.6405 111.65C93.0934 110.743 100.003 109.167 100.786 109.044C101.574 108.921 101.697 108.197 102.604 107.168C103.51 106.139 106.297 104.622 107.933 103.715C109.568 102.804 109.809 103.292 110.415 102.804C111.02 102.322 112.656 98.6229 115.32 95.9585C117.984 93.2941 121.683 88.2016 124.894 82.6314C128.105 77.0563 129.558 75.7266 130.77 74.451C131.981 73.1803 136.281 67.7874 137.556 66.5759C138.837 65.3594 139.773 65.0196 139.773 65.0196Z" fill="white" stroke="white" stroke-width="0.578331" stroke-linecap="round" stroke-linejoin="round"/>
<path d="M171.45 137.758C171.45 137.758 175.779 132.222 185.472 131.991C191.244 131.853 196.991 134.443 196.991 134.443" stroke="white" stroke-width="0.578331" stroke-miterlimit="10" stroke-linecap="round" stroke-linejoin="round"/>
<path d="M104.633 142.914C104.633 142.914 95.9307 148.859 93.5371 148.716C91.1436 148.573 90.5624 147.554 90.5624 146.756C90.5624 145.958 100.713 137.694 101.727 137.187C102.742 136.679 115.867 133.054 117.246 133.054C118.625 133.054 139.65 133.852 143.058 134.217C146.466 134.581 170.175 137.842 171.48 137.842C172.786 137.842 177.312 136.748 181.37 138.841C183.951 140.171 187.226 145.855 188.954 152.124C189.644 154.621 189.609 155.675 188.447 157.778C187.285 159.881 186.344 160.822 186.344 160.822C186.344 160.822 175.233 158.827 170.141 157.522C163.63 155.857 145.181 148.115 143.226 148.332C141.265 148.549 139.256 150.735 134.356 150.814C130.928 150.868 123.988 153.208 122.028 152.843C120.068 152.479 115.936 151.395 115.936 151.395C115.936 151.395 113.907 152.557 111.366 151.976C108.829 151.395 108.248 148.494 108.248 148.494C108.248 148.494 104.84 153.281 103.102 153.498C101.363 153.715 99.984 152.193 100.348 150.671C100.718 149.149 104.633 142.914 104.633 142.914Z" fill="#161616" stroke="white" stroke-width="0.578331" stroke-miterlimit="10" stroke-linecap="round" stroke-linejoin="round"/>
<path d="M104.633 142.914C104.633 142.549 108.765 137.91 109.927 137.26C111.09 136.605 120.226 135.664 120.226 135.664" stroke="white" stroke-width="0.578331" stroke-miterlimit="10" stroke-linecap="round" stroke-linejoin="round"/>
<path d="M108.257 148.5C108.257 148.5 110.941 145.166 114.492 143.353C118.043 141.541 122.904 140.453 122.904 140.453" stroke="white" stroke-width="0.578331" stroke-miterlimit="10" stroke-linecap="round" stroke-linejoin="round"/>
<path d="M115.944 151.401C115.944 151.401 122.396 147.485 124.356 146.687C126.316 145.89 127.907 145.018 127.907 145.018" stroke="white" stroke-width="0.578331" stroke-miterlimit="10" stroke-linecap="round" stroke-linejoin="round"/>
<path d="M132.172 110.487C132.172 110.487 131.216 105.331 130.882 100.155C130.547 94.9785 130.882 90.3884 130.882 90.3884" stroke="white" stroke-width="0.578331" stroke-miterlimit="10" stroke-linecap="round" stroke-linejoin="round"/>
<path d="M90.3891 114.226C90.3891 114.226 82.3712 118.787 80.416 119.54C78.4607 120.294 77.7072 120.141 76.8059 119.289C75.9046 118.437 70.9895 116.984 70.039 116.733C69.0884 116.482 66.9805 116.23 66.2319 116.935C65.4784 117.634 64.5279 119.54 64.5279 119.54C64.5279 119.54 63.2769 119.24 62.5234 120.944C61.7699 122.648 61.169 125.302 61.1197 126.209C61.0705 127.11 62.021 129.469 62.021 129.469C62.021 129.469 62.2229 131.976 63.075 133.429C63.927 134.882 65.6803 135.985 66.4338 136.083C67.1874 136.182 74.8556 135.783 75.2545 135.231C75.6535 134.68 75.8061 133.374 75.8061 133.374C75.8061 133.374 77.5594 133.025 78.0126 132.572C78.4657 132.119 79.4654 131.67 79.4654 131.67L106.179 128.765C106.179 128.765 109.134 122.298 104.824 117.284C100.515 112.271 90.3891 114.226 90.3891 114.226Z" fill="#161616" stroke="white" stroke-width="0.578331" stroke-miterlimit="10" stroke-linecap="round" stroke-linejoin="round"/>
<path d="M152.316 37.3076L153.922 40.8536L148.125 47.1478L145.682 44.3652L152.316 37.3076Z" fill="#161616"/>
<path d="M71.7988 134.778C71.7988 134.778 69.4939 134.729 67.1398 133.276C64.7856 131.823 62.0276 129.469 62.0276 129.469" stroke="white" stroke-width="0.578331" stroke-miterlimit="10" stroke-linecap="round" stroke-linejoin="round"/>
<path d="M146.204 81.7547C146.204 81.7547 146.904 77.0217 147.041 74.3868C147.179 71.752 147.125 72.0425 147.125 72.0425L159.999 49.7273L157.645 46.265L164.973 44.7678L172.858 51.7367C172.858 51.7367 166.717 61.3996 160.058 68.3636C153.4 75.3275 146.204 81.7547 146.204 81.7547Z" fill="white" stroke="white" stroke-width="0.578331" stroke-linecap="round" stroke-linejoin="round"/>
<path d="M146.205 81.7552L147.042 72.6587L139.019 56.0466L137.566 66.5714L146.205 81.7552Z" fill="white" stroke="white" stroke-width="0.578331" stroke-linecap="round" stroke-linejoin="round"/>
<path d="M140.899 60.1443L139.772 65.02" stroke="white" stroke-width="0.578331" stroke-miterlimit="10" stroke-linecap="round" stroke-linejoin="round"/>
<path d="M153.089 38.2771L157.64 46.2655" stroke="white" stroke-width="0.578331" stroke-miterlimit="10" stroke-linecap="round" stroke-linejoin="round"/>
<path d="M180.873 131.857L176.775 107.439" stroke="white" stroke-width="0.578331" stroke-miterlimit="10" stroke-linecap="round" stroke-linejoin="round"/>
<path d="M76.1175 121.737L75.6545 123.352C75.6545 123.352 72.5961 125.357 72.5961 126.761C72.5961 128.164 73.197 129.267 74.3002 129.469C75.4034 129.671 77.2552 128.918 78.7622 127.864C80.2643 126.81 81.471 125.707 81.668 125.155" fill="#161616"/>
<path d="M76.1175 121.737L75.6545 123.352C75.6545 123.352 72.5961 125.357 72.5961 126.761C72.5961 128.164 73.197 129.267 74.3002 129.469C75.4034 129.671 77.2552 128.918 78.7622 127.864C80.2643 126.81 81.471 125.707 81.668 125.155" stroke="white" stroke-width="0.578331" stroke-miterlimit="10" stroke-linecap="round" stroke-linejoin="round"/>
<path d="M69.4093 121.534L68.7395 123.298C68.7395 123.298 72.2461 126.957 72.7484 128.863C73.2508 130.769 72.7484 131.818 72.1476 132.222C71.5467 132.621 70.6947 132.921 70.345 132.571C69.9953 132.222 63.8785 125.957 63.3761 125.204C62.8738 124.45 62.2729 121.795 62.2729 121.795" fill="#161616"/>
<path d="M69.4093 121.534L68.7395 123.298C68.7395 123.298 72.2461 126.957 72.7484 128.863C73.2508 130.769 72.7484 131.818 72.1476 132.222C71.5467 132.621 70.6947 132.921 70.345 132.571C69.9953 132.222 63.8785 125.957 63.3761 125.204C62.8738 124.45 62.2729 121.795 62.2729 121.795" stroke="white" stroke-width="0.578331" stroke-miterlimit="10" stroke-linecap="round" stroke-linejoin="round"/>
<path d="M100.791 109.039C100.791 109.039 107.7 109.448 111.778 114.545" stroke="white" stroke-width="0.578331" stroke-miterlimit="10" stroke-linecap="round" stroke-linejoin="round"/>
<path d="M140.014 22.674C140.014 22.674 141.792 24.2549 140.797 26.8504C139.886 29.2243 138.428 30.1256 136.251 30.165C133.444 30.2191 132.169 29.0568 131.321 27.2986C130.528 25.6536 131.765 22.8464 131.765 22.8464C131.765 22.8464 131.912 23.6147 132.444 23.6738C133.434 23.792 132.932 22.0781 132.927 21.1817C132.922 20.049 133.951 19.0787 134.823 18.2612C135.695 17.4436 136.448 17.0398 136.448 17.0398C136.448 17.0398 135.926 19.394 136.335 20.0687C136.788 20.8173 137.379 19.9308 137.379 19.9308C137.379 19.9308 138.32 21.1177 138.384 22.0929C138.448 23.068 138.325 24.0875 139.123 24.2008C139.911 24.319 140.014 22.674 140.014 22.674Z" fill="#F48B44"/>
<path d="M136.435 29.983C136.676 29.9683 136.903 29.8698 137.08 29.7072C137.381 29.4265 137.849 28.9045 138.159 28.1312C138.641 26.9148 138.07 25.6441 138.07 25.6441C138.07 25.6441 137.77 26.1169 137.523 25.6146C137.282 25.1122 137.248 23.3638 136.647 22.5167C136.046 21.6745 135.342 21.3347 135.342 21.3347C135.342 21.3347 135.967 23.5411 135.179 24.8413C134.386 26.1415 134.007 25.9495 133.918 27.2398C133.825 28.609 135.312 29.7023 135.667 29.8895C135.859 29.9929 136.184 30.0027 136.435 29.983Z" fill="#FA1B43"/>
<path d="M136.084 25.166C136.084 25.166 135.69 25.8013 135.227 26.7371C134.764 27.6728 135.055 29.1454 136.02 29.3818C136.985 29.6232 137.364 28.0964 137.281 27.6581C137.197 27.2148 137.079 26.8504 137.079 26.8504L136.793 27.4118C136.793 27.4118 136.719 27.5251 136.631 26.6386C136.537 25.7472 136.084 25.166 136.084 25.166Z" fill="white"/>
<path d="M128.551 23.5366C128.551 23.5366 130.329 25.1175 129.334 27.713C128.423 30.0868 126.965 30.9881 124.788 31.0275C121.981 31.0817 120.706 29.9194 119.859 28.1611C119.066 26.5162 120.302 23.7089 120.302 23.7089C120.302 23.7089 120.45 24.4772 120.981 24.5363C121.971 24.6545 121.469 22.9406 121.464 22.0443C121.459 20.9115 122.488 19.9413 123.36 19.1237C124.232 18.3062 124.985 17.9023 124.985 17.9023C124.985 17.9023 124.463 20.2565 124.872 20.9312C125.325 21.6798 125.916 20.7933 125.916 20.7933C125.916 20.7933 126.857 21.9803 126.921 22.9554C126.985 23.9306 126.862 24.95 127.66 25.0633C128.458 25.1766 128.551 23.5366 128.551 23.5366Z" fill="#F48B44"/>
<path d="M124.972 30.85C125.214 30.8352 125.44 30.7367 125.617 30.5742C125.918 30.2935 126.386 29.7714 126.696 28.9982C127.179 27.7817 126.607 26.511 126.607 26.511C126.607 26.511 126.307 26.9839 126.061 26.4815C125.819 25.9791 125.785 24.2308 125.184 23.3837C124.583 22.5415 123.879 22.2017 123.879 22.2017C123.879 22.2017 124.504 24.4081 123.716 25.7083C122.923 27.0085 122.544 26.8164 122.455 28.1068C122.362 29.4759 123.849 30.5693 124.204 30.7564C124.396 30.8598 124.721 30.8648 124.972 30.85Z" fill="#FA1B43"/>
<path d="M124.626 26.0332C124.626 26.0332 124.232 26.6685 123.769 27.6043C123.306 28.54 123.597 30.0126 124.562 30.249C125.527 30.4854 125.906 28.9636 125.823 28.5253C125.739 28.082 125.621 27.7176 125.621 27.7176L125.335 28.279C125.335 28.279 125.261 28.3923 125.173 27.5058C125.079 26.6144 124.626 26.0332 124.626 26.0332Z" fill="white"/>
<path fill-rule="evenodd" clip-rule="evenodd" d="M185.801 133.744C185.317 133.486 184.804 133.019 183.222 131.396C178.434 126.486 174.16 127.689 174.367 126.71C174.569 125.747 178.95 124.258 183.06 122.228C187.259 120.155 187.251 120.158 188.098 120.406C188.989 120.667 188.75 120.396 194.233 127.362C196.967 130.837 197.907 131.997 197.995 132.006C198.132 132.019 200.574 128.561 200.599 128.32C200.609 128.219 198.654 125.41 197.991 124.573L197.69 124.194L197.41 124.437C197.256 124.57 196.83 124.97 196.464 125.327C195.894 125.881 195.478 126.852 195.155 127.147C194.817 126.996 194.718 126.967 194.702 126.965C194.57 126.952 193.935 126.063 193.995 125.975C194.221 125.645 197.185 123.125 197.366 123.107C197.963 123.049 198.173 123.411 200.099 126.173C201.26 127.839 201.319 127.96 201.292 128.61L201.278 128.956L201.057 129.339C200.743 129.886 199.349 132.071 198.974 132.606C198.528 133.24 198.287 133.384 197.823 133.293C197.434 133.216 197.147 132.89 193.852 128.791C188.971 122.722 188.053 121.627 187.873 121.665C187.526 121.738 180.272 125.52 180.259 125.652C180.241 125.833 186.063 131.988 186.514 132.278C186.822 132.477 187.018 132.212 188.976 130.485C189.095 130.38 189.799 129.747 190.54 129.078C191.281 128.408 191.939 127.818 192.002 127.764L192.116 127.668L192.672 127.839C193.07 128.315 192.994 128.73 192.941 128.785C192.828 128.902 190.785 130.919 190.143 131.548C188.104 133.547 187.713 133.828 186.898 133.886C186.393 133.922 186.052 133.878 185.801 133.744Z" fill="#AEAEAE"/>
<path fill-rule="evenodd" clip-rule="evenodd" d="M201.104 127.915C201.4 128.282 201.142 128.828 200.671 128.832L197.003 128.868C196.901 128.869 196.826 128.773 196.852 128.674C196.867 128.619 196.91 128.577 196.965 128.564L200.535 127.72C200.747 127.67 200.968 127.746 201.104 127.915Z" fill="black"/>
<path fill-rule="evenodd" clip-rule="evenodd" d="M180.767 126.05C180.913 126.423 180.652 126.829 180.253 126.853L173.176 127.277C172.873 127.295 172.739 126.902 172.99 126.731C173.02 126.711 173.053 126.696 173.088 126.688L179.833 125.06C180.12 124.991 180.414 125.144 180.521 125.419L180.767 126.05Z" fill="black"/>
<path fill-rule="evenodd" clip-rule="evenodd" d="M186.601 133.659C186.137 133.412 185.644 132.963 184.126 131.406C179.53 126.693 179.426 126.56 179.624 125.621C179.819 124.696 180.024 124.554 183.97 122.606C188.001 120.616 187.993 120.619 188.806 120.857C189.661 121.107 189.432 120.847 194.694 127.534C197.32 130.87 198.222 131.983 198.307 131.991C198.438 132.004 200.782 128.685 200.805 128.454C200.815 128.356 198.939 125.66 198.302 124.857L198.013 124.493L197.744 124.726C197.596 124.854 197.188 125.238 196.836 125.58C195.929 126.463 195.183 127.157 195.145 127.153C195.018 127.14 194.409 126.287 194.467 126.202C194.683 125.885 197.528 123.466 197.702 123.449C198.275 123.393 198.477 123.741 200.325 126.393C201.44 127.991 201.497 128.108 201.471 128.731L201.457 129.063L201.245 129.431C200.944 129.956 199.606 132.054 199.246 132.567C198.818 133.176 198.586 133.315 198.141 133.227C197.768 133.153 197.493 132.841 194.329 128.906C189.644 123.079 188.763 122.028 188.59 122.065C188.257 122.135 181.294 125.766 181.281 125.892C181.264 126.066 186.852 131.974 187.286 132.253C187.581 132.443 187.769 132.189 189.649 130.531C189.763 130.431 190.439 129.823 191.15 129.181C191.862 128.538 192.493 127.971 192.553 127.92L192.663 127.827L193.087 128.334C193.47 128.791 193.506 128.847 193.454 128.9C193.346 129.012 191.385 130.948 190.769 131.552C188.812 133.47 188.437 133.741 187.654 133.796C187.169 133.831 186.842 133.788 186.601 133.659Z" fill="black"/>
<path d="M137.287 75.5863C137.287 75.5863 137.532 69.4354 134.457 65.502C131.381 61.5687 128.615 58.6391 127.372 58.0905C126.129 57.5419 124.338 57.1918 123.439 55.8145C122.54 54.4373 120.819 52.0913 119.091 51.8812C117.37 51.6769 113.366 50.9825 113.366 50.9825L110.472 48.0178V46.4305C110.472 46.4305 112.263 46.5706 112.952 46.0162C113.641 45.4618 115.782 40.0169 115.228 38.4296C114.674 36.8422 112.468 35.8793 112.468 35.8793C112.468 35.8793 108.744 24.5695 103.708 22.4336C98.6716 20.2976 82.5355 24.3652 82.5355 24.3652C82.5355 24.3652 81.3626 36.3637 81.2925 36.1594C81.2225 35.9552 77.4992 35.1265 77.4992 35.1265C77.4992 35.1265 77.4992 41.6801 78.9465 42.573C80.3938 43.4717 81.1525 43.606 81.1525 43.606C81.1525 43.606 80.5339 47.195 81.4267 50.2938C82.3196 53.3927 84.4614 56.5674 84.4614 56.5674C84.4614 56.5674 73.1515 60.6349 70.8756 62.8409C68.5996 65.0468 60.6687 75.528 58.1184 80.9086C55.5681 86.2893 54.8095 88.6995 53.2222 89.9425C51.6348 91.1855 49.3588 92.7028 48.6702 93.3915C47.9816 94.0801 47.0128 95.5974 45.9799 98.0135C44.9469 100.429 39.7705 106.633 39.7705 106.633L65.0806 108.769C65.0806 108.769 71.4941 104.287 73.2157 102.425C74.9373 100.564 75.6318 99.3207 75.6318 99.3207L79.355 108.769C79.355 108.769 49.0787 108.215 44.8711 107.736C40.6634 107.252 33.7655 106.079 30.7308 105.6C27.6962 105.116 12.6631 101.877 10.7314 102.495C8.79977 103.114 4.17778 105.326 2.87056 106.907C1.5575 108.495 -0.43837 113.391 0.594574 115.941C1.62752 118.491 6.10945 120.633 6.93814 120.837C7.76683 121.042 11.2158 122.08 12.0387 122.285C12.8615 122.489 14.5189 123.043 15.6919 122.425C16.8649 121.806 18.3822 120.767 18.3822 120.767C18.3822 120.767 20.9325 120.079 22.8641 119.524C24.7958 118.97 32.0381 118.491 33.3453 118.421C34.6584 118.351 40.6576 120.009 40.6576 120.009C40.6576 120.009 39.3445 122.355 39.6947 123.318C40.039 124.281 43.7623 128.833 43.7623 128.833L47.8999 128.418L49.2129 130.14L53.4206 128.967L55.1421 129.93L58.0367 129.515C58.0367 129.515 86.5856 123.86 91.2076 119.583C95.8296 115.305 128.796 93.8583 128.796 93.8583L137.287 75.5863Z" fill="#161616"/>
<path d="M114.107 51.4873C114.107 51.4873 120.918 52.2751 122.645 54.5686C124.373 56.8621 126.094 57.8484 128.061 58.7529C130.028 59.6575 137.089 67.0398 137.089 69.9986" stroke="white" stroke-miterlimit="10" stroke-linecap="round" stroke-linejoin="round"/>
<path d="M69.7522 126.495C69.7522 126.495 35.2312 118.112 32.5759 118.433C29.9206 118.748 26.5766 118.999 25.3102 118.999C24.0439 118.999 21.4586 120.516 19.6903 120.58C17.9221 120.644 17.9221 120.644 17.9221 120.644C17.9221 120.644 16.218 122.605 14.1346 122.664C12.0512 122.728 10.3472 121.339 10.3472 121.339C10.3472 121.339 7.50514 121.403 6.23876 120.452C4.97822 119.506 5.22914 117.481 5.22914 117.481C5.22914 117.481 2.83063 116.658 2.25872 115.713C1.69264 114.768 1.94356 112.807 1.94356 112.807C1.94356 112.807 0.998146 108.955 1.50003 108.068C2.00775 107.181 9.33173 102.571 11.4151 102.512C13.4985 102.448 21.587 104.532 26.0689 105.104C30.5508 105.67 38.5751 106.557 45.6481 107.502C52.7212 108.447 71.6701 109.019 76.5956 108.955C81.521 108.891 84.5557 107.881 84.5557 107.881" stroke="white" stroke-miterlimit="10" stroke-linecap="round" stroke-linejoin="round"/>
<path d="M8.74845 107.059C8.86517 106.773 2.34654 111.5 2.05475 112.422" stroke="white" stroke-miterlimit="10" stroke-linecap="round" stroke-linejoin="round"/>
<path d="M11.0237 111.377C11.0995 111.073 5.25787 116.617 5.09447 117.574" stroke="white" stroke-miterlimit="10" stroke-linecap="round" stroke-linejoin="round"/>
<path d="M13.5984 115.946C13.6743 115.643 10.0502 120.136 9.88099 121.094" stroke="white" stroke-miterlimit="10" stroke-linecap="round" stroke-linejoin="round"/>
<path d="M79.6309 108.272C79.6309 108.272 77.0631 104.17 75.0147 98.0128C72.9605 91.856 71.3206 84.3687 71.3206 84.3687" stroke="white" stroke-miterlimit="10" stroke-linecap="round" stroke-linejoin="round"/>
<path d="M84.1064 56.7595C84.1064 56.7595 77.6228 59.2223 74.1739 60.617C70.7249 62.0118 67.2817 66.0327 64.5739 70.713C61.8661 75.3933 59.4034 79.5776 57.7635 82.1221C56.1236 84.6665 55.4642 85.9796 54.2328 88.6057C53.0014 91.2318 51.1982 92.2181 49.5525 93.1168C47.9126 94.0213 47.0897 95.8246 45.3682 99.1919C43.6466 102.559 39.7074 106.743 39.7074 106.743" stroke="white" stroke-miterlimit="10" stroke-linecap="round" stroke-linejoin="round"/>
<path d="M113.839 36.7192C113.839 36.7192 111.458 40.2907 109.498 40.0807C107.537 39.8706 106.276 36.0189 105.786 33.7138C105.296 31.4028 105.786 26.9967 97.4583 27.9713C89.1305 28.9459 84.9929 29.1618 82.1859 27.3118C78.8711 25.1234 79.6006 20.8866 80.4468 18.1729C81.2405 15.6168 85.6991 9.91521 85.9092 10.0553C86.1192 10.1953 88.3602 13.5568 91.6516 14.187C94.943 14.8173 108.593 15.0274 111.879 19.1592C115.17 23.2909 114.61 27.4169 114.4 30.078C114.19 32.7275 113.839 36.7192 113.839 36.7192Z" fill="white"/>
<path d="M82.0056 24.6912C82.0056 24.6912 80.6925 42.9165 81.387 47.9353C82.0815 52.9541 85.0169 60.5991 90.4209 61.6845C95.8249 62.7642 100.149 60.0622 103.009 56.4323" stroke="white" stroke-miterlimit="10" stroke-linecap="round" stroke-linejoin="round"/>
<path d="M112.591 36.818C112.591 36.818 114.984 36.1236 115.293 38.1311C115.603 40.1386 114.29 45.6243 112.743 46.2429C111.197 46.8615 110.426 46.2429 110.426 46.2429L109.808 54.8158" stroke="white" stroke-miterlimit="10" stroke-linecap="round" stroke-linejoin="round"/>
<path d="M86.9999 60.2837C86.9999 60.2837 84.7122 70.5781 85.8269 72.0604C86.9415 73.5427 89.9995 74.1963 91.0208 77.441C92.042 80.6858 97.8662 91.6922 97.8662 91.6922" stroke="white" stroke-miterlimit="10" stroke-linecap="round" stroke-linejoin="round"/>
<path d="M111.534 49.9602C111.534 49.9602 110.262 55.9653 105.529 62.9683C100.796 69.9713 99.524 71.7921 99.3431 73.9747C99.1622 76.1573 99.6174 77.2486 99.0688 78.0656C98.5203 78.8826 97.8842 84.2516 97.8842 86.6151C97.8842 88.9786 98.0651 92.0716 98.0651 92.0716" stroke="white" stroke-miterlimit="10" stroke-linecap="round" stroke-linejoin="round"/>
<path d="M90.5306 65.5125C90.5306 65.5125 97.0726 84.5781 97.3994 88.7624" stroke="white" stroke-miterlimit="10" stroke-linecap="round" stroke-linejoin="round"/>
<path d="M96.0457 41.8834C95.5365 41.8834 95.1236 41.4706 95.1236 40.9614C95.1236 40.4521 95.5365 40.0393 96.0457 40.0393C96.555 40.0393 96.9678 40.4521 96.9678 40.9614C96.9678 41.4706 96.555 41.8834 96.0457 41.8834Z" fill="white"/>
<path d="M83.3817 40.3895C82.8724 40.3895 82.4596 39.9767 82.4596 39.4675C82.4596 38.9582 82.8724 38.5454 83.3817 38.5454C83.8909 38.5454 84.3037 38.9582 84.3037 39.4675C84.3037 39.9767 83.8909 40.3895 83.3817 40.3895Z" fill="white"/>
<path d="M88.7383 42.2859C88.7383 42.2859 88.5633 44.6436 87.933 46.0267C87.2969 47.4098 86.8417 48.3318 86.8417 48.3318C86.8417 48.3318 87.8805 49.0788 89.7188 48.9679" stroke="white" stroke-miterlimit="10" stroke-linecap="round" stroke-linejoin="round"/>
<path d="M95.0703 52.8779C95.0703 52.8779 93.6289 53.1639 91.4463 52.9363C89.2578 52.7087 87.6471 51.6699 87.6471 51.6699C87.6471 51.6699 87.0694 54.6053 89.6605 55.294C92.2458 55.9884 95.0703 52.8779 95.0703 52.8779Z" fill="white"/>
<path d="M89.6489 61.7661L90.9619 72.4223" stroke="white" stroke-miterlimit="10" stroke-linecap="round" stroke-linejoin="round"/>
<path d="M110.99 75.2468C110.99 75.2468 105.166 82.8859 104.075 85.0685C102.983 87.2512 100.346 90.2508 95.4319 94.3475C90.5181 98.4384 90.2497 99.5297 89.065 100.895C87.8803 102.261 85.6977 103.626 84.9741 104.718C84.2504 105.809 83.3342 106.626 83.3342 106.626C83.3342 106.626 85.8786 108.628 86.8824 109.812C87.8803 110.997 90.4306 114.178 90.4306 114.178" stroke="white" stroke-miterlimit="10" stroke-linecap="round" stroke-linejoin="round"/>
<path d="M110.636 48.5188C110.636 48.5188 114.715 52.7381 115.211 54.378C115.707 56.0179 116.524 58.3172 116.606 58.9708C116.687 59.6244 113.816 62.8283 110.612 66.6858C107.414 70.5432 105.442 75.0543 105.033 75.9589C104.625 76.8635 103.884 74.319 102.571 73.6596C101.257 73.006 99.3492 73.9747 99.3492 73.9747" stroke="white" stroke-miterlimit="10" stroke-linecap="round" stroke-linejoin="round"/>
<path d="M101.286 38.5569C101.286 38.5569 103.159 40.2232 102.111 42.9588C101.151 45.4609 99.614 46.4108 97.3196 46.4524C94.3608 46.5095 93.0163 45.2844 92.1235 43.4312C91.2877 41.6974 92.5907 38.7386 92.5907 38.7386C92.5907 38.7386 92.7464 39.5484 93.307 39.6106C94.3504 39.7352 93.8209 37.9288 93.8157 36.984C93.8105 35.7901 94.8955 34.7675 95.8143 33.9058C96.7331 33.0441 97.5273 32.6184 97.5273 32.6184C97.5273 32.6184 96.977 35.0997 97.4079 35.8109C97.8854 36.5999 98.5084 35.6655 98.5084 35.6655C98.5084 35.6655 99.4998 36.9165 99.5673 37.9443C99.6348 38.9722 99.505 40.0467 100.346 40.1661C101.177 40.2907 101.286 38.5569 101.286 38.5569Z" fill="#F48B44"/>
<path d="M96.7261 45.8656C96.9804 45.85 97.2192 45.7462 97.4061 45.5749C97.7227 45.279 98.2159 44.7288 98.5429 43.9138C99.0516 42.6316 98.4495 41.2923 98.4495 41.2923C98.4495 41.2923 98.1328 41.7907 97.8733 41.2612C97.6189 40.7317 97.5826 38.8889 96.9493 37.9961C96.316 37.1084 95.5737 36.7502 95.5737 36.7502C95.5737 36.7502 96.2329 39.0758 95.4023 40.4462C94.5666 41.8166 94.1669 41.6142 94.0735 42.9742C93.9748 44.4173 95.5425 45.5697 95.9163 45.767C96.1187 45.876 96.4613 45.8864 96.7261 45.8656Z" fill="#FA1B43"/>
<path d="M96.3576 40.7891C96.3576 40.7891 95.9423 41.4587 95.4543 42.445C94.9664 43.4313 95.2727 44.9834 96.2901 45.2325C97.3075 45.4869 97.7072 43.8777 97.619 43.4157C97.5307 42.9485 97.4062 42.5644 97.4062 42.5644L97.1051 43.1561C97.1051 43.1561 97.0272 43.2755 96.9338 42.3412C96.8351 41.4016 96.3576 40.7891 96.3576 40.7891Z" fill="white"/>
<path d="M86.6644 37.6035C86.6644 37.6035 88.5384 39.2698 87.4898 42.0055C86.5295 44.5075 84.9929 45.4575 82.6985 45.499C79.7397 45.5561 78.3952 44.331 77.5024 42.4778C76.6666 40.744 77.9696 37.7852 77.9696 37.7852C77.9696 37.7852 78.1253 38.595 78.6859 38.6573C79.7293 38.7819 79.1998 36.9754 79.1946 36.0306C79.1894 34.8367 80.2743 33.8141 81.1931 32.9524C82.1119 32.0907 82.9062 31.665 82.9062 31.665C82.9062 31.665 82.3559 34.1463 82.7868 34.8575C83.2643 35.6465 83.8873 34.7121 83.8873 34.7121C83.8873 34.7121 84.8787 35.9632 84.9462 36.991C85.0137 38.0188 84.8839 39.0933 85.7249 39.2127C86.5658 39.3321 86.6644 37.6035 86.6644 37.6035Z" fill="#F48B44"/>
<path d="M82.4223 45.2299C82.6767 45.2143 82.9155 45.1105 83.1024 44.9392C83.419 44.6433 83.9122 44.093 84.2392 43.278C84.7479 41.9959 84.1457 40.6566 84.1457 40.6566C84.1457 40.6566 83.8291 41.1549 83.5695 40.6255C83.3152 40.096 83.2789 38.2532 82.6456 37.3603C82.0123 36.4727 81.2699 36.1145 81.2699 36.1145C81.2699 36.1145 81.9292 38.4401 81.0986 39.8105C80.2629 41.1809 79.8632 40.9784 79.7698 42.3385C79.6711 43.7816 81.2388 44.934 81.6125 45.1312C81.815 45.2402 82.1576 45.2454 82.4223 45.2299Z" fill="#FA1B43"/>
<path d="M82.0588 40.1528C82.0588 40.1528 81.6435 40.8225 81.1555 41.8088C80.6676 42.795 80.9738 44.3471 81.9913 44.5963C83.0087 44.8455 83.4084 43.2415 83.3202 42.7795C83.2319 42.3123 83.1073 41.9282 83.1073 41.9282L82.8063 42.5199C82.8063 42.5199 82.7284 42.6393 82.6349 41.7049C82.5363 40.7654 82.0588 40.1528 82.0588 40.1528Z" fill="white"/>
</svg>
