<svg width="221" height="67" viewBox="0 0 221 67" fill="none" xmlns="http://www.w3.org/2000/svg">
<path d="M31.3336 27.8094C31.3336 27.8094 30.0386 21.869 28.9454 19.3256C27.8522 16.7823 26.2178 14.8466 25.0672 15.0045C23.9166 15.1625 25.5772 18.7303 25.6951 19.4314C25.8075 20.1331 23.9816 18.6394 20.9851 18.1596C17.9886 17.6798 14.2489 16.9741 12.8195 17.2976C11.3901 17.6212 11.3236 18.9774 11.3236 18.9774C11.3236 18.9774 9.04362 19.6494 8.76162 20.9528C8.47387 22.2513 8.71881 22.1577 8.71881 22.1577C8.71881 22.1577 7.36659 22.4967 7.44617 23.8363C7.52607 25.1813 8.48123 24.9422 8.48123 24.9422C8.48123 24.9422 9.85209 24.9169 12.3105 25.5983C15.1012 26.3716 17.2382 27.051 17.2382 27.051C17.2382 27.051 13.4669 28.1956 12.7467 29.4579C12.0266 30.7202 12.2646 31.0597 12.2646 31.0597C12.2646 31.0597 13.3023 31.4765 15.3529 30.6085C17.4034 29.7406 18.5031 30.0084 20.1872 30.3061C21.8713 30.6038 26.5948 33.2952 26.5948 33.2952L31.3336 27.8094Z" fill="#161616" stroke="white" stroke-width="0.704463" stroke-linecap="round" stroke-linejoin="round"/>
<path d="M75.3338 61.4518C75.3338 61.4518 68.4407 59.1221 62.9682 57.042C57.4903 54.9624 46.0378 48.5806 42.7428 46.3332C39.4478 44.0858 25.0995 33.2931 25.0995 33.2931L30.8487 27.0892C30.8487 27.0892 42.1488 33.0135 48.8976 34.0464C55.6464 35.0793 79.3252 42.5529 82.0136 44.8469C84.7019 47.1409 75.2639 62.289 75.2639 62.289L75.3338 61.4518Z" fill="#F48B44" stroke="white" stroke-width="0.704463" stroke-miterlimit="10"/>
<path d="M11.316 18.8986C11.316 18.8986 17.3588 19.9673 19.8408 21.1862" stroke="white" stroke-width="0.704463" stroke-linecap="round" stroke-linejoin="round"/>
<path d="M9.43811 21.9078C9.43811 21.9078 15.4809 22.9766 17.9628 24.1955" stroke="white" stroke-width="0.704463" stroke-linecap="round" stroke-linejoin="round"/>
<path d="M78.2802 66.7201L84.0361 51.9993C84.0361 51.9993 91.4592 52.1644 91.9469 45.5254C92.4345 38.8864 96.1196 32.2056 91.9456 29.4595C87.7717 26.7133 81.3815 25.6738 80.5978 26.1315C79.8086 26.5897 75.5374 27.9226 74.7838 28.9796C74.0302 30.0366 73.2807 31.1632 73.2807 31.1632C73.2807 31.1632 68.251 38.0816 67.7523 41.1226C67.2536 44.1636 70.5128 46.9303 70.1765 49.2927C69.8402 51.6551 78.2802 66.7201 78.2802 66.7201Z" fill="#161616"/>
<path d="M84.8476 38.0447C84.8476 38.0447 86.0784 34.6244 82.6532 34.247" stroke="white" stroke-width="0.352231" stroke-miterlimit="10" stroke-linecap="round" stroke-linejoin="round"/>
<path d="M76.5574 28.5151C76.5574 28.5151 80.1716 28.2041 79.6471 31.6199" stroke="white" stroke-width="0.352231" stroke-miterlimit="10" stroke-linecap="round" stroke-linejoin="round"/>
<path d="M81.3298 39.2428C82.0796 39.1851 82.652 38.5419 82.6083 37.8061C82.5646 37.0703 81.9214 36.5207 81.1716 36.5784C80.4218 36.6361 79.8494 37.2793 79.893 38.0151C79.9367 38.7508 80.58 39.3005 81.3298 39.2428Z" fill="white"/>
<path d="M76.5837 33.0741C77.3334 33.0164 77.9059 32.3732 77.8622 31.6374C77.8185 30.9016 77.1753 30.352 76.4255 30.4097C75.6757 30.4674 75.1033 31.1106 75.147 31.8464C75.1906 32.5821 75.8339 33.1318 76.5837 33.0741Z" fill="white"/>
<path d="M195.64 49.6185C195.64 49.6185 196.303 44.6605 197.525 42.6664C198.746 40.6724 208.982 33.2301 208.982 33.2301C208.982 33.2301 210.758 33.9031 211.562 33.3984C212.366 32.8938 213.311 32.6345 213.311 32.6345C213.311 32.6345 216.127 33.7383 216.78 33.1911C217.433 32.644 217.15 31.5532 215.919 30.725C214.688 29.8968 210.154 27.2759 205.523 28.2693C200.891 29.2628 197.284 31.2826 193.815 30.826C190.346 30.3694 187.805 30.8455 186.528 33.3804C185.251 35.9221 187.397 42.0835 187.358 45.0538C187.318 48.0241 185.928 54.8688 185.928 54.8688L195.64 49.6185Z" fill="#161616" stroke="white" stroke-width="0.704463" stroke-miterlimit="10" stroke-linecap="round" stroke-linejoin="round"/>
<path d="M81.1196 25.0596C81.1196 25.0596 74.3997 28.4249 70.2251 35.465C66.0501 42.4997 67.9027 45.1365 69.2923 47.0026C71.6124 50.1195 75.3171 50.4047 75.3171 50.4047" stroke="white" stroke-width="0.704463" stroke-linecap="round" stroke-linejoin="round"/>
<path d="M143.494 59.4179C143.494 59.4179 155.896 64.3331 160.737 65.5614C165.579 66.7898 175.177 70.32 175.177 70.32C177.312 61.7087 187.567 46.5153 187.567 46.5153L196.518 46.9332C196.518 46.9332 190.56 78.563 189.603 80.7707C188.645 82.9784 180.121 91.6808 175.515 92.0348C170.91 92.3889 136.247 79.443 136.247 79.443L143.494 59.4179Z" fill="#F48B44" stroke="white" stroke-width="0.704463" stroke-miterlimit="10"/>
<path d="M93.2014 44.1105C93.2014 44.1105 103.259 44.3994 110.974 46.3536C115.382 47.4703 118.129 48.0198 124.452 49.3865C130.775 50.7531 133.285 51.8826 140.736 53.9558C148.186 56.029 150.075 60.3765 150.075 60.3765C150.075 60.3765 145.401 61.5471 143.125 71.2118C138.179 79.2521 137.192 80.9128 136.504 83.0173C135.587 85.8233 133.876 89.5857 133.876 89.5857C133.876 89.5857 113.259 84.7925 107.169 84.3328C101.08 83.8731 94.4705 83.1043 88.0968 85.7893C81.7231 88.4744 74.6781 92.8208 64.9996 94.8458C57.5927 96.3955 49.3828 96.3733 41.1826 95.3789C34.8005 94.605 26.8334 91.3928 26.8334 91.3928C26.8334 91.3928 24.0394 88.6875 25.2688 83.3831C26.4982 78.0788 26.0614 78.489 26.0614 78.489C26.0614 78.489 46.5924 78.1242 51.8224 78.1846C57.0581 78.2497 63.2105 77.0365 67.3906 75.3327C71.5704 73.6237 71.982 68.4981 71.982 68.4981C71.982 68.4981 62.9037 59.8115 69.3746 49.5305C79.274 56.2467 90.872 50.3196 92.0292 47.8004C93.1861 45.2759 93.2014 44.1105 93.2014 44.1105Z" fill="#F48B44" stroke="white" stroke-width="0.704463" stroke-miterlimit="10"/>
<path d="M78.0928 35.2668C78.0928 35.2668 76.7709 36.2125 75.7235 36.4587C74.676 36.7048 74.2727 36.5168 74.2727 36.5168L74.8978 38.6054" stroke="white" stroke-width="0.704463" stroke-linecap="round" stroke-linejoin="round"/>
<path d="M70.67 42.9927C71.1546 43.1927 71.7826 42.7985 72.0727 42.112C72.3629 41.4256 72.2052 40.7069 71.7207 40.5068C71.2361 40.3067 70.6081 40.701 70.3179 41.3874C70.0278 42.0739 70.1855 42.7926 70.67 42.9927Z" fill="white"/>
<path d="M81.7701 50.8723C81.7701 50.8723 82.5076 49.628 83.6242 49.6873C84.7408 49.7466 87.7699 49.7878 88.3578 48.0553C88.9174 46.4003 87.5723 45.6332 86.5847 45.161C85.5971 44.6888 84.5008 42.8494 85.6303 40.6347C86.4107 39.097 90.6195 32.7875 90.6195 32.7875C90.6195 32.7875 85.7649 32.1988 84.6949 29.3257C83.8008 26.9226 79.5169 28.1869 78.5089 26.8189C75.6875 22.9842 81.0384 17.1619 81.0384 17.1619C81.0384 17.1619 82.6166 21.7584 86.2631 22.4078C91.123 23.2701 98.38 24.6091 100.574 31.7268C102.768 38.8446 101.33 42.7756 98.7316 45.0065C96.1336 47.2373 95.5602 47.8295 94.1481 49.6253C92.7361 51.4211 91.1531 52.8324 88.9235 53.6969C88.9235 53.6969 85.8278 54.3809 84.205 53.4632C82.5823 52.5454 81.7701 50.8723 81.7701 50.8723Z" fill="white"/>
</svg>
