<svg width="149" height="168" viewBox="0 0 149 168" fill="none" xmlns="http://www.w3.org/2000/svg">
<path d="M62.4733 53.5021L62.7731 53.2852C62.2542 52.5677 61.7938 51.3417 61.4078 49.7887C61.0248 48.2475 60.7248 46.426 60.5059 44.5504C60.0676 40.7954 59.9589 36.8627 60.1476 34.5856C60.2693 33.1166 60.8876 31.3683 61.5247 29.567C61.639 29.2438 61.7539 28.9188 61.8667 28.5935C62.2321 27.539 62.5714 26.4866 62.7711 25.5067C62.97 24.5309 63.0384 23.5916 62.8321 22.7749C62.7202 22.3319 62.5676 21.8339 62.4013 21.291C61.9884 19.9437 61.4911 18.3207 61.3225 16.5803C61.0895 14.1749 61.5054 11.6497 63.6907 9.56515L63.4353 9.2974L63.6907 9.56515C65.5613 7.78071 67.1601 6.972 68.7955 6.35211C69.2765 6.16979 69.7688 6.00151 70.2765 5.82796C71.4855 5.41468 72.7818 4.97157 74.22 4.23813C74.5661 4.06182 74.9339 3.86604 75.3225 3.65921C78.8573 1.77772 84.1112 -1.01881 90.3376 1.59541C93.3963 2.88113 94.9978 4.70473 96.289 6.51147C96.5349 6.85554 96.775 7.2075 97.0137 7.55736C97.3931 8.11336 97.7689 8.66409 98.1584 9.16954C98.8053 10.009 99.5285 10.7791 100.476 11.3824L100.476 11.3824C100.837 11.612 101.199 11.8336 101.56 12.0546C103.024 12.9514 104.47 13.837 105.757 15.2015C107.343 16.8842 108.691 19.3105 109.396 23.4018M62.4733 53.5021L109.76 23.3389M62.4733 53.5021L62.7732 53.2852C63.0456 53.662 63.1381 54.1876 63.1407 54.7549C63.1433 55.3333 63.052 56.0156 62.8997 56.7579C62.5948 58.2437 62.033 60.0279 61.4188 61.8115C61.073 62.8155 60.704 63.8377 60.3534 64.8089C60.0852 65.552 59.8277 66.2653 59.5996 66.9178C59.3336 67.6788 59.1041 68.3665 58.9341 68.9481C58.7624 69.5356 58.6581 69.9925 58.6318 70.3003M62.4733 53.5021L58.2631 70.269M109.396 23.4018L109.76 23.3389M109.396 23.4018L109.76 23.3389M109.396 23.4018C109.996 26.8876 109.597 29.498 109.256 31.7262C109.189 32.1639 109.124 32.5869 109.07 32.9988C108.905 34.2486 108.833 35.4174 109.118 36.5642C109.406 37.7212 110.048 38.8224 111.254 39.9612C112.495 41.1339 114.18 41.6765 115.972 42.0712C116.61 42.2118 117.258 42.3332 117.911 42.4557C119.128 42.6838 120.363 42.9153 121.588 43.2802C123.447 43.8337 125.207 44.6778 126.654 46.2296C128.101 47.781 129.263 50.0708 129.869 53.5653C130.79 58.8833 129.406 61.9938 127.521 64.0596C126.568 65.1038 125.475 65.8943 124.445 66.5717C124.188 66.7403 123.932 66.9038 123.682 67.0634C122.949 67.5322 122.266 67.9684 121.765 68.409C121.632 68.5258 121.334 68.727 120.864 69.0089C120.401 69.2857 119.794 69.6276 119.059 70.0241C117.591 70.8168 115.623 71.8228 113.313 72.9558C108.693 75.2216 102.709 77.9912 96.6103 80.5717C90.5102 83.1531 84.3052 85.5414 79.2409 87.0482C76.7076 87.8019 74.4718 88.3314 72.6832 88.5564C71.7889 88.6689 71.0166 88.7039 70.3805 88.6563C69.7399 88.6084 69.2658 88.4786 68.9455 88.2849M109.76 23.3389C110.372 26.8886 109.962 29.5613 109.621 31.7917C109.146 34.8906 108.802 37.1356 111.508 39.6922C113.073 41.1707 115.425 41.6122 117.951 42.0863C122.937 43.0222 128.602 44.0854 130.233 53.5021C131.764 62.3393 127.053 65.3492 123.859 67.39C123.134 67.8533 122.487 68.2667 122.009 68.6869C119.425 70.9583 74.9992 92.3789 68.754 88.6016C58.9985 82.6989 57.8652 74.9579 58.2631 70.269M68.9455 88.2849L68.7603 88.5912L68.9456 88.285C68.9455 88.285 68.9455 88.2849 68.9455 88.2849ZM68.9455 88.2849C64.1271 85.3695 61.4588 82.0142 60.039 78.8294C58.6175 75.6409 58.4368 72.5991 58.6318 70.3003M58.6318 70.3003C58.6318 70.3003 58.6318 70.3004 58.6318 70.3004L58.2631 70.269M58.6318 70.3003L58.2631 70.269" fill="#161616" stroke="white" stroke-width="0.740075"/>
<path d="M94.5554 37.0378L103.561 51.9104L90.763 78.5732L77.5877 49.6037L94.5554 37.0378Z" fill="#161616" stroke="white" stroke-width="0.740075" stroke-miterlimit="10" stroke-linecap="round" stroke-linejoin="round"/>
<path d="M63.8547 23.9838C63.8547 23.9838 65.3002 41.1832 71.5454 48.7731C77.0602 55.4715 81.7089 54.7714 86.6395 49.4328C90.6838 45.0562 94.8539 38.0304 94.8539 38.0304C94.8539 38.0304 99.6788 35.7388 98.1377 31.901C96.6016 28.0633 92.6177 30.8938 92.6177 30.8938C92.6177 30.8938 88.4174 31.4276 88.367 24.5277C88.3267 19.446 83.9198 12.6367 73.4693 14.5606C63.0237 16.4896 63.8547 23.9838 63.8547 23.9838Z" fill="#161616" stroke="white" stroke-width="0.740075" stroke-miterlimit="10" stroke-linecap="round" stroke-linejoin="round"/>
<path d="M71.2922 42.6336C71.2922 42.6336 73.342 42.7092 75.5228 41.7019C77.7036 40.6946 79.3052 39.501 79.3052 39.501C79.3052 39.501 80.2319 43.5906 77.4467 45.177C74.0069 47.1362 71.2922 42.6336 71.2922 42.6336Z" fill="white" stroke="white" stroke-width="0.740075" stroke-miterlimit="10" stroke-linecap="round" stroke-linejoin="round"/>
<path d="M70.8647 27.5999C70.8395 27.7711 71.6403 31.9916 70.4517 35.4919C70.1797 36.2978 70.5373 37.3504 71.7612 37.4259C73.4987 37.5317 74.1484 36.5395 74.1484 36.5395" stroke="white" stroke-width="0.740075" stroke-miterlimit="10" stroke-linecap="round" stroke-linejoin="round"/>
<path d="M81.4716 65.9016L88.0492 83.0154C88.0492 83.0154 98.2832 73.3051 103.37 64.9296C108.457 56.559 115.296 52.3184 115.296 52.3184C115.296 52.3184 130.259 59.9284 136.827 71.7489C143.394 83.5694 143.274 96.1 145.812 108.157C147.585 116.588 148.164 130.489 148.401 135.404C148.768 143.044 148.028 151.309 147.605 154.805C147.227 157.937 145.041 161.704 143.158 163.17C141.269 164.636 129.162 166.877 127.59 166.665C126.019 166.454 117.971 160.737 117.633 158.088C116.782 151.405 127.056 146.313 122.967 144.742C118.877 143.17 115.211 142.984 115.211 142.984C115.211 142.984 96.0218 146.434 87.8276 144.299C79.6333 142.163 86.6944 139.806 86.6944 139.806L73.7004 112.403C73.7004 112.403 59.7143 123.78 58.6465 125.558C57.5788 127.336 55.801 130.776 54.6174 131.012C53.4338 131.249 52.2453 133.027 50.2307 133.737C48.2161 134.447 46.675 132.196 46.675 132.196C46.675 132.196 47.8585 122.949 43.356 119.157C38.8534 115.364 30.7649 116.558 30.7649 116.558C30.7649 116.558 30.7649 114.513 32.2506 113.586C33.7364 112.66 40.8025 111.048 41.6033 110.922C42.4091 110.796 42.535 110.056 43.4617 109.003C44.3884 107.951 47.2391 106.399 48.9111 105.473C50.5832 104.541 50.83 105.04 51.4495 104.541C52.069 104.047 53.7411 100.265 56.4658 97.5404C59.1905 94.8157 62.9728 89.608 66.2566 83.9118C69.5403 78.2106 71.0261 76.8508 72.265 75.5463C73.504 74.2469 77.9008 68.7321 79.2052 67.4931C80.5147 66.2491 81.4716 65.9016 81.4716 65.9016Z" fill="white" stroke="white" stroke-width="0.740075" stroke-linecap="round" stroke-linejoin="round"/>
<path d="M113.865 140.285C113.865 140.285 118.292 134.624 128.204 134.387C134.107 134.246 139.984 136.895 139.984 136.895" stroke="white" stroke-width="0.740075" stroke-miterlimit="10" stroke-linecap="round" stroke-linejoin="round"/>
<path d="M45.5377 145.558C45.5377 145.558 36.6383 151.637 34.1906 151.491C31.7429 151.345 31.1486 150.302 31.1486 149.486C31.1486 148.67 41.5287 140.219 42.5662 139.7C43.6037 139.182 57.0258 135.475 58.436 135.475C59.8462 135.475 81.3467 136.291 84.8319 136.663C88.3171 137.036 112.562 140.37 113.897 140.37C115.232 140.37 119.86 139.252 124.01 141.393C126.649 142.752 129.999 148.565 131.766 154.976C132.471 157.529 132.436 158.607 131.248 160.758C130.059 162.908 129.097 163.87 129.097 163.87C129.097 163.87 117.735 161.83 112.527 160.496C105.869 158.793 87.0026 150.876 85.0031 151.098C82.9986 151.319 80.9437 153.556 75.9325 153.636C72.4272 153.692 65.3308 156.084 63.3263 155.711C61.3218 155.339 57.0963 154.23 57.0963 154.23C57.0963 154.23 55.0213 155.419 52.4225 154.825C49.8287 154.23 49.2344 151.264 49.2344 151.264C49.2344 151.264 45.7492 156.159 43.9714 156.381C42.1935 156.603 40.7833 155.046 41.156 153.49C41.5337 151.934 45.5377 145.558 45.5377 145.558Z" fill="#161616" stroke="white" stroke-width="0.740075" stroke-miterlimit="10" stroke-linecap="round" stroke-linejoin="round"/>
<path d="M45.5371 145.558C45.5371 145.185 49.7627 140.441 50.9513 139.776C52.1399 139.106 61.4824 138.144 61.4824 138.144" stroke="white" stroke-width="0.740075" stroke-miterlimit="10" stroke-linecap="round" stroke-linejoin="round"/>
<path d="M49.2443 151.269C49.2443 151.269 51.9892 147.859 55.6204 146.006C59.2517 144.152 64.2227 143.039 64.2227 143.039" stroke="white" stroke-width="0.740075" stroke-miterlimit="10" stroke-linecap="round" stroke-linejoin="round"/>
<path d="M57.1064 154.236C57.1064 154.236 63.7041 150.232 65.7086 149.416C67.7131 148.6 69.3398 147.708 69.3398 147.708" stroke="white" stroke-width="0.740075" stroke-miterlimit="10" stroke-linecap="round" stroke-linejoin="round"/>
<path d="M73.7012 112.398C73.7012 112.398 72.7241 107.125 72.3816 101.832C72.0392 96.5384 72.3816 91.8445 72.3816 91.8445" stroke="white" stroke-width="0.740075" stroke-miterlimit="10" stroke-linecap="round" stroke-linejoin="round"/>
<path d="M30.9715 116.221C30.9715 116.221 22.7722 120.885 20.7727 121.655C18.7733 122.426 18.0027 122.27 17.081 121.398C16.1594 120.527 11.133 119.041 10.161 118.784C9.18895 118.528 7.03336 118.271 6.26782 118.991C5.49725 119.706 4.52522 121.655 4.52522 121.655C4.52522 121.655 3.24597 121.348 2.4754 123.091C1.70482 124.833 1.09038 127.548 1.04001 128.474C0.989649 129.396 1.96169 131.809 1.96169 131.809C1.96169 131.809 2.16817 134.372 3.03947 135.858C3.91077 137.344 5.70375 138.472 6.47432 138.572C7.24489 138.673 15.0866 138.265 15.4946 137.701C15.9025 137.137 16.0586 135.802 16.0586 135.802C16.0586 135.802 17.8516 135.445 18.315 134.982C18.7783 134.518 19.8007 134.06 19.8007 134.06L47.1183 131.088C47.1183 131.088 50.1401 124.476 45.7332 119.348C41.3264 114.221 30.9715 116.221 30.9715 116.221Z" fill="#161616" stroke="white" stroke-width="0.740075" stroke-miterlimit="10" stroke-linecap="round" stroke-linejoin="round"/>
<path d="M94.2995 37.5618L95.9414 41.188L90.0135 47.6245L87.5155 44.779L94.2995 37.5618Z" fill="#161616"/>
<path d="M11.959 137.238C11.959 137.238 9.60193 137.187 7.19452 135.701C4.78711 134.216 1.96671 131.808 1.96671 131.808" stroke="white" stroke-width="0.740075" stroke-miterlimit="10" stroke-linecap="round" stroke-linejoin="round"/>
<path d="M88.0495 83.0157C88.0495 83.0157 88.7647 78.1757 88.9057 75.4812C89.0467 72.7867 88.9913 73.0839 88.9913 73.0839L102.157 50.2638L99.7491 46.7232L107.243 45.1921L115.307 52.3187C115.307 52.3187 109.026 62.2001 102.217 69.3216C95.4077 76.4431 88.0495 83.0157 88.0495 83.0157Z" fill="white" stroke="white" stroke-width="0.740075" stroke-linecap="round" stroke-linejoin="round"/>
<path d="M88.0481 83.0155L88.9043 73.7132L80.7 56.7253L79.2142 67.4882L88.0481 83.0155Z" fill="white" stroke="white" stroke-width="0.740075" stroke-linecap="round" stroke-linejoin="round"/>
<path d="M82.625 60.9158L81.4717 65.9018" stroke="white" stroke-width="0.740075" stroke-miterlimit="10" stroke-linecap="round" stroke-linejoin="round"/>
<path d="M95.0905 38.554L99.7441 46.723" stroke="white" stroke-width="0.740075" stroke-miterlimit="10" stroke-linecap="round" stroke-linejoin="round"/>
<path d="M123.5 134.251L119.31 109.28" stroke="white" stroke-width="0.740075" stroke-miterlimit="10" stroke-linecap="round" stroke-linejoin="round"/>
<path d="M16.3767 123.901L15.9033 125.553C15.9033 125.553 12.7757 127.603 12.7757 129.039C12.7757 130.474 13.3901 131.602 14.5182 131.809C15.6464 132.015 17.5401 131.244 19.0812 130.167C20.6174 129.089 21.8513 127.961 22.0527 127.397" fill="#161616"/>
<path d="M16.3767 123.901L15.9033 125.553C15.9033 125.553 12.7757 127.603 12.7757 129.039C12.7757 130.474 13.3901 131.602 14.5182 131.809C15.6464 132.015 17.5401 131.244 19.0812 130.167C20.6174 129.089 21.8513 127.961 22.0527 127.397" stroke="white" stroke-width="0.740075" stroke-miterlimit="10" stroke-linecap="round" stroke-linejoin="round"/>
<path d="M9.5156 123.695L8.83064 125.498C8.83064 125.498 12.4166 129.24 12.9303 131.189C13.444 133.138 12.9303 134.211 12.3158 134.624C11.7014 135.032 10.8301 135.339 10.4725 134.981C10.1149 134.624 3.8597 128.218 3.34598 127.447C2.83226 126.676 2.21781 123.962 2.21781 123.962" fill="#161616"/>
<path d="M9.5156 123.695L8.83064 125.498C8.83064 125.498 12.4166 129.24 12.9303 131.189C13.444 133.138 12.9303 134.211 12.3158 134.624C11.7014 135.032 10.8301 135.339 10.4725 134.981C10.1149 134.624 3.8597 128.218 3.34598 127.447C2.83226 126.676 2.21781 123.962 2.21781 123.962" stroke="white" stroke-width="0.740075" stroke-miterlimit="10" stroke-linecap="round" stroke-linejoin="round"/>
<path d="M41.6075 110.917C41.6075 110.917 48.6736 111.335 52.8438 116.548" stroke="white" stroke-width="0.740075" stroke-miterlimit="10" stroke-linecap="round" stroke-linejoin="round"/>
<path d="M81.718 22.5988C81.718 22.5988 83.5362 24.2155 82.5188 26.8697C81.5871 29.2973 80.0963 30.2189 77.8702 30.2592C74.9995 30.3146 73.695 29.126 72.8287 27.328C72.0179 25.6459 73.282 22.7751 73.282 22.7751C73.282 22.7751 73.4331 23.5608 73.9771 23.6212C74.9894 23.7421 74.4757 21.9894 74.4706 21.0728C74.4656 19.9144 75.5182 18.9222 76.4097 18.0862C77.3011 17.2501 78.0717 16.8372 78.0717 16.8372C78.0717 16.8372 77.5378 19.2446 77.9558 19.9346C78.4192 20.7001 79.0235 19.7935 79.0235 19.7935C79.0235 19.7935 79.9855 21.0073 80.051 22.0045C80.1165 23.0017 79.9905 24.0443 80.8064 24.1601C81.6123 24.281 81.718 22.5988 81.718 22.5988Z" fill="#F48B44"/>
<path d="M78.0567 30.0731C78.3035 30.058 78.5352 29.9572 78.7165 29.791C79.0237 29.504 79.5022 28.9701 79.8195 28.1794C80.313 26.9354 79.7288 25.636 79.7288 25.636C79.7288 25.636 79.4216 26.1195 79.1698 25.6058C78.923 25.0921 78.8877 23.3041 78.2733 22.4379C77.6588 21.5766 76.9386 21.2291 76.9386 21.2291C76.9386 21.2291 77.5783 23.4854 76.7724 24.8151C75.9616 26.1447 75.5738 25.9483 75.4831 27.2678C75.3874 28.6679 76.9084 29.786 77.271 29.9774C77.4675 30.0832 77.7999 30.0932 78.0567 30.0731Z" fill="#FA1B43"/>
<path d="M77.6982 25.1473C77.6982 25.1473 77.2953 25.797 76.8219 26.754C76.3485 27.7109 76.6456 29.2168 77.6327 29.4585C78.6199 29.7053 79.0077 28.144 78.9221 27.6958C78.8365 27.2425 78.7156 26.8698 78.7156 26.8698L78.4235 27.4439C78.4235 27.4439 78.3479 27.5598 78.2573 26.6532C78.1616 25.7416 77.6982 25.1473 77.6982 25.1473Z" fill="white"/>
<path d="M69.9993 23.4797C69.9993 23.4797 71.8174 25.0964 70.8001 27.7506C69.8683 30.1781 68.3775 31.0998 66.1514 31.1401C63.2807 31.1955 61.9763 30.0069 61.11 28.2089C60.2991 26.5267 61.5633 23.656 61.5633 23.656C61.5633 23.656 61.7144 24.4416 62.2583 24.5021C63.2706 24.623 62.7569 22.8703 62.7519 21.9537C62.7468 20.7953 63.7994 19.8031 64.6909 18.967C65.5823 18.131 66.3529 17.718 66.3529 17.718C66.3529 17.718 65.819 20.1254 66.2371 20.8154C66.7004 21.581 67.3048 20.6744 67.3048 20.6744C67.3048 20.6744 68.2668 21.8882 68.3322 22.8854C68.3977 23.8826 68.2718 24.9251 69.0877 25.041C69.9036 25.1568 69.9993 23.4797 69.9993 23.4797Z" fill="#F48B44"/>
<path d="M66.338 30.9588C66.5848 30.9437 66.8164 30.843 66.9978 30.6768C67.305 30.3897 67.7834 29.8559 68.1007 29.0651C68.5943 27.8211 68.0101 26.5217 68.0101 26.5217C68.0101 26.5217 67.7029 27.0052 67.451 26.4915C67.2042 25.9778 67.169 24.1899 66.5545 23.3236C65.9401 22.4624 65.2199 22.1149 65.2199 22.1149C65.2199 22.1149 65.8595 24.3712 65.0537 25.7008C64.2428 27.0304 63.855 26.834 63.7644 28.1535C63.6687 29.5537 65.1897 30.6718 65.5523 30.8631C65.7487 30.9689 66.0811 30.9739 66.338 30.9588Z" fill="#FA1B43"/>
<path d="M65.9853 26.0331C65.9853 26.0331 65.5824 26.6828 65.109 27.6397C64.6356 28.5966 64.9327 30.1025 65.9199 30.3443C66.907 30.586 67.2948 29.0298 67.2092 28.5815C67.1236 28.1282 67.0027 27.7555 67.0027 27.7555L66.7106 28.3297C66.7106 28.3297 66.635 28.4455 66.5444 27.539C66.4487 26.6274 65.9853 26.0331 65.9853 26.0331Z" fill="white"/>
<path fill-rule="evenodd" clip-rule="evenodd" d="M129.245 135.33C128.789 135.087 128.306 134.647 126.816 133.119C122.307 128.495 118.281 129.627 118.475 128.706C118.667 127.798 122.792 126.396 126.663 124.485C130.618 122.532 130.61 122.535 131.408 122.768C132.247 123.014 132.022 122.759 137.185 129.319C139.761 132.592 140.646 133.685 140.729 133.693C140.858 133.706 143.158 130.449 143.181 130.222C143.191 130.126 141.349 127.481 140.725 126.693L140.442 126.336L140.178 126.564C140.033 126.69 139.632 127.067 139.287 127.402C138.75 127.925 138.358 128.839 138.054 129.117C137.736 128.975 137.642 128.947 137.627 128.946C137.503 128.933 136.906 128.096 136.962 128.013C137.174 127.702 139.966 125.329 140.136 125.312C140.699 125.257 140.897 125.598 142.71 128.2C143.804 129.768 143.86 129.883 143.834 130.494L143.821 130.82L143.613 131.181C143.317 131.696 142.004 133.754 141.651 134.258C141.231 134.855 141.004 134.991 140.567 134.905C140.201 134.832 139.931 134.526 136.827 130.666C132.23 124.949 131.366 123.918 131.196 123.954C130.869 124.022 124.038 127.585 124.025 127.709C124.008 127.879 129.491 133.676 129.916 133.95C130.206 134.136 130.39 133.887 132.235 132.26C132.347 132.162 133.01 131.565 133.708 130.935C134.406 130.305 135.025 129.748 135.085 129.698L135.192 129.607L135.715 129.768C136.091 130.217 136.019 130.608 135.969 130.66C135.862 130.769 133.938 132.669 133.334 133.262C131.414 135.144 131.046 135.409 130.278 135.464C129.802 135.497 129.481 135.456 129.245 135.33Z" fill="#AEAEAE"/>
<path fill-rule="evenodd" clip-rule="evenodd" d="M143.656 129.84C143.934 130.186 143.691 130.7 143.248 130.704L139.793 130.738C139.697 130.739 139.627 130.648 139.651 130.555C139.665 130.503 139.706 130.464 139.758 130.451L143.12 129.656C143.32 129.609 143.528 129.681 143.656 129.84Z" fill="black"/>
<path fill-rule="evenodd" clip-rule="evenodd" d="M124.503 128.084C124.64 128.435 124.395 128.818 124.019 128.84L117.354 129.239C117.068 129.256 116.942 128.886 117.178 128.725C117.207 128.706 117.238 128.692 117.271 128.684L123.624 127.151C123.894 127.086 124.171 127.231 124.272 127.49L124.503 128.084Z" fill="black"/>
<path fill-rule="evenodd" clip-rule="evenodd" d="M129.999 135.251C129.562 135.018 129.098 134.595 127.668 133.129C123.34 128.69 123.242 128.565 123.428 127.68C123.612 126.809 123.806 126.675 127.521 124.841C131.318 122.966 131.31 122.969 132.076 123.193C132.881 123.429 132.666 123.184 137.622 129.482C140.094 132.623 140.944 133.672 141.024 133.68C141.147 133.692 143.355 130.566 143.377 130.348C143.386 130.256 141.619 127.717 141.019 126.96L140.748 126.618L140.494 126.837C140.355 126.957 139.97 127.319 139.639 127.641C138.785 128.473 138.082 129.126 138.046 129.123C137.927 129.111 137.353 128.307 137.407 128.228C137.611 127.929 140.291 125.651 140.455 125.635C140.995 125.582 141.184 125.91 142.925 128.407C143.975 129.912 144.029 130.022 144.004 130.609L143.991 130.922L143.792 131.269C143.508 131.763 142.247 133.739 141.908 134.222C141.505 134.796 141.287 134.926 140.868 134.843C140.517 134.773 140.257 134.479 137.278 130.774C132.866 125.286 132.035 124.297 131.872 124.331C131.559 124.397 125.001 127.816 124.989 127.935C124.973 128.099 130.236 133.663 130.644 133.926C130.922 134.105 131.099 133.866 132.87 132.305C132.977 132.21 133.614 131.637 134.284 131.032C134.954 130.428 135.549 129.893 135.605 129.845L135.709 129.758L136.108 130.235C136.469 130.666 136.503 130.718 136.454 130.768C136.352 130.873 134.505 132.697 133.925 133.266C132.082 135.073 131.728 135.327 130.991 135.38C130.534 135.412 130.226 135.372 129.999 135.251Z" fill="black"/>
</svg>
