<svg width="321" height="521" viewBox="0 0 321 521" fill="none" xmlns="http://www.w3.org/2000/svg">
<g>
<path d="M568.233 1129.04C472.546 902.241 211.119 795.953 -15.6809 891.64L-62.5081 911.396C-289.308 1007.08 -395.596 1268.51 -299.909 1495.31L-280.914 1540.33C-185.227 1767.13 76.2002 1873.42 303 1777.73L349.827 1757.98C576.627 1662.29 682.916 1400.86 587.228 1174.06L568.233 1129.04Z" fill="url(#paint0_radial_5_11547)"/>
</g>
<path d="M568.233 1129.04C472.546 902.241 211.119 795.953 -15.6809 891.64L-62.5081 911.396C-289.308 1007.08 -395.596 1268.51 -299.909 1495.31L-280.914 1540.33C-185.227 1767.13 76.2002 1873.42 303 1777.73L349.827 1757.98C576.627 1662.29 682.916 1400.86 587.228 1174.06L568.233 1129.04Z" stroke="#00E29A" stroke-width="52.3709"/>
<rect width="873.655" height="872.639" rx="436.319" transform="matrix(-0.86565 0.50065 0.50065 0.86565 614.376 715.853)" fill="url(#paint1_radial_5_11547)"/>
<g filter="url(#filter2_f_5_11547)">
<path d="M414.5 594.72C210.023 371.45 -136.734 356.215 -360.004 560.692L-466.259 658.003C-689.529 862.48 -704.763 1209.24 -500.286 1432.51L-430.902 1508.27C-226.425 1731.54 120.332 1746.77 343.602 1542.3L449.857 1444.99C673.127 1240.51 688.361 893.751 483.884 670.481L414.5 594.72Z" fill="url(#paint2_radial_5_11547)"/>
</g>
<g filter="url(#filter3_f_5_11547)">
<rect width="1270.96" height="1269.49" rx="610.365" transform="matrix(-0.86565 0.50065 0.50065 0.86565 739.903 160.764)" fill="url(#paint3_radial_5_11547)"/>
</g>
<path d="M667.223 1504.99C784.631 1289.35 704.183 1018.92 488.542 901.511C272.901 784.104 2.09905 863.295 -115.308 1078.94C-232.716 1294.58 -152.268 1565.01 63.3727 1682.42C279.014 1799.82 549.816 1720.63 667.223 1504.99Z" fill="url(#paint4_angular_5_11547)"/>
<defs>
<filter id="filter2_f_5_11547" x="-1060.73" y="0.247345" width="2105.06" height="2102.49" filterUnits="userSpaceOnUse" color-interpolation-filters="sRGB">
<feFlood flood-opacity="0" result="BackgroundImageFix"/>
<feBlend mode="normal" in="SourceGraphic" in2="BackgroundImageFix" result="shape"/>
<feGaussianBlur stdDeviation="208.261" result="effect1_foregroundBlur_5_11547"/>
</filter>
<filter id="filter3_f_5_11547" x="-432.095" y="88.9752" width="1879.35" height="1878.81" filterUnits="userSpaceOnUse" color-interpolation-filters="sRGB">
<feFlood flood-opacity="0" result="BackgroundImageFix"/>
<feBlend mode="normal" in="SourceGraphic" in2="BackgroundImageFix" result="shape"/>
<feGaussianBlur stdDeviation="147.632" result="effect1_foregroundBlur_5_11547"/>
</filter>
<radialGradient id="paint0_radial_5_11547" cx="0" cy="0" r="1" gradientUnits="userSpaceOnUse" gradientTransform="translate(331.418 1245.79) rotate(67.7244) scale(2046.89 2051.16)">
<stop stop-color="#5AE9FD"/>
<stop offset="1" stop-color="#5AE9FD" stop-opacity="0"/>
</radialGradient>
<radialGradient id="paint1_radial_5_11547" cx="0" cy="0" r="1" gradientUnits="userSpaceOnUse" gradientTransform="translate(436.827 436.319) rotate(90) scale(436.319 436.827)">
<stop stop-color="#38B7FF"/>
<stop offset="1" stop-color="#4AE0E0" stop-opacity="0.65"/>
</radialGradient>
<radialGradient id="paint2_radial_5_11547" cx="0" cy="0" r="1" gradientUnits="userSpaceOnUse" gradientTransform="translate(-8.20103 1051.49) rotate(47.5157) scale(599.552 1972.23)">
<stop stop-color="#6012C3"/>
<stop offset="1" stop-color="#9949FF" stop-opacity="0.37"/>
</radialGradient>
<radialGradient id="paint3_radial_5_11547" cx="0" cy="0" r="1" gradientUnits="userSpaceOnUse" gradientTransform="translate(1012.26 741.631) rotate(151.133) scale(599.607 600.305)">
<stop stop-color="#FFF9C5"/>
<stop offset="0.755208" stop-color="#FF5C00"/>
<stop offset="1" stop-color="#FF451C"/>
</radialGradient>
<radialGradient id="paint4_angular_5_11547" cx="0" cy="0" r="1" gradientUnits="userSpaceOnUse" gradientTransform="translate(275.957 1291.96) rotate(118.566) scale(444.573 450.315)">
<stop stop-color="#FFD748"/>
<stop offset="1" stop-color="#FFD84B" stop-opacity="0"/>
</radialGradient>
</defs>
</svg>
