<svg xmlns="http://www.w3.org/2000/svg" fill="none" viewBox="0 0 368 516"><path fill="#161616" stroke="#fff" stroke-linecap="round" stroke-linejoin="round" stroke-miterlimit="10" stroke-width="2.517" d="M124.259 385.109l-21.517 45.639s12.181 11.664 20.221 10.632c8.041-1.031 19.189-8.556 19.189-8.556l9.073-37.598-26.966-10.117z"/><path fill="#fff" stroke="#fff" stroke-linecap="round" stroke-linejoin="round" stroke-width="2.517" d="M143.182 423.739s9.337 37.334 7.777 38.63c-1.561 1.296-12.709 2.592-14.521 2.856-1.812.265-28.526-2.592-32.414-2.856-3.888-.264-25.154 1.296-31.118-.78-5.965-2.076-16.333-11.149-17.893-13.489-1.56-2.341 4.668-5.7 7.524-7.525 2.857-1.812 22.612-5.297 27.796-9.45 5.185-4.152 9.538-12.935 11.237-17.402 2.177-5.713 6.858-7.11 8.418-7.626 1.56-.516 2.592 8.293 2.592 8.293l-5.448 10.116s6.48 4.933 12.444 7.777c5.965 2.856 13.741-.264 13.741-.264l9.865-8.28z"/><path stroke="#fff" stroke-linecap="round" stroke-linejoin="round" stroke-miterlimit="10" stroke-width="10.066" d="M350.542 501.528s-20.309-170.099-25.443-180.832c-4.354-9.098-42.154-8.292-54.586-5.599-12.432 2.692-13.036 19.78-16.056 31.533-3.02 11.765-32.59 141.786-32.59 141.786"/><path stroke="#fff" stroke-linecap="round" stroke-linejoin="round" stroke-miterlimit="10" stroke-width="10.066" d="M237.336 423.777l104.427 11.186-34.377-31.143-70.05 19.957zM301.305 319.765l8.254 144.806"/><path fill="#161616" stroke="#fff" stroke-linecap="round" stroke-linejoin="round" stroke-miterlimit="10" stroke-width="2.517" d="M230.297 399.416s19.994 31.835 20.812 35.132c.83 3.296 4.769 7.776-2.252 9.009-7.009 1.233-34.868-10.733-34.868-10.733l-8.255-25.783 24.563-7.625z"/><path fill="#fff" stroke="#fff" stroke-linecap="round" stroke-linejoin="round" stroke-width="2.517" d="M221.424 428.923s.415-9.072-3.51-10.519c-3.926-1.447-12.168-4.329-12.999-2.479-.83 1.862-1.648 14.848-2.894 17.125-1.233 2.265-26.412 22.071-29.092 22.688-2.68.616-9.702 6.19-9.286 10.519.415 4.329 6.191 8.67 17.125 9.286 10.935.617 31.357 1.032 38.58-2.265 7.223-3.296 10.935-3.712 15.062-4.542 4.127-.83 24.55-2.064 28.476-4.744 3.925-2.68 5.159-4.542 5.159-4.542s-5.575-14.232-7.424-19.391c-1.863-5.159-8.041-16.509-8.041-16.509s2.064 9.286-2.265 10.104c-4.329.831-10.104-5.159-16.094-5.574-5.989-.415-12.797.843-12.797.843z"/><path fill="#fff" d="M295.27 325.805c23.656 0 42.833-4.062 42.833-9.073 0-5.01-19.177-9.072-42.833-9.072s-42.832 4.062-42.832 9.072c0 5.011 19.176 9.073 42.832 9.073z"/><path fill="#161616" stroke="#fff" stroke-miterlimit="10" stroke-width="2.517" d="M230.465 264.324s-76.606 10.142-80.796 16.786c-4.19 6.644-16.094 57.718-20.284 68.905-4.19 11.186-12.596 31.13-12.596 31.13s4.203 9.45 14.345 11.539c10.142 2.101 19.592 8.04 19.592 8.04s27.28-64.362 30.426-71.358c3.145-6.996 62.965-36.378 62.965-36.378l-13.652-28.664z"/><path fill="#161616" stroke="#fff" stroke-miterlimit="10" stroke-width="2.517" d="M342.742 310.315c6.543-.579-49.804 12.633-90.938 18.019-20.07 2.63-51.062 2.101-52.811 3.146-1.749 1.044-1.044-1.045-1.749 1.044-.705 2.101 35.333 68.213 35.333 68.213s-2.453 9.098-10.846 9.79c-8.393.704-19.932 2.101-24.135 2.101-4.202 0-13.992-3.85-13.992-3.85s-7.349-18.913-10.155-24.5c-2.806-5.587-12.23-27.62-19.227-36.352-6.996-8.746-14.344-22.738-14.697-30.086-.352-7.349 4.543-22.386 19.592-26.928 15.037-4.543 102.137-19.932 106.68-20.284 4.542-.365 76.945 39.687 76.945 39.687z"/><path fill="#161616" stroke="#fff" stroke-linecap="round" stroke-linejoin="round" stroke-miterlimit="10" stroke-width="2.517" d="M51.11 435.491l87.376 6.367 41.386-10.972 6.732 1.774-.352 13.439-44.934 13.086-89.504-7.424-.705-16.27zM64.062 514.274a8.242 8.242 0 1 0 0-16.484 8.242 8.242 0 0 0 0 16.484zM195.015 512.374a8.242 8.242 0 1 0 0-16.484 8.242 8.242 0 0 0 0 16.484zM59.812 471.819a8.242 8.242 0 1 0 0-16.484 8.242 8.242 0 0 0 0 16.484z"/><path stroke="#fff" stroke-linecap="round" stroke-linejoin="round" stroke-miterlimit="10" stroke-width="2.517" d="M202.734 432.622s3.536-.805 10.432 4.178M197.289 438.084s3.536-.806 10.431 4.177M191.195 443.368s3.536-.805 10.432 4.178"/><path fill="#161616" stroke="#fff" stroke-linecap="round" stroke-linejoin="round" stroke-miterlimit="10" stroke-width="2.517" d="M146.268 295.039h-13.791v171.935h13.791V295.039z"/><path fill="#161616" stroke="#fff" stroke-linecap="round" stroke-linejoin="round" stroke-miterlimit="10" stroke-width="2.517" d="M45.453 477.934l90.988-12.709 9.84 1.749 50.937 7.777-.353 19.113-58.02-11.677-93.04 13.087-.352-17.34z"/><path fill="#161616" d="M2 266.851l43.707 22.236.251 11.237h135.885v-9.991l-57.787-23.482H2z"/><path fill="#161616" d="M45.707 289.087L2 266.851v10.066l43.958 23.407-.251-11.237z"/><path stroke="#fff" stroke-linecap="round" stroke-linejoin="round" stroke-miterlimit="10" stroke-width="2.517" d="M2 266.851l43.707 22.236.251 11.237M2 266.851h122.056l57.787 23.482v9.991H45.958M2 266.851v10.066l43.958 23.407"/><path fill="#161616" stroke="#fff" stroke-linecap="round" stroke-linejoin="round" stroke-miterlimit="10" stroke-width="2.517" d="M182.038 257.466c-.44 0-8.128 3.397-7.386 6.795.742 3.397 5.914 2.063 9.01.881 3.095-1.183 7.386-3.838 7.386-3.838l-9.01-3.838z"/><path fill="#161616" stroke="#fff" stroke-linecap="round" stroke-linejoin="round" stroke-miterlimit="10" stroke-width="2.517" d="M217.275 250.457s-13.212-2.718-16.912-2.529c-3.687.189-21.769-2.529-24.096-2.139-2.328.39-11.665.579-15.163 2.919-3.498 2.328-9.135 10.306-9.324 11.073-.189.78.579 2.139.579 2.139s.578 4.077 1.56 4.669c.969.579 6.027-4.077 9.714-6.418 3.687-2.327 11.463-1.937 13.804-1.749 2.328.189 12.734 5.839 18.937 5.99 6.204.151 16.849-.881 19.504-1.472 2.655-.592 1.397-12.483 1.397-12.483z"/><path stroke="#fff" stroke-linecap="round" stroke-linejoin="round" stroke-miterlimit="10" stroke-width="2.517" d="M152.383 261.933s8.984-8.594 14.005-10.067c5.02-1.472 7.537-1.774 7.537-1.774M208.74 237.056s-17.251 1.863-21.228.416c-3.976-1.447-11.576-4.342-14.281-3.801-2.718.542-17.541 5.965-18.988 6.871-1.447.906-2.894 8.858-3.259 11.035-.365 2.164 1.988 4.518 1.988 4.518"/><path stroke="#fff" stroke-linecap="round" stroke-linejoin="round" stroke-miterlimit="10" stroke-width="2.517" d="M154.039 254.471s4.165-10.129 5.964-11.576c1.812-1.447 4.883-2.164 4.883-2.164"/><path fill="#161616" stroke="#fff" stroke-linecap="round" stroke-linejoin="round" stroke-miterlimit="10" stroke-width="2.517" d="M215.101 235.634l-6.367 1.41s7.575 9.324 7.965 11.853c.391 2.529 12.055.39 12.055.39l-13.653-13.653z"/><path fill="#161616" stroke="#fff" stroke-linecap="round" stroke-linejoin="round" stroke-miterlimit="10" stroke-width="2.517" d="M215.948 245.462s-1.774 3.649-2.164 9.676c-.391 6.027.188 13.212.188 13.212s9.136 4.858 12.432 5.248c3.31.39 2.278-26.702 2.278-26.702l-12.734-1.434z"/><path fill="#F48B44" stroke="#fff" stroke-linecap="round" stroke-linejoin="round" stroke-width="2.517" d="M259.23 221.126l-44.128 14.521s9.11 10.532 9.676 14.521c.566 3.989 13.665 5.121 21.353 1.988 7.689-3.133 20.209-7.978 20.209-7.978l-7.11-23.052z"/><path fill="#F48B44" stroke="#fff" stroke-linecap="round" stroke-linejoin="round" stroke-width="2.517" d="M282.857 120.902s-5.121 6.266-6.543 17.931c-1.422 11.677-9.966 27.896-12.809 41.285-2.844 13.376-7.123 37.585-7.689 48.117-.566 10.532-1.988 40.996-1.988 40.996s18.22 14.521 26.475 22.776c8.254 8.254 15.376 15.087 29.608 19.642 14.231 4.555 23.92 7.399 34.729 4.265 10.822-3.133 21.354-12.532 21.354-12.532s-2.567-57.505-4.845-79.148c-2.277-21.643-2.843-71.17-6.266-85.414-3.423-14.231-12.533-32.741-19.076-39.863-6.543-7.122-7.688-7.4-11.098-8.255-3.41-.83-41.852 30.2-41.852 30.2z"/><path stroke="#fff" stroke-linecap="round" stroke-linejoin="round" stroke-miterlimit="10" stroke-width="2.517" d="M268.305 54.035a8.758 8.758 0 1 0 0-17.515 8.758 8.758 0 1 0 0 17.515zM294.883 54.035a8.758 8.758 0 1 0 0-17.515 8.758 8.758 0 1 0 0 17.515zM277.156 43.465h8.972M303.531 42.408c.101-.314 10.595-5.825 10.595-5.825"/><path stroke="#fff" stroke-linecap="round" stroke-linejoin="round" stroke-miterlimit="10" stroke-width="2.517" d="M270.649 44.95a1.322 1.322 0 1 0 0-2.643 1.322 1.322 0 0 0 0 2.643zM296.22 44.95a1.321 1.321 0 1 0 0-2.643 1.321 1.321 0 0 0 0 2.643zM278.43 56.501s3.712 1.485 6.467.315"/><path fill="#fff" d="M278.352 69.147l14.344-6.404s.655 5.85-3.196 8.33c-6.795 4.353-11.148-1.926-11.148-1.926z"/><path stroke="#fff" stroke-linecap="round" stroke-linejoin="round" stroke-miterlimit="10" stroke-width="2.517" d="M265.516 33.94s5.297-2.441 8.153-1.057M289.234 30.656s5.298-2.441 8.154-1.057"/><path stroke="#fff" stroke-linecap="round" stroke-linejoin="round" stroke-miterlimit="10" stroke-width="2.517" d="M312.539 57.546s-6.393 26.827-23.002 29.13c-11.199 1.547-24.525-7.714-30.426-32.39-4.857-20.32.39-34.942 20.586-37.497 20.183-2.554 32.452 8.053 33.987 14.949 1.535 6.896.289 10.104.289 10.104s3.171-2.05 6.871 1.649c3.699 3.7-3.071 13.413-3.071 13.413l-.641 19.68M283.164 86.915l1.019 27.242"/><path fill="#fff" d="M317.845 44.032c-3.573.629-7.034-1.611-7.902-5.134-.83-3.36-1.887-7.299-2.869-9.74-1.988-4.957-6.556-5.36-19.655-3.976-13.099 1.384-25.141.617-27.481 8.469-1.007 3.372.138 24.373.138 24.373s-4.127-9.312-5.914-18.447c-1.786-9.135-.125-12.369-.125-16.76 0-.365-3.134-2.744-4.845-7.714-1.875-5.474-2.34-13.59-2.34-13.59s9.21 5.814 22.712 2.24c1.674-.44 3.75-1.02 6.09-1.585 11.665-2.806 30.149-5.386 40.556 9.324 10.922 15.427 4.643 32.011 4.643 32.011l-3.008.529z"/><path fill="#161616" stroke="#fff" stroke-linecap="round" stroke-linejoin="round" stroke-miterlimit="10" stroke-width="2.517" d="M320.417 82.8c0-.604-1.409-7.26-1.409-7.26l-40.946 42.153s9.274 18.761 9.073 18.157c-.201-.604 33.282-53.05 33.282-53.05z"/><path fill="#F48B44" stroke="#fff" stroke-linecap="round" stroke-linejoin="round" stroke-width="2.517" d="M320.411 82.8l7.865 10.08s-10.281 7.662-19.567 21.579c-9.274 13.917-23.795 39.134-26.827 48.005-3.02 8.871-5.046 14.521-5.046 14.521s7.462-33.484 12.306-49.414c4.845-15.93 31.269-44.77 31.269-44.77z"/><path fill="#F48B44" d="M344.503 178.243s-3.02 4.517-6.242 13.564c-3.233 9.048-34.653 69.534-39.611 72.542-4.945 3.02-72.328 13.778-72.328 13.778s-4.303-9.261-5.385-16.786c-1.082-7.524 2.365-15.716 2.365-15.716s43.337-7.701 47.892-11.4c4.555-3.7 10.532-7.978 10.821-9.676.29-1.712 5.7-23.921 6.833-32.452 1.145-8.544 4.555-25.909 6.543-33.874 1.988-7.978 8.821-18.51 10.255-20.498"/><path stroke="#fff" stroke-linecap="round" stroke-linejoin="round" stroke-width="2.517" d="M344.503 178.243s-3.02 4.517-6.242 13.564c-3.233 9.048-34.653 69.534-39.611 72.542-4.945 3.02-72.328 13.778-72.328 13.778s-4.303-9.261-5.385-16.786c-1.082-7.524 2.365-15.716 2.365-15.716s43.337-7.701 47.892-11.4c4.555-3.7 10.532-7.978 10.821-9.676.29-1.712 5.7-23.921 6.833-32.452 1.145-8.544 4.555-25.909 6.543-33.874 1.988-7.978 8.821-18.51 10.255-20.498"/><path stroke="#fff" stroke-linecap="round" stroke-miterlimit="10" stroke-width="2.517" d="M197.242 332.524s-8.468-4.291-9.437-9.89"/><path fill="#161616" stroke="#fff" stroke-linecap="round" stroke-linejoin="round" stroke-miterlimit="10" stroke-width="2.517" d="M75.512 160.524S49.186 275.959 49.186 280.063c0 4.104 78.338 5.827 84.727 3.775 6.389-2.052-.438-4.698-15.519-8.808-6.924-1.888-32.087-3.146-61.658-3.146-.225-.684 18.776-88.082 18.776-88.082v-23.278z"/><path fill="#161616" stroke="#fff" stroke-linecap="round" stroke-linejoin="round" stroke-miterlimit="10" stroke-width="2.517" d="M112.805 102.564l-1.453 134.412-36.514 37.797-4.266-.854 1.707-218.65 3.843-1.073 36.683 48.368z"/><path stroke="#fff" stroke-linecap="round" stroke-linejoin="round" stroke-miterlimit="10" stroke-width="2.517" d="M74.85 274.773l1.283-220.577"/><mask id="a" style="mask-type:alpha" width="34" height="175" x="77" y="65" maskUnits="userSpaceOnUse"><path fill="#F48B44" d="M77.444 239.359l31.231-21.606 1.77-112.361L79.016 65.12l-1.573 174.239z"/></mask><g mask="url(#a)"><path fill="#161616" d="M77.444 239.359l31.231-21.606 1.77-112.361L79.016 65.12l-1.573 174.239z"/><g filter="url(#filter0_f_572_12728)"><path fill="url(#paint0_radial_572_12728)" d="M23.661 154.511c9.835 23.311 36.705 34.236 60.016 24.401l16.305-6.879c23.311-9.835 34.235-36.705 24.4-60.016l-6.79-16.096c-9.835-23.31-36.705-34.235-60.016-24.4L41.27 78.4c-23.311 9.835-34.236 36.705-24.4 60.015l6.79 16.096z"/><path stroke="#00E29A" stroke-width="5.383" d="M23.661 154.511c9.835 23.311 36.705 34.236 60.016 24.401l16.305-6.879c23.311-9.835 34.235-36.705 24.4-60.016l-6.79-16.096c-9.835-23.31-36.705-34.235-60.016-24.4L41.27 78.4c-23.311 9.835-34.236 36.705-24.4 60.015l6.79 16.096z"/></g><g filter="url(#filter1_f_572_12728)"><rect width="101.361" height="101.243" fill="url(#paint1_radial_572_12728)" rx="50.621" transform="scale(1 -1) rotate(30.043 375.088 -68.666)"/></g><g filter="url(#filter2_f_572_12728)"><path fill="url(#paint2_radial_572_12728)" d="M44.103 216.418c21.016 22.948 56.656 24.514 79.604 3.498l23.031-21.092c22.948-21.017 24.514-56.657 3.497-79.605l-17.852-19.493c-21.016-22.948-56.656-24.514-79.605-3.497l-23.03 21.092C6.8 138.337 5.234 173.977 26.251 196.925l17.852 19.493z"/></g><g filter="url(#filter3_f_572_12728)"><rect width="147.456" height="147.285" fill="url(#paint3_radial_572_12728)" rx="62.734" transform="scale(1 -1) rotate(30.043 487.796 -128.014)"/></g><g filter="url(#filter4_f_572_12728)"><path fill="url(#paint4_angular_572_12728)" d="M9.883 105.458c-13.622 25.018-4.288 56.393 20.73 70.015 25.019 13.621 56.437 4.434 70.058-20.585 13.622-25.018 4.288-56.394-20.73-70.015-25.019-13.622-56.437-4.434-70.058 20.585z"/></g></g><defs><filter id="filter0_f_572_12728" width="171.433" height="171.312" x="-15.091" y="39.56" color-interpolation-filters="sRGB" filterUnits="userSpaceOnUse"><feFlood flood-opacity="0" result="BackgroundImageFix"/><feBlend in="SourceGraphic" in2="BackgroundImageFix" result="shape"/><feGaussianBlur result="effect1_foregroundBlur_572_12728" stdDeviation="12.827"/></filter><filter id="filter1_f_572_12728" width="150.685" height="150.624" x="-40.8" y="52.507" color-interpolation-filters="sRGB" filterUnits="userSpaceOnUse"><feFlood flood-opacity="0" result="BackgroundImageFix"/><feBlend in="SourceGraphic" in2="BackgroundImageFix" result="shape"/><feGaussianBlur result="effect1_foregroundBlur_572_12728" stdDeviation="12.337"/></filter><filter id="filter2_f_572_12728" width="239.192" height="238.894" x="-31.35" y="38.625" color-interpolation-filters="sRGB" filterUnits="userSpaceOnUse"><feFlood flood-opacity="0" result="BackgroundImageFix"/><feBlend in="SourceGraphic" in2="BackgroundImageFix" result="shape"/><feGaussianBlur result="effect1_foregroundBlur_572_12728" stdDeviation="21.405"/></filter><filter id="filter3_f_572_12728" width="216.141" height="216.078" x="-79.668" y="52.715" color-interpolation-filters="sRGB" filterUnits="userSpaceOnUse"><feFlood flood-opacity="0" result="BackgroundImageFix"/><feBlend in="SourceGraphic" in2="BackgroundImageFix" result="shape"/><feGaussianBlur result="effect1_foregroundBlur_572_12728" stdDeviation="15.174"/></filter><filter id="filter4_f_572_12728" width="167.415" height="167.296" x="-28.43" y="46.525" color-interpolation-filters="sRGB" filterUnits="userSpaceOnUse"><feFlood flood-opacity="0" result="BackgroundImageFix"/><feBlend in="SourceGraphic" in2="BackgroundImageFix" result="shape"/><feGaussianBlur result="effect1_foregroundBlur_572_12728" stdDeviation="16.024"/></filter><radialGradient id="paint0_radial_572_12728" cx="0" cy="0" r="1" gradientTransform="rotate(-112.276 69.892 51.378) scale(237.479 237.974)" gradientUnits="userSpaceOnUse"><stop stop-color="#5AE9FD"/><stop offset="1" stop-color="#5AE9FD" stop-opacity="0"/></radialGradient><radialGradient id="paint1_radial_572_12728" cx="0" cy="0" r="1" gradientTransform="matrix(0 50.6214 -50.6803 0 50.68 50.621)" gradientUnits="userSpaceOnUse"><stop stop-color="#38B7FF"/><stop offset="1" stop-color="#4AE0E0" stop-opacity=".65"/></radialGradient><radialGradient id="paint2_radial_572_12728" cx="0" cy="0" r="1" gradientTransform="matrix(-46.9794 -51.29776 168.74475 -154.5394 88.243 158.072)" gradientUnits="userSpaceOnUse"><stop stop-color="#6012C3"/><stop offset="1" stop-color="#9949FF" stop-opacity=".37"/></radialGradient><radialGradient id="paint3_radial_572_12728" cx="0" cy="0" r="1" gradientTransform="matrix(-60.92183 33.5849 -33.624 -60.99277 117.442 86.043)" gradientUnits="userSpaceOnUse"><stop stop-color="#FFF9C5"/><stop offset=".755" stop-color="#FF5C00"/><stop offset="1" stop-color="#FF451C"/></radialGradient><radialGradient id="paint4_angular_572_12728" cx="0" cy="0" r="1" gradientTransform="rotate(-61.434 137.183 18.569) scale(51.579 52.2452)" gradientUnits="userSpaceOnUse"><stop stop-color="#FFD748"/><stop offset="1" stop-color="#FFD84B" stop-opacity="0"/></radialGradient></defs></svg>