<svg xmlns="http://www.w3.org/2000/svg" fill="none" viewBox="0 0 641 480"><path fill="#F48B44" d="M90.62 340.071c-64.07 24.064-119.38-53.693-74.053-104.98.846-.959 8.347-12.22 9.061-13.254 9.965-14.495 15.416-29.742 18.274-40.213.715-2.632 4.55-2.369 4.907.338 1.466 11.243 2.839 26.753.714 35.1-2.143 8.404-.357 15.585 5.565 13.141 5.941-2.444 31.058-10.81 33.821-46.549 1.166-14.927 17.861-37.299 29.347-51.061 2.294-2.745 6.693-.338 5.64 3.083-3.59 11.657-7.708 27.223-7.294 36.567.733 16.356-.865 38.314 14.119 43.24 14.984 4.925 14.702 22.184 23.293 22.804 8.592.621 37.337-25.098 38.992-48.015 1.673-22.899 2.124-55.498 19.345-81.104 8.103-12.05 16.093-25.38 22.259-36.133 2.03-3.554 7.426-1.711 6.937 2.35-1.259 10.434-1.071 21.168 4.08 24.684 10.96 7.52 28.05-29.403 21.864-50.008-3.553-11.882-1.466-31.377.959-45.778.696-4.174 6.543-4.663 7.877-.64 4.324 12.916 12.897 30.005 29.573 41.06 26.339 17.446 27.41 36.81 30.099 65.8 2.688 28.971-2.162 52.791-2.162 52.791s13.122-2.35 21.169-18.33c5.076-10.058 8.761-29.479 10.81-42.488.564-3.573 5.471-4.061 6.749-.696 3.328 8.78 7.84 21.319 11.75 34.536 6.373 21.469-3.91 39.799-14.626 55.328-10.716 15.529-45.196 52.622-78.284 58.844-33.088 6.223-64.353 16.676-86.988 32.731-32.28 22.936-74.429 42.075-113.797 56.852z"/><path fill="#FA1B43" d="M204.117 264.946s22.598-56.851 19.74-71.948c-2.857-15.096-.413-59.182 2.858-66.928 3.271-7.746 6.937-17.541 6.937-17.541s-3.271 23.256 8.573 48.166c11.844 24.91 11.844 34.273 11.844 34.273s6.129-8.159 8.159-23.67c2.049-15.51 8.573-33.464 8.573-33.464s6.937 34.687 11.43 47.753c4.494 13.066-.413 29.798-.413 29.798s8.065-4.306 11.844-13.066c1.335-3.084 2.858-12.653 2.858-12.653s4.888 19.176-4.494 30.607c-9.381 11.43-28.576 16.732-45.308 22.447-16.751 5.696-42.601 26.226-42.601 26.226zM94.43 324.749c5.64-2.369 14.852-6.562 19.777-14.852 4.926-8.291 4.926-27.204 4.926-27.204s-6.73 6.223-7.783 11.148c-1.034 4.926-6.994 10.622-6.994 10.622s-1.805-9.588 1.034-18.649c2.839-9.062-4.662-24.102-4.662-24.102s1.297 14.25-2.068 20.473c-3.365 6.223-12.183 12.69-13.743 21.244-1.56 8.554-10.472 26.132-10.472 26.132s10.585-.864 19.985-4.812z"/><path fill="#161616" stroke="#fff" stroke-linecap="round" stroke-linejoin="round" stroke-miterlimit="10" stroke-width="2.657" d="M573.748 389.382l25.876 28.373-98.069 31.255-16.524-29.449 88.717-30.179z"/><path fill="#161616" stroke="#fff" stroke-linecap="round" stroke-linejoin="round" stroke-miterlimit="10" stroke-width="2.657" d="M477.573 357.755l-5.831 74.292 112.653-1.448-4.37-78.184-102.452 5.34zM177.463 290.464l-46.119-14.704-61.633 61.234 58.445 11.53 49.307-58.06z"/><path fill="#161616" stroke="#fff" stroke-linecap="round" stroke-linejoin="round" stroke-miterlimit="10" stroke-width="2.657" d="M208.89 272.572l-106.57 44.139s93.048 55.271 93.446 54.075c.399-1.195 45.733-34.19 45.733-34.19l-32.609-64.024z"/><path fill="#161616" stroke="#fff" stroke-linecap="round" stroke-linejoin="round" stroke-miterlimit="10" stroke-width="2.657" d="M240.609 246.165s-34.403 30.431-53.929 52.122c-19.526 21.692-27.762 30.365-27.762 30.365s-17.692 1.674-29.78 9.272c-12.088 7.598-28.186 18.463-35.293 25.105-7.12 6.641-1.94 11.423-1.94 11.423s-2.603 5.699-1.42 8.78c1.182 3.082 3.799 3.799 3.799 3.799s-3.149 6.017.292 8.488c3.228 2.338 8.966-.186 8.966-.186s-1.701 4.397.186 6.296c1.886 1.9 6.336 1.753 12.738-3.228 6.402-4.981 21.545-17.772 21.545-17.772s10.826-9.723 16.524-9.723h5.698s-.053 5.1-3.546 9.178c-4.609 5.38-8.554 13.11-8.076 16.67.478 3.56 3.414 5.951 3.414 5.951s12.247-9.75 17.228-15.435c4.981-5.698 11.37-15.886 12.326-19.924.943-4.038 1.182-21.107 2.604-24.667 1.421-3.56 103.647-68.075 103.647-68.075s3.082-17.547-4.742-25.61c-7.824-8.062-42.479-2.829-42.479-2.829z"/><path stroke="#fff" stroke-linecap="round" stroke-linejoin="round" stroke-miterlimit="10" stroke-width="2.657" d="M91.898 374.439s13.788-10.534 26.168-18.424M94.266 387.004s20.575-19.154 29.9-24.361M103.523 395.307s23.352-21.891 29.993-25.836"/><path fill="#fff" stroke="#fff" stroke-miterlimit="10" stroke-width="2.657" d="M409.281 175.778v-41.429c0-21.466 19.061-38.866 42.586-38.866h95.398c23.524 0 42.585 17.4 42.585 38.866V287.82L409.281 175.778z"/><path fill="#161616" stroke="#fff" stroke-linecap="round" stroke-linejoin="round" stroke-miterlimit="10" stroke-width="2.657" d="M545.027 319.54s-70.188 68.394-73.761 70.187c-3.573 1.793-31.998-2.019-41.788 3.653-9.803 5.672-37.896 21.651-38.162 22.953-.252 1.289 6.442 7.213 7.996 7.478 1.541.253-20.11 21.399-20.11 22.17 0 .77 5.672 4.635 10.308 3.095 4.635-1.541 10.825-6.443 10.825-6.443s-12.419 21.12-12.419 22.821c0 1.713 9.816 3.413 14.226-.572s13.23-19.207 13.23-19.207l8.541-2.71-11.782 25.982s5.91 2.059 11.171-1.926c5.26-3.985 13.548-18.065 13.548-18.065s-3.693 16.219-2.138 16.936c1.567.717 6.774-1.846 10.852-7.691 4.742-6.801 5.366-12.938 5.366-12.938s20.629-4.981 31.016-16.218c10.387-11.238 17.786-19.925 17.786-19.925s45.866-22.514 66.308-34.721c20.443-12.207 29.993-20.177 29.993-20.177s19.38 1.328 26.54-17.52c7.173-18.849-6.907-41.404-6.907-41.404s-2.657-35.571-14.067-61.048c-11.41-25.477-46.716-63.174-78.038-73.269-31.321-10.082-90.43-10.68-125.471 6.827-35.04 17.521-48.668 35.107-48.668 35.107s-22.834 3.72-41.138 11.41c-18.317 7.704-28.399 14.598-28.399 14.598s-8.753-3.188-16.192-2.656c-5.34.385-15.607 8.302-20.974 12.725a6.74 6.74 0 0 0-2.125 7.186s21.505-1.86 32.384 7.97c10.879 9.816 10.586 21.346 10.586 21.346l81.492 12.114s46.61 8.66 55.881 5.1c9.272-3.56 23.152-16.112 23.152-16.112s22.688 8.023 44.605 10.653c17.706 2.112 25.848 4.33 25.848 4.33s1.9 1.661 9.511 7.837c7.611 6.177 11.41 7.133 11.41 7.133l9.564 12.991z"/><path fill="#161616" stroke="#fff" stroke-linecap="round" stroke-linejoin="round" stroke-miterlimit="10" stroke-width="2.657" d="M500.23 322.954l-81.903-14.704-52.999 31.002 24.64 55.111 110.262-71.409z"/><path fill="#F48B44" d="M396.336 372.885l47.141-28.625-42.333-9.232-27.894 15.342 4.769 17.746 18.317 4.769zM418.668 313.842l25.158 4.901-20.921 14.173-23.843-5.034 19.606-14.04z"/><path fill="#161616" stroke="#fff" stroke-linecap="round" stroke-linejoin="round" stroke-miterlimit="10" stroke-width="2.657" d="M396.812 401.894l103.554-66.229v-12.1l-108.522 68.208 4.968 10.121zM430.712 282.587s2.537 11.038-2.896 23.298c-3.639 8.235-9.603 15.089-14.398 17.015 0 0-10.494 3.308-7.917-9.019 2.59-12.34 25.211-31.294 25.211-31.294z"/><path fill="#fff" d="M382.157 348.563s14.478-3.466 24.321-11.808c10.068-8.528 13.23-14.306 13.23-14.306l-7.864-2.856s3.945-11.556 11.45-18.715c7.505-7.16 10.733-14.293 11.689-27.536 1.381-19.207-10.055-38.933-18.131-43.17-11.331-5.937-29.542-5.406-29.542-5.406s-29.568 7.093-43.94 15.594c-14.372 8.501-22.873 21.412-22.873 21.412v-6.747s-5.566.292-8.209 8.209c-2.643 7.916-2.391 16.205-2.391 16.205l55.164 8.142 17.096 60.982z"/><path stroke="#fff" stroke-linecap="round" stroke-linejoin="round" stroke-miterlimit="10" stroke-width="2.657" d="M535.478 306.523s-.346-13.642 10.6-19.247M514.556 291.553s-5.938-5.699-9.033-20.204M545.016 319.54s17.347-16.351 43.515-3.414c22.395 11.078 7.505 38.069 7.505 38.069M399.195 424.41s11.371-9.165 20.363-13.708M400.352 442.62s8.541-10.493 12.393-13.19c3.852-2.696 14.505-10.985 14.505-10.985M423.914 442.952s7.173-9.298 14.359-15.714M436.883 448.93s4.875-8.727 9.231-13.469M386.836 238.275l21.186-14.571s18.278-9.803 32.331 5.246c19.473 20.841 10.879 41.191 10.879 41.191l-7.146 6.429M279.898 228.91s18.477 8.94 23.126 27.536c4.37 17.454 1.9 22.196 1.9 22.196M349.565 218.337s-1.66 8.102 2.205 25.237M615.684 295.272s-12.619-18.769-53.504-12.752M528.805 229.535s34.31-18.225 59.773-1.873"/><path fill="#161616" stroke="#fff" stroke-linecap="round" stroke-linejoin="round" stroke-miterlimit="10" stroke-width="2.657" d="M365.084 287.581l31.746 114.313-170.434-27.588-30.232-111.856 168.92 25.131z"/><path fill="#F48B44" d="M492.488 458.595c-16.022-21.23-.906-54.707 16.757-73.37 17.663-18.663 56.65-42.969 67.218-54.197 8.435-8.963 14.983-21.267 19.059-30.25 1.208-2.642 5.152-1.792 5.171 1.114.019 12.549-.868 31.325-5.831 42.742-7.964 18.286-5.945 23.249-5.945 23.249s3.416 7.322 10.342-6.039c3.151-6.076 6.491-9.096 9.454-10.511 3.321-1.585 7.057 1.585 6.114 5.152-1 3.812-1.396 9.888 1.038 18.984 4.906 18.323 4.548 36.213 4.548 36.213l9.775-16.361c1.17-1.963 4.076-1.774 4.944.34 3.246 7.907 8.228 24.324 1.981 40.157-11.945 30.344-38.326 39.289-74.464 42.704-18.701 1.737-54.48.85-70.161-19.927z"/><path fill="#FA1B43" d="M524.854 468.785c5.642 1.17 17.871-1.661 19.569-12.134 2.189-13.38-4.963-35.61-2.321-47.272 5.001-22.097 17.21-39.043 17.21-39.043s-17.172 12.964-23.532 28.23c-4.925 11.813-10.737 21.947-10.737 21.947s-7.869-25.551-7.454-20.55c.207 2.491 1.207 9.869-6.19 20.946-7.775 11.587-9.077 22.702-4.208 34.44 2.264 5.434 9.983 11.832 17.663 13.436z"/></svg>