<svg width="139" height="368" viewBox="0 0 139 368" fill="none" xmlns="http://www.w3.org/2000/svg">
<mask id="mask0_1_8773" style="mask-type:alpha" maskUnits="userSpaceOnUse" x="0" y="0" width="257" height="399">
<path d="M0.634766 12.6026L11.6708 14.019C14.6982 14.4076 16.6432 13.3333 16.921 11.1683C17.104 9.74259 16.3487 8.51849 14.9199 7.94149L14.9244 7.90629C16.2482 7.62891 17.1338 6.72278 17.2964 5.45548C17.5766 3.27291 15.9461 1.75758 12.9363 1.37128L2.25229 0L0.634766 12.6026ZM6.19336 5.67642L6.52319 3.10662L11.0995 3.69399C12.1732 3.83179 12.7635 4.39062 12.6595 5.20028C12.5556 6.00994 11.8434 6.40159 10.7697 6.26378L6.19336 5.67642ZM5.53415 10.6729L5.8866 7.92713L10.727 8.54838C11.8534 8.69297 12.4898 9.31137 12.3791 10.1738C12.2729 11.0011 11.501 11.4388 10.3745 11.2942L5.53415 10.6729Z" fill="white"/>
<path d="M21.5135 5.35392C22.8425 5.58377 23.9494 4.91078 24.1551 3.72172C24.3607 2.53267 23.5411 1.54448 22.2122 1.31462C20.8832 1.08477 19.7794 1.74027 19.5737 2.92933C19.368 4.11839 20.1846 5.12406 21.5135 5.35392ZM17.7233 14.9816L21.85 15.6954L23.4106 6.67253L19.2838 5.95877L17.7233 14.9816Z" fill="white"/>
<path d="M30.0606 17.6245C32.2659 18.089 33.9211 17.8936 35.5736 16.936L35.1918 14.4436C34.0329 15.1243 33.0385 15.3683 31.823 15.1122C30.5727 14.8489 30.1341 14.1762 30.3608 13.0996L30.8546 10.7553L36.3245 11.9075L36.8512 9.40695L31.3813 8.25481L32.0397 5.12916L27.788 4.99529L27.2832 7.39162L24.7827 6.86493L24.256 9.36544L26.7565 9.89214L26.0863 13.1604C25.6327 15.3136 27.1433 17.01 30.0606 17.6245Z" fill="white"/>
<path d="M42.5236 20.6115C44.7045 21.1796 46.3671 21.0626 48.063 20.1841L47.7993 17.6765C46.6095 18.3017 45.6047 18.4984 44.4026 18.1853C43.1662 17.8631 42.7599 17.1705 43.0372 16.1058L43.6412 13.7875L49.0505 15.1967L49.6948 12.7238L44.2854 11.3146L45.0907 8.22356L40.85 7.88901L40.2327 10.2588L37.7598 9.61461L37.1156 12.0875L39.5885 12.7317L38.7646 15.9646C38.2098 18.094 39.6386 19.8599 42.5236 20.6115Z" fill="white"/>
<path d="M55.5505 24.4161C57.8858 25.1534 60.2852 25.3341 61.7101 24.9465L61.2086 22.7039C60.1514 22.9285 58.2909 22.7505 56.5648 22.2055C54.9233 21.6873 53.5285 20.8003 53.3922 19.6407L62.5302 22.5257C62.7057 22.2648 62.8571 21.9032 62.9372 21.6493C63.8241 18.8402 61.7835 16.1676 57.8067 14.912C53.7623 13.6351 50.3325 14.6552 49.4724 17.3797C48.5748 20.2226 51.0491 22.995 55.5505 24.4161ZM53.8641 17.9102C54.3262 16.9768 55.6452 16.6302 57.0836 17.0843C58.4882 17.5278 59.4252 18.568 59.1608 19.5824L53.8641 17.9102Z" fill="white"/>
<path d="M70.4557 33.6575C75.4019 35.6265 79.2661 34.8918 80.5131 31.7592L83.3616 24.6036L79.9981 23.2647L78.6338 25.2046L78.6173 25.1981C78.5749 23.4813 77.2343 21.8589 75.2393 21.0648C72.0903 19.8112 69.3732 20.7351 68.3034 23.4226C67.2467 26.077 68.5392 28.5398 71.6059 29.7605C73.5844 30.5481 75.6111 30.5909 76.7434 29.8575L76.7599 29.864L76.5958 30.2762C75.9986 31.7766 73.9592 32.0535 71.3213 31.0033C69.656 30.3404 68.079 29.2161 67.2105 28.0872L64.9137 30.1143C65.8021 31.2893 67.9001 32.6402 70.4557 33.6575ZM74.2133 28.2964C72.4657 27.6007 71.6727 26.33 72.1649 25.0935C72.6572 23.8569 74.1065 23.4788 75.8542 24.1745C77.6018 24.8702 78.3948 26.1409 77.9026 27.3775C77.4103 28.614 75.961 28.9921 74.2133 28.2964Z" fill="white"/>
<path d="M87.6997 37.0042C89.9217 38.0338 92.2783 38.5194 93.7411 38.317L93.5301 36.0288C92.4529 36.1164 90.6303 35.7022 88.988 34.9413C87.4261 34.2176 86.1561 33.1598 86.169 31.9922L94.8637 36.0208C95.071 35.7844 95.2674 35.4451 95.3793 35.2036C96.6177 32.5307 94.9351 29.6193 91.1513 27.8662C87.3031 26.0831 83.7711 26.6567 82.57 29.249C81.3167 31.9541 83.4167 35.0198 87.6997 37.0042ZM86.858 30.3362C87.4356 29.4694 88.7881 29.2942 90.1567 29.9283C91.4932 30.5475 92.2896 31.6989 91.8978 32.6712L86.858 30.3362Z" fill="white"/>
<path d="M94.4969 39.893L98.1936 41.8611L100.212 38.0703C101.029 36.5352 102.468 36.1354 104.035 36.9693C105.413 37.7032 105.803 38.896 105.119 40.1805L102.893 44.3628L106.574 46.3226L109.025 41.7569C110.283 39.4313 109.421 37.1229 106.852 35.7553C104.831 34.6795 102.97 34.8145 101.486 35.753L101.47 35.7447L104.43 30.1839L100.718 28.2075L94.4969 39.893Z" fill="white"/>
<path d="M110.884 48.8569L121.269 55.3105L122.571 53.2154L116.526 49.4594L124.48 49.8058L125.951 47.4394L115.868 41.1732L114.575 43.2532L120.212 46.7563L112.354 46.4905L110.884 48.8569Z" fill="white"/>
<path d="M125.754 58.7656C127.633 60.0739 129.628 60.2524 131.199 59.4869L131.214 59.497L130.31 61.5708L133.281 63.6398L138.514 56.1259L135.077 53.7323L132.623 57.2563C131.629 58.6834 130.153 58.9093 128.696 57.8951C127.415 57.0026 127.169 55.7718 128.001 54.5777L130.709 50.6897L127.287 48.3063L124.311 52.5482C122.785 54.7078 123.366 57.1023 125.754 58.7656Z" fill="white"/>
<path d="M137.855 67.0718L141.445 69.9974L143.485 67.4935L145.991 67.4521L145.861 73.5955L150.223 77.1487L150.16 67.3924L158.221 67.276L153.708 63.5994L146.562 63.7739L146.534 63.7515L149.471 60.147L145.88 57.2214L137.855 67.0718Z" fill="white"/>
<path d="M153.756 80.828C155.609 82.5353 157.673 83.2543 159.288 82.8364L159.301 82.8484L158.372 84.695L161.048 87.1598L165.064 82.8004C166.591 81.1428 165.499 78.3996 162.536 75.6703C160.408 73.7105 157.765 72.3371 155.642 72.0223L154.973 74.3731C157.009 74.7291 159.317 75.8903 160.949 77.3932C162.084 78.4392 162.6 79.3725 162.299 79.6988C162.179 79.8293 161.913 79.7774 161.602 79.539L158.814 77.4054C155.781 75.0935 153.308 74.5042 152.069 75.8485C150.987 77.0232 151.615 78.8561 153.756 80.828ZM156.535 80.0106C155.622 79.169 155.319 78.5284 155.632 78.189C155.956 77.8366 156.672 78.1338 157.749 78.9813L160.744 81.2822L160.72 81.3083C159.963 82.1306 158.284 81.6217 156.535 80.0106Z" fill="white"/>
<path d="M166.583 93.2344C168.157 94.8477 169.641 95.6065 171.547 95.7306L172.617 93.4474C171.275 93.368 170.313 93.0172 169.446 92.128C168.553 91.2134 168.563 90.4104 169.351 89.6421L171.066 87.9693L174.969 91.9708L176.798 90.1865L172.895 86.185L175.182 83.9546L171.724 81.4771L169.971 83.187L168.186 81.3578L166.357 83.1421L168.142 84.9714L165.766 87.3136C164.191 88.8501 164.501 91.1003 166.583 93.2344Z" fill="white"/>
<path d="M171.141 103.602C174.499 107.407 178.398 108.392 181.006 106.09L186.567 101.182L183.796 98.0416L180.922 100.578C179.618 101.729 178.029 101.617 176.901 100.34C175.927 99.2356 176.053 97.8228 177.223 96.7894L180.297 94.0768L177.514 90.9236L174.096 93.9165C172.087 95.6897 171.928 98.4331 173.925 100.695C175.369 102.331 177.315 102.981 178.875 102.361L178.887 102.375L178.381 102.821C177.037 104.007 174.985 103.452 173.188 101.416C172.084 100.165 171.257 98.3158 170.923 96.8115L168.03 97.6369C168.316 99.3017 169.497 101.739 171.141 103.602Z" fill="white"/>
<path d="M183.316 112.215C184.871 114.197 186.793 115.238 188.455 115.084L188.466 115.098L187.253 116.772L189.499 119.633L194.162 115.974C195.935 114.583 195.296 111.7 192.809 108.531C191.024 106.256 188.634 104.476 186.59 103.825L185.552 106.038C187.505 106.716 189.597 108.232 190.967 109.977C191.92 111.192 192.279 112.196 191.93 112.47C191.79 112.579 191.536 112.485 191.267 112.2L188.858 109.647C186.234 106.879 183.887 105.901 182.45 107.029C181.193 108.015 181.519 109.925 183.316 112.215ZM186.19 111.853C185.423 110.876 185.228 110.195 185.59 109.91C185.967 109.615 186.626 110.023 187.553 111.032L190.141 113.783L190.113 113.805C189.234 114.495 187.658 113.724 186.19 111.853Z" fill="white"/>
<path d="M195.472 128.657C196.749 130.557 198.545 131.445 200.286 131.3L200.296 131.315L198.703 132.921L200.724 135.925L208.322 130.814L205.984 127.339L202.421 129.736C200.978 130.707 199.52 130.383 198.529 128.91C197.658 127.615 197.874 126.378 199.082 125.566L203.013 122.922L200.686 119.461L196.376 122.339C194.172 123.8 193.848 126.242 195.472 128.657Z" fill="white"/>
<path d="M214.091 139.794C212.918 137.828 211.173 136.844 209.426 136.895L209.417 136.88L211.094 135.362L209.239 132.254L201.376 136.946L203.522 140.543L207.21 138.342C208.703 137.45 210.142 137.852 211.051 139.376C211.852 140.717 211.569 141.94 210.319 142.686L206.251 145.114L208.388 148.695L212.847 146.055C215.126 144.715 215.582 142.293 214.091 139.794Z" fill="white"/>
<path d="M210.749 153.741C211.814 155.767 213.642 157.031 215.41 156.923L215.418 156.939L213.585 158.524L215.27 161.728L226.987 155.566L225.029 151.844L219.344 154.834L219.336 154.818C220.419 153.447 220.437 151.232 219.371 149.206C217.851 146.316 215.148 145.331 212.541 146.703C209.934 148.074 209.229 150.851 210.749 153.741ZM214.123 154.171C213.231 152.475 213.375 150.996 214.49 150.409C215.605 149.823 216.922 150.534 217.814 152.23C218.706 153.926 218.546 155.414 217.431 156.001C216.316 156.587 215.015 155.868 214.123 154.171Z" fill="white"/>
<path d="M216.583 174.242C218.693 179.13 221.947 181.34 225.042 180.004L232.113 176.951L230.679 173.628L228.343 174.037L228.336 174.021C229.519 172.776 229.716 170.68 228.865 168.709C227.522 165.597 224.946 164.331 222.29 165.478C219.667 166.61 218.842 169.266 220.15 172.297C220.994 174.252 222.398 175.714 223.718 175.995L223.725 176.011L223.318 176.187C221.835 176.827 220.196 175.582 219.071 172.975C218.36 171.33 218.038 169.42 218.221 168.007L215.164 167.819C214.962 169.279 215.493 171.717 216.583 174.242ZM223.03 173.102C222.284 171.375 222.621 169.916 223.843 169.388C225.065 168.861 226.358 169.617 227.103 171.344C227.849 173.071 227.512 174.531 226.29 175.058C225.068 175.586 223.775 174.829 223.03 173.102Z" fill="white"/>
<path d="M234.161 179.77C234.648 181.028 235.795 181.631 236.92 181.195C238.046 180.759 238.471 179.548 237.984 178.29C237.497 177.033 236.367 176.424 235.242 176.859C234.117 177.295 233.675 178.512 234.161 179.77ZM223.956 181.475L225.468 185.381L234.007 182.075L232.495 178.17L223.956 181.475Z" fill="white"/>
<path d="M228.565 194.884C229.627 197.971 232.132 199.362 234.918 198.403C237.703 197.445 238.84 194.802 237.777 191.714C237.033 189.55 235.408 188.045 233.667 187.893L233.661 187.876L239.735 185.786L238.367 181.809L225.849 186.116L227.027 189.539L229.437 189.291L229.443 189.308C228.147 190.505 227.814 192.702 228.565 194.884ZM230.559 192.115C229.941 190.319 230.303 188.862 231.494 188.452C232.686 188.043 233.884 188.963 234.502 190.758C235.126 192.57 234.741 194.016 233.55 194.426C232.358 194.836 231.182 193.927 230.559 192.115Z" fill="white"/>
<path d="M242.444 204.516C242.809 205.814 243.894 206.522 245.055 206.195C246.217 205.868 246.755 204.702 246.389 203.404C246.024 202.106 244.956 201.393 243.795 201.72C242.633 202.047 242.078 203.218 242.444 204.516ZM232.123 205.248L233.258 209.279L242.072 206.796L240.936 202.765L232.123 205.248Z" fill="white"/>
<path d="M233.98 211.643L234.948 215.718L239.127 214.725C240.819 214.323 242.07 215.139 242.48 216.865C242.841 218.385 242.204 219.466 240.789 219.802L236.179 220.898L237.143 224.955L242.188 223.774C244.765 223.181 245.927 221.008 245.254 218.176C244.725 215.949 243.393 214.642 241.707 214.149L241.703 214.132L247.832 212.675L246.86 208.584L233.98 211.643Z" fill="white"/>
<path d="M247.934 231.301C247.631 229.678 246.45 228.382 244.861 227.993L244.858 227.976L246.829 227.03L246.188 223.593L237.186 225.274L237.959 229.409L241.971 228.659C243.68 228.34 244.892 228.836 245.11 230.005C245.27 230.859 244.526 231.612 243.196 231.933L244.632 235.564C247.013 234.975 248.309 233.307 247.934 231.301Z" fill="white"/>
<path d="M240.551 247.663C240.812 249.937 242.058 251.777 243.746 252.316L243.748 252.333L241.465 253.149L241.877 256.745L255.03 255.239L254.551 251.06L248.169 251.791L248.167 251.774C249.673 250.887 250.491 248.828 250.23 246.554C249.859 243.31 247.695 241.414 244.768 241.75C241.841 242.085 240.18 244.419 240.551 247.663ZM243.541 249.285C243.323 247.381 243.993 246.054 245.245 245.91C246.496 245.767 247.466 246.906 247.685 248.81C247.903 250.714 247.215 252.043 245.964 252.187C244.712 252.33 243.759 251.189 243.541 249.285Z" fill="white"/>
<path d="M252.085 258.339C252.189 259.683 253.113 260.591 254.316 260.498C255.52 260.405 256.276 259.367 256.172 258.023C256.068 256.678 255.161 255.769 253.958 255.862C252.755 255.955 251.981 256.994 252.085 258.339ZM241.821 257.031L242.144 261.207L251.273 260.502L250.951 256.326L241.821 257.031Z" fill="white"/>
<path d="M242.373 270.991C242.463 273.438 243.098 275.759 243.942 276.971L245.886 275.745C245.319 274.825 244.862 273.013 244.796 271.204C244.733 269.483 245.1 267.872 246.146 267.354L246.497 276.93C246.802 277.008 247.194 277.029 247.46 277.019C250.403 276.911 252.236 274.092 252.083 269.924C251.928 265.686 249.815 262.798 246.96 262.903C243.981 263.012 242.2 266.273 242.373 270.991ZM247.935 267.217C248.969 267.339 249.739 268.465 249.794 269.973C249.848 271.445 249.183 272.677 248.138 272.768L247.935 267.217Z" fill="white"/>
<path d="M242.51 284.178C242.457 287.762 243.429 290.456 245.718 290.489C247.546 290.516 248.351 288.842 248.649 285.492L248.877 283.224C248.982 282.125 249.132 281.577 249.487 281.582C249.948 281.589 250.163 282.728 250.141 284.201C250.117 285.851 249.648 287.583 249.046 288.71L250.965 289.732C251.787 288.129 252.223 286.219 252.252 284.285C252.304 280.683 251.314 278.059 249.025 278.026C247.357 278.001 246.588 279.57 246.33 282.654L246.119 284.923C246.012 286.181 245.807 286.835 245.435 286.829C245.009 286.823 244.738 285.932 244.767 283.944C244.798 281.868 245.399 279.57 246.18 278.339L244.067 277.208C243.175 278.739 242.548 281.551 242.51 284.178Z" fill="white"/>
<path d="M241.852 299.56C241.682 302.003 242.068 304.378 242.779 305.673L244.841 304.66C244.375 303.685 244.113 301.834 244.238 300.029C244.358 298.311 244.893 296.748 245.989 296.344L245.324 305.903C245.619 306.013 246.006 306.075 246.271 306.094C249.21 306.298 251.331 303.688 251.62 299.528C251.914 295.297 250.119 292.201 247.269 292.003C244.295 291.796 242.179 294.851 241.852 299.56ZM247.782 296.397C248.797 296.628 249.443 297.829 249.339 299.334C249.236 300.803 248.445 301.958 247.396 301.938L247.782 296.397Z" fill="white"/>
<path d="M241.101 311.803L239.484 322.811C239.041 325.831 240.079 327.795 242.239 328.112C243.661 328.321 244.899 327.588 245.501 326.17L245.537 326.175C245.79 327.504 246.68 328.406 247.944 328.591C250.121 328.911 251.666 327.309 252.107 324.306L253.672 313.649L241.101 311.803ZM247.925 317.486L250.488 317.863L249.818 322.428C249.66 323.499 249.091 324.079 248.283 323.96C247.476 323.841 247.097 323.122 247.254 322.051L247.925 317.486ZM242.941 316.736L245.68 317.139L244.971 321.967C244.806 323.091 244.176 323.715 243.316 323.589C242.491 323.468 242.067 322.688 242.232 321.565L242.941 316.736Z" fill="white"/>
<path d="M238.641 327.775L237.864 331.908L250.875 334.354L251.652 330.22L238.641 327.775Z" fill="white"/>
<path d="M236.156 338.677C235.643 340.908 236.222 342.826 237.519 343.998L237.515 344.015L235.254 343.951L234.443 347.479L243.368 349.529L244.305 345.447L240.12 344.486C238.425 344.096 237.664 342.811 238.061 341.082C238.411 339.56 239.461 338.872 240.879 339.198L245.497 340.259L246.431 336.194L241.384 335.017C238.811 334.408 236.807 335.841 236.156 338.677Z" fill="white"/>
<path d="M234.315 348.534L233.092 352.559L237.116 353.781C238.662 354.25 239.322 355.434 238.858 356.962C238.482 358.201 237.524 358.727 236.302 358.355L231.751 356.973L230.534 360.981L234.558 362.203C236.104 362.672 236.764 363.856 236.3 365.384C235.918 366.64 234.966 367.149 233.744 366.777L229.193 365.395L227.971 369.419L233.116 370.982C235.459 371.694 237.485 370.64 238.274 368.042C238.862 366.107 238.453 364.035 237.104 362.735L237.11 362.718C238.821 362.7 240.214 361.658 240.832 359.62C241.441 357.617 240.974 355.676 239.671 354.408L239.676 354.391L242.06 354.541L243.076 351.196L234.315 348.534Z" fill="white"/>
<path d="M224.642 377.067C223.77 379.355 223.449 381.74 223.753 383.185L226.021 382.815C225.859 381.747 226.145 379.9 226.79 378.209C227.403 376.6 228.37 375.26 229.535 375.191L226.122 384.145C226.372 384.336 226.724 384.508 226.973 384.603C229.726 385.652 232.513 383.771 233.998 379.874C235.509 375.911 234.691 372.428 232.021 371.41C229.236 370.348 226.324 372.656 224.642 377.067ZM231.235 375.763C232.14 376.279 232.409 377.616 231.872 379.026C231.347 380.402 230.254 381.277 229.257 380.953L231.235 375.763Z" fill="white"/>
<path d="M227.301 395.977C228.233 393.886 228.033 391.893 226.986 390.493L226.993 390.477L229.2 390.975L230.673 387.668L222.309 383.941L220.605 387.767L224.527 389.514C226.116 390.222 226.615 391.63 225.893 393.251C225.257 394.677 224.095 395.15 222.766 394.558L218.438 392.629L216.74 396.439L221.466 398.564C223.874 399.656 226.117 398.635 227.301 395.977Z" fill="white"/>
</mask>
<g mask="url(#mask0_1_8773)">
<g filter="url(#filter0_f_1_8773)">
<path d="M23.8866 52.4179C44.3975 20.3309 84.3959 14.4903 113.226 39.3724L137.727 60.5188C166.557 85.401 173.3 131.584 152.79 163.671L131.52 196.944C111.01 229.031 71.0111 234.871 42.1814 209.989L17.6801 188.843C-11.1496 163.961 -17.8934 117.778 2.61753 85.691L23.8866 52.4179Z" fill="url(#paint0_radial_1_8773)"/>
<path d="M23.8866 52.4179C44.3975 20.3309 84.3959 14.4903 113.226 39.3724L137.727 60.5188C166.557 85.401 173.3 131.584 152.79 163.671L131.52 196.944C111.01 229.031 71.0111 234.871 42.1814 209.989L17.6801 188.843C-11.1496 163.961 -17.8934 117.778 2.61753 85.691L23.8866 52.4179Z" stroke="#00E29A" stroke-width="8.10214"/>
</g>
<g filter="url(#filter1_f_1_8773)">
<rect width="160.874" height="161.717" rx="76.7757" transform="matrix(0.668273 0.743916 -0.636143 0.771571 24.8068 -16.4778)" fill="url(#paint1_radial_1_8773)"/>
</g>
<g filter="url(#filter2_f_1_8773)">
<path d="M73.4832 -38.6945C110.46 -67.4437 159.384 -57.8451 182.757 -17.2555L215.67 39.9014C239.043 80.491 228.015 136.701 191.038 165.45L155.112 193.383C118.135 222.132 69.2113 212.533 45.8382 171.944L12.9249 114.787C-10.4483 74.1973 0.579831 17.987 37.5569 -10.7622L73.4832 -38.6945Z" fill="url(#paint2_radial_1_8773)"/>
</g>
<g filter="url(#filter3_f_1_8773)">
<rect width="234.035" height="235.26" rx="94.4277" transform="matrix(0.668273 0.743916 -0.636143 0.771571 26.4772 -129.152)" fill="url(#paint3_radial_1_8773)"/>
</g>
<g filter="url(#filter4_f_1_8773)">
<path d="M-18.1909 122.605C-27.6175 81.2581 -2.40245 37.6259 38.1283 25.1496C78.6591 12.6732 119.158 36.0773 128.584 77.4239L133.25 97.8883C142.676 139.235 117.461 182.867 76.9304 195.343C36.3996 207.82 -4.0988 184.416 -13.5253 143.069L-18.1909 122.605Z" fill="url(#paint4_angular_1_8773)"/>
</g>
<g filter="url(#filter5_f_1_8773)">
<rect width="192.162" height="203.666" rx="94.2481" transform="matrix(-0.795041 -0.606556 0.49195 -0.870624 -110.17 122.834)" fill="url(#paint5_radial_1_8773)"/>
</g>
<path d="M-173.466 218.758C-211.519 261.862 -272.324 261.096 -309.28 217.048L-356.594 160.652C-393.55 116.604 -392.66 45.9525 -354.608 2.84826L-312.789 -44.5227C-274.736 -87.6269 -213.931 -86.8615 -176.975 -42.813L-129.661 13.5827C-92.7054 57.6311 -93.5948 128.282 -131.647 171.387L-173.466 218.758Z" fill="url(#paint6_radial_1_8773)"/>
<g filter="url(#filter7_f_1_8773)">
<rect width="279.551" height="296.286" rx="115.917" transform="matrix(-0.795041 -0.606556 0.49195 -0.870624 -90.5254 259.275)" fill="url(#paint7_radial_1_8773)"/>
</g>
<g filter="url(#filter8_f_1_8773)">
<path d="M-63.3208 11.4369C-43.2974 60.6103 -64.7817 121.209 -111.308 146.789C-157.833 172.369 -211.782 153.242 -231.805 104.069L-238.848 86.7737C-258.871 37.6003 -237.387 -22.9989 -190.861 -48.5785C-144.335 -74.158 -90.3867 -55.0314 -70.3633 -5.858L-63.3208 11.4369Z" fill="url(#paint8_angular_1_8773)"/>
</g>
<g filter="url(#filter9_f_1_8773)">
<path d="M219.296 41.214C201.121 84.2854 153.459 100.441 112.84 77.2984L82.9514 60.2696C42.3323 37.1271 24.138 -16.5498 42.3132 -59.6212L63.0941 -108.868C81.2693 -151.939 128.931 -168.095 169.55 -144.952L199.439 -127.923C240.058 -104.781 258.252 -51.1037 240.077 -8.03234L219.296 41.214Z" fill="url(#paint9_radial_1_8773)"/>
<path d="M219.296 41.214C201.121 84.2854 153.459 100.441 112.84 77.2984L82.9514 60.2696C42.3323 37.1271 24.138 -16.5498 42.3132 -59.6212L63.0941 -108.868C81.2693 -151.939 128.931 -168.095 169.55 -144.952L199.439 -127.923C240.058 -104.781 258.252 -51.1037 240.077 -8.03234L219.296 41.214Z" stroke="#00E29A" stroke-width="9.946"/>
</g>
<g filter="url(#filter10_f_1_8773)">
<rect width="192.162" height="203.666" rx="94.2481" transform="matrix(-0.795041 -0.606556 0.49195 -0.870624 232.179 122.834)" fill="url(#paint10_radial_1_8773)"/>
</g>
<g filter="url(#filter11_f_1_8773)">
<path d="M168.883 218.758C130.831 261.862 70.0249 261.096 33.0695 217.048L-14.2448 160.652C-51.2002 116.604 -50.3108 45.9525 -12.2584 2.84826L29.5607 -44.5227C67.6131 -87.6269 128.419 -86.8615 165.374 -42.813L212.689 13.5827C249.644 57.6311 248.755 128.282 210.702 171.387L168.883 218.758Z" fill="url(#paint11_radial_1_8773)"/>
</g>
<g filter="url(#filter12_f_1_8773)">
<rect width="279.551" height="296.286" rx="115.917" transform="matrix(-0.795041 -0.606556 0.49195 -0.870624 251.824 259.275)" fill="url(#paint12_radial_1_8773)"/>
</g>
<g filter="url(#filter13_f_1_8773)">
<path d="M279.029 11.4369C299.052 60.6103 277.568 121.209 231.042 146.789C184.516 172.369 130.567 153.242 110.544 104.069L103.501 86.7737C83.478 37.6003 104.962 -22.9989 151.488 -48.5785C198.014 -74.158 251.963 -55.0314 271.986 -5.858L279.029 11.4369Z" fill="url(#paint13_angular_1_8773)"/>
</g>
</g>
<defs>
<filter id="filter0_f_1_8773" x="-51.6291" y="-18.9868" width="258.665" height="287.335" filterUnits="userSpaceOnUse" color-interpolation-filters="sRGB">
<feFlood flood-opacity="0" result="BackgroundImageFix"/>
<feBlend mode="normal" in="SourceGraphic" in2="BackgroundImageFix" result="shape"/>
<feGaussianBlur stdDeviation="19.3072" result="effect1_foregroundBlur_1_8773"/>
</filter>
<filter id="filter1_f_1_8773" x="-85.8976" y="-19.5528" width="226.042" height="250.603" filterUnits="userSpaceOnUse" color-interpolation-filters="sRGB">
<feFlood flood-opacity="0" result="BackgroundImageFix"/>
<feBlend mode="normal" in="SourceGraphic" in2="BackgroundImageFix" result="shape"/>
<feGaussianBlur stdDeviation="18.5701" result="effect1_foregroundBlur_1_8773"/>
</filter>
<filter id="filter2_f_1_8773" x="-63.7783" y="-119.708" width="356.152" height="394.105" filterUnits="userSpaceOnUse" color-interpolation-filters="sRGB">
<feFlood flood-opacity="0" result="BackgroundImageFix"/>
<feBlend mode="normal" in="SourceGraphic" in2="BackgroundImageFix" result="shape"/>
<feGaussianBlur stdDeviation="32.2194" result="effect1_foregroundBlur_1_8773"/>
</filter>
<filter id="filter3_f_1_8773" x="-132.811" y="-132.935" width="325.317" height="363.186" filterUnits="userSpaceOnUse" color-interpolation-filters="sRGB">
<feFlood flood-opacity="0" result="BackgroundImageFix"/>
<feBlend mode="normal" in="SourceGraphic" in2="BackgroundImageFix" result="shape"/>
<feGaussianBlur stdDeviation="22.8397" result="effect1_foregroundBlur_1_8773"/>
</filter>
<filter id="filter4_f_1_8773" x="-68.404" y="-26.4427" width="251.867" height="273.378" filterUnits="userSpaceOnUse" color-interpolation-filters="sRGB">
<feFlood flood-opacity="0" result="BackgroundImageFix"/>
<feBlend mode="normal" in="SourceGraphic" in2="BackgroundImageFix" result="shape"/>
<feGaussianBlur stdDeviation="24.1188" result="effect1_foregroundBlur_1_8773"/>
</filter>
<filter id="filter5_f_1_8773" x="-275.371" y="-177.424" width="277.818" height="306.643" filterUnits="userSpaceOnUse" color-interpolation-filters="sRGB">
<feFlood flood-opacity="0" result="BackgroundImageFix"/>
<feBlend mode="normal" in="SourceGraphic" in2="BackgroundImageFix" result="shape"/>
<feGaussianBlur stdDeviation="22.7963" result="effect1_foregroundBlur_1_8773"/>
</filter>
<filter id="filter7_f_1_8773" x="-328.061" y="-176.094" width="398.574" height="443.223" filterUnits="userSpaceOnUse" color-interpolation-filters="sRGB">
<feFlood flood-opacity="0" result="BackgroundImageFix"/>
<feBlend mode="normal" in="SourceGraphic" in2="BackgroundImageFix" result="shape"/>
<feGaussianBlur stdDeviation="28.0375" result="effect1_foregroundBlur_1_8773"/>
</filter>
<filter id="filter8_f_1_8773" x="-305.557" y="-119.141" width="308.946" height="336.492" filterUnits="userSpaceOnUse" color-interpolation-filters="sRGB">
<feFlood flood-opacity="0" result="BackgroundImageFix"/>
<feBlend mode="normal" in="SourceGraphic" in2="BackgroundImageFix" result="shape"/>
<feGaussianBlur stdDeviation="29.6077" result="effect1_foregroundBlur_1_8773"/>
</filter>
<filter id="filter9_f_1_8773" x="-16.8709" y="-208.118" width="316.132" height="348.583" filterUnits="userSpaceOnUse" color-interpolation-filters="sRGB">
<feFlood flood-opacity="0" result="BackgroundImageFix"/>
<feBlend mode="normal" in="SourceGraphic" in2="BackgroundImageFix" result="shape"/>
<feGaussianBlur stdDeviation="23.7011" result="effect1_foregroundBlur_1_8773"/>
</filter>
<filter id="filter10_f_1_8773" x="66.978" y="-177.424" width="277.818" height="306.643" filterUnits="userSpaceOnUse" color-interpolation-filters="sRGB">
<feFlood flood-opacity="0" result="BackgroundImageFix"/>
<feBlend mode="normal" in="SourceGraphic" in2="BackgroundImageFix" result="shape"/>
<feGaussianBlur stdDeviation="22.7963" result="effect1_foregroundBlur_1_8773"/>
</filter>
<filter id="filter11_f_1_8773" x="-120.493" y="-155.46" width="439.431" height="485.155" filterUnits="userSpaceOnUse" color-interpolation-filters="sRGB">
<feFlood flood-opacity="0" result="BackgroundImageFix"/>
<feBlend mode="normal" in="SourceGraphic" in2="BackgroundImageFix" result="shape"/>
<feGaussianBlur stdDeviation="39.5518" result="effect1_foregroundBlur_1_8773"/>
</filter>
<filter id="filter12_f_1_8773" x="14.2887" y="-176.094" width="398.574" height="443.223" filterUnits="userSpaceOnUse" color-interpolation-filters="sRGB">
<feFlood flood-opacity="0" result="BackgroundImageFix"/>
<feBlend mode="normal" in="SourceGraphic" in2="BackgroundImageFix" result="shape"/>
<feGaussianBlur stdDeviation="28.0375" result="effect1_foregroundBlur_1_8773"/>
</filter>
<filter id="filter13_f_1_8773" x="36.7922" y="-119.141" width="308.946" height="336.492" filterUnits="userSpaceOnUse" color-interpolation-filters="sRGB">
<feFlood flood-opacity="0" result="BackgroundImageFix"/>
<feBlend mode="normal" in="SourceGraphic" in2="BackgroundImageFix" result="shape"/>
<feGaussianBlur stdDeviation="29.6077" result="effect1_foregroundBlur_1_8773"/>
</filter>
<radialGradient id="paint0_radial_1_8773" cx="0" cy="0" r="1" gradientUnits="userSpaceOnUse" gradientTransform="translate(50.2166 98.7563) rotate(122.02) scale(386.727 366.346)">
<stop stop-color="#5AE9FD"/>
<stop offset="1" stop-color="#5AE9FD" stop-opacity="0"/>
</radialGradient>
<radialGradient id="paint1_radial_1_8773" cx="0" cy="0" r="1" gradientUnits="userSpaceOnUse" gradientTransform="translate(80.4372 80.8584) rotate(90) scale(80.8584 80.4372)">
<stop stop-color="#38FF70"/>
<stop offset="1" stop-color="#4AE074" stop-opacity="0.65"/>
</radialGradient>
<radialGradient id="paint2_radial_1_8773" cx="0" cy="0" r="1" gradientUnits="userSpaceOnUse" gradientTransform="translate(114.298 77.3441) rotate(142.135) scale(107.562 370.963)">
<stop stop-color="#6012C3"/>
<stop offset="1" stop-color="#9949FF" stop-opacity="0.37"/>
</radialGradient>
<radialGradient id="paint3_radial_1_8773" cx="0" cy="0" r="1" gradientUnits="userSpaceOnUse" gradientTransform="translate(186.398 137.439) rotate(150.978) scale(110.577 111.082)">
<stop stop-color="#FFF9C5"/>
<stop offset="0.755208" stop-color="#FF5C00"/>
<stop offset="1" stop-color="#FF451C"/>
</radialGradient>
<radialGradient id="paint4_angular_1_8773" cx="0" cy="0" r="1" gradientUnits="userSpaceOnUse" gradientTransform="translate(57.5294 110.247) rotate(77.1568) scale(87.2805 77.4007)">
<stop stop-color="#FFF5CF"/>
<stop offset="1" stop-color="#FFD84B" stop-opacity="0"/>
</radialGradient>
<radialGradient id="paint5_radial_1_8773" cx="0" cy="0" r="1" gradientUnits="userSpaceOnUse" gradientTransform="translate(96.0812 101.833) rotate(90) scale(101.833 96.0812)">
<stop stop-color="#38FF70"/>
<stop offset="1" stop-color="#4AE074" stop-opacity="0.65"/>
</radialGradient>
<radialGradient id="paint6_radial_1_8773" cx="0" cy="0" r="1" gradientUnits="userSpaceOnUse" gradientTransform="translate(-243.127 87.1174) rotate(-48.562) scale(135.703 443.094)">
<stop stop-color="#396AE6"/>
<stop offset="1" stop-color="#495BFF" stop-opacity="0.37"/>
</radialGradient>
<radialGradient id="paint7_radial_1_8773" cx="0" cy="0" r="1" gradientUnits="userSpaceOnUse" gradientTransform="translate(222.65 173.09) rotate(149.674) scale(133.806 138.094)">
<stop stop-color="#FFF9C5"/>
<stop offset="0.755208" stop-color="#FFC93D"/>
<stop offset="1" stop-color="#FF451C"/>
</radialGradient>
<radialGradient id="paint8_angular_1_8773" cx="0" cy="0" r="1" gradientUnits="userSpaceOnUse" gradientTransform="translate(-115.321 70.9623) rotate(-122.29) scale(141.408 148.928)">
<stop stop-color="white"/>
<stop offset="1" stop-color="#FFF8B9" stop-opacity="0"/>
</radialGradient>
<radialGradient id="paint9_radial_1_8773" cx="0" cy="0" r="1" gradientUnits="userSpaceOnUse" gradientTransform="translate(179.358 -9.66791) rotate(-67.6638) scale(485.433 439.81)">
<stop stop-color="#5AE9FD"/>
<stop offset="1" stop-color="#5AE9FD" stop-opacity="0"/>
</radialGradient>
<radialGradient id="paint10_radial_1_8773" cx="0" cy="0" r="1" gradientUnits="userSpaceOnUse" gradientTransform="translate(96.0812 101.833) rotate(90) scale(101.833 96.0812)">
<stop stop-color="#38FF70"/>
<stop offset="1" stop-color="#4AE074" stop-opacity="0.65"/>
</radialGradient>
<radialGradient id="paint11_radial_1_8773" cx="0" cy="0" r="1" gradientUnits="userSpaceOnUse" gradientTransform="translate(99.2219 87.1174) rotate(-48.562) scale(135.703 443.094)">
<stop stop-color="#396AE6"/>
<stop offset="1" stop-color="#495BFF" stop-opacity="0.37"/>
</radialGradient>
<radialGradient id="paint12_radial_1_8773" cx="0" cy="0" r="1" gradientUnits="userSpaceOnUse" gradientTransform="translate(222.65 173.09) rotate(149.674) scale(133.806 138.094)">
<stop stop-color="#FFF9C5"/>
<stop offset="0.755208" stop-color="#FFC93D"/>
<stop offset="1" stop-color="#FF451C"/>
</radialGradient>
<radialGradient id="paint13_angular_1_8773" cx="0" cy="0" r="1" gradientUnits="userSpaceOnUse" gradientTransform="translate(227.028 70.9623) rotate(-122.29) scale(141.408 148.928)">
<stop stop-color="white"/>
<stop offset="1" stop-color="#FFF8B9" stop-opacity="0"/>
</radialGradient>
</defs>
</svg>
