<svg width="140" height="435" viewBox="0 0 140 435" fill="none" xmlns="http://www.w3.org/2000/svg">
<mask id="mask0_1_8800" style="mask-type:alpha" maskUnits="userSpaceOnUse" x="-117" y="0" width="257" height="435">
<path d="M-57.8233 428.196L-60.3035 424.285L-63.5856 426.366L-66.5695 421.66C-68.508 418.602 -70.8857 417.736 -73.2631 419.222C-75.691 420.761 -75.9661 423.31 -74.037 426.353L-68.554 435L-57.8233 428.196ZM-65.7887 427.762L-68.8311 429.692L-71.0072 426.26C-71.8719 424.896 -71.8075 423.804 -70.8334 423.187C-69.8442 422.559 -68.8296 422.967 -67.9648 424.33L-65.7887 427.762Z" fill="white"/>
<path d="M-66.3823 414.47L-68.4958 410.834L-79.9411 417.487L-77.8276 421.123L-66.3823 414.47Z" fill="white"/>
<path d="M-72.5889 402.769C-73.7371 400.606 -75.3214 398.795 -76.6091 398.072L-77.8238 400.023C-76.9126 400.604 -75.7107 402.036 -74.862 403.634C-74.0549 405.155 -73.6822 406.765 -74.398 407.688L-78.8912 399.224C-79.1992 399.287 -79.5607 399.438 -79.7958 399.563C-82.3977 400.944 -82.8165 404.281 -80.8611 407.964C-78.8725 411.71 -75.7118 413.388 -73.1882 412.048C-70.555 410.65 -70.3756 406.939 -72.5889 402.769ZM-75.9478 408.591C-76.9318 408.932 -78.1153 408.255 -78.8225 406.922C-79.5131 405.621 -79.452 404.223 -78.5522 403.685L-75.9478 408.591Z" fill="white"/>
<path d="M-77.9954 391.957C-79.0469 389.667 -80.6739 388.208 -82.3255 387.97L-82.3329 387.954L-80.7637 386.609L-82.2817 383.303L-87.6681 385.776C-89.7162 386.716 -89.7666 389.669 -88.0857 393.329C-86.8787 395.958 -84.9695 398.245 -83.1324 399.354L-81.6079 397.443C-83.3496 396.329 -85.0313 394.368 -85.9569 392.352C-86.6012 390.949 -86.7168 389.889 -86.3137 389.704C-86.1524 389.63 -85.9271 389.78 -85.732 390.12L-83.9829 393.164C-82.0757 396.467 -80.0212 397.964 -78.3601 397.202C-76.9087 396.535 -76.781 394.602 -77.9954 391.957ZM-80.8752 391.639C-80.3568 392.768 -80.3247 393.476 -80.744 393.668C-81.1795 393.868 -81.725 393.318 -82.3919 392.121L-84.2682 388.843L-84.2359 388.828C-83.2199 388.361 -81.8674 389.478 -80.8752 391.639Z" fill="white"/>
<path d="M-84.8606 376.044C-86.1801 372.711 -88.107 370.592 -90.2354 371.435C-91.9349 372.107 -92.0404 373.962 -91.0368 377.172L-90.3822 379.356C-90.0597 380.412 -89.9892 380.975 -90.3192 381.106C-90.7482 381.276 -91.3807 380.305 -91.9229 378.935C-92.5304 377.401 -92.758 375.621 -92.6316 374.349L-94.7959 374.137C-94.9439 375.932 -94.618 377.865 -93.906 379.663C-92.58 383.013 -90.6628 385.059 -88.5343 384.217C-86.9833 383.603 -86.8717 381.86 -87.8102 378.91L-88.4814 376.733C-88.8626 375.529 -88.9228 374.847 -88.5763 374.709C-88.1803 374.553 -87.5897 375.273 -86.8581 377.121C-86.0939 379.052 -85.7727 381.406 -86.025 382.841L-83.64 383.081C-83.3998 381.325 -83.8939 378.486 -84.8606 376.044Z" fill="white"/>
<path d="M-89.8363 362.337C-90.6154 360.016 -91.8821 357.97 -93.0343 357.046L-94.5517 358.772C-93.7478 359.494 -92.7962 361.103 -92.2204 362.819C-91.6728 364.451 -91.5685 366.1 -92.4255 366.893L-95.4739 357.809C-95.7881 357.82 -96.1696 357.911 -96.4219 357.996C-99.2147 358.933 -100.173 362.156 -98.8468 366.109C-97.4976 370.13 -94.6538 372.302 -91.9451 371.393C-89.1187 370.445 -88.3347 366.812 -89.8363 362.337ZM-94.1021 367.531C-95.1287 367.707 -96.1854 366.845 -96.6653 365.415C-97.1338 364.018 -96.8447 362.649 -95.8691 362.265L-94.1021 367.531Z" fill="white"/>
<path d="M-91.073 345.126C-92.4005 339.971 -95.273 337.284 -98.5382 338.124L-105.997 340.045L-105.094 343.551L-102.723 343.508L-102.718 343.525C-104.079 344.572 -104.599 346.612 -104.063 348.691C-103.218 351.973 -100.869 353.623 -98.0683 352.901C-95.3015 352.189 -94.0752 349.693 -94.8982 346.496C-95.4293 344.434 -96.5902 342.772 -97.8503 342.29L-97.8548 342.273L-97.4251 342.162C-95.8613 341.76 -94.4348 343.243 -93.7268 345.993C-93.2798 347.729 -93.2576 349.665 -93.6568 351.032L-90.6652 351.691C-90.2404 350.281 -90.3871 347.79 -91.073 345.126ZM-97.6186 345.254C-97.1495 347.076 -97.7078 348.466 -98.9967 348.797C-100.286 349.129 -101.446 348.182 -101.915 346.36C-102.384 344.539 -101.826 343.149 -100.537 342.817C-99.2478 342.485 -98.0876 343.432 -97.6186 345.254Z" fill="white"/>
<path d="M-98.4268 329.744C-99.2935 325.375 -101.74 322.893 -104.629 323.467C-107.519 324.04 -108.85 327.271 -107.983 331.64C-107.12 335.991 -104.656 338.47 -101.767 337.897C-98.8773 337.323 -97.5636 334.096 -98.4268 329.744ZM-100.829 330.221C-100.456 332.101 -101.154 333.505 -102.582 333.789C-104.009 334.072 -105.191 333.04 -105.564 331.16C-105.936 329.28 -105.238 327.875 -103.811 327.592C-102.384 327.309 -101.202 328.341 -100.829 330.221Z" fill="white"/>
<path d="M-101.527 310.274C-101.808 308.038 -102.533 306.537 -103.978 305.288L-106.209 306.463C-105.187 307.336 -104.632 308.196 -104.477 309.429C-104.317 310.697 -104.81 311.331 -105.901 311.468L-108.278 311.767L-108.976 306.221L-111.512 306.54L-110.814 312.086L-113.983 312.485L-112.721 316.547L-110.291 316.242L-109.972 318.777L-107.437 318.458L-107.756 315.923L-104.448 315.489C-102.264 315.214 -101.155 313.232 -101.527 310.274Z" fill="white"/>
<path d="M-102.779 297.338C-103.105 292.896 -105.23 290.134 -108.168 290.35C-111.106 290.566 -112.822 293.61 -112.495 298.052C-112.169 302.477 -110.027 305.237 -107.089 305.021C-104.151 304.805 -102.453 301.762 -102.779 297.338ZM-105.221 297.517C-105.08 299.429 -105.945 300.738 -107.396 300.845C-108.847 300.951 -109.894 299.783 -110.035 297.871C-110.175 295.96 -109.311 294.651 -107.86 294.544C-106.408 294.437 -105.362 295.606 -105.221 297.517Z" fill="white"/>
<path d="M-103.794 284.406L-103.777 279.774L-107.007 279.763L-108.615 277.84L-103.756 274.078L-103.735 268.453L-111.282 274.636L-116.441 268.441L-116.463 274.262L-111.833 279.709L-111.834 279.745L-116.483 279.728L-116.5 284.359L-103.794 284.406Z" fill="white"/>
<path d="M-103.121 263.632C-102.964 261.117 -103.708 259.062 -105.051 258.072L-105.05 258.054L-103.031 257.611L-102.805 253.98L-108.721 253.612C-110.97 253.472 -112.41 256.049 -112.66 260.07C-112.84 262.957 -112.239 265.874 -111.145 267.72L-108.898 266.758C-109.906 264.953 -110.46 262.429 -110.323 260.215C-110.227 258.674 -109.827 257.686 -109.385 257.713C-109.207 257.724 -109.08 257.963 -109.069 258.355L-108.967 261.864C-108.849 265.676 -107.747 267.967 -105.922 268.081C-104.328 268.18 -103.302 266.537 -103.121 263.632ZM-105.508 261.99C-105.585 263.23 -105.891 263.869 -106.352 263.84C-106.83 263.811 -107.051 263.068 -107.072 261.697L-107.175 257.922L-107.14 257.924C-106.024 257.993 -105.36 259.617 -105.508 261.99Z" fill="white"/>
<path d="M-101.621 246.165C-101.366 243.926 -101.717 242.296 -102.826 240.742L-105.272 241.357C-104.485 242.446 -104.148 243.413 -104.288 244.648C-104.432 245.917 -105.061 246.417 -106.154 246.293L-108.534 246.023L-107.903 240.468L-110.442 240.18L-111.073 245.734L-114.247 245.374L-113.979 249.619L-111.546 249.895L-111.834 252.435L-109.295 252.723L-109.007 250.184L-105.69 250.543C-103.504 250.791 -101.957 249.127 -101.621 246.165Z" fill="white"/>
<path d="M-96.3933 235.638C-95.5647 230.631 -97.2639 226.986 -100.695 226.418L-108.014 225.207L-108.697 229.339L-104.916 229.965C-103.2 230.249 -102.282 231.552 -102.561 233.233C-102.801 234.686 -103.976 235.481 -105.516 235.226L-109.561 234.556L-110.247 238.706L-105.768 239.465C-103.125 239.902 -100.898 238.292 -100.405 235.316C-100.049 233.163 -100.774 231.244 -102.24 230.426L-102.237 230.408L-101.572 230.518C-99.8035 230.811 -98.9377 232.753 -99.381 235.432C-99.6533 237.077 -100.564 238.887 -101.52 240.096L-99.0527 241.817C-97.9427 240.544 -96.799 238.089 -96.3933 235.638Z" fill="white"/>
<path d="M-97.5045 221.292C-96.9583 218.832 -97.3724 216.686 -98.5448 215.499L-98.541 215.481L-96.4776 215.358L-95.6891 211.806L-101.475 210.522C-103.675 210.033 -105.5 212.355 -106.373 216.287C-107 219.111 -106.861 222.087 -106.067 224.081L-103.698 223.48C-104.413 221.54 -104.567 218.961 -104.086 216.795C-103.751 215.288 -103.203 214.374 -102.77 214.47C-102.597 214.508 -102.508 214.764 -102.558 215.153L-103.004 218.635C-103.481 222.419 -102.749 224.854 -100.965 225.25C-99.4055 225.596 -98.1353 224.133 -97.5045 221.292ZM-99.6067 219.298C-99.876 220.511 -100.278 221.094 -100.729 220.994C-101.196 220.891 -101.298 220.123 -101.106 218.766L-100.62 215.02L-100.585 215.027C-99.4938 215.27 -99.0912 216.977 -99.6067 219.298Z" fill="white"/>
<path d="M-92.7506 202.406C-92.0271 199.992 -92.2842 197.821 -93.3672 196.552L-93.3621 196.535L-91.2952 196.562L-90.2507 193.077L-95.9281 191.375C-98.0869 190.728 -100.075 192.911 -101.232 196.77C-102.062 199.54 -102.14 202.518 -101.494 204.565L-99.0869 204.137C-99.6584 202.151 -99.625 199.567 -98.988 197.442C-98.5447 195.963 -97.9313 195.091 -97.5064 195.219C-97.3364 195.27 -97.2666 195.531 -97.3447 195.915L-98.0426 199.356C-98.793 203.095 -98.2401 205.577 -96.4892 206.102C-94.9594 206.56 -93.5863 205.193 -92.7506 202.406ZM-94.7024 200.264C-95.0591 201.454 -95.5026 202.007 -95.9446 201.874C-96.4035 201.737 -96.4496 200.963 -96.1592 199.624L-95.4019 195.923L-95.3679 195.934C-94.297 196.255 -94.0196 197.987 -94.7024 200.264Z" fill="white"/>
<path d="M-95.7307 180.383C-96.5069 182.536 -96.1617 184.509 -95.0148 185.828L-95.0208 185.845L-97.2581 185.51L-98.4856 188.916L-89.8713 192.02L-88.4512 188.081L-92.4912 186.624C-94.1273 186.035 -94.7285 184.667 -94.1268 182.998C-93.5973 181.529 -92.4724 180.972 -91.1034 181.466L-86.646 183.072L-85.232 179.149L-90.1007 177.375C-92.5822 176.462 -94.7439 177.645 -95.7307 180.383Z" fill="white"/>
<path d="M-82.5644 173.578C-81.6712 171.471 -81.8503 169.255 -83.0532 167.955L-83.0463 167.939L-80.6585 168.353L-79.246 165.02L-91.435 159.855L-93.076 163.727L-87.1613 166.234L-87.1682 166.25C-88.9157 166.281 -90.6413 167.669 -91.5346 169.777C-92.8086 172.783 -91.8585 175.499 -89.1462 176.648C-86.4339 177.798 -83.8384 176.585 -82.5644 173.578ZM-84.368 170.694C-85.1158 172.459 -86.3521 173.284 -87.5121 172.792C-88.6722 172.301 -88.9555 170.831 -88.2077 169.067C-87.4599 167.302 -86.2072 166.484 -85.0471 166.976C-83.8871 167.467 -83.6202 168.929 -84.368 170.694Z" fill="white"/>
<path d="M-70.7364 156.903C-68.3044 152.167 -68.6669 148.25 -71.6662 146.71L-78.5172 143.192L-80.171 146.412L-78.3702 147.955L-78.3783 147.971C-80.0913 147.849 -81.8342 149.029 -82.8151 150.939C-84.3635 153.954 -83.7031 156.747 -81.13 158.068C-78.5885 159.374 -76.0137 158.322 -74.5058 155.386C-73.533 153.492 -73.297 151.478 -73.919 150.281L-73.9109 150.265L-73.5163 150.468C-72.0798 151.206 -71.9987 153.262 -73.2958 155.788C-74.1146 157.382 -75.3844 158.845 -76.5909 159.602L-74.7923 162.081C-73.5379 161.309 -71.9929 159.35 -70.7364 156.903ZM-75.7144 152.651C-76.5737 154.324 -77.9143 154.992 -79.0982 154.384C-80.2822 153.776 -80.5202 152.297 -79.6609 150.624C-78.8015 148.951 -77.461 148.283 -76.2771 148.891C-75.0931 149.499 -74.8551 150.977 -75.7144 152.651Z" fill="white"/>
<path d="M-77.3739 139.407C-76.7094 138.233 -76.9698 136.964 -78.0199 136.37C-79.0701 135.775 -80.2767 136.214 -80.9411 137.387C-81.6056 138.561 -81.3606 139.821 -80.3105 140.416C-79.2604 141.01 -78.0383 140.581 -77.3739 139.407ZM-69.5877 146.221L-67.5244 142.577L-75.4929 138.065L-77.5561 141.71L-69.5877 146.221Z" fill="white"/>
<path d="M-64.599 137.635L-61.761 133.068L-66.897 123.984L-69.248 127.767L-65.3421 133.955L-65.3515 133.97L-72.6293 133.208L-74.9803 136.992L-64.599 137.635Z" fill="white"/>
<path d="M-54.1213 122.206C-52.7142 120.202 -51.8185 117.969 -51.7583 116.493L-54.0477 116.295C-54.1524 117.371 -54.8832 119.091 -55.9232 120.572C-56.9123 121.981 -58.1786 123.044 -59.3253 122.824L-53.8191 114.981C-54.015 114.735 -54.3141 114.482 -54.532 114.329C-56.9429 112.636 -60.1065 113.776 -62.5027 117.189C-64.9397 120.66 -65.0014 124.238 -62.6631 125.88C-60.2231 127.593 -56.8336 126.069 -54.1213 122.206ZM-60.833 121.852C-61.5836 121.13 -61.5163 119.768 -60.6496 118.533C-59.8032 117.328 -58.5289 116.748 -57.6414 117.306L-60.833 121.852Z" fill="white"/>
<path d="M-47.3963 112.526L-44.751 109.279L-48.0803 106.567C-49.4285 105.468 -49.5427 103.979 -48.4218 102.603C-47.4354 101.393 -46.1896 101.24 -45.0615 102.159L-41.3882 105.152L-38.7541 101.919L-42.7601 98.6323C-44.7987 96.9484 -47.2302 97.3479 -49.0684 99.6041C-50.5144 101.379 -50.7416 103.231 -50.1077 104.869L-50.1189 104.883L-55.0028 100.904L-57.6594 104.164L-47.3963 112.526Z" fill="white"/>
<path d="M-32.6677 95.6534C-31.0154 93.846 -29.8409 91.7459 -29.5922 90.2902L-31.8374 89.8006C-32.079 90.8539 -33.0242 92.4664 -34.2455 93.8024C-35.4069 95.0728 -36.7988 95.9643 -37.908 95.5995L-31.4423 88.5268C-31.6051 88.2577 -31.8693 87.9681 -32.0658 87.7885C-34.24 85.8009 -37.5235 86.526 -40.3373 89.6039C-43.1989 92.7342 -43.7184 96.2745 -41.6097 98.2023C-39.4093 100.214 -35.8527 99.1374 -32.6677 95.6534ZM-39.2787 94.4426C-39.9306 93.6302 -39.6894 92.288 -38.6716 91.1747C-37.6778 90.0876 -36.3397 89.6759 -35.531 90.343L-39.2787 94.4426Z" fill="white"/>
<path d="M-28.8423 77.7458C-30.0148 78.9072 -30.4245 80.6118 -29.8546 82.1454L-29.8672 82.1579L-31.7568 81.0572L-34.2405 83.5173L-27.7968 90.023L-24.8087 87.0634L-27.6809 84.1635C-28.9047 82.928 -29.1746 81.6467 -28.3299 80.8101C-27.7121 80.1981 -26.6715 80.3913 -25.6595 81.3122L-23.4607 78.0853C-25.2849 76.4453 -27.3924 76.3097 -28.8423 77.7458Z" fill="white"/>
<path d="M-10.4562 74.1334C-8.76074 72.6485 -7.92337 71.2075 -7.69719 69.3109L-9.91967 68.12C-10.071 69.4556 -10.4729 70.3973 -11.4074 71.2157C-12.3685 72.0575 -13.1699 72.0045 -13.8947 71.1768L-15.4731 69.3745L-11.268 65.6917L-12.9516 63.7693L-17.1567 67.4522L-19.2612 65.0492L-21.9207 68.3692L-20.3073 70.2114L-22.2296 71.895L-20.546 73.8174L-18.6237 72.1338L-16.4123 74.6319C-14.9625 76.2872 -12.6989 76.0976 -10.4562 74.1334Z" fill="white"/>
<path d="M-6.07561 69.9726L-2.78106 67.387L-5.43237 64.0087C-6.50604 62.6406 -6.28992 61.1626 -4.89393 60.067C-3.66545 59.1029 -2.41666 59.2282 -1.51828 60.3729L1.40693 64.1002L4.68752 61.5256L1.50237 57.4383C-0.116089 55.3474 -2.57586 55.2024 -4.8653 56.9992C-6.66613 58.4125 -7.29504 60.1693 -7.03688 61.9067L-7.05083 61.9177L-10.9402 56.9619L-14.2487 59.5584L-6.07561 69.9726Z" fill="white"/>
<path d="M11.9917 56.739C13.997 55.3332 15.5993 53.5382 16.1581 52.1712L14.0727 51.2059C13.6082 52.1817 12.3356 53.5506 10.8534 54.5896C9.44393 55.5777 7.89166 56.1457 6.88815 55.5489L14.7349 50.0482C14.6344 49.7503 14.4393 49.4102 14.2865 49.1922C12.5956 46.7801 9.23296 46.7751 5.81818 49.1689C2.34528 51.6035 1.06968 54.9466 2.70969 57.2861C4.421 59.7273 8.12651 59.4485 11.9917 56.739ZM5.80119 54.122C5.34116 53.1875 5.86803 51.9296 7.10316 51.0638C8.30923 50.2183 9.7048 50.1069 10.3494 50.9337L5.80119 54.122Z" fill="white"/>
<path d="M24.5572 48.5093C27.5993 46.6132 29.3383 44.3374 28.1274 42.3947C27.1605 40.8435 25.3168 41.0726 22.3391 42.6359L20.3082 43.6717C19.3275 44.1784 18.7856 44.3489 18.5979 44.0477C18.3538 43.6562 19.1956 42.8596 20.4456 42.0805C21.8461 41.2076 23.5567 40.6641 24.8303 40.5604L24.6505 38.3932C22.8576 38.5697 21.0153 39.2371 19.3737 40.2602C16.3166 42.1657 14.6472 44.4191 15.8581 46.3618C16.7404 47.7774 18.475 47.5745 21.2081 46.1219L23.2296 45.071C24.3458 44.4799 25.0063 44.2982 25.2034 44.6145C25.4287 44.9759 24.8259 45.6862 23.1392 46.7375C21.3772 47.8358 19.119 48.5741 17.6612 48.5836L17.8539 50.9728C19.624 50.8941 22.3283 49.8986 24.5572 48.5093Z" fill="white"/>
<path d="M37.2105 41.1718C39.3556 39.9904 41.142 38.3785 41.8449 37.0798L39.8757 35.8953C39.3087 36.8153 37.896 38.0391 36.3105 38.9123C34.8027 39.7427 33.1982 40.1401 32.2649 39.4386L40.6587 34.8157C40.5909 34.5087 40.4337 34.1496 40.3053 33.9164C38.8842 31.3361 35.5417 30.9687 31.8888 32.9805C28.1737 35.0266 26.5452 38.2127 27.9235 40.7154C29.3618 43.3268 33.0757 43.449 37.2105 41.1718ZM31.3381 37.9029C30.9814 36.9243 31.6408 35.7305 32.9621 35.0028C34.2522 34.2923 35.6517 34.3319 36.2034 35.2233L31.3381 37.9029Z" fill="white"/>
<path d="M49.3318 34.6426L53.1403 32.8584L50.3323 26.8644L54.7836 24.7791L53.707 22.4811L49.2557 24.5664L49.1579 24.3575C48.789 23.5701 49.2134 22.803 50.3062 22.291C51.1418 21.8996 52.2018 21.7361 53.1754 21.8483L52.9711 19.2789C51.5783 19.1083 49.9031 19.4228 48.4086 20.1229C45.3554 21.5533 44.1523 23.5867 45.1611 25.74L45.4472 26.3506L43.1331 27.4347L44.2097 29.7327L46.5237 28.6486L49.3318 34.6426Z" fill="white"/>
<path d="M58.6138 30.4112L62.4816 28.7592L57.2816 16.5849L53.4139 18.2369L58.6138 30.4112Z" fill="white"/>
<path d="M70.3277 25.9617C74.4877 24.3696 76.5206 21.5394 75.4677 18.7883C74.4147 16.0371 71.0053 15.2709 66.8454 16.863C62.702 18.4488 60.6754 21.2955 61.7284 24.0467C62.7813 26.7979 66.1844 27.5475 70.3277 25.9617ZM69.4524 23.6746C67.6625 24.3597 66.1598 23.9087 65.6397 22.5497C65.1195 21.1907 65.9371 19.8517 67.7271 19.1667C69.517 18.4816 71.0196 18.9326 71.5398 20.2916C72.0599 21.6506 71.2423 22.9896 69.4524 23.6746Z" fill="white"/>
<path d="M81.246 21.702L85.5097 20.4135L86.5352 13.9304L86.5692 13.9201L90.9965 18.7554L95.3112 17.4515L96.7223 7.45932L92.5604 8.71702L91.9632 15.1449L91.9462 15.1501L87.4304 10.2673L83.8121 11.3608L82.7085 17.8305L82.6915 17.8356L78.6651 12.9162L74.5202 14.1688L81.246 21.702Z" fill="white"/>
<path d="M107.484 14.8788C109.873 14.3396 112.037 13.2872 113.072 12.2347L111.51 10.5499C110.709 11.2763 109.012 12.0596 107.247 12.4582C105.568 12.8372 103.916 12.7734 103.214 11.8403L112.562 9.73032C112.582 9.41651 112.531 9.02787 112.472 8.76822C111.823 5.89472 108.714 4.61354 104.646 5.53175C100.509 6.4656 98.06 9.07418 98.6891 11.8611C99.3455 14.7692 102.879 15.9181 107.484 14.8788ZM102.75 10.1076C102.679 9.0684 103.644 8.10471 105.116 7.77259C106.553 7.44828 107.886 7.87499 108.168 8.88457L102.75 10.1076Z" fill="white"/>
<path d="M120.895 2.39429C119.268 2.67304 117.955 3.83434 117.542 5.41746L117.524 5.42046L116.608 3.43497L113.162 4.02545L114.709 13.0507L118.854 12.3403L118.165 8.31744C117.871 6.60334 118.385 5.39902 119.557 5.1982C120.414 5.05133 121.155 5.80647 121.456 7.14127L125.108 5.75923C124.555 3.36948 122.906 2.04959 120.895 2.39429Z" fill="white"/>
<path d="M133.4 10.4861C136.958 10.0518 139.496 8.72309 139.218 6.45076C138.997 4.63641 137.229 4.06559 133.869 4.22531L131.591 4.30673C130.488 4.35195 129.925 4.27768 129.882 3.92538C129.826 3.46739 130.925 3.1008 132.387 2.92236C134.026 2.72242 135.806 2.9521 137.004 3.3958L137.756 1.35537C136.056 0.758335 134.105 0.58538 132.185 0.81972C128.609 1.25615 126.144 2.59386 126.421 4.8662C126.623 6.52201 128.281 7.0705 131.372 6.90779L133.648 6.80876C134.91 6.74419 135.585 6.85841 135.63 7.22832C135.682 7.65108 134.836 8.04042 132.863 8.28121C130.802 8.53275 128.443 8.24856 127.118 7.6416L126.283 9.8887C127.921 10.5648 130.793 10.8043 133.4 10.4861Z" fill="white"/>
</mask>
<g mask="url(#mask0_1_8800)">
<g>
<path d="M215.887 27.2277C236.397 -4.85925 276.396 -10.6999 305.226 14.1822L329.727 35.3286C358.557 60.2108 365.3 106.393 344.789 138.48L323.52 171.753C303.01 203.84 263.011 209.681 234.181 184.799L209.68 163.652C180.85 138.77 174.107 92.5877 194.617 60.5007L215.887 27.2277Z" fill="url(#paint0_radial_1_8800)"/>
</g>
<path d="M215.887 27.2277C236.397 -4.85925 276.396 -10.6999 305.226 14.1822L329.727 35.3286C358.557 60.2108 365.3 106.393 344.789 138.48L323.52 171.753C303.01 203.84 263.011 209.681 234.181 184.799L209.68 163.652C180.85 138.77 174.107 92.5877 194.617 60.5007L215.887 27.2277Z" stroke="#00E29A" stroke-width="8.10214"/>
<g filter="url(#filter1_f_1_8800)">
<rect width="160.874" height="161.717" rx="76.7757" transform="matrix(0.668273 0.743916 -0.636143 0.771571 216.807 -41.668)" fill="url(#paint1_radial_1_8800)"/>
</g>
<g filter="url(#filter2_f_1_8800)">
<path d="M265.483 -63.8847C302.46 -92.6339 351.384 -83.0353 374.757 -42.4457L407.67 14.7112C431.043 55.3008 420.015 111.511 383.038 140.26L347.112 168.193C310.135 196.942 261.211 187.343 237.838 146.754L204.925 89.5967C181.552 49.0071 192.58 -7.20317 229.557 -35.9524L265.483 -63.8847Z" fill="url(#paint2_radial_1_8800)"/>
</g>
<g filter="url(#filter3_f_1_8800)">
<rect width="234.035" height="235.26" rx="94.4277" transform="matrix(0.668273 0.743916 -0.636143 0.771571 218.477 -154.343)" fill="url(#paint3_radial_1_8800)"/>
</g>
<g filter="url(#filter4_f_1_8800)">
<path d="M173.809 97.4144C164.382 56.0678 189.597 12.4356 230.128 -0.0407155C270.659 -12.517 311.157 10.887 320.584 52.2336L325.25 72.698C334.676 114.045 309.461 157.677 268.93 170.153C228.399 182.629 187.901 159.225 178.475 117.879L173.809 97.4144Z" fill="url(#paint4_angular_1_8800)"/>
</g>
<g filter="url(#filter5_f_1_8800)">
<path d="M68.9467 16.0239C50.7715 59.0953 3.10942 75.2508 -37.5096 52.1082L-67.3981 35.0794C-108.017 11.9369 -126.211 -41.74 -108.036 -84.8114L-87.2554 -134.058C-69.0802 -177.129 -21.418 -193.285 19.201 -170.142L49.0894 -153.113C89.7085 -129.971 107.903 -76.2939 89.7276 -33.2225L68.9467 16.0239Z" fill="url(#paint5_radial_1_8800)"/>
<path d="M68.9467 16.0239C50.7715 59.0953 3.10942 75.2508 -37.5096 52.1082L-67.3981 35.0794C-108.017 11.9369 -126.211 -41.74 -108.036 -84.8114L-87.2554 -134.058C-69.0802 -177.129 -21.418 -193.285 19.201 -170.142L49.0894 -153.113C89.7085 -129.971 107.903 -76.2939 89.7276 -33.2225L68.9467 16.0239Z" stroke="#00E29A" stroke-width="9.946"/>
</g>
<g filter="url(#filter6_f_1_8800)">
<rect width="192.162" height="203.666" rx="94.2481" transform="matrix(-0.795041 -0.606556 0.49195 -0.870624 81.8296 97.6436)" fill="url(#paint6_radial_1_8800)"/>
</g>
<g filter="url(#filter7_f_1_8800)">
<path d="M18.5337 193.567C-19.5187 236.672 -80.3245 235.906 -117.28 191.858L-164.594 135.462C-201.55 91.4135 -200.66 20.7623 -162.608 -22.3419L-120.789 -69.7128C-82.7363 -112.817 -21.9305 -112.052 15.0248 -68.0032L62.3392 -11.6075C99.2945 32.4409 98.4052 103.092 60.3527 146.196L18.5337 193.567Z" fill="url(#paint7_radial_1_8800)"/>
</g>
<g filter="url(#filter8_f_1_8800)">
<rect width="279.551" height="296.286" rx="115.917" transform="matrix(-0.795041 -0.606556 0.49195 -0.870624 101.475 234.085)" fill="url(#paint8_radial_1_8800)"/>
</g>
<g filter="url(#filter9_f_1_8800)">
<path d="M128.679 -13.7531C148.703 35.4202 127.218 96.0194 80.6924 121.599C34.1667 147.178 -19.7821 128.052 -39.8055 78.8785L-46.848 61.5836C-66.8714 12.4102 -45.387 -48.189 1.13872 -73.7685C47.6645 -99.348 101.613 -80.2215 121.637 -31.0481L128.679 -13.7531Z" fill="url(#paint9_angular_1_8800)"/>
</g>
<g filter="url(#filter10_f_1_8800)">
<path d="M360.883 193.567C322.831 236.672 262.025 235.906 225.07 191.858L177.755 135.462C140.8 91.4135 141.689 20.7623 179.742 -22.3419L221.561 -69.7128C259.613 -112.817 320.419 -112.052 357.374 -68.0032L404.689 -11.6075C441.644 32.4409 440.755 103.092 402.702 146.196L360.883 193.567Z" fill="url(#paint10_radial_1_8800)"/>
</g>
</g>
<defs>
<filter id="filter1_f_1_8800" x="106.102" y="-44.7432" width="226.042" height="250.603" filterUnits="userSpaceOnUse" color-interpolation-filters="sRGB">
<feFlood flood-opacity="0" result="BackgroundImageFix"/>
<feBlend mode="normal" in="SourceGraphic" in2="BackgroundImageFix" result="shape"/>
<feGaussianBlur stdDeviation="18.5701" result="effect1_foregroundBlur_1_8800"/>
</filter>
<filter id="filter2_f_1_8800" x="128.222" y="-144.898" width="356.152" height="394.105" filterUnits="userSpaceOnUse" color-interpolation-filters="sRGB">
<feFlood flood-opacity="0" result="BackgroundImageFix"/>
<feBlend mode="normal" in="SourceGraphic" in2="BackgroundImageFix" result="shape"/>
<feGaussianBlur stdDeviation="32.2194" result="effect1_foregroundBlur_1_8800"/>
</filter>
<filter id="filter3_f_1_8800" x="59.1885" y="-158.125" width="325.317" height="363.187" filterUnits="userSpaceOnUse" color-interpolation-filters="sRGB">
<feFlood flood-opacity="0" result="BackgroundImageFix"/>
<feBlend mode="normal" in="SourceGraphic" in2="BackgroundImageFix" result="shape"/>
<feGaussianBlur stdDeviation="22.8397" result="effect1_foregroundBlur_1_8800"/>
</filter>
<filter id="filter4_f_1_8800" x="123.596" y="-51.633" width="251.867" height="273.378" filterUnits="userSpaceOnUse" color-interpolation-filters="sRGB">
<feFlood flood-opacity="0" result="BackgroundImageFix"/>
<feBlend mode="normal" in="SourceGraphic" in2="BackgroundImageFix" result="shape"/>
<feGaussianBlur stdDeviation="24.1188" result="effect1_foregroundBlur_1_8800"/>
</filter>
<filter id="filter5_f_1_8800" x="-167.22" y="-233.308" width="316.132" height="348.583" filterUnits="userSpaceOnUse" color-interpolation-filters="sRGB">
<feFlood flood-opacity="0" result="BackgroundImageFix"/>
<feBlend mode="normal" in="SourceGraphic" in2="BackgroundImageFix" result="shape"/>
<feGaussianBlur stdDeviation="23.7011" result="effect1_foregroundBlur_1_8800"/>
</filter>
<filter id="filter6_f_1_8800" x="-83.3715" y="-202.615" width="277.818" height="306.643" filterUnits="userSpaceOnUse" color-interpolation-filters="sRGB">
<feFlood flood-opacity="0" result="BackgroundImageFix"/>
<feBlend mode="normal" in="SourceGraphic" in2="BackgroundImageFix" result="shape"/>
<feGaussianBlur stdDeviation="22.7963" result="effect1_foregroundBlur_1_8800"/>
</filter>
<filter id="filter7_f_1_8800" x="-270.843" y="-180.65" width="439.431" height="485.155" filterUnits="userSpaceOnUse" color-interpolation-filters="sRGB">
<feFlood flood-opacity="0" result="BackgroundImageFix"/>
<feBlend mode="normal" in="SourceGraphic" in2="BackgroundImageFix" result="shape"/>
<feGaussianBlur stdDeviation="39.5518" result="effect1_foregroundBlur_1_8800"/>
</filter>
<filter id="filter8_f_1_8800" x="-136.061" y="-201.284" width="398.574" height="443.223" filterUnits="userSpaceOnUse" color-interpolation-filters="sRGB">
<feFlood flood-opacity="0" result="BackgroundImageFix"/>
<feBlend mode="normal" in="SourceGraphic" in2="BackgroundImageFix" result="shape"/>
<feGaussianBlur stdDeviation="28.0375" result="effect1_foregroundBlur_1_8800"/>
</filter>
<filter id="filter9_f_1_8800" x="-113.557" y="-144.331" width="308.946" height="336.492" filterUnits="userSpaceOnUse" color-interpolation-filters="sRGB">
<feFlood flood-opacity="0" result="BackgroundImageFix"/>
<feBlend mode="normal" in="SourceGraphic" in2="BackgroundImageFix" result="shape"/>
<feGaussianBlur stdDeviation="29.6077" result="effect1_foregroundBlur_1_8800"/>
</filter>
<filter id="filter10_f_1_8800" x="71.5065" y="-180.65" width="439.431" height="485.155" filterUnits="userSpaceOnUse" color-interpolation-filters="sRGB">
<feFlood flood-opacity="0" result="BackgroundImageFix"/>
<feBlend mode="normal" in="SourceGraphic" in2="BackgroundImageFix" result="shape"/>
<feGaussianBlur stdDeviation="39.5518" result="effect1_foregroundBlur_1_8800"/>
</filter>
<radialGradient id="paint0_radial_1_8800" cx="0" cy="0" r="1" gradientUnits="userSpaceOnUse" gradientTransform="translate(242.217 73.5661) rotate(122.02) scale(386.727 366.346)">
<stop stop-color="#5AE9FD"/>
<stop offset="1" stop-color="#5AE9FD" stop-opacity="0"/>
</radialGradient>
<radialGradient id="paint1_radial_1_8800" cx="0" cy="0" r="1" gradientUnits="userSpaceOnUse" gradientTransform="translate(80.4372 80.8584) rotate(90) scale(80.8584 80.4372)">
<stop stop-color="#38FF70"/>
<stop offset="1" stop-color="#4AE074" stop-opacity="0.65"/>
</radialGradient>
<radialGradient id="paint2_radial_1_8800" cx="0" cy="0" r="1" gradientUnits="userSpaceOnUse" gradientTransform="translate(306.297 52.1539) rotate(142.135) scale(107.562 370.963)">
<stop stop-color="#6012C3"/>
<stop offset="1" stop-color="#9949FF" stop-opacity="0.37"/>
</radialGradient>
<radialGradient id="paint3_radial_1_8800" cx="0" cy="0" r="1" gradientUnits="userSpaceOnUse" gradientTransform="translate(186.398 137.439) rotate(150.978) scale(110.577 111.082)">
<stop stop-color="#FFF9C5"/>
<stop offset="0.755208" stop-color="#FF5C00"/>
<stop offset="1" stop-color="#FF451C"/>
</radialGradient>
<radialGradient id="paint4_angular_1_8800" cx="0" cy="0" r="1" gradientUnits="userSpaceOnUse" gradientTransform="translate(249.529 85.0562) rotate(77.1568) scale(87.2805 77.4007)">
<stop stop-color="#FFF5CF"/>
<stop offset="1" stop-color="#FFD84B" stop-opacity="0"/>
</radialGradient>
<radialGradient id="paint5_radial_1_8800" cx="0" cy="0" r="1" gradientUnits="userSpaceOnUse" gradientTransform="translate(29.0082 -34.8581) rotate(-67.6638) scale(485.433 439.81)">
<stop stop-color="#5AE9FD"/>
<stop offset="1" stop-color="#5AE9FD" stop-opacity="0"/>
</radialGradient>
<radialGradient id="paint6_radial_1_8800" cx="0" cy="0" r="1" gradientUnits="userSpaceOnUse" gradientTransform="translate(96.0812 101.833) rotate(90) scale(101.833 96.0812)">
<stop stop-color="#38FF70"/>
<stop offset="1" stop-color="#4AE074" stop-opacity="0.65"/>
</radialGradient>
<radialGradient id="paint7_radial_1_8800" cx="0" cy="0" r="1" gradientUnits="userSpaceOnUse" gradientTransform="translate(-51.1275 61.9272) rotate(-48.562) scale(135.703 443.094)">
<stop stop-color="#396AE6"/>
<stop offset="1" stop-color="#495BFF" stop-opacity="0.37"/>
</radialGradient>
<radialGradient id="paint8_radial_1_8800" cx="0" cy="0" r="1" gradientUnits="userSpaceOnUse" gradientTransform="translate(222.65 173.09) rotate(149.674) scale(133.806 138.094)">
<stop stop-color="#FFF9C5"/>
<stop offset="0.755208" stop-color="#FFC93D"/>
<stop offset="1" stop-color="#FF451C"/>
</radialGradient>
<radialGradient id="paint9_angular_1_8800" cx="0" cy="0" r="1" gradientUnits="userSpaceOnUse" gradientTransform="translate(76.6786 45.7723) rotate(-122.29) scale(141.408 148.928)">
<stop stop-color="white"/>
<stop offset="1" stop-color="#FFF8B9" stop-opacity="0"/>
</radialGradient>
<radialGradient id="paint10_radial_1_8800" cx="0" cy="0" r="1" gradientUnits="userSpaceOnUse" gradientTransform="translate(291.222 61.9272) rotate(-48.562) scale(135.703 443.094)">
<stop stop-color="#396AE6"/>
<stop offset="1" stop-color="#495BFF" stop-opacity="0.37"/>
</radialGradient>
</defs>
</svg>
