<svg width="62" height="61" viewBox="0 0 62 61" fill="none" xmlns="http://www.w3.org/2000/svg">
<path d="M17.1 55L17.124 46.288C17.124 45.24 16.824 44.42 16.224 43.828C15.632 43.228 14.892 42.928 14.004 42.928C13.5 42.928 13 43.044 12.504 43.276C12.016 43.508 11.608 43.884 11.28 44.404C10.952 44.924 10.788 45.628 10.788 46.516L9.816 46.36C9.784 45.416 9.956 44.596 10.332 43.9C10.716 43.196 11.244 42.652 11.916 42.268C12.596 41.884 13.368 41.692 14.232 41.692C15.504 41.692 16.532 42.084 17.316 42.868C18.108 43.652 18.504 44.724 18.504 46.084L18.48 55H17.1ZM1.68 55V42.04H2.94V44.956H3.06V55H1.68ZM9.396 55L9.42 46.42C9.42 45.348 9.128 44.5 8.544 43.876C7.96 43.244 7.2 42.928 6.264 42.928C5.312 42.928 4.54 43.256 3.948 43.912C3.356 44.56 3.06 45.428 3.06 46.516L2.1 46.036C2.1 45.196 2.292 44.452 2.676 43.804C3.06 43.148 3.584 42.632 4.248 42.256C4.92 41.88 5.688 41.692 6.552 41.692C7.328 41.692 8.036 41.856 8.676 42.184C9.316 42.512 9.828 43.008 10.212 43.672C10.596 44.328 10.788 45.152 10.788 46.144L10.764 55H9.396ZM26.9184 55.36C25.6784 55.36 24.6064 55.084 23.7024 54.532C22.7984 53.972 22.0984 53.184 21.6024 52.168C21.1064 51.144 20.8584 49.936 20.8584 48.544C20.8584 47.128 21.1024 45.908 21.5904 44.884C22.0864 43.852 22.7824 43.06 23.6784 42.508C24.5824 41.956 25.6544 41.68 26.8944 41.68C28.1504 41.68 29.2224 41.968 30.1104 42.544C31.0064 43.112 31.6864 43.936 32.1504 45.016C32.6224 46.096 32.8464 47.396 32.8224 48.916H31.3824V48.436C31.3424 46.66 30.9424 45.308 30.1824 44.38C29.4224 43.452 28.3344 42.988 26.9184 42.988C25.4544 42.988 24.3224 43.472 23.5224 44.44C22.7304 45.4 22.3344 46.76 22.3344 48.52C22.3344 50.264 22.7304 51.616 23.5224 52.576C24.3224 53.536 25.4464 54.016 26.8944 54.016C27.8944 54.016 28.7664 53.784 29.5104 53.32C30.2624 52.848 30.8584 52.176 31.2984 51.304L32.5464 51.856C32.0264 52.976 31.2744 53.84 30.2904 54.448C29.3064 55.056 28.1824 55.36 26.9184 55.36ZM21.8064 48.916V47.668H32.0424V48.916H21.8064ZM44.6173 55V48.256C44.6173 47.44 44.5333 46.712 44.3653 46.072C44.2053 45.432 43.9573 44.888 43.6213 44.44C43.2933 43.992 42.8773 43.652 42.3733 43.42C41.8773 43.188 41.2893 43.072 40.6093 43.072C39.9053 43.072 39.2933 43.196 38.7733 43.444C38.2613 43.684 37.8373 44.024 37.5013 44.464C37.1733 44.904 36.9253 45.428 36.7573 46.036C36.5973 46.636 36.5173 47.292 36.5173 48.004L35.4253 47.872C35.4253 46.472 35.6613 45.32 36.1333 44.416C36.6133 43.504 37.2573 42.832 38.0653 42.4C38.8733 41.96 39.7813 41.74 40.7893 41.74C41.5013 41.74 42.1373 41.844 42.6973 42.052C43.2653 42.26 43.7573 42.556 44.1733 42.94C44.5893 43.316 44.9333 43.764 45.2053 44.284C45.4773 44.796 45.6773 45.36 45.8053 45.976C45.9413 46.592 46.0093 47.236 46.0093 47.908V55H44.6173ZM35.1253 55V42.04H36.3853V44.956H36.5173V55H35.1253ZM54.0975 55.3C53.3855 55.3 52.7455 55.196 52.1775 54.988C51.6175 54.78 51.1295 54.488 50.7135 54.112C50.2975 53.728 49.9535 53.28 49.6815 52.768C49.4095 52.248 49.2055 51.68 49.0695 51.064C48.9415 50.448 48.8775 49.804 48.8775 49.132V42.04H50.2695V48.784C50.2695 49.6 50.3495 50.328 50.5095 50.968C50.6775 51.608 50.9255 52.152 51.2535 52.6C51.5895 53.048 52.0055 53.388 52.5015 53.62C53.0055 53.852 53.5975 53.968 54.2775 53.968C54.9815 53.968 55.5895 53.848 56.1015 53.608C56.6215 53.36 57.0455 53.016 57.3735 52.576C57.7095 52.136 57.9575 51.616 58.1175 51.016C58.2855 50.408 58.3695 49.748 58.3695 49.036L59.4615 49.168C59.4615 50.568 59.2215 51.724 58.7415 52.636C58.2695 53.54 57.6295 54.212 56.8215 54.652C56.0135 55.084 55.1055 55.3 54.0975 55.3ZM58.5015 55V52.084H58.3695V42.04H59.7615V55H58.5015Z" fill="white"/>
<line x1="4.37114e-08" y1="0.5" x2="61" y2="0.500005" stroke="white"/>
<line x1="3.39977e-08" y1="13.5" x2="61" y2="13.5" stroke="white"/>
</svg>
