<svg width="105" height="180" viewBox="0 0 105 180" fill="none" xmlns="http://www.w3.org/2000/svg">
<path d="M81.2537 99.6335C81.2537 99.6335 28.7259 170.588 28.7259 172.813C28.7259 175.038 69.8206 179.862 74.8451 178.749C79.8697 177.637 104.632 170.466 104.632 167.989C104.632 166.876 74.6399 167.74 53.6711 167.74C47.3932 167.74 42.7236 167.74 42.5462 167.37C42.3687 166.999 80.0059 120.536 80.0059 120.536L81.2537 99.6335Z" fill="#161616" stroke="white" stroke-width="0.482863" stroke-miterlimit="10" stroke-linecap="round" stroke-linejoin="round"/>
<path d="M99.3086 76.5487L98.5196 149.551L78.6883 170.079L76.3712 169.616L77.2981 50.8614L79.3854 50.2793L99.3086 76.5487Z" fill="#161616" stroke="white" stroke-width="0.482863" stroke-miterlimit="10" stroke-linecap="round" stroke-linejoin="round"/>
<path d="M78.6877 170.079L79.3848 50.2793" stroke="white" stroke-width="0.482863" stroke-miterlimit="10" stroke-linecap="round" stroke-linejoin="round"/>
<mask id="mask0_1_11262" style="mask-type:alpha" maskUnits="userSpaceOnUse" x="79" y="55" width="20" height="97">
<path d="M80.1043 150.845L97.067 139.11L98.0283 78.0843L80.9584 56.2117L80.1043 150.845Z" fill="#F48B44" stroke="white" stroke-width="0.482863" stroke-miterlimit="10" stroke-linecap="round" stroke-linejoin="round"/>
</mask>
<g mask="url(#mask0_1_11262)">
<path d="M80.1043 150.845L97.067 139.11L98.0283 78.0843L80.9584 56.2117L80.1043 150.845Z" fill="#F48B44" stroke="white" stroke-width="0.482863" stroke-miterlimit="10" stroke-linecap="round" stroke-linejoin="round"/>
<g filter="url(#filter0_f_1_11262)">
<path d="M78.5846 114.935C91.4497 108.586 96.7077 92.9605 90.3582 80.0954C84.0087 67.2304 68.4082 61.8999 55.5432 68.2494C42.6781 74.5989 37.4201 90.2239 43.7696 103.089C50.1191 115.954 65.7196 121.284 78.5846 114.935Z" fill="url(#paint0_radial_1_11262)"/>
<path d="M78.5846 114.935C91.4497 108.586 96.7077 92.9605 90.3582 80.0954C84.0087 67.2304 68.4082 61.8999 55.5432 68.2494C42.6781 74.5989 37.4201 90.2239 43.7696 103.089C50.1191 115.954 65.7196 121.284 78.5846 114.935Z" stroke="#00E29A" stroke-width="0.482863"/>
</g>
<g filter="url(#filter1_f_1_11262)">
<rect width="48.2722" height="48.2161" rx="24.108" transform="matrix(-0.551012 -0.834497 -0.834497 0.551012 102.736 115.531)" fill="url(#paint1_radial_1_11262)"/>
</g>
<g filter="url(#filter2_f_1_11262)">
<path d="M106.788 106.148C119.525 93.0141 119.204 72.0416 106.07 59.3044L104.43 57.7138C91.2963 44.9765 70.3238 45.2979 57.5866 58.4315C44.8493 71.5652 45.1707 92.5377 58.3043 105.275L59.9444 106.866C73.078 119.603 94.0505 119.281 106.788 106.148Z" fill="url(#paint2_radial_1_11262)"/>
</g>
<g filter="url(#filter3_f_1_11262)">
<rect width="70.2248" height="70.1431" rx="35.0716" transform="matrix(-0.551012 -0.834497 -0.834497 0.551012 133.763 120.639)" fill="url(#paint3_radial_1_11262)"/>
</g>
<g filter="url(#filter4_f_1_11262)">
<path d="M59.3831 121.026C71.661 126.797 86.3139 121.475 92.0844 109.197C97.8549 96.9194 92.6013 82.2419 80.3234 76.4715C68.0454 70.701 53.3925 76.0226 47.622 88.3006C41.8516 100.579 47.1051 115.256 59.3831 121.026Z" fill="url(#paint4_angular_1_11262)"/>
</g>
</g>
<path d="M52.3136 71.3175L69.914 66.3319" stroke="white" stroke-width="0.482863" stroke-miterlimit="10" stroke-linecap="round" stroke-linejoin="round"/>
<path d="M72.9377 56.2594L35.275 36.547" stroke="white" stroke-width="0.482863" stroke-miterlimit="10" stroke-linecap="round" stroke-linejoin="round"/>
<path d="M75.7608 46.2051L66.465 34.4131" stroke="white" stroke-width="0.482863" stroke-miterlimit="10" stroke-linecap="round" stroke-linejoin="round"/>
<mask id="mask1_1_11262" style="mask-type:alpha" maskUnits="userSpaceOnUse" x="47" y="0" width="30" height="30">
<circle cx="61.733" cy="15.3521" r="14.4859" fill="#C4C4C4"/>
</mask>
<g mask="url(#mask1_1_11262)">
<g filter="url(#filter5_f_1_11262)">
<path d="M67.1764 33.6709C63.4249 28.6414 56.3066 27.6053 51.2771 31.3568L43.6574 37.0402C38.6279 40.7916 37.5918 47.9099 41.3432 52.9395L46.9865 60.5054C50.738 65.5349 57.8563 66.571 62.8858 62.8196L70.5055 57.1362C75.535 53.3848 76.5711 46.2664 72.8197 41.2369L67.1764 33.6709Z" fill="url(#paint5_radial_1_11262)"/>
<path d="M67.1764 33.6709C63.4249 28.6414 56.3066 27.6053 51.2771 31.3568L43.6574 37.0402C38.6279 40.7916 37.5918 47.9099 41.3432 52.9395L46.9865 60.5054C50.738 65.5349 57.8563 66.571 62.8858 62.8196L70.5055 57.1362C75.535 53.3848 76.5711 46.2664 72.8197 41.2369L67.1764 33.6709Z" stroke="#00E29A" stroke-width="0.482863"/>
</g>
<g filter="url(#filter6_f_1_11262)">
<rect width="29.8817" height="29.847" rx="12.6496" transform="matrix(-0.720712 0.693235 0.693235 0.720712 67.6494 22.6848)" fill="url(#paint6_radial_1_11262)"/>
</g>
<g filter="url(#filter7_f_1_11262)">
<path d="M56.0447 17.649C49.6224 13.3704 40.9475 15.1082 36.6688 21.5306L28.6399 33.5823C24.3612 40.0047 26.0991 48.6795 32.5214 52.9582L43.3961 60.203C49.8185 64.4817 58.4934 62.7439 62.772 56.3215L70.801 44.2698C75.0797 37.8474 73.3418 29.1725 66.9195 24.8939L56.0447 17.649Z" fill="url(#paint7_radial_1_11262)"/>
</g>
<g filter="url(#filter8_f_1_11262)">
<rect width="43.4709" height="43.4204" rx="15.558" transform="matrix(-0.720712 0.693235 0.693235 0.720712 67.2754 3.22314)" fill="url(#paint8_radial_1_11262)"/>
</g>
<g filter="url(#filter9_f_1_11262)">
<path d="M75.8621 48.4585C77.9964 40.3363 73.1116 32.0137 64.9894 29.8795C56.8672 27.7452 48.522 32.5914 46.3878 40.7135C44.2535 48.8357 49.1383 57.1583 57.2605 59.2926C65.3827 61.4268 73.7279 56.5807 75.8621 48.4585Z" fill="url(#paint9_angular_1_11262)"/>
</g>
<path d="M54.3866 19.2278C54.3866 19.2278 62.3528 20.1277 62.9835 20.021C63.6142 19.9167 64.5627 18.9343 67.8229 20.055C71.0856 21.1781 75.3282 25.5615 75.3282 25.5615C75.3282 25.5615 73.1548 28.7174 71.2942 30.0152C69.4361 31.313 66.9812 32.6811 66.9812 32.6811L48.4993 37.3798L46.464 32.259C46.464 32.259 43.7278 31.9073 41.5179 30.5755C39.308 29.2438 37.2388 29.0667 37.2049 28.926C37.1709 28.7853 38.2383 25.6779 40.339 23.4195C41.8187 21.8306 43.2669 21.2484 44.8097 20.7221C46.3525 20.1957 47.25 20.1714 48.5575 19.89C51.1239 19.3369 54.3866 19.2278 54.3866 19.2278Z" fill="#161616" stroke="white" stroke-width="0.241431" stroke-miterlimit="10" stroke-linecap="round" stroke-linejoin="round"/>
<path d="M47.386 20.0815C47.386 20.0815 48.5237 21.2702 49.4527 25.0932C50.3818 28.9162 50.5904 30.9854 50.5904 30.9854L47.6965 31.5021C47.6965 31.5021 47.1798 27.058 46.4036 24.6299C45.6273 22.2017 44.6982 20.7535 44.6982 20.7535L47.386 20.0815Z" fill="white"/>
<path d="M64.9244 19.2178C64.9244 19.2178 65.9602 19.863 66.8893 23.6885C67.8183 27.5115 68.027 29.5806 68.027 29.5806L65.133 30.0973C65.133 30.0973 64.6163 25.6533 63.8401 23.2251C63.0638 20.7969 62.1348 19.3488 62.1348 19.3488L64.9244 19.2178Z" fill="white"/>
<path d="M64.616 4.86707C64.616 4.86707 68.9436 8.62943 66.9083 12.5883C64.126 18.0002 66.4547 20.9499 66.4547 20.9499C66.4547 20.9499 65.3001 22.1482 61.8725 21.8984C60.1793 21.7771 57.54 19.6206 57.54 19.6206C57.54 19.6206 57.5449 18.5702 58.8524 18.3568C60.2545 18.1287 61.1738 17.9031 62.0641 16.5205C64.7664 12.3166 64.616 4.86707 64.616 4.86707Z" fill="white"/>
<path d="M54.8286 11.5446C54.8286 11.5446 55.0275 7.26796 57.3198 6.24914C59.6146 5.23031 64.1168 6.02354 64.4564 8.345C64.796 10.6665 63.6656 14.6035 62.984 15.9352C61.7105 18.4265 59.4666 18.3998 59.4666 18.3998C59.4666 18.3998 59.3866 20.1269 58.9063 20.5806C58.426 21.0342 57.5745 21.6843 56.1021 21.4296C54.6296 21.1749 53.7806 20.6073 53.6666 19.7873C53.5526 18.965 54.1105 15.307 53.9456 14.9843C53.7806 14.6617 52.1651 13.8418 52.4222 12.51C52.6769 11.1783 53.0675 10.8144 53.7928 10.7999C54.5181 10.7853 54.8019 11.4645 54.8019 11.4645L54.8286 11.5446Z" fill="#161616"/>
<path d="M55.1342 9.63125C55.4908 8.27767 57.2252 7.34375 58.5424 7.81193C59.0591 7.99628 59.6291 8.2898 60.2283 8.74827C62.6249 10.5846 66.0671 9.74041 66.0671 9.74041C66.0671 9.74041 67.0326 7.54509 65.628 4.38917C64.044 0.828144 57.1475 -0.319245 53.9261 2.28118C50.484 5.05868 51.1025 7.37529 47.9709 9.80591C43.5875 13.2093 43.5293 16.0741 43.5293 16.0741C43.5293 16.0741 46.9521 18.2257 48.7762 19.982C51.5295 22.6309 53.4992 19.0626 53.4992 19.0626L53.9771 14.8612C53.9771 14.8612 52.7739 13.8909 52.6186 12.8211C52.3736 11.1328 53.2178 10.8296 53.5817 10.8102C53.9528 10.7908 54.7751 11.698 54.7751 11.698L55.1342 9.63125Z" fill="white"/>
<path d="M54.9376 12.0397C54.9376 12.0397 54.7508 10.8947 53.7902 10.7952C52.8296 10.6958 52.2086 12.0445 52.5458 13.0051C52.786 13.6916 53.4118 14.2568 53.749 14.5261C53.8873 14.6352 53.96 14.8075 53.9455 14.9821L53.6083 18.6329C53.4991 19.8118 54.2511 20.9034 55.3937 21.2066C55.6848 21.2843 56.005 21.3473 56.3518 21.3861C56.5993 21.4128 56.854 21.4201 57.1014 21.4152C58.2367 21.3861 59.1876 20.5444 59.3937 19.4261C59.4544 19.0962 59.8037 18.5868 59.4689 18.628C57.0262 18.9264 56.3082 17.2987 56.3324 17.2284" stroke="white" stroke-width="0.241431" stroke-miterlimit="10" stroke-linecap="round" stroke-linejoin="round"/>
<path d="M60.9332 12.6486C60.8871 13.1895 60.8871 14.2714 60.8871 14.2714C60.8871 14.2714 60.0041 14.4921 59.5869 14.104" stroke="white" stroke-width="0.241431" stroke-miterlimit="10" stroke-linecap="round" stroke-linejoin="round"/>
<path d="M58.2314 10.8832C58.2314 10.8832 58.5371 11.5818 59.5001 11.4023" stroke="white" stroke-width="0.241431" stroke-miterlimit="10" stroke-linecap="round" stroke-linejoin="round"/>
<path d="M61.9482 11.9814C61.9482 11.9814 62.3267 12.6413 63.2679 12.3599" stroke="white" stroke-width="0.241431" stroke-miterlimit="10" stroke-linecap="round" stroke-linejoin="round"/>
<path d="M58.1585 15.1409L60.657 15.9244C60.657 15.9244 60.1403 17.0039 59.0148 16.6643C57.9062 16.3295 58.1585 15.1409 58.1585 15.1409Z" fill="white"/>
<path d="M58.496 13.0395C59.5919 13.0395 60.4803 12.1511 60.4803 11.0552C60.4803 9.95932 59.5919 9.07092 58.496 9.07092C57.4001 9.07092 56.5117 9.95932 56.5117 11.0552C56.5117 12.1511 57.4001 13.0395 58.496 13.0395Z" stroke="white" stroke-width="0.241431" stroke-miterlimit="10" stroke-linecap="round" stroke-linejoin="round"/>
<path d="M63.08 14.1772C64.1759 14.1772 65.0643 13.2888 65.0643 12.1929C65.0643 11.097 64.1759 10.2086 63.08 10.2086C61.9841 10.2086 61.0957 11.097 61.0957 12.1929C61.0957 13.2888 61.9841 14.1772 63.08 14.1772Z" stroke="white" stroke-width="0.241431" stroke-miterlimit="10" stroke-linecap="round" stroke-linejoin="round"/>
<circle cx="61.733" cy="15.3521" r="14.2445" stroke="white" stroke-width="0.482863"/>
</g>
<mask id="mask2_1_11262" style="mask-type:alpha" maskUnits="userSpaceOnUse" x="0" y="11" width="30" height="30">
<circle cx="14.689" cy="25.8064" r="14.4859" fill="#C4C4C4"/>
</mask>
<g mask="url(#mask2_1_11262)">
<g filter="url(#filter10_f_1_11262)">
<path d="M-15.0895 42.5013C-6.29627 38.1615 -2.68612 27.515 -7.02597 18.7218L-13.6008 5.40013C-17.9407 -3.3931 -28.5871 -7.00329 -37.3804 -2.66343L-50.6081 3.86506C-59.4013 8.20492 -63.0115 18.8514 -58.6716 27.6446L-52.0968 40.9662C-47.757 49.7595 -37.1105 53.3697 -28.3173 49.0298L-15.0895 42.5013Z" fill="url(#paint10_radial_1_11262)"/>
<path d="M-15.0895 42.5013C-6.29627 38.1615 -2.68612 27.515 -7.02597 18.7218L-13.6008 5.40013C-17.9407 -3.3931 -28.5871 -7.00329 -37.3804 -2.66343L-50.6081 3.86506C-59.4013 8.20492 -63.0115 18.8514 -58.6716 27.6446L-52.0968 40.9662C-47.757 49.7595 -37.1105 53.3697 -28.3173 49.0298L-15.0895 42.5013Z" stroke="#00E29A" stroke-width="0.482863"/>
</g>
<g filter="url(#filter11_f_1_11262)">
<rect width="46.6997" height="46.6454" rx="19.769" transform="matrix(-0.551012 -0.834497 -0.834497 0.551012 1.66113 46.342)" fill="url(#paint11_radial_1_11262)"/>
</g>
<g filter="url(#filter12_f_1_11262)">
<path d="M12.6896 29.9353C21.086 21.2777 20.8742 7.4527 12.2165 -0.943646L-4.02976 -16.6996C-12.6874 -25.0959 -26.5124 -24.8841 -34.9087 -16.2265L-49.1259 -1.56682C-57.5223 7.09082 -57.3104 20.9158 -48.6528 29.3122L-32.4065 45.0681C-23.7489 53.4645 -9.92389 53.2526 -1.52754 44.595L12.6896 29.9353Z" fill="url(#paint12_radial_1_11262)"/>
</g>
<g filter="url(#filter13_f_1_11262)">
<rect width="67.9371" height="67.8581" rx="24.3142" transform="matrix(-0.551012 -0.834497 -0.834497 0.551012 31.6777 51.2837)" fill="url(#paint13_radial_1_11262)"/>
</g>
<g filter="url(#filter14_f_1_11262)">
<path d="M-40.2804 51.6591C-28.4024 57.2416 -14.2269 52.0933 -8.64437 40.2153C-3.06188 28.3374 -8.14431 14.138 -20.0223 8.55554C-31.9002 2.97304 -46.0758 8.12134 -51.6583 19.9993C-57.2408 31.8773 -52.1584 46.0766 -40.2804 51.6591Z" fill="url(#paint14_angular_1_11262)"/>
</g>
<path d="M19.4199 33.362C19.3897 33.2477 19.9273 28.4384 19.9273 28.4384C19.9273 28.4384 21.1126 26.8875 21.0022 26.3545C20.8893 25.8213 20.5662 25.0872 20.2576 24.6906C19.949 24.294 19.6076 19.5478 16.1535 19.6436C12.6997 19.7369 8.25285 20.0994 8.27262 21.4114C8.2924 22.7233 7.83956 26.2203 8.27879 27.8398C8.71784 29.4618 9.15913 31.7035 10.4764 32.6938C11.7936 33.6867 12.4884 33.9217 12.4884 33.9217L12.3715 40.3593L19.4199 33.362Z" fill="#161616"/>
<path d="M12.499 33.8479L12.1148 39.3028" stroke="white" stroke-width="0.241431"/>
<path d="M11.9778 40.843C11.9778 40.843 10.8562 42.0338 10.4038 44.3655C9.9513 46.6998 7.99819 49.8489 7.23464 52.5081C6.47126 55.1647 5.26477 59.9855 5.00101 62.1011C4.73726 64.2167 4.01789 70.339 4.01789 70.339C4.01789 70.339 7.48549 73.5257 9.03265 75.3073C10.5798 77.089 11.9188 78.5678 14.7237 79.6884C17.5285 80.809 19.4418 81.52 21.6657 81.0417C23.8922 80.5637 26.1493 78.818 26.1493 78.818C26.1493 78.818 26.4484 67.1866 26.2966 62.7903C26.1448 58.394 26.734 48.3996 26.2462 45.4789C25.7582 42.5607 24.1842 38.6991 22.966 37.1701C21.7478 35.6412 21.5209 35.5691 20.8454 35.3481C20.1697 35.1322 11.9778 40.843 11.9778 40.843Z" fill="white"/>
<path d="M9.99173 27.1544C10.967 27.2231 11.8133 26.4882 11.882 25.5129C11.9507 24.5377 11.2158 23.6914 10.2405 23.6227C9.26523 23.554 8.41892 24.2889 8.35022 25.2642C8.28153 26.2394 9.01646 27.0857 9.99173 27.1544Z" stroke="white" stroke-width="0.241431" stroke-miterlimit="10" stroke-linecap="round" stroke-linejoin="round"/>
<path d="M15.3521 27.5324C16.3273 27.6011 17.1736 26.8661 17.2423 25.8909C17.311 24.9156 16.5761 24.0693 15.6008 24.0006C14.6256 23.9319 13.7793 24.6668 13.7106 25.6421C13.6419 26.6174 14.3768 27.4637 15.3521 27.5324Z" stroke="white" stroke-width="0.241431" stroke-miterlimit="10" stroke-linecap="round" stroke-linejoin="round"/>
<path d="M11.9277 25.1492L13.7367 25.2766" stroke="white" stroke-width="0.241431" stroke-miterlimit="10" stroke-linecap="round" stroke-linejoin="round"/>
<path d="M10.5922 25.3558C10.7393 25.3661 10.867 25.2553 10.8773 25.1081C10.8877 24.961 10.7768 24.8333 10.6297 24.823C10.4826 24.8126 10.3549 24.9235 10.3445 25.0706C10.3342 25.2177 10.445 25.3454 10.5922 25.3558Z" stroke="white" stroke-width="0.241431" stroke-miterlimit="10" stroke-linecap="round" stroke-linejoin="round"/>
<path d="M15.7504 25.7198C15.8975 25.7301 16.0252 25.6193 16.0355 25.4721C16.0459 25.325 15.935 25.1973 15.7879 25.187C15.6408 25.1766 15.5131 25.2875 15.5027 25.4346C15.4924 25.5817 15.6032 25.7094 15.7504 25.7198Z" stroke="white" stroke-width="0.241431" stroke-miterlimit="10" stroke-linecap="round" stroke-linejoin="round"/>
<path d="M11.999 27.7959C11.999 27.7959 12.7264 28.148 13.2987 27.9512" stroke="white" stroke-width="0.241431" stroke-miterlimit="10" stroke-linecap="round" stroke-linejoin="round"/>
<path d="M11.8016 30.3439L14.785 29.2562C14.785 29.2562 14.8338 30.4453 14.0222 30.8904C12.5903 31.6718 11.8016 30.3439 11.8016 30.3439Z" fill="white"/>
<path d="M9.71333 23.0629C9.71333 23.0629 10.8161 22.646 11.3724 22.9656" stroke="white" stroke-width="0.241431" stroke-miterlimit="10" stroke-linecap="round" stroke-linejoin="round"/>
<path d="M14.5434 22.7377C14.5434 22.7377 15.6462 22.3208 16.2025 22.6404" stroke="white" stroke-width="0.241431" stroke-miterlimit="10" stroke-linecap="round" stroke-linejoin="round"/>
<path d="M18.8601 28.49C18.8601 28.49 17.1902 33.8085 13.8084 34.0369C11.5284 34.19 8.97302 32.1333 8.13354 27.0741C7.44281 22.9076 8.70847 20.0339 12.8169 19.8057C16.9229 19.5773 19.246 21.8904 19.4576 23.3025C19.6692 24.7147 19.3724 25.344 19.3724 25.344C19.3724 25.344 20.0409 24.9755 20.7343 25.774C21.4277 26.5724 19.9247 28.435 19.9247 28.435L19.5158 32.394" stroke="white" stroke-width="0.241431" stroke-miterlimit="10" stroke-linecap="round" stroke-linejoin="round"/>
<path d="M20.123 25.8409C19.3935 25.917 18.7276 25.4163 18.6026 24.6935C18.4828 24.0043 18.3257 23.1952 18.1624 22.689C17.832 21.6611 16.9167 21.5151 14.2558 21.6081C11.595 21.7012 9.17777 21.3754 8.59434 22.9253C8.34347 23.591 8.27608 27.8418 8.27608 27.8418C8.27608 27.8418 7.57613 25.9057 7.3456 24.0383C7.11506 22.1709 7.4959 21.5425 7.55828 20.657C7.56346 20.5834 6.96547 20.0594 6.69101 19.0329C6.39071 17.9026 6.4121 16.2595 6.4121 16.2595C6.4121 16.2595 8.18676 17.5625 10.9599 17.0337C11.3036 16.9687 11.7305 16.8814 12.2104 16.8005C14.6022 16.4004 18.366 16.1428 20.2553 19.2565C22.2385 22.5223 20.7369 25.7771 20.7369 25.7771L20.123 25.8409Z" fill="white"/>
<path d="M20.0919 33.6946L21.5345 35.8385C21.5345 35.8385 19.3528 37.2377 17.2827 39.9119C15.2152 42.5863 11.9291 47.4646 11.1916 49.2103C10.4567 50.9561 9.96799 52.0665 9.96799 52.0665C9.96799 52.0665 11.9481 45.421 13.1512 42.2778C14.3542 39.1345 20.0919 33.6946 20.0919 33.6946Z" fill="white"/>
<path d="M20.0923 33.6949C20.1009 33.5731 19.9113 32.2109 19.9113 32.2109L11.0566 40.129C11.0566 40.129 12.66 44.0436 12.628 43.919C12.596 43.7943 20.0923 33.6949 20.0923 33.6949Z" fill="#161616" stroke="white" stroke-width="0.241431" stroke-miterlimit="10" stroke-linecap="round" stroke-linejoin="round"/>
<circle cx="14.689" cy="25.8064" r="14.2445" stroke="white" stroke-width="0.482863"/>
</g>
<mask id="mask3_1_11262" style="mask-type:alpha" maskUnits="userSpaceOnUse" x="14" y="58" width="30" height="30">
<circle cx="28.7246" cy="73.2368" r="14.5" fill="#C4C4C4"/>
</mask>
<g mask="url(#mask3_1_11262)">
<g filter="url(#filter15_f_1_11262)">
<path d="M21.3605 109.347C28.6178 107.884 33.3151 100.815 31.8523 93.5578L29.6361 82.5631C28.1732 75.3058 21.1042 70.6085 13.8469 72.0713L2.92967 74.2719C-4.3276 75.7348 -9.02492 82.8038 -7.56207 90.0611L-5.34587 101.056C-3.88302 108.313 3.18604 113.01 10.4433 111.548L21.3605 109.347Z" fill="url(#paint15_radial_1_11262)"/>
<path d="M21.3605 109.347C28.6178 107.884 33.3151 100.815 31.8523 93.5578L29.6361 82.5631C28.1732 75.3058 21.1042 70.6085 13.8469 72.0713L2.92967 74.2719C-4.3276 75.7348 -9.02492 82.8038 -7.56207 90.0611L-5.34587 101.056C-3.88302 108.313 3.18604 113.01 10.4433 111.548L21.3605 109.347Z" stroke="#00E29A" stroke-width="0.483333"/>
</g>
<g filter="url(#filter16_f_1_11262)">
<rect width="35.2573" height="35.2163" rx="14.9252" transform="matrix(-0.318371 -0.947966 -0.947966 0.318371 32.8389 115.396)" fill="url(#paint16_radial_1_11262)"/>
</g>
<g filter="url(#filter17_f_1_11262)">
<path d="M44.0663 105.56C51.8706 100.87 54.3949 90.7407 49.7045 82.9364L40.9029 68.2913C36.2125 60.487 26.0835 57.9626 18.2792 62.653L5.06436 70.5951C-2.73998 75.2855 -5.26432 85.4145 -0.573927 93.2188L8.22771 107.864C12.9181 115.668 23.0471 118.193 30.8515 113.502L44.0663 105.56Z" fill="url(#paint17_radial_1_11262)"/>
</g>
<g filter="url(#filter18_f_1_11262)">
<rect width="51.2911" height="51.2315" rx="18.3568" transform="matrix(-0.318371 -0.947966 -0.947966 0.318371 53.7842 124.818)" fill="url(#paint18_radial_1_11262)"/>
</g>
<g filter="url(#filter19_f_1_11262)">
<path d="M1.20471 111.148C8.7902 117.523 20.1316 116.513 26.5067 108.928C32.8818 101.342 31.9247 89.9964 24.3392 83.6213C16.7537 77.2461 5.41235 78.2559 -0.96278 85.8414C-7.33791 93.4269 -6.38077 104.773 1.20471 111.148Z" fill="url(#paint19_angular_1_11262)"/>
</g>
<path d="M31.2325 60.3934C31.2325 60.3934 32.8333 63.8334 33.1123 64.6731C33.3913 65.5128 33.3913 65.5128 33.3913 65.5128L32.2185 65.8026L34.082 68.4869C34.082 68.4869 33.2721 69.1126 33.3507 69.592C33.432 70.0715 31.8311 75.31 28.5916 77.4309C25.352 79.5491 21.1942 74.3105 20.7933 73.2325C20.3924 72.1517 20.0728 67.9533 20.834 65.7132C21.5951 63.4731 24.5936 59.9546 24.5936 59.9546L31.2325 60.3934Z" fill="#161616"/>
<path d="M32.4891 78.2595C32.4891 78.2595 36.0673 78.7064 37.9579 82.3848C39.8486 86.0632 42.6791 99.6878 42.6791 99.6878L43.3184 100.525C43.3184 100.525 41.1785 102.619 41.5659 104.978C41.9532 107.337 42.4624 107.993 42.4624 107.993L39.7158 107.516L37.966 113.404C37.966 113.404 38.4346 114.656 38.0175 115.227C37.6004 115.799 34.9946 118.042 29.2116 116.425C23.4286 114.808 20.8744 113.61 20.8744 113.61L21.8116 122.156C21.8116 122.156 22.5402 122.676 22.5402 123.093C22.5402 123.51 22.8517 126.793 22.8517 126.793C22.8517 126.793 21.5488 127.731 19.1002 128.199C16.6516 128.668 15.7658 128.668 15.7658 128.668C15.7658 128.668 13.9429 124.656 13.7858 124.136C13.6287 123.616 12.6915 120.385 12.1714 118.719C11.6514 117.05 8.47138 105.901 8.52555 99.8069C8.57702 93.7097 8.0055 88.6581 11.4428 83.7581C14.8828 78.8608 20.0401 76.5151 20.0401 76.5151L29.775 78.7362L32.4891 78.2595Z" fill="#161616" stroke="white" stroke-width="0.241667" stroke-linecap="round" stroke-linejoin="round"/>
<path d="M32.0122 79.7681L32.2451 82.0001C32.2451 82.0001 30.8556 82.8425 30.8556 82.7802C30.8556 82.7179 28.3338 79.1804 28.3338 79.1804L30.7066 78.3569L32.0122 79.7681Z" fill="white"/>
<path d="M32.2428 81.9998C32.2428 81.9998 36.4169 92.0299 37.7089 96.8541C39.0009 101.678 40.6072 111.616 40.358 112.51C40.1088 113.404 36.5577 117.695 36.5577 117.695C36.5577 117.695 32.6085 112.711 32.362 112.364C32.1128 112.017 32.8387 102.721 32.79 97.8509C32.7412 92.9807 30.856 82.7826 30.856 82.7826L32.2428 81.9998Z" fill="white"/>
<path d="M31.8336 69.7925C32.7762 69.6462 34.0574 68.7036 34.0818 68.4869C34.1062 68.2702 32.2182 65.8026 32.2182 65.8026L33.4751 65.5128C33.4751 65.5128 32.4891 62.0132 31.5357 60.8403" stroke="white" stroke-width="0.241667" stroke-linecap="round" stroke-linejoin="round"/>
<path d="M31.1318 66.0923C31.1318 66.0923 30.6009 65.7781 29.5608 66.1411C28.5207 66.504 28.304 66.7695 28.304 66.7695" stroke="white" stroke-width="0.241667" stroke-linecap="round" stroke-linejoin="round"/>
<path d="M30.2134 65.9946C30.2134 65.9946 30.5276 66.623 29.6825 66.986C28.8346 67.349 28.8184 66.5743 28.8184 66.5743" stroke="white" stroke-width="0.241667" stroke-linecap="round" stroke-linejoin="round"/>
<path d="M32.5591 60.358C32.6783 60.7508 32.4616 61.6149 30.961 61.4957C29.4604 61.3738 27.7431 60.2389 26.9712 61.2059C26.1965 62.1728 27.0958 64.4698 26.6353 66.2115C26.1748 67.9531 25.0318 69.2939 26.4673 70.3395C27.0443 70.762 24.3275 70.7051 24.3275 70.7051C24.3275 70.7051 23.905 68.243 22.6644 68.243C21.8166 68.243 21.3507 68.9824 21.2288 69.7571C21.1069 70.5318 21.8166 71.2171 21.8897 71.1927C21.9628 71.1683 21.2396 74.1668 20.0559 74.2887C18.8695 74.4106 17.2741 73.4653 17.6371 72.4035C18.0001 71.339 18.7991 70.3476 18.6285 68.7522C18.4578 67.1568 17.7807 64.8328 18.7991 62.2216C19.8176 59.6105 20.6627 58.183 22.5235 57.6738C24.3871 57.1645 26.9007 57.7713 26.9007 57.7713C26.9007 57.7713 28.0871 57.262 29.4415 57.7225C30.7958 58.183 32.0499 58.6651 32.5591 60.358Z" fill="white"/>
<path d="M21.1883 73.8772L29.875 78.6336L27.681 82.5639L18.8562 77.0788L21.1883 73.8772Z" fill="#161616" stroke="white" stroke-width="0.241667" stroke-linecap="round" stroke-linejoin="round"/>
<path d="M32.1667 77.0891C32.1451 77.2164 30.8097 78.5247 30.8097 78.5247C30.8097 78.5247 33.6213 80.7756 33.6213 80.7133C33.6213 80.651 33.6836 77.8286 33.6836 77.8286L32.1667 77.0891Z" fill="#161616" stroke="white" stroke-width="0.241667" stroke-linecap="round" stroke-linejoin="round"/>
<path d="M33.9627 69.8162C33.9627 69.8162 33.6187 69.009 33.2259 69.2419C33.0742 69.3313 33.3424 69.3421 33.0715 69.4396C33.0201 69.4586 33.5537 70.2279 32.7194 70.5719C31.6359 71.0161 29.9322 71.2355 28.5535 70.9213C27.1747 70.6071 24.4065 69.4315 24.4065 69.4315C24.4065 69.4315 23.8973 73.1072 24.3821 74.1961C24.867 75.2849 27.2858 77.9394 28.3774 78.3484C30.1001 78.9931 31.5899 78.4541 33.6214 77.8013C35.6529 77.1485 35.5554 75.0926 35.2899 73.5677C35.0272 72.04 33.9627 69.8162 33.9627 69.8162Z" fill="white"/>
<path d="M33.7031 71.8318C33.7031 71.8318 33.1776 72.0106 32.338 71.9943C31.4874 71.9781 30.6315 71.8805 30.6315 71.8805C30.6315 71.8805 31.0297 73.1428 32.3975 73.1617C33.4891 73.1753 33.7031 71.8318 33.7031 71.8318Z" fill="#161616"/>
<path d="M27.6998 65.8717C27.6998 65.8717 30.1279 65.8958 32.3405 65.6095C34.553 65.3232 35.3115 65.3147 35.3115 65.3147C35.3115 65.3147 35.3639 67.3177 34.6343 67.8879C33.9048 68.4581 33.6863 67.7525 33.28 67.2108C32.8737 66.669 32.7383 65.8717 31.9768 66.0377C31.5456 66.0377 31.9332 67.1059 30.9663 68.1019C29.9994 69.098 28.9302 69.2014 28.2594 68.6C27.2272 67.6761 27.6998 65.8717 27.6998 65.8717Z" stroke="white" stroke-width="0.241667" stroke-miterlimit="10" stroke-linecap="round" stroke-linejoin="round"/>
<path d="M27.5923 65.9922L23.5293 64.9087" stroke="white" stroke-width="0.241667" stroke-miterlimit="10" stroke-linecap="round" stroke-linejoin="round"/>
<circle cx="28.7246" cy="73.2368" r="14.2583" stroke="white" stroke-width="0.483333"/>
</g>
<defs>
<filter id="filter0_f_1_11262" x="24.3907" y="48.8848" width="85.3466" height="85.4147" filterUnits="userSpaceOnUse" color-interpolation-filters="sRGB">
<feFlood flood-opacity="0" result="BackgroundImageFix"/>
<feBlend mode="normal" in="SourceGraphic" in2="BackgroundImageFix" result="shape"/>
<feGaussianBlur stdDeviation="8.22214" result="effect1_foregroundBlur_1_11262"/>
</filter>
<filter id="filter1_f_1_11262" x="29.3866" y="68.7302" width="79.8644" height="79.8869" filterUnits="userSpaceOnUse" color-interpolation-filters="sRGB">
<feFlood flood-opacity="0" result="BackgroundImageFix"/>
<feBlend mode="normal" in="SourceGraphic" in2="BackgroundImageFix" result="shape"/>
<feGaussianBlur stdDeviation="7.90824" result="effect1_foregroundBlur_1_11262"/>
</filter>
<filter id="filter2_f_1_11262" x="30.1821" y="30.3091" width="104.011" height="103.961" filterUnits="userSpaceOnUse" color-interpolation-filters="sRGB">
<feFlood flood-opacity="0" result="BackgroundImageFix"/>
<feBlend mode="normal" in="SourceGraphic" in2="BackgroundImageFix" result="shape"/>
<feGaussianBlur stdDeviation="9.02905" result="effect1_foregroundBlur_1_11262"/>
</filter>
<filter id="filter3_f_1_11262" x="30.6125" y="56.1108" width="109.071" height="109.104" filterUnits="userSpaceOnUse" color-interpolation-filters="sRGB">
<feFlood flood-opacity="0" result="BackgroundImageFix"/>
<feBlend mode="normal" in="SourceGraphic" in2="BackgroundImageFix" result="shape"/>
<feGaussianBlur stdDeviation="9.72647" result="effect1_foregroundBlur_1_11262"/>
</filter>
<filter id="filter4_f_1_11262" x="24.7369" y="53.599" width="90.2322" height="90.3" filterUnits="userSpaceOnUse" color-interpolation-filters="sRGB">
<feFlood flood-opacity="0" result="BackgroundImageFix"/>
<feBlend mode="normal" in="SourceGraphic" in2="BackgroundImageFix" result="shape"/>
<feGaussianBlur stdDeviation="10.2712" result="effect1_foregroundBlur_1_11262"/>
</filter>
<filter id="filter5_f_1_11262" x="32.4845" y="22.4982" width="49.194" height="49.1798" filterUnits="userSpaceOnUse" color-interpolation-filters="sRGB">
<feFlood flood-opacity="0" result="BackgroundImageFix"/>
<feBlend mode="normal" in="SourceGraphic" in2="BackgroundImageFix" result="shape"/>
<feGaussianBlur stdDeviation="3.18107" result="effect1_foregroundBlur_1_11262"/>
</filter>
<filter id="filter6_f_1_11262" x="45.2304" y="21.8019" width="43.9934" height="43.9919" filterUnits="userSpaceOnUse" color-interpolation-filters="sRGB">
<feFlood flood-opacity="0" result="BackgroundImageFix"/>
<feBlend mode="normal" in="SourceGraphic" in2="BackgroundImageFix" result="shape"/>
<feGaussianBlur stdDeviation="3.05962" result="effect1_foregroundBlur_1_11262"/>
</filter>
<filter id="filter7_f_1_11262" x="19.3074" y="8.31671" width="60.8256" height="61.2186" filterUnits="userSpaceOnUse" color-interpolation-filters="sRGB">
<feFlood flood-opacity="0" result="BackgroundImageFix"/>
<feBlend mode="normal" in="SourceGraphic" in2="BackgroundImageFix" result="shape"/>
<feGaussianBlur stdDeviation="3.49326" result="effect1_foregroundBlur_1_11262"/>
</filter>
<filter id="filter8_f_1_11262" x="34.8596" y="2.13717" width="63.6021" height="63.6012" filterUnits="userSpaceOnUse" color-interpolation-filters="sRGB">
<feFlood flood-opacity="0" result="BackgroundImageFix"/>
<feBlend mode="normal" in="SourceGraphic" in2="BackgroundImageFix" result="shape"/>
<feGaussianBlur stdDeviation="3.76308" result="effect1_foregroundBlur_1_11262"/>
</filter>
<filter id="filter9_f_1_11262" x="37.9391" y="21.4283" width="46.3719" height="46.3155" filterUnits="userSpaceOnUse" color-interpolation-filters="sRGB">
<feFlood flood-opacity="0" result="BackgroundImageFix"/>
<feBlend mode="normal" in="SourceGraphic" in2="BackgroundImageFix" result="shape"/>
<feGaussianBlur stdDeviation="3.97382" result="effect1_foregroundBlur_1_11262"/>
</filter>
<filter id="filter10_f_1_11262" x="-70.6938" y="-14.6853" width="75.6894" height="75.737" filterUnits="userSpaceOnUse" color-interpolation-filters="sRGB">
<feFlood flood-opacity="0" result="BackgroundImageFix"/>
<feBlend mode="normal" in="SourceGraphic" in2="BackgroundImageFix" result="shape"/>
<feGaussianBlur stdDeviation="4.97143" result="effect1_foregroundBlur_1_11262"/>
</filter>
<filter id="filter11_f_1_11262" x="-64.9402" y="5.42697" width="68.5455" height="68.5616" filterUnits="userSpaceOnUse" color-interpolation-filters="sRGB">
<feFlood flood-opacity="0" result="BackgroundImageFix"/>
<feBlend mode="normal" in="SourceGraphic" in2="BackgroundImageFix" result="shape"/>
<feGaussianBlur stdDeviation="4.78163" result="effect1_foregroundBlur_1_11262"/>
</filter>
<filter id="filter12_f_1_11262" x="-66.2058" y="-33.7795" width="95.975" height="95.9276" filterUnits="userSpaceOnUse" color-interpolation-filters="sRGB">
<feFlood flood-opacity="0" result="BackgroundImageFix"/>
<feBlend mode="normal" in="SourceGraphic" in2="BackgroundImageFix" result="shape"/>
<feGaussianBlur stdDeviation="5.45932" result="effect1_foregroundBlur_1_11262"/>
</filter>
<filter id="filter13_f_1_11262" x="-64.7747" y="-7.80096" width="98.8434" height="98.8667" filterUnits="userSpaceOnUse" color-interpolation-filters="sRGB">
<feFlood flood-opacity="0" result="BackgroundImageFix"/>
<feBlend mode="normal" in="SourceGraphic" in2="BackgroundImageFix" result="shape"/>
<feGaussianBlur stdDeviation="5.88101" result="effect1_foregroundBlur_1_11262"/>
</filter>
<filter id="filter14_f_1_11262" x="-66.3455" y="-6.11945" width="72.3883" height="72.4535" filterUnits="userSpaceOnUse" color-interpolation-filters="sRGB">
<feFlood flood-opacity="0" result="BackgroundImageFix"/>
<feBlend mode="normal" in="SourceGraphic" in2="BackgroundImageFix" result="shape"/>
<feGaussianBlur stdDeviation="6.21036" result="effect1_foregroundBlur_1_11262"/>
</filter>
<filter id="filter15_f_1_11262" x="-15.577" y="64.0561" width="55.445" height="55.5067" filterUnits="userSpaceOnUse" color-interpolation-filters="sRGB">
<feFlood flood-opacity="0" result="BackgroundImageFix"/>
<feBlend mode="normal" in="SourceGraphic" in2="BackgroundImageFix" result="shape"/>
<feGaussianBlur stdDeviation="3.75333" result="effect1_foregroundBlur_1_11262"/>
</filter>
<filter id="filter16_f_1_11262" x="-15.0189" y="78.7238" width="51.1071" height="51.1325" filterUnits="userSpaceOnUse" color-interpolation-filters="sRGB">
<feFlood flood-opacity="0" result="BackgroundImageFix"/>
<feBlend mode="normal" in="SourceGraphic" in2="BackgroundImageFix" result="shape"/>
<feGaussianBlur stdDeviation="3.61004" result="effect1_foregroundBlur_1_11262"/>
</filter>
<filter id="filter17_f_1_11262" x="-11.175" y="52.0516" width="71.4809" height="72.0521" filterUnits="userSpaceOnUse" color-interpolation-filters="sRGB">
<feFlood flood-opacity="0" result="BackgroundImageFix"/>
<feBlend mode="normal" in="SourceGraphic" in2="BackgroundImageFix" result="shape"/>
<feGaussianBlur stdDeviation="4.12168" result="effect1_foregroundBlur_1_11262"/>
</filter>
<filter id="filter18_f_1_11262" x="-15.1076" y="72.2" width="72.8881" height="72.9247" filterUnits="userSpaceOnUse" color-interpolation-filters="sRGB">
<feFlood flood-opacity="0" result="BackgroundImageFix"/>
<feBlend mode="normal" in="SourceGraphic" in2="BackgroundImageFix" result="shape"/>
<feGaussianBlur stdDeviation="4.44004" result="effect1_foregroundBlur_1_11262"/>
</filter>
<filter id="filter19_f_1_11262" x="-14.5571" y="70.0489" width="54.6581" height="54.6715" filterUnits="userSpaceOnUse" color-interpolation-filters="sRGB">
<feFlood flood-opacity="0" result="BackgroundImageFix"/>
<feBlend mode="normal" in="SourceGraphic" in2="BackgroundImageFix" result="shape"/>
<feGaussianBlur stdDeviation="4.6887" result="effect1_foregroundBlur_1_11262"/>
</filter>
<radialGradient id="paint0_radial_1_11262" cx="0" cy="0" r="1" gradientUnits="userSpaceOnUse" gradientTransform="translate(72.5815 101.658) rotate(154.331) scale(113.097 113.333)">
<stop stop-color="#5AE9FD"/>
<stop offset="1" stop-color="#5AE9FD" stop-opacity="0"/>
</radialGradient>
<radialGradient id="paint1_radial_1_11262" cx="0" cy="0" r="1" gradientUnits="userSpaceOnUse" gradientTransform="translate(24.1361 24.108) rotate(90) scale(24.108 24.1361)">
<stop stop-color="#38FF70"/>
<stop offset="1" stop-color="#4AE074" stop-opacity="0.65"/>
</radialGradient>
<radialGradient id="paint2_radial_1_11262" cx="0" cy="0" r="1" gradientUnits="userSpaceOnUse" gradientTransform="translate(82.1872 82.2896) rotate(134.122) scale(33.1272 108.972)">
<stop stop-color="#6012C3"/>
<stop offset="1" stop-color="#9949FF" stop-opacity="0.37"/>
</radialGradient>
<radialGradient id="paint3_radial_1_11262" cx="0" cy="0" r="1" gradientUnits="userSpaceOnUse" gradientTransform="translate(55.9309 40.9775) rotate(151.133) scale(33.1302 33.1688)">
<stop stop-color="#FFF9C5"/>
<stop offset="0.755208" stop-color="#FF5C00"/>
<stop offset="1" stop-color="#FF451C"/>
</radialGradient>
<radialGradient id="paint4_angular_1_11262" cx="0" cy="0" r="1" gradientUnits="userSpaceOnUse" gradientTransform="translate(69.8532 98.749) rotate(-154.827) scale(24.5641 24.8814)">
<stop stop-color="#FFF5CF"/>
<stop offset="1" stop-color="#FFD84B" stop-opacity="0"/>
</radialGradient>
<radialGradient id="paint5_radial_1_11262" cx="0" cy="0" r="1" gradientUnits="userSpaceOnUse" gradientTransform="translate(62.5893 42.5992) rotate(53.8807) scale(70.0101 70.156)">
<stop stop-color="#5AE9FD"/>
<stop offset="1" stop-color="#5AE9FD" stop-opacity="0"/>
</radialGradient>
<radialGradient id="paint6_radial_1_11262" cx="0" cy="0" r="1" gradientUnits="userSpaceOnUse" gradientTransform="translate(14.9409 14.9235) rotate(90) scale(14.9235 14.9409)">
<stop stop-color="#38FF70"/>
<stop offset="1" stop-color="#4AE074" stop-opacity="0.65"/>
</radialGradient>
<radialGradient id="paint7_radial_1_11262" cx="0" cy="0" r="1" gradientUnits="userSpaceOnUse" gradientTransform="translate(49.7204 38.926) rotate(33.672) scale(20.5066 67.4566)">
<stop stop-color="#6012C3"/>
<stop offset="1" stop-color="#9949FF" stop-opacity="0.37"/>
</radialGradient>
<radialGradient id="paint8_radial_1_11262" cx="0" cy="0" r="1" gradientUnits="userSpaceOnUse" gradientTransform="translate(34.6226 25.3661) rotate(151.133) scale(20.5084 20.5323)">
<stop stop-color="#FFF9C5"/>
<stop offset="0.8125" stop-color="#FF5C00"/>
<stop offset="1" stop-color="#F12E8C"/>
</radialGradient>
<radialGradient id="paint9_angular_1_11262" cx="0" cy="0" r="1" gradientUnits="userSpaceOnUse" gradientTransform="translate(61.125 44.586) rotate(104.723) scale(15.2058 15.4022)">
<stop stop-color="#FFF5CF"/>
<stop offset="1" stop-color="#FFD84B" stop-opacity="0"/>
</radialGradient>
<radialGradient id="paint10_radial_1_11262" cx="0" cy="0" r="1" gradientUnits="userSpaceOnUse" gradientTransform="translate(-27.511 32.9206) rotate(154.331) scale(109.413 109.641)">
<stop stop-color="#5AE9FD"/>
<stop offset="1" stop-color="#5AE9FD" stop-opacity="0"/>
</radialGradient>
<radialGradient id="paint11_radial_1_11262" cx="0" cy="0" r="1" gradientUnits="userSpaceOnUse" gradientTransform="translate(23.3498 23.3227) rotate(90) scale(23.3227 23.3498)">
<stop stop-color="#38FF70"/>
<stop offset="1" stop-color="#4AE074" stop-opacity="0.65"/>
</radialGradient>
<radialGradient id="paint12_radial_1_11262" cx="0" cy="0" r="1" gradientUnits="userSpaceOnUse" gradientTransform="translate(-18.2181 14.1843) rotate(134.122) scale(32.048 105.422)">
<stop stop-color="#6012C3"/>
<stop offset="1" stop-color="#9949FF" stop-opacity="0.37"/>
</radialGradient>
<radialGradient id="paint13_radial_1_11262" cx="0" cy="0" r="1" gradientUnits="userSpaceOnUse" gradientTransform="translate(54.1088 39.6426) rotate(151.133) scale(32.051 32.0883)">
<stop stop-color="#FFF9C5"/>
<stop offset="0.755208" stop-color="#FF5C00"/>
<stop offset="1" stop-color="#FF451C"/>
</radialGradient>
<radialGradient id="paint14_angular_1_11262" cx="0" cy="0" r="1" gradientUnits="userSpaceOnUse" gradientTransform="translate(-30.1513 30.1073) rotate(-154.827) scale(23.7639 24.0708)">
<stop stop-color="#FFF5CF"/>
<stop offset="1" stop-color="#FFD84B" stop-opacity="0"/>
</radialGradient>
<radialGradient id="paint15_radial_1_11262" cx="0" cy="0" r="1" gradientUnits="userSpaceOnUse" gradientTransform="translate(14.1532 99.9491) rotate(169.203) scale(82.6047 82.7767)">
<stop stop-color="#5AE9FD"/>
<stop offset="1" stop-color="#5AE9FD" stop-opacity="0"/>
</radialGradient>
<radialGradient id="paint16_radial_1_11262" cx="0" cy="0" r="1" gradientUnits="userSpaceOnUse" gradientTransform="translate(17.6287 17.6082) rotate(90) scale(17.6082 17.6287)">
<stop stop-color="#38FF70"/>
<stop offset="1" stop-color="#4AE074" stop-opacity="0.65"/>
</radialGradient>
<radialGradient id="paint17_radial_1_11262" cx="0" cy="0" r="1" gradientUnits="userSpaceOnUse" gradientTransform="translate(24.5653 88.0776) rotate(148.994) scale(24.1956 79.5918)">
<stop stop-color="#6012C3"/>
<stop offset="1" stop-color="#9949FF" stop-opacity="0.37"/>
</radialGradient>
<radialGradient id="paint18_radial_1_11262" cx="0" cy="0" r="1" gradientUnits="userSpaceOnUse" gradientTransform="translate(40.8511 29.9293) rotate(151.133) scale(24.1978 24.226)">
<stop stop-color="#FFF9C5"/>
<stop offset="0.755208" stop-color="#FF5C00"/>
<stop offset="1" stop-color="#FF451C"/>
</radialGradient>
<radialGradient id="paint19_angular_1_11262" cx="0" cy="0" r="1" gradientUnits="userSpaceOnUse" gradientTransform="translate(12.772 97.3846) rotate(-139.955) scale(17.9412 18.173)">
<stop stop-color="#FFF5CF"/>
<stop offset="1" stop-color="#FFD84B" stop-opacity="0"/>
</radialGradient>
</defs>
</svg>
