<svg width="321" height="660" viewBox="0 0 321 660" fill="none" xmlns="http://www.w3.org/2000/svg">
<g filter="url(#filter0_f_1_10149)">
<path d="M250.439 80.2266C264.57 207.186 173.618 325.496 47.2929 344.479L19.8199 348.607C-106.505 367.59 -220.366 280.058 -234.497 153.099L-245.91 50.5485C-260.04 -76.4109 -169.089 -194.721 -42.7636 -213.704L-15.2907 -217.832C111.034 -236.815 224.896 -149.283 239.026 -22.3234L250.439 80.2266Z" fill="url(#paint0_radial_1_10149)"/>
<path d="M250.439 80.2266C264.57 207.186 173.618 325.496 47.2929 344.479L19.8199 348.607C-106.505 367.59 -220.366 280.058 -234.497 153.099L-245.91 50.5485C-260.04 -76.4109 -169.089 -194.721 -42.7636 -213.704L-15.2907 -217.832C111.034 -236.815 224.896 -149.283 239.026 -22.3234L250.439 80.2266Z" stroke="#00E29A" stroke-width="27.1777"/>
</g>
<g filter="url(#filter1_f_1_10149)">
<rect width="453.381" height="526.201" rx="226.69" transform="matrix(-0.999992 0.00407172 -0.00301568 -0.999995 375.045 244.789)" fill="url(#paint1_radial_1_10149)"/>
</g>
<g filter="url(#filter2_f_1_10149)">
<path d="M308.996 411.993C280.16 566.438 133.282 660.506 -19.0655 622.101L-96.4612 602.591C-248.808 564.186 -348.934 407.85 -320.098 253.406L-292.591 106.076C-263.755 -48.3685 -116.877 -142.437 35.4708 -104.032L112.866 -84.5215C265.214 -46.1165 365.339 110.219 336.503 264.663L308.996 411.993Z" fill="url(#paint2_radial_1_10149)"/>
</g>
<g filter="url(#filter3_f_1_10149)">
<rect width="659.563" height="765.5" rx="316.747" transform="matrix(-0.999992 0.00407172 -0.00301568 -0.999995 576.414 495.823)" fill="url(#paint3_radial_1_10149)"/>
</g>
<g filter="url(#filter4_f_1_10149)">
<path d="M192.468 -182.344C301.468 -105.67 339.914 52.2973 278.338 170.485L261.866 202.102C200.291 320.29 62.0128 353.944 -46.9873 277.27C-155.987 200.595 -194.433 42.6281 -132.858 -75.56L-116.386 -107.177C-54.8104 -225.365 83.468 -259.018 192.468 -182.344Z" fill="url(#paint4_angular_1_10149)"/>
</g>
<defs>
<filter id="filter0_f_1_10149" x="-390.408" y="-363.604" width="785.345" height="857.984" filterUnits="userSpaceOnUse" color-interpolation-filters="sRGB">
<feFlood flood-opacity="0" result="BackgroundImageFix"/>
<feBlend mode="normal" in="SourceGraphic" in2="BackgroundImageFix" result="shape"/>
<feGaussianBlur stdDeviation="64.7639" result="effect1_foregroundBlur_1_10149"/>
</filter>
<filter id="filter1_f_1_10149" x="-203.819" y="-405.071" width="702.764" height="775.368" filterUnits="userSpaceOnUse" color-interpolation-filters="sRGB">
<feFlood flood-opacity="0" result="BackgroundImageFix"/>
<feBlend mode="normal" in="SourceGraphic" in2="BackgroundImageFix" result="shape"/>
<feGaussianBlur stdDeviation="62.2914" result="effect1_foregroundBlur_1_10149"/>
</filter>
<filter id="filter2_f_1_10149" x="-541.199" y="-328.769" width="1098.8" height="1175.61" filterUnits="userSpaceOnUse" color-interpolation-filters="sRGB">
<feFlood flood-opacity="0" result="BackgroundImageFix"/>
<feBlend mode="normal" in="SourceGraphic" in2="BackgroundImageFix" result="shape"/>
<feGaussianBlur stdDeviation="108.076" result="effect1_foregroundBlur_1_10149"/>
</filter>
<filter id="filter3_f_1_10149" x="-237.725" y="-421.613" width="966.411" height="1072.06" filterUnits="userSpaceOnUse" color-interpolation-filters="sRGB">
<feFlood flood-opacity="0" result="BackgroundImageFix"/>
<feBlend mode="normal" in="SourceGraphic" in2="BackgroundImageFix" result="shape"/>
<feGaussianBlur stdDeviation="76.6132" result="effect1_foregroundBlur_1_10149"/>
</filter>
<filter id="filter4_f_1_10149" x="-324.019" y="-385.27" width="793.519" height="865.466" filterUnits="userSpaceOnUse" color-interpolation-filters="sRGB">
<feFlood flood-opacity="0" result="BackgroundImageFix"/>
<feBlend mode="normal" in="SourceGraphic" in2="BackgroundImageFix" result="shape"/>
<feGaussianBlur stdDeviation="80.9037" result="effect1_foregroundBlur_1_10149"/>
</filter>
<radialGradient id="paint0_radial_1_10149" cx="0" cy="0" r="1" gradientUnits="userSpaceOnUse" gradientTransform="translate(109.676 54.6726) rotate(-96.8689) scale(1231.2 1067.1)">
<stop stop-color="#5AE9FD"/>
<stop offset="1" stop-color="#5AE9FD" stop-opacity="0"/>
</radialGradient>
<radialGradient id="paint1_radial_1_10149" cx="0" cy="0" r="1" gradientUnits="userSpaceOnUse" gradientTransform="translate(226.69 263.101) rotate(90) scale(263.101 226.69)">
<stop stop-color="#38B7FF"/>
<stop offset="1" stop-color="#4AE0E0" stop-opacity="0.65"/>
</radialGradient>
<radialGradient id="paint2_radial_1_10149" cx="0" cy="0" r="1" gradientUnits="userSpaceOnUse" gradientTransform="translate(8.20264 259.035) rotate(-79.4242) scale(359.417 1029.5)">
<stop stop-color="#6012C3"/>
<stop offset="1" stop-color="#9949FF" stop-opacity="0.37"/>
</radialGradient>
<radialGradient id="paint3_radial_1_10149" cx="0" cy="0" r="1" gradientUnits="userSpaceOnUse" gradientTransform="translate(525.312 447.203) rotate(147.357) scale(323.614 348.059)">
<stop stop-color="#FFF9C5"/>
<stop offset="0.755208" stop-color="#FF5C00"/>
<stop offset="1" stop-color="#FF451C"/>
</radialGradient>
<radialGradient id="paint4_angular_1_10149" cx="0" cy="0" r="1" gradientUnits="userSpaceOnUse" gradientTransform="translate(72.7404 47.4627) rotate(-144.876) scale(241.3 259.623)">
<stop stop-color="#FFF5CF"/>
<stop offset="1" stop-color="#FFD84B" stop-opacity="0"/>
</radialGradient>
</defs>
</svg>
