<svg width="321" height="193" viewBox="0 0 321 193" fill="none" xmlns="http://www.w3.org/2000/svg">
<path d="M233.74 0.954643C256.219 0.954643 274.443 19.178 274.443 41.6576C274.443 64.1373 256.219 82.3606 233.74 82.3606C211.26 82.3606 193.037 64.1373 193.037 41.6576C193.037 19.178 211.26 0.954643 233.74 0.954643Z" fill="#F48B44"/>
<path d="M-79.2856 34.6958H389.566V192.637H-79.2856V34.6958Z" fill="#161616"/>
<path d="M235.627 135.485C233.414 135.719 231.181 135.682 228.978 135.375C226.778 135.091 224.595 134.691 222.438 134.179C220.282 133.667 218.136 133.101 216.044 132.444C213.952 131.786 211.806 131.119 209.751 130.343L209.44 130.233L209.093 130.37C207.066 131.176 204.992 131.859 202.882 132.416C200.763 132.992 198.617 133.476 196.489 133.905C194.361 134.334 192.141 134.681 189.94 134.955C187.739 135.229 185.528 135.449 183.29 135.686C185.521 135.948 187.767 136.055 190.013 136.006H191.703L193.392 135.887C194.516 135.823 195.63 135.677 196.754 135.531C198.992 135.223 201.21 134.777 203.394 134.197C205.603 133.625 207.762 132.877 209.851 131.959H209.194C211.349 132.69 213.496 133.329 215.679 133.896C217.862 134.462 220.054 134.955 222.273 135.33C224.493 135.723 226.735 135.97 228.987 136.07C231.217 136.195 233.453 135.998 235.627 135.485Z" fill="#161616"/>
<path d="M334.58 56.519C332.742 56.7636 330.885 56.7959 329.041 56.6154C327.193 56.4793 325.355 56.2412 323.528 55.9522C319.864 55.3853 316.226 54.6314 312.625 53.7415H312.577H312.519C309.709 54.5011 306.862 55.1586 303.994 55.6687C302.578 55.9295 301.141 56.1317 299.682 56.2753C298.244 56.4348 296.797 56.4783 295.354 56.4056C292.455 56.2401 289.567 55.9071 286.702 55.408C283.831 54.9319 280.972 54.365 278.125 53.7075H278.072H278.019C274.014 54.7732 269.973 55.7084 265.894 56.4113C263.855 56.7627 261.805 57.0631 259.749 57.2445C257.692 57.4788 255.617 57.4693 253.562 57.2162C255.615 57.5232 257.693 57.5897 259.76 57.4146C261.826 57.2842 263.892 57.0518 265.936 56.7174C267.981 56.3829 270.031 56.0202 272.06 55.5837C274.089 55.1473 276.117 54.6995 278.13 54.1666H278.024C280.878 54.8431 283.744 55.4269 286.622 55.9181C289.505 56.4407 292.413 56.7851 295.332 56.9498C296.8 57.017 298.269 56.9677 299.73 56.8024C301.185 56.6494 302.635 56.434 304.074 56.1676C306.953 55.6347 309.805 54.9715 312.63 54.178H312.529C316.156 55.0226 319.81 55.7198 323.491 56.2299C325.328 56.485 327.177 56.6664 329.03 56.7514C330.883 56.8869 332.743 56.809 334.58 56.519Z" fill="white"/>
<path d="M135.587 143.981C131.787 144.21 127.988 144.365 124.188 144.264C120.388 144.164 116.607 144.027 112.826 143.671C105.262 143.034 97.7439 141.945 90.3107 140.41H90.192H90.0641C85.9602 141.744 81.7895 142.863 77.5691 143.762C73.3492 144.675 69.0838 145.415 64.7818 145.963C60.4797 146.511 56.1869 146.95 51.8666 147.105C47.5463 147.26 43.2077 147.242 38.8783 147.105C43.1998 147.486 47.5382 147.638 51.8757 147.562C56.2234 147.489 60.5528 147.178 64.8731 146.648C69.1934 146.119 73.4862 145.443 77.7335 144.548C82.0048 143.726 86.223 142.649 90.3655 141.323H90.1189C93.8637 142.091 97.6269 142.693 101.399 143.205C105.171 143.716 108.971 144.118 112.771 144.347C116.57 144.575 120.379 144.721 124.188 144.694C127.997 144.666 131.806 144.392 135.587 143.981Z" fill="white"/>
<path d="M38.8389 173.847C37.9589 174.018 37.1033 174.299 36.2111 174.385C35.3189 174.471 34.4389 174.581 33.5467 174.581H30.8701L28.1935 174.385C24.6368 174.031 21.1047 173.493 17.597 172.808C10.5938 171.378 3.61498 169.728 -3.18047 167.675L-3.41269 167.602L-3.65715 167.724C-5.48187 168.659 -7.38317 169.436 -9.34035 170.046C-11.2959 170.706 -13.3003 171.268 -15.3169 171.696C-19.3829 172.58 -23.5024 173.196 -27.649 173.542C-31.7974 173.921 -35.9621 174.092 -40.1276 174.055L-46.3853 173.933L-52.6552 173.578L-46.4098 174.275C-44.3198 174.409 -42.2421 174.593 -40.1399 174.691C-35.9599 174.788 -31.7556 174.837 -27.5634 174.519C-23.3642 174.248 -19.1898 173.677 -15.0725 172.808C-13.0192 172.344 -10.9781 171.843 -8.96146 171.183C-6.91385 170.565 -4.93242 169.746 -3.04605 168.738L-3.52272 168.8C-0.0598145 169.794 3.41944 170.702 6.91494 171.525C10.4104 172.356 13.9426 173.077 17.4869 173.664C21.0357 174.261 24.6137 174.669 28.2057 174.886L30.9068 174.959L33.6078 174.862C34.5122 174.862 35.4045 174.642 36.2967 174.532C37.1889 174.422 37.9833 174.141 38.8389 173.847Z" fill="white"/>
<path d="M293.352 76.0342C292.938 76.109 292.536 76.232 292.117 76.2694C291.697 76.3068 291.284 76.3549 290.865 76.3549H289.607L288.349 76.2694C286.678 76.1144 285.018 75.8792 283.37 75.5799C280.079 74.9546 276.799 74.2331 273.606 73.3353L273.497 73.3032L273.382 73.3567C272.524 73.7654 271.631 74.1051 270.711 74.3721C269.792 74.6607 268.85 74.9065 267.903 75.0936C265.992 75.48 264.056 75.7496 262.107 75.9006C260.158 76.0664 258.201 76.1413 256.243 76.1251L253.303 76.0716L250.356 75.9166L253.291 76.2212C254.273 76.28 255.25 76.3602 256.238 76.403C258.202 76.4457 260.178 76.4671 262.148 76.3281C264.121 76.2096 266.083 75.9596 268.017 75.5799C268.982 75.3768 269.941 75.1577 270.889 74.8691C271.851 74.599 272.782 74.241 273.669 73.8002L273.445 73.827C275.072 74.2617 276.707 74.6589 278.35 75.0188C279.992 75.3822 281.652 75.6975 283.318 75.954C284.985 76.215 286.667 76.3934 288.355 76.4885L289.624 76.5205L290.893 76.4778C291.318 76.4778 291.738 76.3816 292.157 76.3335C292.576 76.2854 292.95 76.1625 293.352 76.0342Z" fill="white"/>
<path d="M226.373 54.683C225.96 54.7578 225.557 54.8808 225.138 54.9182C224.719 54.9556 224.305 55.0037 223.886 55.0037H222.628L221.371 54.9182C219.699 54.7632 218.039 54.528 216.391 54.2287C213.1 53.6034 209.821 52.8819 206.627 51.9841L206.518 51.952L206.403 52.0055C205.546 52.4142 204.652 52.7539 203.733 53.0209C202.814 53.3095 201.872 53.5553 200.924 53.7424C199.013 54.1288 197.077 54.3984 195.129 54.5494C193.179 54.7152 191.222 54.7901 189.265 54.7739L186.324 54.7204L183.378 54.5654L186.313 54.8701C187.295 54.9288 188.271 55.009 189.259 55.0518C191.223 55.0945 193.199 55.1159 195.169 54.9769C197.142 54.8585 199.104 54.6084 201.039 54.2287C202.004 54.0256 202.963 53.8065 203.911 53.5179C204.873 53.2478 205.804 52.8898 206.69 52.449L206.466 52.4758C208.094 52.9105 209.729 53.3077 211.371 53.6676C213.014 54.031 214.674 54.3463 216.339 54.6028C218.007 54.8638 219.688 55.0422 221.376 55.1373L222.646 55.1694L223.915 55.1266C224.34 55.1266 224.759 55.0304 225.178 54.9823C225.598 54.9342 225.971 54.8113 226.373 54.683Z" fill="white"/>
<path d="M257.668 180.286C257.254 180.361 256.852 180.484 256.433 180.521C256.014 180.559 255.6 180.607 255.181 180.607H253.923L252.665 180.521C250.994 180.366 249.334 180.131 247.686 179.832C244.395 179.207 241.115 178.485 237.922 177.587L237.813 177.555L237.698 177.609C236.841 178.017 235.947 178.357 235.027 178.624C234.109 178.913 233.167 179.158 232.219 179.346C230.308 179.732 228.372 180.002 226.424 180.153C224.474 180.318 222.517 180.393 220.56 180.377L217.619 180.324L214.673 180.169L217.608 180.473C218.59 180.532 219.566 180.612 220.554 180.655C222.518 180.698 224.494 180.719 226.464 180.58C228.437 180.462 230.399 180.212 232.334 179.832C233.299 179.629 234.258 179.41 235.205 179.121C236.168 178.851 237.099 178.493 237.985 178.052L237.761 178.079C239.389 178.514 241.024 178.911 242.666 179.271C244.309 179.634 245.969 179.949 247.634 180.206C249.302 180.467 250.983 180.645 252.671 180.74L253.941 180.773L255.21 180.73C255.635 180.73 256.054 180.634 256.473 180.585C256.893 180.537 257.266 180.414 257.668 180.286Z" fill="white"/>
<path d="M52.3442 97.093C51.9307 97.1679 51.5287 97.2908 51.1094 97.3282C50.6901 97.3656 50.2766 97.4137 49.8573 97.4137H48.5995L47.3417 97.3282C45.6704 97.1732 44.0105 96.9381 42.3622 96.6388C39.0712 96.0135 35.7917 95.292 32.5984 94.3941L32.4893 94.3621L32.3744 94.4155C31.5169 94.8242 30.6234 95.164 29.7037 95.4309C28.7848 95.7195 27.8428 95.9654 26.8952 96.1524C24.9845 96.5388 23.0486 96.8084 21.1001 96.9594C19.1506 97.1252 17.1935 97.2001 15.2361 97.1839L12.2954 97.1304L9.34907 96.9755L12.2839 97.2801C13.2661 97.3389 14.2425 97.4191 15.2303 97.4618C17.1946 97.5046 19.1703 97.5259 21.1403 97.387C23.1136 97.2685 25.0752 97.0184 27.0101 96.6388C27.975 96.4357 28.9341 96.2166 29.8818 95.928C30.844 95.6578 31.7751 95.2998 32.6616 94.8591L32.4376 94.8858C34.0649 95.3205 35.6998 95.7177 37.3425 96.0776C38.9851 96.441 40.6449 96.7563 42.3105 97.0129C43.9781 97.2738 45.6595 97.4522 47.3475 97.5473L48.6168 97.5794L49.886 97.5366C50.3111 97.5366 50.7303 97.4404 51.1496 97.3923C51.5689 97.3442 51.9422 97.2213 52.3442 97.093Z" fill="white"/>
<path d="M180.668 170.859C177.709 171.225 174.717 171.225 171.758 170.859C168.797 170.557 165.858 170.071 162.958 169.404C160.062 168.756 157.165 168.047 154.305 167.216C151.445 166.385 148.597 165.493 145.823 164.479L145.591 164.393L145.346 164.503C142.632 165.659 139.838 166.619 136.986 167.375C134.139 168.17 131.23 168.781 128.309 169.343C125.388 169.905 122.442 170.309 119.472 170.565C117.993 170.749 116.515 170.822 115.023 170.932L110.55 171.14C113.532 171.286 116.523 171.286 119.521 171.14C122.516 171.017 125.485 170.663 128.468 170.26C131.437 169.817 134.379 169.209 137.28 168.439C140.197 167.7 143.057 166.748 145.835 165.591H145.359C148.206 166.581 151.078 167.449 153.914 168.243C156.749 169.037 159.719 169.771 162.677 170.284C165.628 170.852 168.612 171.232 171.611 171.421C174.642 171.647 177.689 171.458 180.668 170.859Z" fill="white"/>
<path d="M345.348 143.009C340.275 143.573 335.174 143.85 330.07 143.84C324.974 143.84 319.877 143.632 314.805 143.131C309.733 142.63 304.673 142.031 299.637 141.2C294.602 140.369 289.603 139.379 284.69 138.132H284.482L284.238 138.23C279.158 140.381 273.815 141.848 268.349 142.593C262.873 143.447 257.351 143.977 251.812 144.182C249.038 144.353 246.264 144.329 243.489 144.39C240.715 144.451 237.928 144.304 235.154 144.268L226.818 144.428L218.495 144.908L226.794 144.758L235.129 144.879C237.904 144.989 240.69 145.135 243.477 145.184C246.264 145.233 249.05 145.27 251.837 145.184C257.458 145.04 263.063 144.53 268.618 143.656C271.392 143.241 274.13 142.679 276.855 142.019C279.616 141.37 282.302 140.44 284.873 139.244H284.421C289.42 140.466 294.455 141.432 299.515 142.239C304.575 143.045 309.672 143.632 314.78 143.986C319.889 144.341 325.01 144.475 330.131 144.365C335.227 144.23 340.309 143.777 345.348 143.009Z" fill="white"/>
<path d="M20.1694 145.91L14.2784 146.191C12.3229 146.191 10.3551 146.313 8.39962 146.191C4.46412 146.191 0.553093 145.934 -3.34573 145.555C-7.24456 145.176 -11.1189 144.553 -14.9444 143.759C-18.7631 142.995 -22.5088 141.903 -26.1398 140.495L-26.3598 140.41L-26.5798 140.483C-32.0746 142.257 -37.6548 143.754 -43.2995 144.968C-48.9461 146.199 -54.6497 147.181 -60.4104 147.914C-66.1425 148.684 -71.9113 149.222 -77.6923 149.43C-83.4734 149.637 -89.2788 149.625 -95.072 149.43C-89.2895 149.939 -83.4841 150.143 -77.6801 150.041C-71.8624 149.955 -66.057 149.527 -60.2882 148.88C-54.5194 148.232 -48.7628 147.254 -43.0673 146.068C-37.3581 144.905 -31.7222 143.407 -26.1887 141.583H-26.6287C-22.9127 142.993 -19.0809 144.077 -15.1766 144.822C-11.3022 145.601 -7.38393 146.144 -3.44353 146.447C0.504185 146.704 4.43967 146.875 8.38738 146.741C10.3551 146.741 12.3229 146.545 14.2906 146.447C16.2584 146.35 18.2139 146.117 20.1694 145.91Z" fill="white"/>
</svg>
