<svg xmlns="http://www.w3.org/2000/svg" fill="none" viewBox="0 0 1603 720"><path fill="#F48B44" d="M1303 0c99.41 0 180 80.589 180 180s-80.59 180-180 180-180-80.589-180-180S1203.59 0 1303 0z"/><path fill="#161616" d="M0 180h1603v540H0V180z"/><path fill="#161616" d="M1076.68 524.597c-7.57.798-15.2.673-22.73-.375a217.537 217.537 0 0 1-22.36-4.091c-7.37-1.749-14.71-3.685-21.86-5.933-7.16-2.249-14.494-4.528-21.52-7.183l-1.062-.374-1.187.468a185.629 185.629 0 0 1-21.235 6.995c-7.245 1.968-14.583 3.623-21.86 5.09-7.276 1.468-14.864 2.655-22.39 3.592-7.526.936-15.084 1.686-22.735 2.498 7.627.895 15.307 1.26 22.984 1.093h5.778l5.777-.406c3.841-.219 7.651-.718 11.492-1.218a188.597 188.597 0 0 0 22.703-4.559 145.663 145.663 0 0 0 22.078-7.651h-2.248a314.885 314.885 0 0 0 22.175 6.62c7.46 1.936 14.96 3.623 22.54 4.903a176.626 176.626 0 0 0 22.96 2.529c7.62.428 15.27-.245 22.7-1.998z"/><path fill="#fff" d="M1415 254.612c-6.28.837-12.63.947-18.94.33-6.32-.465-12.6-1.279-18.85-2.268-12.53-1.938-24.96-4.515-37.28-7.558h-.36c-9.6 2.597-19.34 4.845-29.14 6.589-4.84.892-9.76 1.583-14.75 2.074-4.91.545-9.86.694-14.79.446a257.79 257.79 0 0 1-29.58-3.411 476.437 476.437 0 0 1-29.33-5.814h-.36c-13.69 3.643-27.51 6.841-41.46 9.244-6.97 1.202-13.98 2.229-21.01 2.849-7.03.801-14.12.769-21.15-.097a91.126 91.126 0 0 0 21.19.678c7.06-.445 14.13-1.24 21.12-2.383 6.99-1.144 14-2.384 20.93-3.876 6.94-1.493 13.88-3.024 20.76-4.845h-.36a469.979 469.979 0 0 0 29.39 5.988c9.86 1.787 19.8 2.964 29.78 3.527 5.02.23 10.04.062 15.04-.504 4.97-.523 9.93-1.259 14.85-2.17a330.666 330.666 0 0 0 29.25-6.803h-.34c12.4 2.888 24.89 5.272 37.48 7.016 6.28.872 12.6 1.492 18.93 1.783 6.34.463 12.7.197 18.98-.795zM806.648 489.21c-12.991.781-25.981 1.312-38.972.968-12.991-.343-25.92-.812-38.849-2.029A650.894 650.894 0 0 1 651.85 477H651.006a424.117 424.117 0 0 1-42.72 11.461 513.266 513.266 0 0 1-43.72 7.526c-14.708 1.873-29.385 3.372-44.156 3.903-14.771.531-29.605.469-44.407 0a421.695 421.695 0 0 0 44.438 1.562c14.864-.25 29.667-1.312 44.438-3.123 14.771-1.811 29.448-4.122 43.969-7.183a372.09 372.09 0 0 0 43.189-11.023h-.843c12.803 2.623 25.67 4.684 38.567 6.433 12.897 1.749 25.888 3.123 38.879 3.903 12.991.781 26.013 1.281 39.036 1.187 13.022-.094 26.044-1.03 38.972-2.436z"/><path fill="#161616" d="M571.703 16.89c-.376-.13-2.644 10.449-2.891 12.459-.247 2.01.376 6.17.376 6.17l-2.774 4.408 1.892 2.645s-.376 12.717 2.774 16.996c3.15 4.278 7.053 2.139 7.053 2.139l4.031-1.516 4.913 9.696s6.418 3.268 12.964.882c6.547-2.386 6.171-8.686 6.171-8.686l-4.278-16.867s3.655-7.428-.882-17.242c-4.537-9.815-12.459-16.115-15.362-16.115-2.915 0-13.987 5.031-13.987 5.031z"/><mask id="a" style="mask-type:alpha" width="529" height="53" x="306" y="307" maskUnits="userSpaceOnUse"><path fill="#FFEC00" d="M797.273 338.272c-57.241-5.325-117.302-6.265-215.645-10.202-55.631-2.234-208.934-13.682-229.844-16.42-25.459-3.338-43.924-6.653-45.699-.894-1.774 5.771 24.401 13.317 50.142 18.642 25.74 5.324 183.252 28.397 251.576 30.172 68.324 1.774 215.199-2.222 224.954-6.653 9.768-4.443-25.928-13.752-35.484-14.645z"/></mask><g mask="url(#a)"><path fill="#161616" d="M797.273 338.272c-57.241-5.325-117.302-6.265-215.645-10.202-55.631-2.234-208.934-13.682-229.844-16.42-25.459-3.338-43.924-6.653-45.699-.894-1.774 5.771 24.401 13.317 50.142 18.642 25.74 5.324 183.252 28.397 251.576 30.172 68.324 1.774 215.199-2.222 224.954-6.653 9.768-4.443-25.928-13.752-35.484-14.645z"/><g filter="url(#filter0_f_416_670)"><path fill="url(#paint0_radial_416_670)" d="M479.696 366.24c25.4 60.205 94.797 88.419 155.002 63.019l67.988-28.685c60.204-25.4 88.419-94.797 63.018-155.001l-28.433-67.394c-25.4-60.204-94.797-88.419-155.002-63.018l-67.988 28.684c-60.204 25.4-88.419 94.797-63.018 155.001l28.433 67.394z"/><path stroke="#00E29A" stroke-width="13.902" d="M479.696 366.24c25.4 60.205 94.797 88.419 155.002 63.019l67.988-28.685c60.204-25.4 88.419-94.797 63.018-155.001l-28.433-67.394c-25.4-60.204-94.797-88.419-155.002-63.018l-67.988 28.684c-60.204 25.4-88.419 94.797-63.018 155.001l28.433 67.394z"/></g><g filter="url(#filter1_f_416_670)"><rect width="287.824" height="287.489" fill="url(#paint1_radial_416_670)" rx="131.735" transform="scale(1 -1) rotate(30.043 1113.764 606.77)"/></g><g filter="url(#filter2_f_416_670)"><path fill="url(#paint2_radial_416_670)" d="M542.93 541.862c54.279 59.268 146.327 63.312 205.594 9.033l86.749-79.446c59.267-54.279 63.311-146.327 9.032-205.594l-70.246-76.703c-54.279-59.267-146.326-63.311-205.594-9.032l-86.748 79.446c-59.268 54.279-63.312 146.327-9.033 205.594l70.246 76.702z"/></g><g filter="url(#filter3_f_416_670)"><rect width="418.717" height="418.23" fill="url(#paint3_radial_416_670)" rx="162.023" transform="scale(1 -1) rotate(30.043 1433.802 438.23)"/></g><g filter="url(#filter4_f_416_670)"><path fill="url(#paint4_angular_416_670)" d="M435.981 216.104c-38.68 71.043-12.176 160.136 58.866 198.816 71.043 38.68 160.258 12.59 198.938-58.452 38.679-71.043 12.176-160.136-58.866-198.816-71.043-38.68-160.258-12.59-198.938 58.452z"/></g></g><path fill="#161616" stroke="#fff" stroke-linecap="round" stroke-linejoin="round" stroke-miterlimit="10" stroke-opacity=".5" stroke-width="2" d="M559.82 230.844s-7.922 2.351-8.345 4.067c-.424 1.716.646 7.275 1.927 17.019 1.281 9.744.106 23.014.541 30.184.423 7.169 2.574 22.696 4.278 28.361 1.716 5.677 1.493 15.633-.211 16.914-1.716 1.281-5.889.106-11.778-.318-5.888-.423-12.2.541-18.841 1.282-6.641.752-16.913 2.35-20.439 1.281-3.527-1.07-2.892-3.315-2.892-4.067 0-.752 12.847-3.209 17.877-4.819 5.031-1.61 14.892-7.346 15.574-9.532.682-2.187-.67-8.416-4.043-22.227-3.373-13.81-10.108-31.829-12.459-44.452-2.363-12.624-.423-20.91 2.022-26.775 4.137-9.944 21.051-22.567 21.051-22.567s14.445-2.986 20.521 12.2c6.054 15.186-4.783 23.449-4.783 23.449zM659.956 233.615s.647 22.32 1.528 24.894c.893 2.563 4.937 7.699 9.474 15.598 4.537 7.898 2.962 18.171 2.962 24.588 0 6.418 1.387 12.542 2.374 15.304.987 2.762 10.954 11.941 14.61 15.303 3.655 3.362 7.804 8.792 4.537 10.567-3.256 1.774-9.968 2.35-15.774-.259-5.806-2.609-15.679-9.579-17.995-13.787-2.327-4.208-3.197-8.851-4.936-13.352-1.74-4.502-7.252-15.821-9.145-20.322-1.892-4.502-2.903-10.591-3.479-13.646-.576-3.056-6.817-10.884-9.285-16.985-2.469-6.1-6.1-19.734-6.1-19.734s.811-11.918 12.6-14.492c11.8-2.574 18.629 6.323 18.629 6.323z"/><path fill="#fff" fill-opacity=".5" d="M595.671 38.246c-1.187.235-2.257-.717-2.198-1.928.164-3.255.094-8.497-1.658-11.694-2.703-4.925-5.324-7.593-10.754-6.724-5.43.87-8.698 3.256-13.258.647-4.561-2.61-5.865-4.995-5.865-4.995s4.125.211 8.909-4.784c4.784-4.996 8.698-10.214 15.867-6.524 7.17 3.691 3.479 5.866 9.779 7.17 6.3 1.305 10.873-1.74 16.738 3.044s1.304 21.956-1.517 28.268a23.423 23.423 0 0 1-3.655 5.724c-1.998 2.316-5.371 2.868-8.063 1.434l-1.222-.658s3.22-4.96.834-7.781c-1.152-1.34-2.68-1.458-3.937-1.199zM570.5 49.552s1.528.224 3.338-.435c1.822-.658 2.986-1.375 2.986-1.375s.141 4.36-2.104 5.16c-2.245.8-4.22-3.35-4.22-3.35z"/><path stroke="#fff" stroke-linecap="round" stroke-linejoin="round" stroke-miterlimit="10" stroke-opacity=".5" stroke-width="2" d="M569.032 29.125s3.631 1.892 2.691 4.22c-.94 2.327-5.089 5.888-5.16 6.687-.07.8 4.866 4.361 4.866 4.361"/><path stroke="#fff" stroke-linecap="round" stroke-linejoin="round" stroke-miterlimit="10" stroke-opacity=".5" stroke-width="2" d="M570.848 19.828s-2.104 8.428-2.257 10.825c-.141 2.398.94 5.736.94 5.736"/><path stroke="#fff" stroke-linecap="round" stroke-linejoin="round" stroke-opacity=".5" stroke-width="2" d="M563.025 27.959l27.39 2.34s-.226 5.94-2.629 8.5c-2.403 2.56-10.549 1.14-11.655-.048-1.106-1.188-3.275-7.68-4.497-7.778-2.351-.187-3.126 7.695-4.35 8.068-1.223.372-2.894-.977-4.291-2.267-2.15-1.99.032-8.815.032-8.815z"/><path stroke="#fff" stroke-linecap="round" stroke-linejoin="round" stroke-miterlimit="10" stroke-opacity=".5" stroke-width="2" d="M567.938 41.853s.141 10.825 2.256 16.138c2.104 5.3 5.959 4.725 8.651 3.561 2.692-1.164 12.647-8.58 14.61-10.825 1.963-2.257 1.822-2.762 1.822-2.762s2.762 1.093 4.501-1.093c1.74-2.187 2.328-8.063 2.328-8.063M601.344 46.285l4.302 15.139M581.898 59.848s4.314 7.698 4.467 9.473"/><path fill="#F48B44" stroke="#fff" stroke-linecap="round" stroke-linejoin="round" stroke-opacity=".5" stroke-width="2" d="M609.693 59.227s-5.841 8.674-14.01 10.178c-8.181 1.505-14.269-1.246-14.269-1.246s-11.507 1.234-21.897 7.617c-10.391 6.382-25.153 17.313-30.983 19.864-5.83 2.55-15.315 6.382-15.315 6.382s.728 4.737 4.56 9.473c3.832 4.737 9.109 10.567 9.109 10.567s25.518-13.858 31.712-11.483c6.194 2.374 9.473 1.645 16.044 21.321 6.558 19.687 7.475 33.545 6.018 36.272-1.458 2.738-6.054 10.449-10.567 13.129-5.936 3.514-15.868 7.534-19.147 9.356-3.279 1.821-8.557 4.501-8.557 4.501s11.343 2.139 15.739 8.157c4.842 6.618 5.406 11.895 4.49 17.361-.917 5.465-2.01 10.931-2.01 10.931s10.026-.553 23.155-5.83c13.128-5.29 25.517-9.474 25.517-9.474s9.297 6.382 11.483 11.119 8.392 17.713 8.392 17.713 7.323-10.531 15.703-11.448c8.381-.917 15.104-.071 15.104-.071s.917-14.95-2.739-27.891c-3.643-12.941-4.56-25.517-6.382-31.347-1.822-5.83-5.83-20.957-6.194-31.171-.365-10.202 1.645-35.367 1.645-35.367l16.22 18.959s7.652-3.103 12.036-5.101c4.373-2.01 6.018-7.652 6.018-7.652S649.762 70.122 640.1 66.102c-9.662-4.008-26.61-1.093-26.61-1.093l-3.797-5.782z"/><path fill="#161616" stroke="#fff" stroke-linecap="round" stroke-linejoin="round" stroke-miterlimit="10" stroke-opacity=".5" stroke-width="2" d="M523.122 118.017s-11.554 5.865-22.061 9.367c-10.508 3.503-30.995 5.689-35.979 6.912-4.983 1.222-19.17 6.476-22.496 10.413-3.326 3.938-9.544 6.477-14.446 8.839-4.901 2.363-5.512 2.457-6.57 1.399-1.046-1.046-.258-3.585 2.186-6.218a214.302 214.302 0 0 1 5.078-5.254s-12.259-4.548-17.866-3.679c-5.606.87-10.073 2.974-11.824 2.01-1.751-.964-1.14-2.715-1.14-2.715s-1.046-1.575.082-2.891c1.129-1.317 6.394-3.409 16.373-3.409 9.979 0 34.192-4.325 42.231-6.617 8.04-2.304 26.423-11.871 34.85-15.127 8.427-3.256 21.827-7.852 21.827-7.852l9.755 14.822z"/><path stroke="#fff" stroke-linecap="round" stroke-linejoin="round" stroke-miterlimit="10" stroke-opacity=".5" stroke-width="2" d="M398 139.117s11.119-3.409 20.839-3.244"/><path fill="#161616" stroke="#fff" stroke-linecap="round" stroke-linejoin="round" stroke-miterlimit="10" stroke-opacity=".5" stroke-width="2" d="M664.898 126.186s4.455 5.172 6.477 7.193c2.021 2.022 4.255 6.054 13.493 4.032 9.238-2.022 19.97-16.255 22.732-19.652 2.762-3.397 6.946-12.107 7.804-12.424.846-.317 7.146-3.714 10.014-8.274 2.868-4.573 7.476-7.452 9.38-8.722 1.916-1.27 6.688-5.207 6.159-6.053-.529-.846-10.837 3.503-11.155 3.185-.317-.317 11.895-10.837 9.885-11.683-2.021-.846-11.26 6.476-11.894 5.736-.635-.74 10.836-15.186 9.026-15.938-1.81-.74-12.752 12.753-13.07 11.789-.317-.952 7.805-14.28 6.159-15.186-3.514-1.94-18.888 21.321-19.523 21.639-.634.317-4.748-11.554-5.7-10.931-.952.634-1.082 2.903.247 11.119.705 4.407-.717 12.635-2.151 16.901-1.423 4.279-18.842 15.363-19.323 15.515-.471.153-2.915-.411-2.915-.411l-15.645 12.165z"/><path fill="#161616" stroke="#fff" stroke-linecap="round" stroke-linejoin="round" stroke-width="2" d="M847.58 353.952s-4.591-20.6-8.387-29.44c-3.796-8.839-9.411-15.596-13.315-15.092-3.904.504 1.852 12.909 2.276 15.339.404 2.432-5.847-2.803-16.043-4.573-10.196-1.77-22.924-4.348-27.77-3.281-4.845 1.067-5.028 5.757-5.028 5.757s-7.724 2.241-8.64 6.741c-.936 4.482-.107 4.167-.107 4.167s-4.583 1.123-4.269 5.761c.314 4.656 3.552 3.864 3.552 3.864s4.656-.037 13.031 2.41c9.505 2.778 16.788 5.207 16.788 5.207s-12.776 3.822-15.182 8.163c-2.406 4.341-1.587 5.524-1.587 5.524s3.539 1.48 10.478-1.448c6.938-2.928 10.683-1.961 16.414-.869 5.732 1.092 21.866 10.577 21.866 10.577l15.923-18.807z"/><path fill="#F48B44" stroke="#fff" stroke-miterlimit="10" stroke-width="2" d="M998.318 469.965s-23.514-8.326-42.189-15.735c-18.693-7.407-57.84-29.942-69.116-37.851-11.277-7.909-60.412-45.835-60.412-45.835l19.348-21.288s38.615 20.944 61.595 24.771c22.981 3.826 103.736 30.593 112.946 38.641 9.22 8.048-22.383 60.196-22.383 60.196l.211-2.899z"/><path stroke="#fff" stroke-linecap="round" stroke-linejoin="round" stroke-width="2" d="M779.297 322.665s20.642 3.967 29.146 8.328M772.875 332.954s20.642 3.967 29.146 8.328"/><path fill="#161616" d="M1009.03 486.732l18.96-50.427s25.08.838 26.51-21.981c1.43-22.819 13.66-45.665-.52-55.264-14.18-9.598-35.79-13.406-38.42-11.86-2.65 1.547-17.034 5.976-19.545 9.585a316.955 316.955 0 0 0-5.005 7.456s-16.763 23.615-18.35 34.058c-1.587 10.442 9.508 20.077 8.448 28.191-1.061 8.114 27.922 60.242 27.922 60.242z"/><path stroke="#fff" stroke-linecap="round" stroke-linejoin="round" stroke-miterlimit="10" d="M1030.76 388.376s4.08-11.6-7.6-13.011M1002.36 355.732s12.27-.929 10.59 10.716"/><path fill="#fff" d="M1018.71 392.52a4.614 4.614 0 0 0 4.29-4.912 4.61 4.61 0 0 0-4.91-4.29 4.6 4.6 0 0 0-4.29 4.912 4.61 4.61 0 0 0 4.91 4.29zM1002.49 371.43a4.614 4.614 0 0 0 4.29-4.912 4.612 4.612 0 1 0-4.29 4.912z"/><path fill="#161616" stroke="#fff" stroke-linecap="round" stroke-linejoin="round" stroke-miterlimit="10" stroke-width="2" d="M1490.36 522.503s11.16-10.399 31.65-17.797c20.49-7.399 65.6-3.207 67.64-4.796 2.02-1.588 5.04-8.153 3.87-10.549-1.16-2.397-5.32-5.805-5.32-5.805s.27-4.108-1.24-6.066c-1.51-1.957-4.67-2.383-4.67-2.383s.24-4.491-1.26-6.46c-1.51-1.958-4.07-2.248-4.07-2.248s2.07-.823.53-3.163c-1.54-2.34-25.35-2.741-37.26-5.637-11.92-2.918-18.57-5.84-26.72-2.773-8.16 3.068-6.95 16.338-18.15 25.193-11.22 8.866-25.45 16.316-25.45 16.316l20.45 26.168zM1409.89 428.11s2.11-17.005 6.24-23.809c4.12-6.804 38.95-31.988 38.95-31.988s6.11 2.377 8.85.674c2.73-1.704 5.96-2.56 5.96-2.56s9.69 3.895 11.91 2.04c2.22-1.855 1.21-5.612-3.03-8.502-4.25-2.89-19.86-12.06-35.7-8.818-15.84 3.241-28.13 10.045-40.03 8.348-11.9-1.696-20.6-.155-24.89 8.505-4.29 8.683 3.26 29.924 3.22 40.125-.05 10.201-4.59 33.659-4.59 33.659l33.11-17.674z"/><path stroke="#fff" stroke-linecap="round" stroke-linejoin="round" stroke-width="2" d="M1017.23 343.98s-22.544 11.323-36.394 35.37c-13.85 24.028-7.52 33.159-2.775 39.623 7.922 10.798 20.421 11.913 20.421 11.913"/><path fill="#161616" stroke="#fff" stroke-linecap="round" stroke-linejoin="round" stroke-width="2" d="M837.24 533.282s-13.037-18.088-16.68-22.205c-3.661-4.116-7.678-8.023-11.128-5.996-3.45 2.027-1.798 5.686 1.822 12.19s5.91 11.119 5.361 11.748c-.549.628-19.001.896-27.236 2.432-8.234 1.537-22.042 2.673-23.038 5.717-.996 3.044-.106 4.167 4.474 4.653 4.581.485 24.433.142 24.108 1.347-.325 1.205-31.432 4.898-35.093 6.532-3.661 1.634-4.239 4.853-3.517 6.782a16.25 16.25 0 0 0 1.823 3.445s-2.991 2.791-2.4 5.524c.592 2.734 3.459 4.13 3.459 4.13s.308 4.546 1.206 6.075c.898 1.529 17.227 2.404 17.227 2.404s12.002-1.607 18.261-2.825c6.259-1.218-15.522 3.952-15.702 8.402-.153 3.486 17.503 3.198 28.766-3.313 11.263-6.511 24.228-12.731 24.228-12.731l4.059-34.311z"/><path fill="#F48B44" stroke="#fff" stroke-miterlimit="10" stroke-width="2" d="M1231.32 460.112s42.32 17.477 58.81 21.909c16.5 4.431 49.24 17.009 49.24 17.009 6.98-29.744 41.35-81.986 41.35-81.986l30.44 1.775s-19.23 109.322-22.42 116.933c-3.18 7.61-31.88 37.436-47.52 38.493-15.64 1.057-133.89-45.047-133.89-45.047l23.99-69.086z"/><path fill="#F48B44" stroke="#fff" stroke-miterlimit="10" stroke-width="2" d="M1185.99 562.127s132.15 53.484 149.85 55.523c17.7 2.039 42.16-12.556 60.74-24.905 18.57-12.348 48.89-38.818 56.69-46.564 5.19-5.163 54-35.352 54-35.352s-6.94 2.78-11.15-4.793-12.54-17.369-12.54-17.369-56.17 13.775-87.27 35.48c-20.22 12.27-42.37 26.165-45.13 26.352-2.76.187-52.65-19.552-65.01-24.725-12.37-5.173-50.9-21.057-59.22-20.957-8.29.08-40.96 57.31-40.96 57.31z"/><path fill="#F48B44" stroke="#fff" stroke-miterlimit="10" stroke-width="2" d="M1058.39 407.403s34.3 1.38 60.66 8.496c15.07 4.067 24.45 6.089 46.05 11.1 21.6 5.011 30.19 9.052 55.66 16.575 25.47 7.523 32.04 22.793 32.04 22.793s-15.89 3.921-23.34 37.63c-16.6 27.93-19.9 33.7-22.18 41.033-3.04 9.778-8.75 22.87-8.75 22.87s-70.44-17.517-91.21-19.348c-20.78-1.832-43.34-4.763-64.98 4.391s-45.514 24.092-78.443 30.817c-25.201 5.146-53.19 4.766-81.178.988-21.782-2.94-49.047-14.464-49.047-14.464s-9.613-9.562-5.595-28.063c4.019-18.502 2.543-17.083 2.543-17.083s69.981-.521 87.812-.118c17.851.421 38.786-3.595 52.981-9.399 14.194-5.822 15.43-23.728 15.43-23.728s-31.231-30.706-9.505-66.415c33.962 23.847 73.312 3.549 77.172-5.216 3.86-8.785 3.88-12.859 3.88-12.859z"/><path stroke="#fff" stroke-linecap="round" stroke-linejoin="round" stroke-width="2" d="M1007.51 378.879s-4.46 3.223-8.012 4.036c-3.55.813-4.927.148-4.927.148l2.191 7.247"/><path fill="#fff" d="M982.26 405.267c1.673.7 3.82-.621 4.796-2.952.976-2.33.411-4.788-1.262-5.488-1.672-.701-3.82.621-4.795 2.952-.976 2.33-.411 4.787 1.261 5.488zM1021.05 432.245s2.45-4.251 6.22-4.007c3.76.244 13.99.496 15.92-5.439 1.83-5.671-2.73-8.358-6.08-10.017-3.35-1.66-7.11-8.025-3.37-15.599 2.59-5.259 16.59-26.801 16.59-26.801s-16.4-2.201-20.1-12.119c-3.1-8.296-17.51-4.105-20.96-8.845-9.64-13.289 8.23-33.114 8.23-33.114s5.47 15.863 17.8 18.228c16.42 3.142 40.95 8.01 48.59 32.565 7.63 24.554 2.9 38.019-5.8 45.595-8.69 7.577-10.61 9.592-15.32 15.716-4.7 6.123-10 10.918-17.5 13.81 0 0-10.42 2.239-15.92-.976-5.51-3.214-8.3-8.997-8.3-8.997z"/><path stroke="#fff" stroke-linecap="round" stroke-linejoin="round" stroke-width="2" d="M758.148 559.944s28.367-2.102 36.227-4.26M761.094 570.007s28.367-2.103 36.226-4.261"/><path fill="#161616" d="M18 691V499.25s317.93-12.969 521.704-11.985c112.937.546 195.065 21.204 287.625-4.609 121.629 14.75 390.131 16.594 458.211-9.218C1375.04 513.078 1603 455 1603 455v236H18z"/><path fill="#fff" d="M475.82 591.322c-3.008.585-5.934 1.546-8.984 1.839-3.05.292-6.059.668-9.11.668h-9.151l-9.151-.668c-12.16-1.212-24.237-3.051-36.229-5.391-23.944-4.889-47.805-10.53-71.038-17.551l-.794-.25-.836.418a122.915 122.915 0 0 1-19.431 7.939c-6.686 2.257-13.539 4.179-20.434 5.641a325.797 325.797 0 0 1-42.163 6.31 426.703 426.703 0 0 1-42.664 1.755l-21.395-.418-21.437-1.211 21.353 2.381c7.146.46 14.25 1.087 21.437 1.421 14.291.335 28.666.502 42.999-.585a300.732 300.732 0 0 0 42.706-5.85c7.02-1.588 13.999-3.301 20.894-5.558a110.86 110.86 0 0 0 20.224-8.357l-1.629.209a761.827 761.827 0 0 0 35.686 9.318c11.951 2.842 24.027 5.307 36.145 7.313a347.948 347.948 0 0 0 36.648 4.179l9.235.251 9.234-.335c3.093 0 6.143-.752 9.194-1.128 3.05-.376 5.766-1.337 8.691-2.34zM1274.01 321.337c-1.42.256-2.79.676-4.22.804-1.44.128-2.85.293-4.28.293h-4.31l-4.3-.293c-5.71-.53-11.38-1.334-17.02-2.357-11.25-2.138-22.47-4.605-33.38-7.674l-.38-.11-.39.183a60.333 60.333 0 0 1-9.13 3.471 90.55 90.55 0 0 1-9.6 2.467 163.61 163.61 0 0 1-19.82 2.759c-6.66.567-13.35.823-20.04.768l-10.06-.183-10.07-.53 10.03 1.042c3.36.201 6.7.475 10.08.621 6.71.146 13.47.219 20.2-.256 6.75-.405 13.46-1.26 20.07-2.558 3.3-.694 6.58-1.444 9.82-2.43a54.296 54.296 0 0 0 9.5-3.655l-.76.092a377.63 377.63 0 0 0 16.77 4.074 265.812 265.812 0 0 0 16.98 3.198c5.7.892 11.45 1.502 17.22 1.827l4.34.11 4.34-.146c1.46 0 2.89-.329 4.32-.494 1.44-.164 2.71-.584 4.09-1.023zM1045.01 248.337c-1.42.256-2.79.676-4.22.804-1.44.128-2.85.293-4.28.293h-4.31l-4.3-.293c-5.71-.53-11.38-1.334-17.02-2.357-11.253-2.138-22.465-4.605-33.383-7.674l-.373-.11-.393.183a60.223 60.223 0 0 1-9.131 3.471 90.71 90.71 0 0 1-9.602 2.467 163.817 163.817 0 0 1-19.814 2.759c-6.665.567-13.356.823-20.049.768l-10.054-.183-10.073-.53 10.034 1.042c3.358.201 6.696.475 10.074.621 6.715.146 13.47.219 20.206-.256a151.383 151.383 0 0 0 20.069-2.558c3.298-.694 6.578-1.444 9.818-2.43a54.366 54.366 0 0 0 9.504-3.655l-.766.092a380.361 380.361 0 0 0 16.77 4.074 266.693 266.693 0 0 0 16.983 3.198c5.7.892 11.45 1.502 17.22 1.827l4.34.11 4.34-.146c1.46 0 2.89-.329 4.32-.494 1.44-.164 2.71-.584 4.09-1.023zM1224 613.337c-1.41.256-2.79.676-4.22.804-1.44.128-2.85.293-4.28.293h-4.3l-4.3-.293c-5.72-.53-11.39-1.334-17.03-2.357-11.25-2.138-22.46-4.605-33.38-7.674l-.37-.11-.4.183a59.93 59.93 0 0 1-9.13 3.471 90.55 90.55 0 0 1-9.6 2.467 163.724 163.724 0 0 1-19.81 2.759c-6.67.567-13.36.823-20.05.768l-10.06-.183-10.07-.53 10.03 1.042c3.36.201 6.7.475 10.08.621 6.71.146 13.47.219 20.2-.256 6.75-.405 13.46-1.26 20.07-2.558 3.3-.694 6.58-1.444 9.82-2.43a54.703 54.703 0 0 0 9.51-3.655l-.77.092a377.63 377.63 0 0 0 16.77 4.074 267.132 267.132 0 0 0 16.98 3.198c5.71.892 11.45 1.502 17.23 1.827l4.34.11 4.34-.146c1.45 0 2.88-.329 4.32-.494 1.43-.164 2.71-.584 4.08-1.023zM450 393.337c-1.414.256-2.788.676-4.222.804-1.433.128-2.847.293-4.281.293h-4.3l-4.301-.293c-5.714-.53-11.389-1.334-17.025-2.357-11.251-2.138-22.464-4.605-33.382-7.674l-.373-.11-.393.183a60.183 60.183 0 0 1-9.131 3.471 90.71 90.71 0 0 1-9.602 2.467 163.8 163.8 0 0 1-19.813 2.759 215.66 215.66 0 0 1-20.049.768l-10.054-.183-10.074-.53 10.034 1.042c3.358.201 6.696.475 10.074.621 6.716.146 13.471.219 20.206-.256a151.341 151.341 0 0 0 20.069-2.558c3.299-.694 6.578-1.444 9.818-2.43a54.366 54.366 0 0 0 9.504-3.655l-.766.092a380.361 380.361 0 0 0 16.77 4.074 266.125 266.125 0 0 0 16.986 3.198c5.701.892 11.45 1.502 17.221 1.827l4.34.11 4.339-.146c1.454 0 2.887-.329 4.321-.494 1.433-.164 2.709-.584 4.084-1.023zM960.734 581.105a123.8 123.8 0 0 1-30.462 0 245.464 245.464 0 0 1-30.087-4.972c-9.904-2.215-19.807-4.639-29.585-7.48-9.778-2.842-19.515-5.892-29-9.36l-.794-.293-.836.376a211.396 211.396 0 0 1-28.582 9.82c-9.737 2.716-19.682 4.806-29.669 6.728a293.266 293.266 0 0 1-30.212 4.178c-5.056.627-10.113.878-15.211 1.254l-15.293.71c10.196.502 20.419.502 30.671 0 10.238-.417 20.392-1.629 30.588-3.008a275.124 275.124 0 0 0 30.129-6.227 210.163 210.163 0 0 0 29.25-9.736h-1.629c9.736 3.385 19.556 6.352 29.251 9.068 9.694 2.716 19.848 5.223 29.961 6.978a242.346 242.346 0 0 0 30.546 3.887c10.361.773 20.779.126 30.964-1.923zM1523.77 485.884a464.244 464.244 0 0 1-52.23 2.841c-17.43 0-34.85-.71-52.19-2.423-17.34-1.713-34.64-3.761-51.86-6.602-17.22-2.842-34.31-6.227-51.11-10.489h-.71l-.83.334a213.192 213.192 0 0 1-54.32 14.918 483.114 483.114 0 0 1-56.54 5.432c-9.49.585-18.97.502-28.46.711-9.48.209-19.01-.293-28.5-.418l-28.5.549-28.45 1.642 28.37-.513 28.5.411c9.48.376 19.01.878 28.54 1.045 9.53.167 19.05.292 28.58 0a442.14 442.14 0 0 0 57.37-5.223c9.49-1.421 18.85-3.343 28.17-5.6a142.018 142.018 0 0 0 27.41-9.485h-1.54c17.09 4.178 34.3 7.479 51.6 10.237a592.144 592.144 0 0 0 52.19 5.976c17.47 1.212 34.98 1.671 52.49 1.295 17.42-.463 34.8-2.012 52.02-4.638zM412.008 495.804l-20.142.961c-6.685 0-13.413.418-20.099 0-13.455 0-26.827-.877-40.157-2.173-13.33-1.295-26.577-3.426-39.656-6.142a231.664 231.664 0 0 1-38.277-11.157l-.752-.293-.752.251a590.872 590.872 0 0 1-57.165 15.336 675.193 675.193 0 0 1-58.502 10.07c-19.598 2.633-39.321 4.471-59.087 5.182-19.765.71-39.613.668-59.42 0a564.668 564.668 0 0 0 59.462 2.089c19.89-.292 39.74-1.755 59.463-3.97 19.724-2.214 39.405-5.557 58.878-9.611a508.642 508.642 0 0 0 57.708-15.335h-1.504a233.736 233.736 0 0 0 39.154 11.073 332.958 332.958 0 0 0 40.115 5.558c13.498.877 26.953 1.462 40.45 1.003 6.728 0 13.456-.669 20.183-1.003 6.728-.335 13.414-1.128 20.1-1.839z"/><defs><filter id="filter0_f_416_670" width="479.528" height="479.188" x="368.72" y="32.615" color-interpolation-filters="sRGB" filterUnits="userSpaceOnUse"><feFlood flood-opacity="0" result="BackgroundImageFix"/><feBlend in="SourceGraphic" in2="BackgroundImageFix" result="shape"/><feGaussianBlur result="effect1_foregroundBlur_416_670" stdDeviation="33.128"/></filter><filter id="filter1_f_416_670" width="424.071" height="423.95" x="293.992" y="67.629" color-interpolation-filters="sRGB" filterUnits="userSpaceOnUse"><feFlood flood-opacity="0" result="BackgroundImageFix"/><feBlend in="SourceGraphic" in2="BackgroundImageFix" result="shape"/><feGaussianBlur result="effect1_foregroundBlur_416_670" stdDeviation="31.863"/></filter><filter id="filter2_f_416_670" width="669.165" height="668.321" x="323.91" y="31.347" color-interpolation-filters="sRGB" filterUnits="userSpaceOnUse"><feFlood flood-opacity="0" result="BackgroundImageFix"/><feBlend in="SourceGraphic" in2="BackgroundImageFix" result="shape"/><feGaussianBlur result="effect1_foregroundBlur_416_670" stdDeviation="55.283"/></filter><filter id="filter3_f_416_670" width="609.96" height="609.785" x="183.59" y="68.231" color-interpolation-filters="sRGB" filterUnits="userSpaceOnUse"><feFlood flood-opacity="0" result="BackgroundImageFix"/><feBlend in="SourceGraphic" in2="BackgroundImageFix" result="shape"/><feGaussianBlur result="effect1_foregroundBlur_416_670" stdDeviation="39.189"/></filter><filter id="filter4_f_416_670" width="458.927" height="458.587" x="335.419" y="56.994" color-interpolation-filters="sRGB" filterUnits="userSpaceOnUse"><feFlood flood-opacity="0" result="BackgroundImageFix"/><feBlend in="SourceGraphic" in2="BackgroundImageFix" result="shape"/><feGaussianBlur result="effect1_foregroundBlur_416_670" stdDeviation="41.384"/></filter><radialGradient id="paint0_radial_416_670" cx="0" cy="0" r="1" gradientTransform="rotate(-112.276 374.468 -32.647) scale(674.346 675.75)" gradientUnits="userSpaceOnUse"><stop stop-color="#5AE9FD"/><stop offset="1" stop-color="#5AE9FD" stop-opacity="0"/></radialGradient><radialGradient id="paint1_radial_416_670" cx="0" cy="0" r="1" gradientTransform="matrix(0 143.745 -143.912 0 143.912 143.745)" gradientUnits="userSpaceOnUse"><stop stop-color="#38B7FF"/><stop offset="1" stop-color="#4AE0E0" stop-opacity=".65"/></radialGradient><radialGradient id="paint2_radial_416_670" cx="0" cy="0" r="1" gradientTransform="matrix(-133.40258 -145.66502 479.16851 -438.83095 658.495 365.507)" gradientUnits="userSpaceOnUse"><stop stop-color="#6012C3"/><stop offset="1" stop-color="#9949FF" stop-opacity=".37"/></radialGradient><radialGradient id="paint3_radial_416_670" cx="0" cy="0" r="1" gradientTransform="rotate(151.133 135.302 165.081) scale(197.54 197.77)" gradientUnits="userSpaceOnUse"><stop stop-color="#FFF9C5"/><stop offset=".755" stop-color="#FF5C00"/><stop offset="1" stop-color="#FF451C"/></radialGradient><radialGradient id="paint4_angular_416_670" cx="0" cy="0" r="1" gradientTransform="rotate(-61.434 523.36 -332.225) scale(146.464 148.356)" gradientUnits="userSpaceOnUse"><stop stop-color="#FFD748"/><stop offset="1" stop-color="#FFD84B" stop-opacity="0"/></radialGradient></defs></svg>