<svg width="170" height="135" viewBox="0 0 170 135" fill="none" xmlns="http://www.w3.org/2000/svg">
<path d="M85.0958 6.87662C84.9756 6.82863 84.251 10.755 84.1722 11.501C84.0933 12.2471 84.2923 13.7914 84.2923 13.7914L83.4062 15.4274L84.0107 16.409C84.0107 16.409 83.8906 21.1294 84.8968 22.7174C85.903 24.3054 87.1495 23.5114 87.1495 23.5114L88.4373 22.9487L90.0067 26.5479C90.0067 26.5479 92.0567 27.7607 94.148 26.8751C96.2392 25.9894 96.1191 23.651 96.1191 23.651L94.7524 17.3906C94.7524 17.3906 95.9201 14.6334 94.4709 10.9906C93.0216 7.34779 90.4911 5.0094 89.5637 5.0094C88.6326 5.0094 85.0958 6.87662 85.0958 6.87662Z" fill="#161616"/>
<mask id="mask0_1_8172" style="mask-type:alpha" maskUnits="userSpaceOnUse" x="0" y="114" width="170" height="21">
<path d="M157.157 126.165C138.872 124.189 119.687 123.84 88.2724 122.378C70.5021 121.549 21.5318 117.3 14.8525 116.283C6.72014 115.044 0.821771 113.814 0.254836 115.952C-0.312098 118.094 8.04925 120.895 16.2717 122.871C24.4941 124.847 74.8086 133.411 96.6337 134.07C118.459 134.729 165.375 133.245 168.492 131.601C171.612 129.952 160.209 126.496 157.157 126.165Z" fill="#FFEC00"/>
</mask>
<g mask="url(#mask0_1_8172)">
<path d="M157.157 126.165C138.872 124.189 119.687 123.84 88.2724 122.378C70.5021 121.549 21.5318 117.3 14.8525 116.283C6.72014 115.044 0.821771 113.814 0.254836 115.952C-0.312098 118.094 8.04925 120.895 16.2717 122.871C24.4941 124.847 74.8086 133.411 96.6337 134.07C118.459 134.729 165.375 133.245 168.492 131.601C171.612 129.952 160.209 126.496 157.157 126.165Z" fill="#161616"/>
<g filter="url(#filter0_f_1_8172)">
<path d="M56.1843 137.835C64.0394 159.469 87.1605 168.794 107.827 158.663L124.348 150.563C145.015 140.432 155.4 114.681 147.545 93.0467L137.526 65.4528C129.671 43.8187 106.55 34.4939 85.8834 44.6253L69.3617 52.7248C48.6955 62.8561 38.3101 88.6071 46.1652 110.241L56.1843 137.835Z" fill="url(#paint0_radial_1_8172)"/>
<path d="M56.1843 137.835C64.0394 159.469 87.1605 168.794 107.827 158.663L124.348 150.563C145.015 140.432 155.4 114.681 147.545 93.0467L137.526 65.4528C129.671 43.8187 106.55 34.4939 85.8834 44.6253L69.3617 52.7248C48.6955 62.8561 38.3101 88.6071 46.1652 110.241L56.1843 137.835Z" stroke="#00E29A" stroke-width="4.89672"/>
</g>
<g filter="url(#filter1_f_1_8172)">
<rect width="95.8908" height="103.182" rx="46.4012" transform="matrix(0.829991 -0.557777 -0.445589 -0.895238 47.3184 177.317)" fill="url(#paint1_radial_1_8172)"/>
</g>
<g filter="url(#filter2_f_1_8172)">
<path d="M75.5768 201.308C93.0996 223.541 123.019 224.841 142.404 204.212L168.474 176.469C187.859 155.84 189.369 121.094 171.846 98.8618L150.075 71.2388C132.552 49.0064 102.632 47.7065 83.2471 68.3354L57.177 96.0783C37.792 116.707 36.2824 151.453 53.8053 173.685L75.5768 201.308Z" fill="url(#paint2_radial_1_8172)"/>
</g>
<g filter="url(#filter3_f_1_8172)">
<rect width="139.499" height="150.105" rx="57.0695" transform="matrix(0.829991 -0.557777 -0.445589 -0.895238 34.0996 245.194)" fill="url(#paint3_radial_1_8172)"/>
</g>
<g filter="url(#filter4_f_1_8172)">
<path d="M40.0512 84.4439C28.6337 108.811 37.8129 140.227 60.5536 154.614C83.2942 169.001 110.985 160.91 122.402 136.543L125.799 129.293C137.217 104.926 128.038 73.5099 105.297 59.1231C82.5564 44.7363 54.8657 52.827 43.4482 77.1942L40.0512 84.4439Z" fill="url(#paint4_angular_1_8172)"/>
</g>
</g>
<path d="M81.3042 86.2902C81.3042 86.2902 78.7737 87.1627 78.6385 87.7997C78.5033 88.4366 78.845 90.5002 79.2543 94.1168C79.6635 97.7335 79.288 102.659 79.427 105.32C79.5621 107.981 80.2492 113.744 80.7936 115.847C81.3418 117.954 81.2704 121.65 80.726 122.125C80.1779 122.601 78.845 122.164 76.964 122.007C75.083 121.85 73.0668 122.208 70.9455 122.483C68.8242 122.762 65.5427 123.355 64.4163 122.958C63.29 122.561 63.4927 121.728 63.4927 121.449C63.4927 121.17 67.5964 120.258 69.2034 119.66C70.8103 119.063 73.9604 116.934 74.1781 116.122C74.3959 115.311 73.9641 112.998 72.8866 107.872C71.809 102.746 69.6577 96.0582 68.9068 91.3727C68.1521 86.6872 68.7716 83.6115 69.5525 81.4346C70.8741 77.7437 76.2769 73.0582 76.2769 73.0582C76.2769 73.0582 80.8912 71.9501 82.8323 77.5867C84.7659 83.2232 81.3042 86.2902 81.3042 86.2902Z" fill="#161616" stroke="white" stroke-width="0.704463" stroke-miterlimit="10" stroke-linecap="round" stroke-linejoin="round"/>
<path d="M113.292 87.3199C113.292 87.3199 113.499 95.6046 113.78 96.56C114.066 97.5111 115.357 99.4176 116.806 102.349C118.256 105.281 117.753 109.094 117.753 111.476C117.753 113.858 118.196 116.131 118.511 117.156C118.826 118.181 122.01 121.589 123.178 122.836C124.346 124.084 125.671 126.1 124.627 126.758C123.587 127.417 121.443 127.631 119.589 126.662C117.734 125.694 114.58 123.107 113.84 121.545C113.097 119.983 112.819 118.26 112.263 116.589C111.708 114.918 109.947 110.717 109.342 109.046C108.738 107.375 108.415 105.115 108.231 103.981C108.047 102.847 106.053 99.9411 105.265 97.6769C104.477 95.4126 103.316 90.352 103.316 90.352C103.316 90.352 103.575 85.9282 107.341 84.9728C111.111 84.0174 113.292 87.3199 113.292 87.3199Z" fill="#161616" stroke="white" stroke-width="0.704463" stroke-miterlimit="10" stroke-linecap="round" stroke-linejoin="round"/>
<path d="M92.7579 14.8036C92.3787 14.8909 92.0371 14.5375 92.0558 14.0881C92.1084 12.8797 92.0859 10.9339 91.5264 9.74728C90.6629 7.91932 89.8256 6.929 88.091 7.25184C86.3564 7.57467 85.3127 8.46029 83.8559 7.49178C82.3992 6.52327 81.9824 5.63765 81.9824 5.63765C81.9824 5.63765 83.3003 5.71618 84.8284 3.86205C86.3564 2.00792 87.6067 0.0708924 89.897 1.44077C92.1872 2.81064 91.0083 3.61774 93.0207 4.10199C95.0332 4.58625 96.4937 3.45632 98.3672 5.23192C100.241 7.00753 98.7839 13.3814 97.8829 15.7241C97.545 16.601 97.1169 17.3078 96.7152 17.8487C96.0769 18.7082 94.9994 18.9132 94.1396 18.381L93.7491 18.1367C93.7491 18.1367 94.7779 16.2956 94.0157 15.2486C93.6478 14.7513 93.1597 14.7076 92.7579 14.8036Z" fill="white"/>
<path d="M84.7158 19.0003C84.7158 19.0003 85.2039 19.0832 85.7821 18.8389C86.3641 18.5946 86.7358 18.3285 86.7358 18.3285C86.7358 18.3285 86.7808 19.947 86.0637 20.2437C85.3466 20.5404 84.7158 19.0003 84.7158 19.0003Z" fill="white"/>
<path d="M84.2477 11.4182C84.2477 11.4182 85.4078 12.1206 85.1075 12.9844C84.8071 13.8482 83.4818 15.1701 83.4592 15.4668C83.4367 15.7634 85.0136 17.0853 85.0136 17.0853" stroke="white" stroke-width="0.704463" stroke-miterlimit="10" stroke-linecap="round" stroke-linejoin="round"/>
<path d="M84.8284 7.96753C84.8284 7.96753 84.1564 11.0956 84.1076 11.9855C84.0625 12.8755 84.4079 14.1145 84.4079 14.1145" stroke="white" stroke-width="0.704463" stroke-miterlimit="10" stroke-linecap="round" stroke-linejoin="round"/>
<path d="M82.3311 10.9845L91.0802 11.8531C91.0802 11.8531 91.0079 14.0578 90.2404 15.008C89.4729 15.9583 86.8708 15.4313 86.5174 14.9904C86.1641 14.5494 85.4714 12.1397 85.081 12.1035C84.3301 12.0338 84.0823 14.9596 83.6915 15.0979C83.3007 15.2362 82.7671 14.7352 82.3208 14.2565C81.634 13.5178 82.3311 10.9845 82.3311 10.9845Z" stroke="white" stroke-width="0.704463" stroke-linecap="round" stroke-linejoin="round"/>
<path d="M83.8965 16.1428C83.8965 16.1428 83.9415 20.1608 84.6173 22.1327C85.2894 24.1003 86.5209 23.8865 87.3807 23.4546C88.2405 23.0227 91.4206 20.2698 92.0476 19.4366C92.6746 18.5989 92.6295 18.4113 92.6295 18.4113C92.6295 18.4113 93.5118 18.8171 94.0675 18.0056C94.6232 17.1942 94.8109 15.0128 94.8109 15.0128" stroke="white" stroke-width="0.704463" stroke-miterlimit="10" stroke-linecap="round" stroke-linejoin="round"/>
<path d="M94.5664 17.7878L95.9406 23.407" stroke="white" stroke-width="0.704463" stroke-miterlimit="10" stroke-linecap="round" stroke-linejoin="round"/>
<path d="M88.3564 22.8224C88.3564 22.8224 89.7344 25.6799 89.7832 26.3387" stroke="white" stroke-width="0.704463" stroke-miterlimit="10" stroke-linecap="round" stroke-linejoin="round"/>
<path d="M97.2323 22.5909C97.2323 22.5909 95.3662 25.8106 92.7568 26.369C90.1437 26.9274 88.1988 25.9066 88.1988 25.9066C88.1988 25.9066 84.5232 26.3646 81.2041 28.7336C77.8851 31.1025 73.1695 35.1598 71.3072 36.1065C69.445 37.0532 66.415 38.4754 66.415 38.4754C66.415 38.4754 66.6478 40.2336 67.8718 41.9917C69.0958 43.7499 70.7816 45.9137 70.7816 45.9137C70.7816 45.9137 78.9327 40.7702 80.9113 41.6514C82.8899 42.5327 83.9374 42.2622 86.0362 49.5653C88.1313 56.8727 88.4241 62.0163 87.9585 63.0285C87.493 64.045 86.025 66.9069 84.5832 67.9016C82.6872 69.206 79.5146 70.698 78.4671 71.3742C77.4196 72.0505 75.7338 73.0451 75.7338 73.0451C75.7338 73.0451 79.3569 73.8391 80.7611 76.0728C82.308 78.529 82.4882 80.4878 82.1953 82.5165C81.9025 84.5451 81.5533 86.5738 81.5533 86.5738C81.5533 86.5738 84.7559 86.3687 88.9498 84.4099C93.1436 82.4467 97.1008 80.8936 97.1008 80.8936C97.1008 80.8936 100.071 83.2625 100.769 85.0206C101.467 86.7788 103.45 91.5952 103.45 91.5952C103.45 91.5952 105.789 87.6862 108.466 87.3459C111.143 87.0057 113.29 87.3198 113.29 87.3198C113.29 87.3198 113.583 81.7705 112.416 76.9672C111.252 72.1639 110.959 67.4958 110.377 65.332C109.795 63.1681 108.515 57.5533 108.398 53.7622C108.282 49.9754 108.924 40.6349 108.924 40.6349L114.105 47.6719C114.105 47.6719 116.549 46.5201 117.95 45.7785C119.346 45.0325 119.872 42.9384 119.872 42.9384C119.872 42.9384 110.031 26.6351 106.945 25.1431C103.859 23.6554 98.445 24.7374 98.445 24.7374L97.2323 22.5909Z" fill="#F48B44" stroke="white" stroke-width="0.704463" stroke-linecap="round" stroke-linejoin="round"/>
<path d="M69.5787 44.4132C69.5787 44.4132 65.888 46.5902 62.5315 47.8902C59.1749 49.1903 52.6308 50.0018 51.0389 50.4555C49.4469 50.9092 44.9152 52.8593 43.8527 54.3208C42.7901 55.7823 40.804 56.7246 39.2383 57.6015C37.6727 58.4784 37.4775 58.5133 37.1396 58.1207C36.8054 57.7324 37.057 56.7901 37.8379 55.8128C38.6189 54.8356 39.4599 53.8627 39.4599 53.8627C39.4599 53.8627 35.5439 52.1744 33.753 52.4972C31.9621 52.82 30.5353 53.601 29.9759 53.2432C29.4165 52.8855 29.6117 52.2354 29.6117 52.2354C29.6117 52.2354 29.2776 51.6508 29.638 51.1622C29.9984 50.6736 31.6805 49.8971 34.8681 49.8971C38.0557 49.8971 45.79 48.2916 48.3581 47.4409C50.9262 46.5858 56.7983 43.0346 59.4903 41.8261C62.1823 40.6177 66.4625 38.9119 66.4625 38.9119L69.5787 44.4132Z" fill="#161616" stroke="white" stroke-width="0.704463" stroke-miterlimit="10" stroke-linecap="round" stroke-linejoin="round"/>
<path d="M29.6162 52.2441C29.6162 52.2441 33.168 50.9789 36.273 51.04" stroke="white" stroke-width="0.704463" stroke-miterlimit="10" stroke-linecap="round" stroke-linejoin="round"/>
<path d="M114.867 47.4449C114.867 47.4449 116.29 49.3644 116.936 50.1148C117.582 50.8652 118.295 52.3616 121.246 51.6112C124.197 50.8608 127.625 45.5777 128.507 44.3168C129.39 43.056 130.726 39.8233 131 39.7055C131.271 39.5877 133.283 38.3269 134.199 36.6342C135.115 34.9371 136.587 33.8683 137.195 33.3971C137.807 32.9259 139.332 31.4644 139.163 31.1503C138.994 30.8362 135.701 32.4504 135.6 32.3326C135.498 32.2148 139.399 28.3102 138.757 27.9961C138.112 27.682 135.16 30.3999 134.958 30.1251C134.755 29.8502 138.419 24.4885 137.841 24.2093C137.263 23.9345 133.768 28.9428 133.666 28.5851C133.565 28.2317 136.159 23.2844 135.634 22.9485C134.511 22.2287 129.6 30.8624 129.397 30.9802C129.194 31.098 127.88 26.6917 127.576 26.9229C127.272 27.1585 127.231 28.0005 127.655 31.05C127.88 32.686 127.426 35.7398 126.968 37.3235C126.514 38.9115 120.95 43.0255 120.796 43.0822C120.645 43.1389 119.864 42.9295 119.864 42.9295L114.867 47.4449Z" fill="#161616" stroke="white" stroke-width="0.704463" stroke-miterlimit="10" stroke-linecap="round" stroke-linejoin="round"/>
<defs>
<filter id="filter0_f_1_8172" x="17.8529" y="14.6529" width="158.005" height="173.982" filterUnits="userSpaceOnUse" color-interpolation-filters="sRGB">
<feFlood flood-opacity="0" result="BackgroundImageFix"/>
<feBlend mode="normal" in="SourceGraphic" in2="BackgroundImageFix" result="shape"/>
<feGaussianBlur stdDeviation="11.6688" result="effect1_foregroundBlur_1_8172"/>
</filter>
<filter id="filter1_f_1_8172" x="-5.637" y="27.4845" width="139.522" height="153.807" filterUnits="userSpaceOnUse" color-interpolation-filters="sRGB">
<feFlood flood-opacity="0" result="BackgroundImageFix"/>
<feBlend mode="normal" in="SourceGraphic" in2="BackgroundImageFix" result="shape"/>
<feGaussianBlur stdDeviation="11.2233" result="effect1_foregroundBlur_1_8172"/>
</filter>
<filter id="filter2_f_1_8172" x="2.64477" y="14.7305" width="220.362" height="243.086" filterUnits="userSpaceOnUse" color-interpolation-filters="sRGB">
<feFlood flood-opacity="0" result="BackgroundImageFix"/>
<feBlend mode="normal" in="SourceGraphic" in2="BackgroundImageFix" result="shape"/>
<feGaussianBlur stdDeviation="19.4725" result="effect1_foregroundBlur_1_8172"/>
</filter>
<filter id="filter3_f_1_8172" x="-41.3681" y="28.1166" width="199.833" height="221.966" filterUnits="userSpaceOnUse" color-interpolation-filters="sRGB">
<feFlood flood-opacity="0" result="BackgroundImageFix"/>
<feBlend mode="normal" in="SourceGraphic" in2="BackgroundImageFix" result="shape"/>
<feGaussianBlur stdDeviation="13.8037" result="effect1_foregroundBlur_1_8172"/>
</filter>
<filter id="filter4_f_1_8172" x="5.98908" y="22.8454" width="153.872" height="168.046" filterUnits="userSpaceOnUse" color-interpolation-filters="sRGB">
<feFlood flood-opacity="0" result="BackgroundImageFix"/>
<feBlend mode="normal" in="SourceGraphic" in2="BackgroundImageFix" result="shape"/>
<feGaussianBlur stdDeviation="14.5767" result="effect1_foregroundBlur_1_8172"/>
</filter>
<radialGradient id="paint0_radial_1_8172" cx="0" cy="0" r="1" gradientUnits="userSpaceOnUse" gradientTransform="translate(77.0959 112.515) rotate(-109.419) scale(245.591 219.996)">
<stop stop-color="#5AE9FD"/>
<stop offset="1" stop-color="#5AE9FD" stop-opacity="0"/>
</radialGradient>
<radialGradient id="paint1_radial_1_8172" cx="0" cy="0" r="1" gradientUnits="userSpaceOnUse" gradientTransform="translate(47.9454 51.5908) rotate(90) scale(51.5908 47.9454)">
<stop stop-color="#38B7FF"/>
<stop offset="1" stop-color="#4AE0E0" stop-opacity="0.65"/>
</radialGradient>
<radialGradient id="paint2_radial_1_8172" cx="0" cy="0" r="1" gradientUnits="userSpaceOnUse" gradientTransform="translate(112.826 136.274) rotate(-128.244) scale(68.8414 221.038)">
<stop stop-color="#6012C3"/>
<stop offset="1" stop-color="#9949FF" stop-opacity="0.37"/>
</radialGradient>
<radialGradient id="paint3_radial_1_8172" cx="0" cy="0" r="1" gradientUnits="userSpaceOnUse" gradientTransform="translate(111.104 87.6911) rotate(149.294) scale(67.0319 69.6888)">
<stop stop-color="#FFF9C5"/>
<stop offset="0.755208" stop-color="#FF5C00"/>
<stop offset="1" stop-color="#FF451C"/>
</radialGradient>
<radialGradient id="paint4_angular_1_8172" cx="0" cy="0" r="1" gradientUnits="userSpaceOnUse" gradientTransform="translate(82.9253 106.869) rotate(-64.8939) scale(52.7269 48.8607)">
<stop stop-color="#FFD748"/>
<stop offset="1" stop-color="#FFD84B" stop-opacity="0"/>
</radialGradient>
</defs>
</svg>
