<svg width="33" height="37" viewBox="0 0 33 37" fill="none" xmlns="http://www.w3.org/2000/svg">
<path d="M3.65644 33.2703C2.89644 33.2703 2.27044 33.1063 1.77844 32.7783C1.29044 32.4503 0.990438 31.9943 0.878438 31.4103L1.77844 31.2603C1.87444 31.6283 2.09244 31.9223 2.43244 32.1423C2.77644 32.3583 3.20044 32.4663 3.70444 32.4663C4.19644 32.4663 4.58444 32.3643 4.86844 32.1603C5.15244 31.9523 5.29444 31.6703 5.29444 31.3143C5.29444 31.1143 5.24844 30.9523 5.15644 30.8283C5.06844 30.7003 4.88644 30.5823 4.61044 30.4743C4.33444 30.3663 3.92244 30.2383 3.37444 30.0903C2.78644 29.9303 2.32644 29.7703 1.99444 29.6103C1.66244 29.4503 1.42644 29.2663 1.28644 29.0583C1.14644 28.8463 1.07644 28.5883 1.07644 28.2843C1.07644 27.9163 1.18044 27.5943 1.38844 27.3183C1.59644 27.0383 1.88444 26.8223 2.25244 26.6703C2.62044 26.5143 3.04844 26.4363 3.53644 26.4363C4.02444 26.4363 4.46044 26.5163 4.84444 26.6763C5.23244 26.8323 5.54444 27.0523 5.78044 27.3363C6.01644 27.6203 6.15644 27.9503 6.20044 28.3263L5.30044 28.4883C5.24044 28.1083 5.05044 27.8083 4.73044 27.5883C4.41444 27.3643 4.01244 27.2483 3.52444 27.2403C3.06444 27.2283 2.69044 27.3163 2.40244 27.5043C2.11444 27.6883 1.97044 27.9343 1.97044 28.2423C1.97044 28.4143 2.02244 28.5623 2.12644 28.6863C2.23044 28.8063 2.41844 28.9203 2.69044 29.0283C2.96644 29.1363 3.35844 29.2543 3.86644 29.3823C4.46244 29.5343 4.93044 29.6943 5.27044 29.8623C5.61044 30.0303 5.85244 30.2283 5.99644 30.4563C6.14044 30.6843 6.21244 30.9663 6.21244 31.3023C6.21244 31.9143 5.98444 32.3963 5.52844 32.7483C5.07644 33.0963 4.45244 33.2703 3.65644 33.2703ZM8.68875 33.0963L6.70875 26.6103L7.59075 26.6163L9.12675 31.6503L10.6688 26.6163H11.4728L13.0148 31.6503L14.5628 26.6163H15.4388L13.4588 33.0963H12.6908L11.0708 27.9363L9.45675 33.0963H8.68875ZM16.6397 25.3863V24.3963H17.5217V25.3863H16.6397ZM16.6397 33.0963V26.6163H17.5217V33.0963H16.6397ZM22.2305 33.2763C21.6345 33.2763 21.1305 33.1263 20.7185 32.8263C20.3065 32.5223 19.9945 32.1123 19.7825 31.5963C19.5705 31.0763 19.4645 30.4943 19.4645 29.8503C19.4645 29.1943 19.5705 28.6103 19.7825 28.0983C19.9985 27.5823 20.3145 27.1763 20.7305 26.8803C21.1465 26.5843 21.6585 26.4363 22.2665 26.4363C22.8585 26.4363 23.3665 26.5863 23.7905 26.8863C24.2145 27.1863 24.5385 27.5943 24.7625 28.1103C24.9905 28.6263 25.1045 29.2063 25.1045 29.8503C25.1045 30.4983 24.9905 31.0803 24.7625 31.5963C24.5345 32.1123 24.2065 32.5223 23.7785 32.8263C23.3505 33.1263 22.8345 33.2763 22.2305 33.2763ZM19.3145 35.9763V26.6163H20.1065V31.4943H20.2025V35.9763H19.3145ZM22.1405 32.4543C22.5925 32.4543 22.9685 32.3403 23.2685 32.1123C23.5685 31.8843 23.7925 31.5743 23.9405 31.1823C24.0925 30.7863 24.1685 30.3423 24.1685 29.8503C24.1685 29.3623 24.0945 28.9223 23.9465 28.5303C23.7985 28.1383 23.5725 27.8283 23.2685 27.6003C22.9685 27.3723 22.5865 27.2583 22.1225 27.2583C21.6705 27.2583 21.2945 27.3683 20.9945 27.5883C20.6985 27.8083 20.4765 28.1143 20.3285 28.5063C20.1805 28.8943 20.1065 29.3423 20.1065 29.8503C20.1065 30.3503 20.1805 30.7983 20.3285 31.1943C20.4765 31.5863 20.7005 31.8943 21.0005 32.1183C21.3005 32.3423 21.6805 32.4543 22.1405 32.4543ZM29.164 33.2763C28.532 33.2763 27.984 33.1363 27.52 32.8563C27.06 32.5763 26.702 32.1823 26.446 31.6743C26.19 31.1663 26.062 30.5703 26.062 29.8863C26.062 29.1783 26.188 28.5663 26.44 28.0503C26.692 27.5343 27.046 27.1363 27.502 26.8563C27.962 26.5763 28.504 26.4363 29.128 26.4363C29.768 26.4363 30.314 26.5843 30.766 26.8803C31.218 27.1723 31.56 27.5923 31.792 28.1403C32.024 28.6883 32.13 29.3423 32.11 30.1023H31.21V29.7903C31.194 28.9503 31.012 28.3163 30.664 27.8883C30.32 27.4603 29.816 27.2463 29.152 27.2463C28.456 27.2463 27.922 27.4723 27.55 27.9243C27.182 28.3763 26.998 29.0203 26.998 29.8563C26.998 30.6723 27.182 31.3063 27.55 31.7583C27.922 32.2063 28.448 32.4303 29.128 32.4303C29.592 32.4303 29.996 32.3243 30.34 32.1123C30.688 31.8963 30.962 31.5863 31.162 31.1823L31.984 31.5003C31.728 32.0643 31.35 32.5023 30.85 32.8143C30.354 33.1223 29.792 33.2763 29.164 33.2763ZM26.686 30.1023V29.3643H31.636V30.1023H26.686Z" fill="white"/>
<g clip-path="url(#clip0_1_7510)">
<path fill-rule="evenodd" clip-rule="evenodd" d="M8.75 4.48356V2.84631C8.61193 2.84631 8.25 2.84631 8.25 2.84631V5.34631H10.75C10.75 5.20824 10.75 4.84631 10.75 4.84631H9.09545C9.10601 4.83545 9.11658 4.82456 9.12718 4.81364C10.5838 3.31381 12.4945 1.34631 16 1.34631C19.2427 1.34631 20.7608 3.02221 22.0733 4.47116C22.1885 4.59839 22.3022 4.72387 22.4153 4.84631H20.75C20.75 4.98438 20.75 5.34631 20.75 5.34631H23.25V2.84631C23.25 2.84631 22.8881 2.84631 22.75 2.84631V4.46981C22.6581 4.36937 22.5649 4.26599 22.4698 4.16053C21.155 2.70262 19.481 0.846313 16 0.846313C12.2734 0.846313 10.221 2.96506 8.76698 4.46603C8.76131 4.47188 8.75565 4.47772 8.75 4.48356Z" fill="white"/>
<path d="M13.8986 13.8604L14.2026 13.9277V13.6163V5.26298C14.2026 4.75931 14.6164 4.34631 15.1383 4.34631C15.6602 4.34631 16.0741 4.75931 16.0741 5.26298V9.92965V10.1796H16.3241H17.3569L21.7266 12.3293L20.9298 17.8463H14.1379L10.351 13.9158L11.0436 13.2288L13.8986 13.8604Z" stroke="white" stroke-width="0.5"/>
</g>
<defs>
<clipPath id="clip0_1_7510">
<rect width="18" height="18" fill="white" transform="translate(7 0.0963135)"/>
</clipPath>
</defs>
</svg>
