<svg width="1081" height="214" viewBox="0 0 1081 214" fill="none" xmlns="http://www.w3.org/2000/svg">
<g filter="url(#filter0_i_1_634)">
<path d="M0.15918 209.257V0.405273H27.571L103.28 157.479L178.554 0.405273H206.256V209.112H177.538V66.2517L110.097 209.257H96.3182L28.7313 66.2517V209.257H0.15918Z" fill="white"/>
<path d="M298.959 213.608C283.391 213.608 269.71 210.224 257.913 203.456C246.214 196.591 237.077 187.067 230.502 174.884C224.023 162.604 220.784 148.39 220.784 132.243C220.784 115.129 223.975 100.287 230.357 87.717C236.835 75.1472 245.827 65.4298 257.333 58.5648C268.839 51.6997 282.231 48.2672 297.508 48.2672C313.462 48.2672 327.047 51.9898 338.263 59.435C349.48 66.7835 357.843 77.2744 363.355 90.9078C368.963 104.541 371.187 120.737 370.026 139.495H339.714V128.472C339.52 110.294 336.04 96.8543 329.271 88.1522C322.6 79.45 312.399 75.0989 298.669 75.0989C283.488 75.0989 272.079 79.8851 264.44 89.4575C256.801 99.0299 252.982 112.857 252.982 130.938C252.982 148.149 256.801 161.492 264.44 170.968C272.079 180.347 283.101 185.036 297.508 185.036C306.984 185.036 315.154 182.909 322.019 178.655C328.981 174.304 334.396 168.115 338.263 160.09L367.996 169.517C361.904 183.538 352.67 194.415 340.294 202.151C327.918 209.789 314.139 213.608 298.959 213.608ZM243.12 139.495V115.854H354.943V139.495H243.12Z" fill="white"/>
<path d="M474.795 209.257C464.932 211.191 455.263 212.013 445.787 211.723C436.312 211.433 427.851 209.596 420.406 206.212C412.961 202.827 407.353 197.509 403.582 190.258C400.198 183.779 398.361 177.204 398.07 170.533C397.877 163.764 397.78 156.126 397.78 147.617V9.10743H428.238V146.167C428.238 152.452 428.286 157.915 428.383 162.556C428.576 167.197 429.592 171.113 431.429 174.304C434.91 180.298 440.421 183.731 447.963 184.601C455.601 185.375 464.545 185.036 474.795 183.586V209.257ZM367.758 76.9844V52.6183H474.795V76.9844H367.758Z" fill="white"/>
<path d="M534.651 213.608C523.049 213.608 513.331 211.481 505.499 207.227C497.667 202.876 491.721 197.171 487.66 190.113C483.695 182.957 481.713 175.125 481.713 166.617C481.713 158.688 483.115 151.726 485.919 145.732C488.723 139.737 492.881 134.66 498.392 130.503C503.904 126.248 510.672 122.816 518.698 120.205C525.659 118.175 533.54 116.386 542.338 114.839C551.137 113.292 560.371 111.841 570.04 110.488C579.806 109.134 589.475 107.78 599.048 106.427L588.025 112.518C588.218 100.238 585.608 91.1496 580.193 85.2514C574.875 79.2566 565.689 76.2592 552.636 76.2592C544.417 76.2592 536.875 78.193 530.01 82.0606C523.145 85.8316 518.359 92.1165 515.652 100.915L487.37 92.2132C491.237 78.7731 498.586 68.0888 509.415 60.1602C520.341 52.2315 534.845 48.2672 552.926 48.2672C566.946 48.2672 579.129 50.6845 589.475 55.519C599.918 60.2569 607.556 67.7987 612.391 78.1447C614.905 83.2693 616.452 88.6839 617.032 94.3887C617.612 100.093 617.902 106.233 617.902 112.808V209.257H591.071V173.433L596.292 178.075C589.814 190.064 581.547 199.008 571.491 204.906C561.531 210.708 549.252 213.608 534.651 213.608ZM540.018 188.807C548.623 188.807 556.02 187.309 562.208 184.311C568.397 181.217 573.376 177.301 577.147 172.563C580.918 167.825 583.384 162.894 584.544 157.77C586.188 153.128 587.106 147.907 587.3 142.106C587.59 136.304 587.735 131.663 587.735 128.182L597.597 131.808C588.025 133.258 579.323 134.564 571.491 135.724C563.659 136.884 556.552 138.045 550.17 139.205C543.885 140.268 538.277 141.574 533.346 143.121C529.188 144.571 525.466 146.312 522.178 148.342C518.988 150.373 516.425 152.838 514.491 155.739C512.654 158.64 511.736 162.169 511.736 166.327C511.736 170.388 512.751 174.159 514.782 177.639C516.812 181.024 519.906 183.731 524.064 185.761C528.222 187.792 533.539 188.807 540.018 188.807Z" fill="white"/>
<path d="M638.16 209.257V0.405273H722.571C724.601 0.405273 727.115 0.501963 730.113 0.695342C733.11 0.792037 735.962 1.08211 738.67 1.56557C750.273 3.40268 759.942 7.367 767.677 13.4585C775.509 19.55 781.359 27.237 785.226 36.5193C789.094 45.8016 791.028 56.0508 791.028 67.267C791.028 78.5798 789.094 88.8773 785.226 98.1596C781.359 107.442 775.509 115.129 767.677 121.22C759.942 127.312 750.273 131.276 738.67 133.113C735.962 133.5 733.062 133.79 729.968 133.984C726.97 134.177 724.505 134.274 722.571 134.274H668.472V209.257H638.16ZM668.472 105.556H721.411C723.344 105.556 725.471 105.46 727.792 105.266C730.209 105.073 732.482 104.735 734.609 104.251C740.797 102.801 745.777 100.142 749.547 96.2742C753.318 92.3099 756.026 87.7654 757.67 82.6408C759.313 77.5162 760.135 72.3916 760.135 67.267C760.135 62.1423 759.313 57.0661 757.67 52.0381C756.026 46.9135 753.318 42.4174 749.547 38.5498C745.777 34.5855 740.797 31.8781 734.609 30.4278C732.482 29.8476 730.209 29.4609 727.792 29.2675C725.471 29.0741 723.344 28.9774 721.411 28.9774H668.472V105.556Z" fill="white"/>
<path d="M842.037 213.608C830.435 213.608 820.717 211.481 812.885 207.227C805.053 202.876 799.107 197.171 795.046 190.113C791.081 182.957 789.099 175.125 789.099 166.617C789.099 158.688 790.501 151.726 793.305 145.732C796.109 139.737 800.267 134.66 805.778 130.503C811.29 126.248 818.058 122.816 826.083 120.205C833.045 118.175 840.926 116.386 849.724 114.839C858.523 113.292 867.757 111.841 877.426 110.488C887.192 109.134 896.861 107.78 906.434 106.427L895.411 112.518C895.604 100.238 892.993 91.1496 887.579 85.2514C882.261 79.2566 873.075 76.2592 860.022 76.2592C851.803 76.2592 844.261 78.193 837.396 82.0606C830.531 85.8316 825.745 92.1165 823.038 100.915L794.756 92.2132C798.623 78.7731 805.972 68.0888 816.801 60.1602C827.727 52.2315 842.231 48.2672 860.312 48.2672C874.332 48.2672 886.515 50.6845 896.861 55.519C907.304 60.2569 914.942 67.7987 919.777 78.1447C922.291 83.2693 923.838 88.6839 924.418 94.3887C924.998 100.093 925.288 106.233 925.288 112.808V209.257H898.457V173.433L903.678 178.075C897.2 190.064 888.932 199.008 878.877 204.906C868.917 210.708 856.638 213.608 842.037 213.608ZM847.404 188.807C856.009 188.807 863.406 187.309 869.594 184.311C875.783 181.217 880.762 177.301 884.533 172.563C888.304 167.825 890.77 162.894 891.93 157.77C893.574 153.128 894.492 147.907 894.686 142.106C894.976 136.304 895.121 131.663 895.121 128.182L904.983 131.808C895.411 133.258 886.709 134.564 878.877 135.724C871.045 136.884 863.938 138.045 857.556 139.205C851.271 140.268 845.663 141.574 840.732 143.121C836.574 144.571 832.852 146.312 829.564 148.342C826.374 150.373 823.811 152.838 821.878 155.739C820.04 158.64 819.122 162.169 819.122 166.327C819.122 170.388 820.137 174.159 822.168 177.639C824.198 181.024 827.292 183.731 831.45 185.761C835.608 187.792 840.926 188.807 847.404 188.807Z" fill="white"/>
<path d="M928.142 209.257L986.736 130.068L929.447 52.6183H965.416L1004.43 106.427L1043.01 52.6183H1078.98L1021.69 130.068L1080.43 209.257H1044.32L1004.43 153.708L964.255 209.257H928.142Z" fill="white"/>
</g>
<defs>
<filter id="filter0_i_1_634" x="0.15918" y="0.405273" width="1080.27" height="213.203" filterUnits="userSpaceOnUse" color-interpolation-filters="sRGB">
<feFlood flood-opacity="0" result="BackgroundImageFix"/>
<feBlend mode="normal" in="SourceGraphic" in2="BackgroundImageFix" result="shape"/>
<feColorMatrix in="SourceAlpha" type="matrix" values="0 0 0 0 0 0 0 0 0 0 0 0 0 0 0 0 0 0 127 0" result="hardAlpha"/>
<feOffset/>
<feGaussianBlur stdDeviation="9"/>
<feComposite in2="hardAlpha" operator="arithmetic" k2="-1" k3="1"/>
<feColorMatrix type="matrix" values="0 0 0 0 1 0 0 0 0 1 0 0 0 0 1 0 0 0 0.11 0"/>
<feBlend mode="normal" in2="shape" result="effect1_innerShadow_1_634"/>
</filter>
</defs>
</svg>
