<svg width="206" height="164" viewBox="0 0 206 164" fill="none" xmlns="http://www.w3.org/2000/svg">
<path d="M158.033 11.2513L158.033 11.2514C158.384 11.4745 158.737 11.6903 159.088 11.9058C160.522 12.7833 161.946 13.6554 163.211 14.9974C164.774 16.6551 166.097 19.0415 166.788 23.0538C167.377 26.4751 166.985 29.04 166.652 31.2193C166.586 31.6467 166.523 32.0592 166.47 32.4605C166.309 33.6805 166.24 34.8122 166.516 35.9198C166.793 37.0355 167.413 38.1006 168.584 39.2065C169.782 40.3388 171.413 40.8661 173.163 41.2516C173.783 41.3881 174.414 41.5064 175.052 41.626C176.244 41.8497 177.459 42.0774 178.661 42.4353C180.485 42.9787 182.22 43.8093 183.647 45.3394C185.073 46.8693 186.215 49.1226 186.809 52.55L187.093 52.5007L186.809 52.55C187.713 57.7708 186.354 60.8356 184.495 62.8736C183.557 63.9014 182.482 64.6784 181.473 65.3419C181.219 65.5085 180.968 65.6693 180.722 65.8261C180.006 66.2835 179.346 66.7055 178.86 67.1324C178.724 67.2515 178.428 67.4513 177.968 67.7268C177.515 67.9983 176.92 68.3331 176.201 68.7211C174.764 69.4969 172.839 70.4811 170.58 71.5893C166.06 73.8055 160.207 76.5144 154.242 79.0384C148.276 81.5631 142.206 83.8998 137.25 85.3744C134.771 86.1119 132.58 86.6309 130.825 86.8516C129.948 86.962 129.188 86.9968 128.559 86.9497C127.927 86.9025 127.451 86.774 127.124 86.5763C122.4 83.7183 119.78 80.4263 118.385 77.2973C116.989 74.1654 116.812 71.178 117.003 68.9211C117.03 68.6125 117.133 68.1598 117.302 67.5846C117.468 67.0141 117.693 66.3401 117.954 65.5956C118.177 64.9554 118.429 64.2576 118.692 63.531C119.034 62.5825 119.394 61.5849 119.732 60.6026C120.333 58.8588 120.881 57.1178 121.178 55.6699C121.327 54.9463 121.415 54.2845 121.412 53.726C121.41 53.1763 121.32 52.681 121.067 52.3312C120.551 51.6176 120.098 50.4073 119.72 48.887C119.344 47.3759 119.05 45.5914 118.836 43.7554C118.407 40.0804 118.301 36.2297 118.486 33.9966C118.606 32.5499 119.214 30.8295 119.837 29.0688C119.948 28.7531 120.061 28.4362 120.17 28.1193C120.528 27.0885 120.858 26.0632 121.052 25.1101C121.246 24.1601 121.31 23.2541 121.113 22.471C121.005 22.0434 120.857 21.5599 120.695 21.0315C120.29 19.712 119.8 18.1123 119.635 16.4026C119.405 14.0365 119.814 11.5418 121.973 9.48303C123.81 7.72996 125.383 6.93451 126.989 6.32569C127.463 6.14592 127.947 5.98061 128.445 5.81049C129.625 5.40699 130.885 4.97643 132.286 4.26163M158.033 11.2513L132.155 4.00403M158.033 11.2513C157.117 10.6677 156.415 9.92167 155.786 9.1044C155.406 8.61125 155.041 8.07642 154.671 7.53445C154.437 7.19199 154.202 6.84668 153.959 6.50723C152.692 4.73439 151.116 2.93958 148.108 1.67517M158.033 11.2513L148.22 1.40855M132.286 4.26163L132.155 4.00403M132.286 4.26163C132.286 4.26165 132.286 4.26167 132.286 4.26168L132.155 4.00403M132.286 4.26163C132.624 4.08979 132.983 3.89863 133.362 3.69645C136.817 1.85691 141.986 -0.895407 148.108 1.67517M132.155 4.00403C132.488 3.8344 132.844 3.64436 133.223 3.44245C136.67 1.60424 141.963 -1.21849 148.22 1.40855M148.108 1.67517C148.108 1.67515 148.108 1.67514 148.108 1.67512L148.22 1.40855M148.108 1.67517L148.22 1.40855" fill="#161616" stroke="white" stroke-width="0.578331"/>
<path d="M152.204 36.4004L161.01 50.944L148.495 77.017L135.611 48.6883L152.204 36.4004Z" fill="#161616" stroke="white" stroke-width="0.578331" stroke-miterlimit="10" stroke-linecap="round" stroke-linejoin="round"/>
<path d="M122.18 23.6353C122.18 23.6353 123.594 40.4542 129.701 47.8762C135.094 54.4264 139.64 53.7419 144.461 48.5214C148.416 44.2415 152.494 37.3711 152.494 37.3711C152.494 37.3711 157.212 35.1303 155.705 31.3774C154.203 27.6245 150.307 30.3924 150.307 30.3924C150.307 30.3924 146.2 30.9144 146.15 24.1672C146.111 19.1978 141.802 12.5392 131.582 14.4206C121.368 16.3068 122.18 23.6353 122.18 23.6353Z" fill="#161616" stroke="white" stroke-width="0.578331" stroke-miterlimit="10" stroke-linecap="round" stroke-linejoin="round"/>
<path d="M129.455 41.8727C129.455 41.8727 131.46 41.9466 133.592 40.9616C135.725 39.9766 137.291 38.8093 137.291 38.8093C137.291 38.8093 138.197 42.8084 135.474 44.3598C132.11 46.2756 129.455 41.8727 129.455 41.8727Z" fill="white" stroke="white" stroke-width="0.578331" stroke-miterlimit="10" stroke-linecap="round" stroke-linejoin="round"/>
<path d="M129.037 27.1719C129.012 27.3393 129.795 31.4665 128.633 34.8894C128.367 35.6774 128.717 36.7067 129.914 36.7806C131.613 36.884 132.248 35.9138 132.248 35.9138" stroke="white" stroke-width="0.578331" stroke-miterlimit="10" stroke-linecap="round" stroke-linejoin="round"/>
<path d="M139.409 64.6255L145.841 81.3607C145.841 81.3607 155.849 71.8653 160.823 63.675C165.798 55.4896 172.486 51.3428 172.486 51.3428C172.486 51.3428 187.118 58.7845 193.54 70.3435C199.962 81.9025 199.844 94.1559 202.326 105.946C204.06 114.191 204.626 127.784 204.858 132.591C205.217 140.062 204.493 148.144 204.08 151.562C203.71 154.625 201.573 158.309 199.731 159.742C197.884 161.175 186.044 163.367 184.508 163.16C182.971 162.953 175.101 157.364 174.771 154.773C173.939 148.237 183.986 143.258 179.987 141.722C175.987 140.185 172.402 140.003 172.402 140.003C172.402 140.003 153.638 143.376 145.625 141.288C137.612 139.2 144.517 136.895 144.517 136.895L131.81 110.098C131.81 110.098 118.133 121.224 117.089 122.962C116.045 124.701 114.307 128.065 113.149 128.296C111.992 128.528 110.83 130.266 108.86 130.961C106.89 131.655 105.383 129.453 105.383 129.453C105.383 129.453 106.54 120.411 102.137 116.703C97.734 112.994 89.8244 114.161 89.8244 114.161C89.8244 114.161 89.8244 112.162 91.2773 111.256C92.7301 110.349 99.6399 108.773 100.423 108.65C101.211 108.527 101.334 107.803 102.24 106.774C103.147 105.744 105.934 104.228 107.569 103.321C109.204 102.41 109.446 102.898 110.051 102.41C110.657 101.928 112.292 98.2289 114.957 95.5645C117.621 92.9 121.32 87.8076 124.531 82.2374C127.742 76.6623 129.195 75.3325 130.407 74.0569C131.618 72.7863 135.918 67.3934 137.193 66.1818C138.474 64.9654 139.409 64.6255 139.409 64.6255Z" fill="white" stroke="white" stroke-width="0.578331" stroke-linecap="round" stroke-linejoin="round"/>
<path d="M171.088 137.364C171.088 137.364 175.417 131.828 185.109 131.597C190.881 131.459 196.629 134.049 196.629 134.049" stroke="white" stroke-width="0.578331" stroke-miterlimit="10" stroke-linecap="round" stroke-linejoin="round"/>
<path d="M104.27 142.52C104.27 142.52 95.5674 148.465 93.1738 148.322C90.7803 148.179 90.1991 147.16 90.1991 146.362C90.1991 145.564 100.35 137.3 101.364 136.792C102.379 136.285 115.504 132.66 116.883 132.66C118.262 132.66 139.287 133.458 142.695 133.823C146.103 134.187 169.812 137.448 171.117 137.448C172.422 137.448 176.948 136.354 181.007 138.447C183.587 139.777 186.862 145.461 188.591 151.73C189.281 154.227 189.246 155.281 188.084 157.384C186.921 159.487 185.981 160.428 185.981 160.428C185.981 160.428 174.87 158.433 169.778 157.128C163.267 155.463 144.818 147.721 142.862 147.938C140.902 148.154 138.893 150.341 133.992 150.42C130.565 150.474 123.625 152.814 121.665 152.449C119.705 152.085 115.573 151.001 115.573 151.001C115.573 151.001 113.544 152.163 111.002 151.582C108.466 151.001 107.885 148.1 107.885 148.1C107.885 148.1 104.477 152.887 102.738 153.104C101 153.321 99.6207 151.799 99.9851 150.277C100.355 148.755 104.27 142.52 104.27 142.52Z" fill="#161616" stroke="white" stroke-width="0.578331" stroke-miterlimit="10" stroke-linecap="round" stroke-linejoin="round"/>
<path d="M104.269 142.52C104.269 142.155 108.401 137.516 109.563 136.866C110.725 136.211 119.861 135.27 119.861 135.27" stroke="white" stroke-width="0.578331" stroke-miterlimit="10" stroke-linecap="round" stroke-linejoin="round"/>
<path d="M107.894 148.106C107.894 148.106 110.578 144.772 114.129 142.959C117.68 141.147 122.541 140.059 122.541 140.059" stroke="white" stroke-width="0.578331" stroke-miterlimit="10" stroke-linecap="round" stroke-linejoin="round"/>
<path d="M115.58 151.007C115.58 151.007 122.032 147.091 123.992 146.293C125.952 145.496 127.543 144.624 127.543 144.624" stroke="white" stroke-width="0.578331" stroke-miterlimit="10" stroke-linecap="round" stroke-linejoin="round"/>
<path d="M131.809 110.093C131.809 110.093 130.853 104.937 130.518 99.7607C130.183 94.5845 130.518 89.9944 130.518 89.9944" stroke="white" stroke-width="0.578331" stroke-miterlimit="10" stroke-linecap="round" stroke-linejoin="round"/>
<path d="M90.0249 113.832C90.0249 113.832 82.0069 118.393 80.0517 119.146C78.0965 119.9 77.3429 119.747 76.4417 118.895C75.5404 118.043 70.6252 116.59 69.6747 116.339C68.7242 116.088 66.6163 115.836 65.8677 116.541C65.1141 117.24 64.1636 119.146 64.1636 119.146C64.1636 119.146 62.9126 118.846 62.1591 120.55C61.4056 122.254 60.8047 124.908 60.7555 125.815C60.7062 126.716 61.6568 129.075 61.6568 129.075C61.6568 129.075 61.8587 131.582 62.7107 133.035C63.5627 134.487 65.3161 135.591 66.0696 135.689C66.8231 135.788 74.4914 135.389 74.8903 134.837C75.2892 134.286 75.4419 132.98 75.4419 132.98C75.4419 132.98 77.1952 132.631 77.6483 132.178C78.1014 131.725 79.1012 131.276 79.1012 131.276L105.814 128.371C105.814 128.371 108.769 121.904 104.46 116.89C100.151 111.877 90.0249 113.832 90.0249 113.832Z" fill="#161616" stroke="white" stroke-width="0.578331" stroke-miterlimit="10" stroke-linecap="round" stroke-linejoin="round"/>
<path d="M151.953 36.9136L153.559 40.4596L147.762 46.7537L145.319 43.9711L151.953 36.9136Z" fill="#161616"/>
<path d="M71.4355 134.384C71.4355 134.384 69.1306 134.335 66.7765 132.882C64.4223 131.429 61.6643 129.075 61.6643 129.075" stroke="white" stroke-width="0.578331" stroke-miterlimit="10" stroke-linecap="round" stroke-linejoin="round"/>
<path d="M145.842 81.3606C145.842 81.3606 146.541 76.6277 146.679 73.9928C146.817 71.3579 146.763 71.6485 146.763 71.6485L159.637 49.3333L157.283 45.871L164.611 44.3738L172.496 51.3427C172.496 51.3427 166.355 61.0056 159.696 67.9695C153.037 74.9335 145.842 81.3606 145.842 81.3606Z" fill="white" stroke="white" stroke-width="0.578331" stroke-linecap="round" stroke-linejoin="round"/>
<path d="M145.84 81.3612L146.678 72.2647L138.655 55.6526L137.202 66.1773L145.84 81.3612Z" fill="white" stroke="white" stroke-width="0.578331" stroke-linecap="round" stroke-linejoin="round"/>
<path d="M140.537 59.7502L139.409 64.626" stroke="white" stroke-width="0.578331" stroke-miterlimit="10" stroke-linecap="round" stroke-linejoin="round"/>
<path d="M152.725 37.8831L157.275 45.8714" stroke="white" stroke-width="0.578331" stroke-miterlimit="10" stroke-linecap="round" stroke-linejoin="round"/>
<path d="M180.51 131.463L176.412 107.045" stroke="white" stroke-width="0.578331" stroke-miterlimit="10" stroke-linecap="round" stroke-linejoin="round"/>
<path d="M75.7542 121.343L75.2913 122.958C75.2913 122.958 72.2328 124.963 72.2328 126.367C72.2328 127.77 72.8337 128.873 73.9369 129.075C75.0401 129.277 76.8919 128.524 78.3989 127.47C79.9011 126.416 81.1077 125.313 81.3047 124.761" fill="#161616"/>
<path d="M75.7542 121.343L75.2913 122.958C75.2913 122.958 72.2328 124.963 72.2328 126.367C72.2328 127.77 72.8337 128.873 73.9369 129.075C75.0401 129.277 76.8919 128.524 78.3989 127.47C79.9011 126.416 81.1077 125.313 81.3047 124.761" stroke="white" stroke-width="0.578331" stroke-miterlimit="10" stroke-linecap="round" stroke-linejoin="round"/>
<path d="M69.047 121.14L68.3772 122.904C68.3772 122.904 71.8838 126.563 72.3861 128.469C72.8885 130.375 72.3861 131.424 71.7853 131.828C71.1844 132.227 70.3324 132.527 69.9827 132.177C69.633 131.828 63.5162 125.563 63.0138 124.81C62.5115 124.056 61.9106 121.401 61.9106 121.401" fill="#161616"/>
<path d="M69.047 121.14L68.3772 122.904C68.3772 122.904 71.8838 126.563 72.3861 128.469C72.8885 130.375 72.3861 131.424 71.7853 131.828C71.1844 132.227 70.3324 132.527 69.9827 132.177C69.633 131.828 63.5162 125.563 63.0138 124.81C62.5115 124.056 61.9106 121.401 61.9106 121.401" stroke="white" stroke-width="0.578331" stroke-miterlimit="10" stroke-linecap="round" stroke-linejoin="round"/>
<path d="M100.428 108.645C100.428 108.645 107.338 109.054 111.416 114.151" stroke="white" stroke-width="0.578331" stroke-miterlimit="10" stroke-linecap="round" stroke-linejoin="round"/>
<path d="M139.651 22.28C139.651 22.28 141.429 23.8609 140.434 26.4564C139.523 28.8302 138.065 29.7315 135.888 29.7709C133.081 29.8251 131.805 28.6628 130.958 26.9046C130.165 25.2596 131.401 22.4523 131.401 22.4523C131.401 22.4523 131.549 23.2206 132.081 23.2797C133.071 23.3979 132.569 21.684 132.564 20.7877C132.559 19.6549 133.588 18.6847 134.46 17.8672C135.332 17.0496 136.085 16.6458 136.085 16.6458C136.085 16.6458 135.563 18.9999 135.972 19.6746C136.425 20.4232 137.016 19.5367 137.016 19.5367C137.016 19.5367 137.957 20.7237 138.021 21.6988C138.085 22.674 137.962 23.6935 138.759 23.8067C139.547 23.9249 139.651 22.28 139.651 22.28Z" fill="#F48B44"/>
<path d="M136.071 29.589C136.312 29.5742 136.539 29.4757 136.716 29.3132C137.016 29.0325 137.484 28.5104 137.795 27.7372C138.277 26.5207 137.706 25.2501 137.706 25.2501C137.706 25.2501 137.405 25.7229 137.159 25.2205C136.918 24.7182 136.883 22.9698 136.283 22.1227C135.682 21.2805 134.977 20.9407 134.977 20.9407C134.977 20.9407 135.603 23.1471 134.815 24.4473C134.022 25.7475 133.643 25.5554 133.554 26.8458C133.461 28.2149 134.948 29.3083 135.303 29.4954C135.495 29.5988 135.82 29.6087 136.071 29.589Z" fill="#FA1B43"/>
<path d="M135.72 24.772C135.72 24.772 135.326 25.4073 134.863 26.3431C134.4 27.2788 134.69 28.7514 135.656 28.9878C136.621 29.2291 137 27.7024 136.916 27.264C136.833 26.8208 136.715 26.4563 136.715 26.4563L136.429 27.0178C136.429 27.0178 136.355 27.1311 136.266 26.2446C136.173 25.3531 135.72 24.772 135.72 24.772Z" fill="white"/>
<path d="M128.188 23.1425C128.188 23.1425 129.966 24.7234 128.971 27.3189C128.06 29.6928 126.602 30.5941 124.425 30.6335C121.618 30.6876 120.342 29.5253 119.495 27.7671C118.702 26.1222 119.939 23.3149 119.939 23.3149C119.939 23.3149 120.086 24.0832 120.618 24.1423C121.608 24.2605 121.106 22.5466 121.101 21.6502C121.096 20.5175 122.125 19.5473 122.997 18.7297C123.869 17.9121 124.622 17.5083 124.622 17.5083C124.622 17.5083 124.1 19.8625 124.509 20.5372C124.962 21.2858 125.553 20.3993 125.553 20.3993C125.553 20.3993 126.494 21.5862 126.558 22.5614C126.622 23.5365 126.499 24.556 127.296 24.6693C128.094 24.7826 128.188 23.1425 128.188 23.1425Z" fill="#F48B44"/>
<path d="M124.608 30.4559C124.849 30.4412 125.076 30.3427 125.253 30.1801C125.554 29.8994 126.021 29.3774 126.332 28.6041C126.814 27.3877 126.243 26.117 126.243 26.117C126.243 26.117 125.943 26.5898 125.696 26.0875C125.455 25.5851 125.421 23.8367 124.82 22.9896C124.219 22.1474 123.515 21.8076 123.515 21.8076C123.515 21.8076 124.14 24.014 123.352 25.3142C122.559 26.6144 122.18 26.4224 122.091 27.7127C121.998 29.0819 123.485 30.1752 123.84 30.3624C124.032 30.4658 124.357 30.4707 124.608 30.4559Z" fill="#FA1B43"/>
<path d="M124.263 25.6392C124.263 25.6392 123.869 26.2745 123.406 27.2102C122.943 28.146 123.233 29.6186 124.199 29.855C125.164 30.0914 125.543 28.5695 125.459 28.1312C125.376 27.688 125.258 27.3235 125.258 27.3235L124.972 27.885C124.972 27.885 124.898 27.9982 124.809 27.1117C124.716 26.2203 124.263 25.6392 124.263 25.6392Z" fill="white"/>
<path fill-rule="evenodd" clip-rule="evenodd" d="M185.438 133.35C184.954 133.092 184.441 132.624 182.859 131.002C178.071 126.092 173.797 127.295 174.003 126.316C174.206 125.353 178.587 123.864 182.697 121.834C186.896 119.761 186.888 119.764 187.735 120.012C188.626 120.273 188.387 120.002 193.869 126.968C196.604 130.443 197.544 131.603 197.632 131.612C197.769 131.625 200.211 128.167 200.235 127.926C200.246 127.825 198.291 125.016 197.627 124.179L197.327 123.8L197.047 124.043C196.893 124.176 196.467 124.576 196.101 124.933C195.531 125.487 195.114 126.457 194.791 126.753C194.454 126.602 194.354 126.573 194.339 126.571C194.206 126.558 193.572 125.669 193.632 125.581C193.857 125.25 196.821 122.731 197.003 122.713C197.6 122.655 197.81 123.017 199.736 125.779C200.897 127.445 200.956 127.566 200.929 128.216L200.915 128.562L200.694 128.945C200.38 129.492 198.986 131.677 198.61 132.212C198.165 132.846 197.923 132.99 197.46 132.899C197.071 132.822 196.784 132.496 193.488 128.397C188.608 122.327 187.69 121.233 187.51 121.271C187.163 121.344 179.909 125.126 179.896 125.258C179.878 125.439 185.7 131.594 186.151 131.884C186.459 132.082 186.654 131.818 188.613 130.091C188.732 129.986 189.436 129.353 190.177 128.684C190.918 128.014 191.576 127.424 191.639 127.37L191.753 127.274L192.308 127.445C192.707 127.921 192.631 128.336 192.578 128.391C192.464 128.508 190.421 130.525 189.78 131.154C187.741 133.152 187.35 133.434 186.535 133.492C186.03 133.528 185.689 133.484 185.438 133.35Z" fill="#AEAEAE"/>
<path fill-rule="evenodd" clip-rule="evenodd" d="M200.742 127.521C201.037 127.888 200.779 128.434 200.308 128.438L196.64 128.474C196.538 128.475 196.463 128.379 196.49 128.28C196.505 128.225 196.548 128.183 196.603 128.17L200.173 127.326C200.384 127.276 200.606 127.352 200.742 127.521Z" fill="black"/>
<path fill-rule="evenodd" clip-rule="evenodd" d="M180.405 125.656C180.55 126.029 180.29 126.435 179.891 126.459L172.813 126.883C172.511 126.901 172.377 126.508 172.627 126.337C172.657 126.317 172.691 126.302 172.726 126.294L179.471 124.666C179.758 124.597 180.052 124.75 180.159 125.025L180.405 125.656Z" fill="black"/>
<path fill-rule="evenodd" clip-rule="evenodd" d="M186.239 133.265C185.774 133.018 185.282 132.569 183.763 131.012C179.167 126.299 179.064 126.166 179.262 125.227C179.456 124.302 179.662 124.16 183.608 122.212C187.639 120.222 187.631 120.225 188.444 120.463C189.299 120.713 189.07 120.453 194.332 127.14C196.958 130.476 197.859 131.589 197.944 131.597C198.075 131.61 200.42 128.291 200.443 128.06C200.453 127.962 198.576 125.266 197.939 124.463L197.651 124.099L197.382 124.332C197.234 124.46 196.826 124.844 196.474 125.186C195.567 126.069 194.821 126.762 194.783 126.759C194.656 126.746 194.047 125.893 194.104 125.808C194.321 125.491 197.166 123.072 197.34 123.055C197.913 122.999 198.115 123.347 199.963 125.999C201.078 127.597 201.135 127.714 201.109 128.337L201.095 128.669L200.883 129.037C200.581 129.562 199.243 131.66 198.883 132.173C198.455 132.782 198.224 132.921 197.779 132.833C197.406 132.759 197.13 132.446 193.966 128.512C189.282 122.685 188.4 121.634 188.227 121.671C187.895 121.741 180.931 125.372 180.919 125.498C180.901 125.672 186.49 131.58 186.923 131.859C187.219 132.049 187.406 131.795 189.286 130.137C189.401 130.037 190.076 129.429 190.788 128.786C191.499 128.144 192.131 127.577 192.191 127.526L192.301 127.433L192.725 127.94C193.108 128.397 193.144 128.453 193.092 128.506C192.983 128.618 191.023 130.554 190.407 131.158C188.45 133.076 188.074 133.347 187.292 133.402C186.807 133.437 186.48 133.394 186.239 133.265Z" fill="black"/>
<g opacity="0.3">
<path d="M131.519 77.9322C131.519 77.9322 131.754 72.0396 128.808 68.2715C125.861 64.5033 123.211 61.6968 122.02 61.1712C120.83 60.6457 119.113 60.3103 118.252 58.9909C117.391 57.6715 115.742 55.424 114.087 55.2227C112.438 55.0271 108.603 54.3618 108.603 54.3618L105.83 51.5217V50.001C105.83 50.001 107.546 50.1352 108.206 49.6041C108.865 49.0729 110.917 43.8568 110.386 42.3361C109.855 40.8155 107.742 39.893 107.742 39.893C107.742 39.893 104.175 29.0582 99.35 27.012C94.5253 24.9658 79.0669 28.8625 79.0669 28.8625C79.0669 28.8625 77.9432 40.357 77.8761 40.1614C77.809 39.9657 74.2422 39.1718 74.2422 39.1718C74.2422 39.1718 74.2422 45.4502 75.6287 46.3055C77.0152 47.1665 77.7419 47.2951 77.7419 47.2951C77.7419 47.2951 77.1493 50.7334 78.0047 53.7021C78.8601 56.6707 80.9119 59.7121 80.9119 59.7121C80.9119 59.7121 70.0771 63.6088 67.8967 65.7221C65.7163 67.8354 58.1186 77.8763 55.6754 83.0309C53.2323 88.1856 52.5055 90.4945 50.9848 91.6854C49.4641 92.8762 47.2838 94.3298 46.624 94.9895C45.9643 95.6492 45.0363 97.1028 44.0467 99.4173C43.0572 101.732 38.0982 107.675 38.0982 107.675L62.3451 109.721C62.3451 109.721 68.4893 105.427 70.1386 103.644C71.7878 101.86 72.4531 100.67 72.4531 100.67L76.02 109.721C76.02 109.721 47.0154 109.19 42.9845 108.731C38.9536 108.267 32.3454 107.144 29.4382 106.685C26.531 106.221 12.1294 103.118 10.2788 103.711C8.42832 104.304 4.00047 106.422 2.74815 107.938C1.49025 109.458 -0.421783 114.149 0.567764 116.592C1.55733 119.035 5.85101 121.087 6.64488 121.283C7.43877 121.478 10.7429 122.473 11.5312 122.669C12.3195 122.865 13.9072 123.396 15.031 122.803C16.1547 122.211 17.6083 121.215 17.6083 121.215C17.6083 121.215 20.0514 120.556 21.9019 120.025C23.7524 119.494 30.6905 119.035 31.9428 118.968C33.2008 118.901 38.948 120.489 38.948 120.489C38.948 120.489 37.6901 122.736 38.0255 123.659C38.3554 124.581 41.9223 128.942 41.9223 128.942L45.8861 128.545L47.144 130.194L51.1749 129.07L52.8241 129.993L55.5972 129.596C55.5972 129.596 82.9469 124.179 87.3748 120.081C91.8026 115.983 123.385 95.4367 123.385 95.4367L131.519 77.9322Z" fill="#161616"/>
<path d="M109.314 54.8455C109.314 54.8455 115.838 55.6002 117.493 57.7974C119.148 59.9945 120.797 60.9393 122.681 61.8059C124.565 62.6724 131.33 69.7447 131.33 72.5792" stroke="white" stroke-width="0.587436" stroke-miterlimit="10" stroke-linecap="round" stroke-linejoin="round"/>
<path d="M66.8203 126.703C66.8203 126.703 33.7493 118.671 31.2055 118.979C28.6617 119.281 25.4582 119.521 24.245 119.521C23.0319 119.521 20.5552 120.975 18.8612 121.036C17.1672 121.098 17.1672 121.098 17.1672 121.098C17.1672 121.098 15.5347 122.976 13.5388 123.032C11.5429 123.094 9.91046 121.763 9.91046 121.763C9.91046 121.763 7.1878 121.825 5.97461 120.913C4.76702 120.008 5.0074 118.068 5.0074 118.068C5.0074 118.068 2.70963 117.279 2.16174 116.374C1.61944 115.468 1.85982 113.589 1.85982 113.589C1.85982 113.589 0.954122 109.9 1.43492 109.05C1.92131 108.2 8.93767 103.783 10.9336 103.727C12.9294 103.666 20.6782 105.662 24.9718 106.21C29.2655 106.752 36.9527 107.602 43.7287 108.508C50.5046 109.413 68.6577 109.961 73.3762 109.9C78.0948 109.838 81.002 108.871 81.002 108.871" stroke="white" stroke-width="0.587436" stroke-miterlimit="10" stroke-linecap="round" stroke-linejoin="round"/>
<path d="M8.37938 108.082C8.49119 107.809 2.24636 112.337 1.96683 113.22" stroke="white" stroke-width="0.587436" stroke-miterlimit="10" stroke-linecap="round" stroke-linejoin="round"/>
<path d="M10.5598 112.219C10.6325 111.928 5.03622 117.239 4.87968 118.156" stroke="white" stroke-width="0.587436" stroke-miterlimit="10" stroke-linecap="round" stroke-linejoin="round"/>
<path d="M13.0262 116.597C13.0989 116.306 9.62705 120.611 9.46492 121.528" stroke="white" stroke-width="0.587436" stroke-miterlimit="10" stroke-linecap="round" stroke-linejoin="round"/>
<path d="M76.2852 109.245C76.2852 109.245 73.8252 105.315 71.8629 99.4165C69.895 93.5183 68.324 86.3455 68.324 86.3455" stroke="white" stroke-width="0.587436" stroke-miterlimit="10" stroke-linecap="round" stroke-linejoin="round"/>
<path d="M80.5703 59.896C80.5703 59.896 74.359 62.2553 71.0549 63.5915C67.7508 64.9276 64.4523 68.7796 61.8582 73.2634C59.2641 77.7471 56.9048 81.7557 55.3338 84.1932C53.7629 86.6308 53.1311 87.8887 51.9515 90.4045C50.7718 92.9203 49.0443 93.8652 47.4677 94.7261C45.8967 95.5927 45.1084 97.3202 43.4592 100.546C41.8099 103.772 38.0362 107.78 38.0362 107.78" stroke="white" stroke-width="0.587436" stroke-miterlimit="10" stroke-linecap="round" stroke-linejoin="round"/>
<path d="M109.057 40.6975C109.057 40.6975 106.776 44.119 104.897 43.9178C103.019 43.7165 101.811 40.0266 101.342 37.8183C100.872 35.6044 101.342 31.3834 93.3636 32.317C85.3857 33.2507 81.4219 33.4575 78.7327 31.6853C75.5572 29.5888 76.256 25.5299 77.0667 22.9302C77.827 20.4815 82.0983 15.0194 82.2996 15.1536C82.5008 15.2877 84.6477 18.508 87.8009 19.1118C90.954 19.7156 104.031 19.9168 107.178 23.8751C110.331 27.8333 109.795 31.7859 109.593 34.3353C109.392 36.8735 109.057 40.6975 109.057 40.6975Z" fill="white"/>
<path d="M78.5587 29.175C78.5587 29.175 77.3008 46.6348 77.9661 51.4429C78.6314 56.2509 81.4435 63.5747 86.6205 64.6146C91.7975 65.6489 95.9402 63.0604 98.6797 59.5829" stroke="white" stroke-width="0.587436" stroke-miterlimit="10" stroke-linecap="round" stroke-linejoin="round"/>
<path d="M107.86 40.7922C107.86 40.7922 110.152 40.1269 110.449 42.0501C110.745 43.9733 109.487 49.2285 108.005 49.8212C106.524 50.4138 105.786 49.8212 105.786 49.8212L105.193 58.0339" stroke="white" stroke-width="0.587436" stroke-miterlimit="10" stroke-linecap="round" stroke-linejoin="round"/>
</g>
<path d="M102.373 87.2229H96.2222V93.3742H94.7275V87.2229H88.5762V85.7282H94.7275V79.5769H96.2222V85.7282H102.373V87.2229Z" fill="#F48B44"/>
</svg>
