<svg xmlns="http://www.w3.org/2000/svg" fill="none" viewBox="0 0 2887 2886"><g filter="url(#filter0_f_53_8)"><path fill="url(#paint0_radial_53_8)" d="M1951.1 2098.6c-316.51 282.46-802.07 254.85-1084.529-61.66l-78.73-88.23c-282.457-316.51-254.849-802.07 61.666-1084.532l85.657-76.44C1251.68 505.28 1737.24 532.89 2019.7 849.405l78.73 88.222c282.46 316.513 254.85 802.073-61.67 1084.533l-85.66 76.44z"/></g><g filter="url(#filter1_f_53_8)"><path fill="url(#paint1_radial_53_8)" d="M1583.37 829.09c322.63 114.724 490.75 470.49 376.02 793.12-114.72 322.64-469.7 492.4-792.34 377.67-322.63-114.72-490.74-470.49-376.016-793.12 114.724-322.633 469.706-492.394 792.336-377.67z"/></g><g filter="url(#filter2_f_53_8)"><path fill="url(#paint2_radial_53_8)" d="M1491.18 2201.94c-187.47 159.7-469.52 136.47-629.216-51-159.698-187.48-137.781-469.63 49.696-629.33 187.48-159.7 469.52-136.47 629.22 51.01 159.7 187.47 137.78 469.62-49.7 629.32z"/></g><defs><filter id="filter0_f_53_8" width="2485.42" height="2485.69" x="200.426" y="200.323" color-interpolation-filters="sRGB" filterUnits="userSpaceOnUse"><feFlood flood-opacity="0" result="BackgroundImageFix"/><feBlend in="SourceGraphic" in2="BackgroundImageFix" result="shape"/><feGaussianBlur result="effect1_foregroundBlur_53_8" stdDeviation="196.194"/></filter><filter id="filter1_f_53_8" width="2001.17" height="2003.23" x="374.625" y="412.873" color-interpolation-filters="sRGB" filterUnits="userSpaceOnUse"><feFlood flood-opacity="0" result="BackgroundImageFix"/><feBlend in="SourceGraphic" in2="BackgroundImageFix" result="shape"/><feGaussianBlur result="effect1_foregroundBlur_53_8" stdDeviation="190.178"/></filter><filter id="filter2_f_53_8" width="1540.38" height="1540.68" x="431.234" y="1091.43" color-interpolation-filters="sRGB" filterUnits="userSpaceOnUse"><feFlood flood-opacity="0" result="BackgroundImageFix"/><feBlend in="SourceGraphic" in2="BackgroundImageFix" result="shape"/><feGaussianBlur result="effect1_foregroundBlur_53_8" stdDeviation="162.002"/></filter><radialGradient id="paint0_radial_53_8" cx="0" cy="0" r="1" gradientTransform="rotate(-49.396 2547.966 -602.395) scale(1094.04 1096.31)" gradientUnits="userSpaceOnUse"><stop stop-color="#4BD4FF"/><stop offset="1" stop-color="#D04BFF" stop-opacity="0"/></radialGradient><radialGradient id="paint1_radial_53_8" cx="0" cy="0" r="1" gradientTransform="matrix(-584.17762 -207.72912 208.162 -585.39495 1375.21 1414.49)" gradientUnits="userSpaceOnUse"><stop offset=".348" stop-color="#04AF34"/><stop offset="1" stop-color="#09C861" stop-opacity="0"/></radialGradient><radialGradient id="paint2_radial_53_8" cx="0" cy="0" r="1" gradientTransform="matrix(177.02105 -383.43552 384.23448 177.38991 1363.86 1956.05)" gradientUnits="userSpaceOnUse"><stop offset=".198" stop-color="#83FFF8"/><stop offset="1" stop-color="#37FFF3" stop-opacity="0"/></radialGradient></defs></svg>