<svg width="2029" height="1701" viewBox="0 0 2029 1701" fill="none" xmlns="http://www.w3.org/2000/svg">
<g filter="url(#filter0_f_304_77)">
<path d="M1317.72 787.823C1240.33 971.267 1028.88 1057.24 845.433 979.841L807.558 963.861C624.114 886.466 538.144 675.014 615.539 491.57L630.903 455.154C708.298 271.71 919.75 185.741 1103.19 263.136L1141.07 279.116C1324.51 356.511 1410.48 567.963 1333.09 751.407L1317.72 787.823Z" fill="url(#paint0_radial_304_77)"/>
<path d="M1317.72 787.823C1240.33 971.267 1028.88 1057.24 845.433 979.841L807.558 963.861C624.114 886.466 538.144 675.014 615.539 491.57L630.903 455.154C708.298 271.71 919.75 185.741 1103.19 263.136L1141.07 279.116C1324.51 356.511 1410.48 567.963 1333.09 751.407L1317.72 787.823Z" stroke="#00E29A" stroke-width="42.3595"/>
</g>
<g filter="url(#filter1_f_304_77)">
<rect x="1355.04" y="1122.02" width="706.644" height="705.822" rx="352.911" transform="rotate(-149.957 1355.04 1122.02)" fill="url(#paint1_radial_304_77)"/>
</g>
<g filter="url(#filter2_f_304_77)">
<path d="M1193.37 1220C1027.99 1400.59 747.516 1412.91 566.927 1247.52L480.984 1168.81C300.395 1003.43 288.073 722.956 453.461 542.367L509.582 481.088C674.97 300.499 955.441 288.177 1136.03 453.565L1221.97 532.274C1402.56 697.662 1414.88 978.132 1249.49 1158.72L1193.37 1220Z" fill="url(#paint2_radial_304_77)"/>
</g>
<g filter="url(#filter3_f_304_77)">
<rect x="1456.58" y="1571" width="1028" height="1026.81" rx="493.686" transform="rotate(-149.957 1456.58 1571)" fill="url(#paint3_radial_304_77)"/>
</g>
<g filter="url(#filter4_f_304_77)">
<path d="M1397.79 483.739C1492.75 658.157 1427.68 876.892 1253.26 971.855V971.855C1078.85 1066.82 859.811 1002.77 764.848 828.348V828.348C669.885 653.93 734.954 435.195 909.372 340.231V340.231C1083.79 245.268 1302.82 309.321 1397.79 483.739V483.739Z" fill="url(#paint4_angular_304_77)"/>
</g>
<defs>
<filter id="filter0_f_304_77" x="364.024" y="11.6217" width="1220.58" height="1219.73" filterUnits="userSpaceOnUse" color-interpolation-filters="sRGB">
<feFlood flood-opacity="0" result="BackgroundImageFix"/>
<feBlend mode="normal" in="SourceGraphic" in2="BackgroundImageFix" result="shape"/>
<feGaussianBlur stdDeviation="100.942" result="effect1_foregroundBlur_304_77"/>
</filter>
<filter id="filter1_f_304_77" x="678.466" y="92.4374" width="1094.82" height="1094.4" filterUnits="userSpaceOnUse" color-interpolation-filters="sRGB">
<feFlood flood-opacity="0" result="BackgroundImageFix"/>
<feBlend mode="normal" in="SourceGraphic" in2="BackgroundImageFix" result="shape"/>
<feGaussianBlur stdDeviation="97.0882" result="effect1_foregroundBlur_304_77"/>
</filter>
<filter id="filter2_f_304_77" x="0.152527" y="0.257019" width="1702.65" height="1700.57" filterUnits="userSpaceOnUse" color-interpolation-filters="sRGB">
<feFlood flood-opacity="0" result="BackgroundImageFix"/>
<feBlend mode="normal" in="SourceGraphic" in2="BackgroundImageFix" result="shape"/>
<feGaussianBlur stdDeviation="168.449" result="effect1_foregroundBlur_304_77"/>
</filter>
<filter id="filter3_f_304_77" x="508.627" y="109.41" width="1520.09" height="1519.65" filterUnits="userSpaceOnUse" color-interpolation-filters="sRGB">
<feFlood flood-opacity="0" result="BackgroundImageFix"/>
<feBlend mode="normal" in="SourceGraphic" in2="BackgroundImageFix" result="shape"/>
<feGaussianBlur stdDeviation="119.41" result="effect1_foregroundBlur_304_77"/>
</filter>
<filter id="filter4_f_304_77" x="468.963" y="44.1095" width="1224.71" height="1223.87" filterUnits="userSpaceOnUse" color-interpolation-filters="sRGB">
<feFlood flood-opacity="0" result="BackgroundImageFix"/>
<feBlend mode="normal" in="SourceGraphic" in2="BackgroundImageFix" result="shape"/>
<feGaussianBlur stdDeviation="126.098" result="effect1_foregroundBlur_304_77"/>
</filter>
<radialGradient id="paint0_radial_304_77" cx="0" cy="0" r="1" gradientUnits="userSpaceOnUse" gradientTransform="translate(1126.18 693.395) rotate(-67.7244) scale(1655.6 1659.05)">
<stop stop-color="#5AE9FD"/>
<stop offset="1" stop-color="#5AE9FD" stop-opacity="0"/>
</radialGradient>
<radialGradient id="paint1_radial_304_77" cx="0" cy="0" r="1" gradientUnits="userSpaceOnUse" gradientTransform="translate(1708.37 1474.93) rotate(90) scale(352.911 353.322)">
<stop stop-color="#38FF70"/>
<stop offset="1" stop-color="#4AE074" stop-opacity="0.65"/>
</radialGradient>
<radialGradient id="paint2_radial_304_77" cx="0" cy="0" r="1" gradientUnits="userSpaceOnUse" gradientTransform="translate(851.478 850.544) rotate(-47.5157) scale(484.939 1595.22)">
<stop stop-color="#6012C3"/>
<stop offset="1" stop-color="#9949FF" stop-opacity="0.37"/>
</radialGradient>
<radialGradient id="paint3_radial_304_77" cx="0" cy="0" r="1" gradientUnits="userSpaceOnUse" gradientTransform="translate(2275.34 2170.86) rotate(151.133) scale(484.984 485.549)">
<stop stop-color="#FFF9C5"/>
<stop offset="0.755208" stop-color="#FF5C00"/>
<stop offset="1" stop-color="#FF451C"/>
</radialGradient>
<radialGradient id="paint4_angular_304_77" cx="0" cy="0" r="1" gradientUnits="userSpaceOnUse" gradientTransform="translate(1081.32 656.043) rotate(-118.566) scale(359.587 364.231)">
<stop stop-color="#FFF5CF"/>
<stop offset="1" stop-color="#FFD84B" stop-opacity="0"/>
</radialGradient>
</defs>
</svg>
