<svg xmlns="http://www.w3.org/2000/svg" fill="none" viewBox="0 0 557 540"><path fill="#161616" d="M93.013 522.602s24.151-4.094 87.901 6.118c92.243 14.775 128.895 12.564 156.097 3.497 27.202-9.068 36.723-11.611 36.723-11.611s64.235 24.943 124.684 18.135 58.189-21.92 58.189-21.92-2.142-88.927-29.124-129.804c-26.982-40.876-50.149-77.674-94.033-98.655-43.884-20.981-44.97-24.796-60.508-28.889-15.538-4.094-25.075-6.265-25.075-6.265l-16.359-53.964s14.173-53.142 1.365-66.23c-12.809-13.087-44.692-64.586-68.138-62.415-23.445 2.172-106.563 16.08-107.649 20.174-1.085 4.094 4.901 78.217 9.816 90.483 4.915 12.266 9.273 31.339 11.444 38.705 2.186 7.365 10.902 44.427 10.902 44.427s27.657 27.921 39.203 27.921c11.547 0 14.1-1.907-35.183 17.342-49.284 19.25-66.802 36.842-81.973 57.706-34.494 47.42-18.282 155.245-18.282 155.245zM8.572 461.683L1.016 518.86s17.62 17.269 43.517 18.34c25.896 1.086 47.112-11.151 47.112-11.151l-7.19-59.334-75.883-5.032z"/><path fill="#F48B44" stroke="#fff" stroke-linecap="round" stroke-linejoin="round" stroke-width="2" d="M92.63 345.2c22.081 0 39.981-17.9 39.981-39.981 0-22.081-17.9-39.982-39.981-39.982-22.081 0-39.982 17.901-39.982 39.982S70.548 345.2 92.63 345.2zM195.306 339.596c22.081 0 39.981-17.9 39.981-39.981 0-22.082-17.9-39.982-39.981-39.982-22.081 0-39.982 17.9-39.982 39.982 0 22.081 17.901 39.981 39.982 39.981z"/><path fill="#fff" d="M85.26 470.276c.861-9.572-15.982-18.909-37.62-20.856-21.637-1.946-39.876 4.235-40.737 13.807-.861 9.572 15.982 18.91 37.62 20.856 21.637 1.947 39.876-4.235 40.737-13.807z"/><path fill="#161616" stroke="#fff" stroke-linecap="round" stroke-linejoin="round" stroke-miterlimit="10" stroke-width="2" d="M36.529 365.868c.36-.646-3.987-12.369 7.237-25.4 11.207-13.032 37.625-35.83 56.428-32.24 18.803 3.589 20.617 14.002 27.495 27.357 6.878 13.355 16.648 31.916 19.899 49.508 3.25 17.591-.36 47.228-22.79 56.007-22.431 8.78-26.4 20.518-37.984 20.518-11.583 0-30.027-4.56-41.952-21.488-11.925-16.928-8.71-73.599-8.333-74.262z"/><path fill="#161616" stroke="#fff" stroke-linecap="round" stroke-linejoin="round" stroke-miterlimit="10" stroke-width="2" d="M67.523 470.06c7.996-11.195 5.458-39.614 9.508-53.274 4.05-13.66 26.835-42.637 28.141-49.064 1.848-9.038-1.673-13.072-1.673-13.072s6.47-7.777 2.509-12.926c-2.157-2.818-4.666-2.509-4.666-2.509s3.448-4.886-.234-7.659c-4.52-3.39-10.785-.411-10.785-.411s-.968-4.724-3.418-4.945c-6.925-.63-22.918 9.449-33.027 16.976-10.109 7.527-27.275 23.006-32.675 38.984-5.414 15.992-3.492 70.47-.058 78.173 3.448 7.688 9.713 15.787 23.284 15.992 13.587.22 19.25-.88 23.094-6.265z"/><path stroke="#fff" stroke-linecap="round" stroke-linejoin="round" stroke-miterlimit="10" stroke-width="2" d="M103.512 354.664S73.83 391.55 71.996 394.748M101.254 338.98s-37.018 42.051-38.852 45.249M90.339 331.16s-38.323 37.311-42.476 44.177M263.428 311.733s-10.139-24.311-16.213-23.974c-6.074.338-11.488 2.025-9.111 8.437 2.362 6.411 14.525 39.174 20.262 48.3 5.736 9.111 16.55 19.587 37.824 30.738 21.275 11.151 46.951 35.462 46.951 35.462s12.589-10.96 17.328-19.778c4.739-8.817 5.355-16.256 5.355-16.256s-6.881-9.17-11.474-20.644c-4.592-11.473-.293-32.968-1.437-47.596-1.145-14.628-20.072-38.411-30.386-39.849-10.315-1.438-45.586 7.453-51.323 12.618-5.737 5.164-8.598 31.251-5.165 37.839 3.433 6.588 7.454 7.453 7.454 7.453s3.433 11.753 8.319 12.618c4.871.866 8.319-2.289 8.319-2.289s7.747 8.892 13.19 2.011c5.443-6.882-1.438-26.381-1.438-26.381l19.778-.572"/><path stroke="#fff" stroke-linecap="round" stroke-linejoin="round" stroke-miterlimit="10" stroke-width="2" d="M290.116 334.799s-6.544-22.962-2.304-32.367c4.241-9.405 33.379-11.063 33.379-11.063"/><path stroke="#fff" stroke-linecap="round" stroke-linejoin="round" stroke-miterlimit="10" stroke-width="2" d="M274.417 325.952s-1.247-23.446 3.242-32.733c4.49-9.288 28.582-10.33 28.582-10.33M309.029 267.219s-23.417-14.569-30.239-11.987c-6.823 2.583-43.517 22.493-42.593 27.657.924 5.165 6.822 5.898 14.569 2.949 7.747-2.949 20.438-6.661 20.438-6.661M8.263 461.434S1 500.007 1 518.465M84.293 468.344c-.058.719 6.661 45.894 7.263 57.03"/><path fill="#fff" d="M328.543 397.918s-10.329 30.973-2.817 39.116c7.512 8.143 20.115-6.779 27.628-20.541 7.512-13.763 13.997-40.172 13.997-40.172s-13.44 24.487-17.665 28.713c-4.226 4.225-6.559 5.663-6.559 5.663l-14.584-12.779z"/><path stroke="#fff" stroke-linecap="round" stroke-linejoin="round" stroke-miterlimit="10" stroke-width="2" d="M365.809 374.648l93.431 59.583"/><path fill="#fff" d="M66.281 294.863s7.116-2.612 22.17-4.886c15.053-2.274 24.869 0 24.869 0"/><path stroke="#fff" stroke-linecap="round" stroke-linejoin="round" stroke-miterlimit="10" stroke-width="2" d="M66.281 294.863s7.116-2.612 22.17-4.886c15.053-2.274 24.869 0 24.869 0"/><path fill="#fff" d="M77.063 291.724s.352 18.208 14.892 16.814c14.54-1.394 11.737-20.145 11.737-20.145s-10.505.176-15.23 1.57c-4.738 1.409-11.4 1.761-11.4 1.761zM167.047 291.37s7.219-2.274 22.375-3.858c15.156-1.585 24.84 1.144 24.84 1.144"/><path stroke="#fff" stroke-linecap="round" stroke-linejoin="round" stroke-miterlimit="10" stroke-width="2" d="M167.047 291.37s7.219-2.274 22.375-3.858c15.156-1.585 24.84 1.144 24.84 1.144"/><path fill="#fff" d="M177.963 288.744s-.484 18.208 14.1 17.475c14.584-.734 12.647-19.573 12.647-19.573s-10.505-.308-15.288.866c-4.798 1.188-11.459 1.232-11.459 1.232z"/><path stroke="#fff" stroke-linecap="round" stroke-linejoin="round" stroke-width="2" d="M128.312 286.703s2.994-6.441 14.614-6.661c10.901-.22 14.378 5.502 14.378 5.502M81.48 266.676s58.968-44.808 68.548-45.381c9.567-.572 10.535 10.535 10.535 10.535M295.488 258.696s58.967-44.809 68.548-45.381c9.581-.572 10.535 10.535 10.535 10.535M205.549 162.035s-.265 14.936-3.61 26.527c-3.345 11.591-5.927 16.227-5.927 16.227s10.3 4.373 20.35 3.61"/><path fill="#fff" stroke="#fff" stroke-linecap="round" stroke-linejoin="round" stroke-width="2" d="M201.938 234.412l40.436-14.174s3.859 20.086-10.3 26.014c-14.173 5.928-30.136-11.84-30.136-11.84z"/><path stroke="#fff" stroke-linecap="round" stroke-linejoin="round" stroke-width="2" d="M295.547 249.745s16.33-12.398 18.736-39.306M158.406 129.712s14.144 70.925 30.46 129.584M331.742 200.446s21.113 63.486 18.913 72.583c-2.201 9.097-6.896 10.036-6.896 10.036M352.695 254.703c1.981-.66 203.297 41.375 203.297 261.237"/><path fill="#fff" d="M342.176 202.412c-5.385 4.622-13.631 2.803-16.682-3.609-2.098-4.416-3.742-9.199-2.744-11.914 2.215-6.001 12.955-14.232 8.847-25.925-4.108-11.694-16.124-21.818-19.279-6.324-3.154 15.494-5.37 18.648-13.278 15.171-7.908-3.477-3.155-62.591-18.34-72.392-15.186-9.801-36.666 9.17-50.575 12.016-13.909 2.847-29.711 16.433-56.898-3.154-27.188-19.602-27.496-25.295-33.188-41.727-5.693-16.433-7.586-30.342-7.586-30.342s33.188-.323 62.591-17.387c29.403-17.063 93.564-27.495 128.337.631 34.773 28.127 37.927 37.62 38.881 66.7.954 29.079.631 33.819 3.154 43.942 2.524 10.109 1.233 38.676-7.585 54.375-5.458 9.728-11.034 15.978-15.655 19.939z"/><path fill="#fff" d="M147.928 76.893s-13.586 16.433-10.755 49.944c2.847 33.511 28.831 85.509 34.274 69.135.587-1.761-17.885-90.909-10.27-107.033 7.615-16.125-13.249-12.046-13.249-12.046z"/><path stroke="#fff" stroke-linecap="round" stroke-linejoin="round" stroke-width="2" d="M325.242 434.641l47.64 83.103"/></svg>