<svg width="46" height="36" viewBox="0 0 46 36" fill="none" xmlns="http://www.w3.org/2000/svg">
<path d="M29.5167 0C29.0607 0.824517 28.6543 1.67603 28.2998 2.5499C24.8161 1.99368 21.2676 1.99368 17.784 2.5499C17.4295 1.67603 17.0231 0.824517 16.5671 0C13.2856 0.566081 10.0955 1.57987 7.08452 3.01352C1.70021 10.8586 -0.741618 20.3829 0.196451 29.8802C3.70532 32.5434 7.6435 34.5746 11.8373 35.8841C12.7922 34.6105 13.6445 33.2617 14.3859 31.8506C13.0176 31.3413 11.7025 30.6968 10.4597 29.9266C10.8005 29.6976 11.123 29.4418 11.424 29.1616C15.0482 30.9241 19.0192 31.8394 23.0419 31.8394C27.0646 31.8394 31.0356 30.9241 34.6597 29.1616C34.9812 29.4398 35.3026 29.6948 35.6241 29.9266C34.3745 30.6907 33.0607 31.3423 31.6979 31.8738C32.4085 33.3169 33.238 34.6972 34.1776 36C38.3661 34.695 42.2975 32.6633 45.7955 29.9961C46.7561 20.4971 44.3122 10.965 38.9074 3.12943C35.9302 1.6661 32.7717 0.613531 29.5167 0V0ZM15.4191 24.4559C14.2701 24.3726 13.1978 23.8432 12.4272 22.9787C11.6566 22.1143 11.2477 20.982 11.2862 19.8197C11.2418 18.6558 11.6487 17.5203 12.4205 16.6546C13.1923 15.7889 14.268 15.2611 15.4191 15.1835C16.5702 15.2611 17.6459 15.7889 18.4177 16.6546C19.1894 17.5203 19.5963 18.6558 19.5519 19.8197C19.5963 20.9836 19.1894 22.1191 18.4177 22.9848C17.6459 23.8505 16.5702 24.3783 15.4191 24.4559V24.4559ZM30.6647 24.4559C29.5157 24.3726 28.4434 23.8432 27.6728 22.9787C26.9022 22.1143 26.4932 20.982 26.5318 19.8197C26.4874 18.6558 26.8943 17.5203 27.6661 16.6546C28.4378 15.7889 29.5136 15.2611 30.6647 15.1835C31.8179 15.2553 32.8971 15.7814 33.67 16.6484C34.443 17.5155 34.8478 18.6543 34.7975 19.8197C34.8478 20.9851 34.443 22.1239 33.67 22.991C32.8971 23.858 31.8179 24.3841 30.6647 24.4559V24.4559Z" fill="white"/>
</svg>
