<svg xmlns="http://www.w3.org/2000/svg" fill="none" viewBox="0 0 636 588"><path fill="#161616" d="M309.132 92.796c-.231.272-1.456 4.07-5.073 6.455-3.617 2.385-5.677 2.682-5.677 2.682l.665 11.486s-3.38 4.308-8.613 5.205c-5.233.898-7.168-.09-8.645-1.647-1.481-1.547-2.807-4.392-2.807-4.392s-6.022.105-9.616-1.651c-3.593-1.756-9.397-9.504-10.522-16.046-1.124-6.543-.129-12.512-.129-12.512s-.593-24.417 6.24-22.5c6.823 1.912 31.592 17.469 37.189 18.17 15.673 2.968 6.988 14.75 6.988 14.75zM267.508 197.428s.403 2.462 3.149 2.867c2.751.395 21.565-6.372 30.362-12.179 8.797-5.808 29.77-27.064 29.77-27.064"/><path fill="#161616" d="M146.401 189.236s1.327-6.887 4.19-9.352c2.868-2.476 37.435-10.88 37.435-10.88s1.558-4.368 3.133-4.99c1.586-.618 26.262-7.204 27.995-7.815 1.732-.611 11.187-6.799 16.361-11.171 5.178-4.383 15.4-13.413 19.366-16.696 3.966-3.284 15.526-10.561 21.014-13.141 5.488-2.581 10.657-4.051 10.657-4.051l11.963-2.535 5.369 4.663-4.642 45.165-16.496 38.459s-9.494 3.879-12.093 3.381c-2.587-.493-2.856-5.868-3.783-8.683-.922-2.825-6.789-8.454-6.789-8.454l.88-3.422 7.856-3.643-6.816-13.262s-7.684 6.214-16.8 9.505c-9.115 3.291-26.068 8.825-29.029 9.806-2.961.982-15.784 6.311-17.809 5.749-2.025-.561-3.684-3.224-3.652-3.884l.032-.661-10.751 1.436-11.897 3.233s.474 4.558-1.387 6.751c-1.861 2.194-3.473 4.036-5.854 4.682-2.382.646-9.63 1.982-11.883.884-2.253-1.099-6.57-11.074-6.57-11.074z"/><path fill="#161616" stroke="#fff" stroke-linecap="round" stroke-linejoin="round" stroke-miterlimit="10" stroke-width="2.362" d="M182.401 341.741l-3.269-21.343-15.797 13.857-8.297 14.251 5.559 9.31 21.804-16.075z"/><path stroke="#fff" stroke-linecap="round" stroke-linejoin="round" stroke-miterlimit="10" stroke-width="2.362" d="M162.496 329.218s-2.114 4.451-8.344 8.463M160.871 322.491s-2.114 4.45-8.344 8.463M159.523 314.903s-2.113 4.451-8.343 8.463"/><path fill="#fff" d="M312.142 213.946s-58.099 32.656-62.879 36.882c-4.776 4.215-72.964 57.055-72.964 57.055s1.033 3.952 2.151 17.932c1.203 15.009 7.649 24.988 7.649 24.988l77.314-56.028s69.696-22.722 90.104-41.494c24.499-22.505-41.375-39.335-41.375-39.335z"/><path fill="#161616" stroke="#fff" stroke-linecap="round" stroke-linejoin="round" stroke-miterlimit="10" stroke-width="2.362" d="M115.956 486.683c-49.787-19.321-74.484-75.341-55.164-125.124 19.32-49.782 75.342-74.475 125.128-55.154 49.787 19.322 74.484 75.342 55.164 125.124-19.32 49.783-75.342 74.476-125.128 55.154z"/><path stroke="#F48B44" stroke-linecap="round" stroke-linejoin="round" stroke-miterlimit="10" stroke-width="6.017" d="M71.573 365.806c10.37-26.72 32.728-45.246 58.54-51.814"/><path stroke="#F48B44" stroke-linecap="round" stroke-linejoin="round" stroke-miterlimit="10" stroke-width="12" d="M46.163 364.157s20.527-66.764 88.176-75.027c92.988-11.353 118.982 72.432 118.982 72.432"/><path fill="#fff" stroke="#fff" stroke-linecap="round" stroke-linejoin="round" stroke-miterlimit="10" stroke-width="2.362" d="M148.55 402.693a6.6 6.6 0 1 1 4.775-12.305 6.6 6.6 0 0 1-4.775 12.305z"/><path fill="#161616" stroke="#fff" stroke-linecap="round" stroke-linejoin="round" stroke-miterlimit="10" stroke-width="2.362" d="M413.346 481.195c-49.786-19.322-74.484-75.342-55.163-125.124 19.32-49.782 75.342-74.476 125.128-55.154 49.786 19.322 74.484 75.342 55.164 125.124-19.321 49.783-75.343 74.476-125.129 55.154z"/><path stroke="#F48B44" stroke-linecap="round" stroke-linejoin="round" stroke-miterlimit="10" stroke-width="6.017" d="M525.804 421.125c16.606-42.787-4.621-90.935-47.412-107.542"/><path stroke="#F48B44" stroke-linecap="round" stroke-linejoin="round" stroke-miterlimit="10" stroke-width="12" d="M346.05 357.039s21.264-64.36 85.684-73.391c89.138-12.51 119.304 71.025 119.304 71.025"/><path stroke="#fff" stroke-linecap="round" stroke-linejoin="round" stroke-miterlimit="10" stroke-width="2.362" d="M202.187 194.236l-48.882 196.149M191.609 237.704l106.462 142.167 14.795 4.972M307.962 404.598l45.014-130.309 95.506 108.644"/><path stroke="#F48B44" stroke-linecap="round" stroke-linejoin="round" stroke-miterlimit="10" stroke-width="14.169" d="M353.337 273.845l45.46-8.238"/><path fill="#fff" stroke="#fff" stroke-linecap="round" stroke-linejoin="round" stroke-miterlimit="10" stroke-width="2.362" d="M296.059 442.711c-10.187-3.953-15.24-15.416-11.287-25.602 3.953-10.186 15.416-15.239 25.603-11.285 10.187 3.953 15.241 15.416 11.287 25.602-3.953 10.186-15.416 15.239-25.603 11.285z"/><path fill="#F48B44" stroke="#fff" stroke-miterlimit="10" stroke-width="2.362" d="M163.128 202.468s2.184 2.368 4.047 3.639c1.862 1.271 2.301 4.507.171 6.334-2.13 1.828-5.365.336-8.352-1.92-1.853-1.392-4.923-5.587-4.923-5.587l4.874-1.448 4.183-1.018z"/><path stroke="#fff" stroke-linecap="round" stroke-linejoin="round" stroke-miterlimit="10" stroke-width="2.362" d="M278.957 114.209s-19.388 7.666-32.768 21.141c-13.379 13.474-23.871 19.508-27.042 20.87-3.17 1.361-10.827 3.075-18.977 5.196-7.76 2.01-10.124 3.061-10.124 3.061s-1.754 2.784-2.037 4.543M199.824 187.299s41.506-12.603 49.9-16.797c8.395-4.193 12.022-7.085 12.022-7.085M258.827 156.38s6.184 12.58 7.935 15.615c1.751 3.035 2.06 4.102 2.06 4.102"/><path fill="#161616" d="M150.925 178.714s-5.312 2.836-5.979 8.695c-.684 6.003 1.449 12.451 5.419 15.836 3.363 2.863 7.734 1.78 9.55 1.114 1.311-.488 3.893-1.841 4.156-3.546.148-.927-.371-1.614-.371-1.614s.406-2.235-.17-3.48c-.576-1.246-1.432-1.254-1.432-1.254s.45-1.994-.295-3.093-3.47-2.107-4.473-1.512c-1.004.595-2.628 1.697-4.27 1.658-1.716-.043-2.815-.519-2.815-.519"/><path stroke="#fff" stroke-linecap="round" stroke-linejoin="round" stroke-miterlimit="10" stroke-width="2.362" d="M150.925 178.714s-5.312 2.836-5.979 8.695c-.684 6.003 1.449 12.451 5.419 15.836 3.363 2.863 7.734 1.78 9.55 1.114 1.311-.488 3.893-1.841 4.156-3.546.148-.927-.371-1.614-.371-1.614s.406-2.235-.17-3.48c-.576-1.246-1.432-1.254-1.432-1.254s.45-1.994-.295-3.093-3.47-2.107-4.473-1.512c-1.004.595-2.628 1.697-4.27 1.658-1.716-.043-2.815-.519-2.815-.519"/><path stroke="#fff" stroke-linecap="round" stroke-linejoin="round" stroke-miterlimit="10" stroke-width="2.362" d="M152.823 197.93s3.235.334 5.706-.863c2.471-1.197 3.561-2.594 3.561-2.594M156.488 201.547s2.134-.007 4.01-.699c1.876-.693 3.217-1.643 3.217-1.643M171.412 191.006s.489 2.495-1.6 5.149c-2.089 2.653-5.371 3.822-5.371 3.822"/><path fill="#F48B44" d="M155.59 184.027s3.38-3.474 4.311-4.333c.932-.86 2.144-.963 2.144-.963s.348 5.556 6.793 10.337c6.444 4.782 19.847 7.205 33.865 8.495 14.018 1.291 24.665 2.694 24.665 2.694s1.742 13.748 5.502 18.833c3.77 5.09 5.244 5.849 8.042 4.355 2.798-1.493 1.877-8.431-.208-13.464-2.084-5.033 8.246-18.42 8.246-18.42s2.85-6.284-2.206-10.564c-5.057-4.28-13.852-9.426-17.542-7.431-3.701 1.991-4.498 4.909-4.97 8.215-.484 3.301-1.096 7.799-1.096 7.799s-32.555-1.756-41.387-6.679-10.239-9.518-14.123-13.543c-3.884-4.025-12.287-3.984-15.051 1.598-2.765 5.581-3.67 11.672-3.67 11.672s1.09 1.109 3.122 1.461c2.031.353 3.563-.062 3.563-.062z"/><path fill="#161616" stroke="#fff" stroke-linecap="round" stroke-linejoin="round" stroke-miterlimit="10" stroke-width="2.362" d="M156.089 183.996s.173 4.341 2.05 5.219c2.985 1.395 3.973 1.355 4.765.565.788-.778 1.359-4.432 1.477-5.507.122-1.087.063-5.783-1.822-6.352-3.105-.956-6.47 6.075-6.47 6.075z"/><path stroke="#fff" stroke-linecap="round" stroke-linejoin="round" stroke-miterlimit="10" stroke-width="2.362" d="M237.914 187.491s.114-3.57 3.609-3.97M171.499 173.141l21.287-5.272s3.197 3.546 4.218 7.531c.722 2.798.611 6.904.611 6.904l-10.983 1.807M194.649 182.937s-.811 1.318 1.24 3.161"/><path fill="#161616" stroke="#fff" stroke-linecap="round" stroke-linejoin="round" stroke-miterlimit="10" stroke-width="2.362" d="M215.963 410.253l-8.805-16.102-11.051 11.038-6.458 15.164 6.678 8.548 19.636-18.648z"/><path fill="#fff" stroke="#fff" stroke-linecap="round" stroke-linejoin="round" stroke-width="2.362" d="M170.113 371.187s3.701.514 7.044 1.051c3.343.538 5.795 8.156 10.358 19.198 4.563 11.042 9.185 12.362 9.185 12.362s-4.305 9.52-3.069 17.925c.829 5.605 3.828 9.149 3.828 9.149s-3.86 5.032-8.144 7.594c-3.781 2.259-6.874 4.223-6.874 4.223s-9.709-10.335-12.853-32.677c-3.711-26.338.525-38.825.525-38.825z"/><path fill="#fff" stroke="#fff" stroke-linecap="round" stroke-linejoin="round" stroke-width="2.362" d="M168.791 369.157c.974.029 1.677.913 1.622 2.05-.242 5.377-.591 20.855 2.297 36.63 3.58 19.546 10.304 36.997 10.304 36.997l-5.276 2.55s-5.075-9.047-10.126-36.59c-5.009-27.328-2.574-41.76-2.574-41.76l3.753.123z"/><path stroke="#fff" stroke-linecap="round" stroke-linejoin="round" stroke-miterlimit="10" stroke-width="2.362" d="M191.715 400.976s-1.144 4.778-6.493 10.341M188.617 395.149s-1.144 4.777-6.493 10.34M185.605 388.45s-1.143 4.778-6.492 10.341"/><path fill="#fff" d="M325.474 214.184s-61.774 81.461-65.615 86.799c-3.841 5.338-61.981 78.465-61.981 78.465s1.899 3.391 6.095 16.147c4.498 13.684 13.151 21.154 13.151 21.154l65.032-74.925s64.48-42.678 80.244-66.629c31.116-47.265-36.926-61.011-36.926-61.011z"/><path fill="#161616" d="M282.738 196.9s1.694 3.76 1.344 6.042c-.349 2.282-1.554 5.515-1.138 7.558.405 2.039 1.55 4.901 1.283 5.62-1.414 3.675-1.776 13.952-1.776 13.952s18.396 3.85 25.762 18.522c8.336 16.606 34.495 10.758 53.724 16.701 22.947 7.086 31.209-15.391 31.209-15.391s-13.349-13.866-16.874-22.574c-6.405-15.831-10.322-34.897-13.313-44.98-2.991-10.083-9.328-29.814-18.049-45.074-8.721-15.26-22.424-22.273-29.151-24.111-6.727-1.838-14.822-3.073-14.822-3.073"/><path stroke="#fff" stroke-linecap="round" stroke-linejoin="round" stroke-miterlimit="10" stroke-width="2.362" d="M282.738 196.9s1.694 3.76 1.344 6.042c-.349 2.282-1.554 5.515-1.138 7.558.405 2.039 1.55 4.901 1.283 5.62-1.414 3.675-1.776 13.952-1.776 13.952s18.396 3.85 25.762 18.522c8.336 16.606 34.495 10.758 53.724 16.701 22.947 7.086 31.209-15.391 31.209-15.391s-13.349-13.866-16.874-22.574c-6.405-15.831-10.322-34.897-13.313-44.98-2.991-10.083-9.328-29.814-18.049-45.074-8.721-15.26-22.424-22.273-29.151-24.111-6.727-1.838-14.822-3.073-14.822-3.073"/><path stroke="#fff" stroke-linecap="round" stroke-linejoin="round" stroke-miterlimit="10" stroke-width="2.362" d="M331.505 244.572s12.917-2.103 23.928 4.239c11.01 6.342 12.342 7.631 17.82 7.676M283.224 220.676s.447-3.303 8.241-5.562c7.793-2.259 14.176-1.14 14.176-1.14M296.25 207.164s6.516-1.409 13.673-1.547c7.158-.139 8.47.782 9.373-.388.903-1.17-6.082-7.096-11.559-8.686-5.477-1.589-7.731-1.691-7.731-1.691M318.656 127.968s-7.6 5.486-14.527 14.761c-6.916 9.279-18.206 22.056-18.789 22.403-.583.347-3.811 3.431-7.417 6.331-3.616 2.896-15.598 6.956-16.71 8.344-1.112 1.388-1.064 3.45-1.064 3.45"/><path fill="#161616" stroke="#fff" stroke-linecap="round" stroke-linejoin="round" stroke-miterlimit="10" stroke-width="2.362" d="M270.115 196.584l-22.039 5.89s-.861 6.457-7.722 10.81c-6.865 4.364-16.57 1.208-19.212-2.422-1.37-1.865-2.015-7.362-2.314-10.605-.148-1.578.021-5.064 1.592-5.837 2.608-1.294 17.005-2.522 17.005-2.522l.479-4.413s2.929-.483 4.746.359c1.821.831 2.72 2.85 2.72 2.85l17.693-8.436s3.606 2.235 5.74 5.568c2.134 3.332 1.312 8.758 1.312 8.758z"/><path stroke="#fff" stroke-linecap="round" stroke-linejoin="round" stroke-miterlimit="10" stroke-width="2.362" d="M219.251 199.701s6.033 1.058 11.952-.483M219.513 204.486s6.032 1.058 11.952-.483M220.536 209.181s6.033 1.058 11.952-.483M308.734 403.552l135.602-19.587M314.683 441.112l132.649-42.677"/><path stroke="#fff" stroke-linecap="round" stroke-linejoin="round" stroke-miterlimit="10" stroke-width="7.085" d="M282.982 459.118l20.885-36.892M270.923 454.748l9.758 4.722"/><path fill="#fff" stroke="#fff" stroke-linecap="round" stroke-linejoin="round" stroke-miterlimit="10" stroke-width="2.362" d="M445.913 397.205a6.599 6.599 0 1 1 4.775-12.302 6.599 6.599 0 0 1-4.775 12.302z"/><path fill="#F48B44" d="M81.436 496.014c-27.182-3.65-31.959-41.58-6.238-51.088.48-.176 5.26-2.728 5.711-2.96 6.26-3.229 11.078-7.579 14.075-10.732.752-.792 2.052.025 1.668 1.054-1.612 4.252-4.066 9.98-6.4 12.521-2.35 2.553-3.084 5.429-.524 5.687 2.559.258 13.007 2.074 20.765-10.014 3.237-5.051 13.377-9.782 20.042-12.458 1.332-.53 2.429 1.146 1.402 2.156-3.481 3.427-7.884 8.147-9.502 11.527-2.849 5.911-7.569 13.356-3.212 17.939 4.357 4.583.979 10.615 3.896 12.468 2.91 1.85 17.935-1.781 22.871-9.555 4.933-7.766 11.273-19.184 22.204-24.963 5.147-2.721 10.487-5.91 14.712-8.532 1.392-.863 2.948.802 2.001 2.142-2.422 3.442-4.388 7.268-3.237 9.486 2.448 4.734 15.479-5.066 17.198-13.511.996-4.87 5.435-11.35 9.017-15.977 1.036-1.341 3.19-.402 2.908 1.265-.921 5.375-1.133 13.038 2.653 20.1 5.988 11.151 2.701 18.19-1.851 28.928-4.544 10.741-10.769 18.228-10.769 18.228s5.077 1.659 10.947-2.461c3.694-2.591 8.677-8.74 11.869-12.954.875-1.151 2.703-.396 2.517 1.036-.483 3.732-1.272 9.01-2.396 14.414-1.822 8.784-8.927 13.309-15.649 16.754-6.735 3.449-22.961 4.498-35.82.418-12.856-4.068-28.839-.804-39.875.572-15.783 1.988-34.287.746-50.983-1.49z"/><path fill="#FA1B43" d="M135.737 491.006s18.753-15.779 20.611-21.648c1.858-5.87 11.071-20.962 13.692-23.082 2.621-2.12 5.775-4.883 5.775-4.883s-5.562 7.596-6.106 18.618c-.541 11.034-2.321 14.347-2.321 14.347s3.712-1.722 7.37-6.803c3.658-5.081 9.366-10.188 9.366-10.188s-4.128 13.554-5.02 19.024c-.888 5.462-5.793 10.436-5.793 10.436s3.661.01 6.655-2.364c1.053-.838 3.402-3.924 3.402-3.924s-1.911 7.698-7.391 9.953c-5.48 2.255-13.258.489-20.247-.666-6.977-1.158-19.993 1.18-19.993 1.18zM85.673 491.319c2.436.231 6.49.501 9.793-1.49 3.315-1.994 6.899-8.667 6.899-8.667s-3.556.917-4.86 2.46c-1.303 1.543-4.483 2.424-4.483 2.424s1.18-3.724 3.906-6.39c2.727-2.666 2.92-9.391 2.92-9.391s-2.243 5.278-4.61 6.833c-2.367 1.555-6.708 2.168-8.876 4.898-2.175 2.725-8.652 7.24-8.652 7.24s3.9 1.699 7.963 2.083z"/><path fill="#F48B44" d="M430.413 491.641c-8.81-8.746-4.046-25.205 2.871-35.007 6.918-9.79 23.321-23.614 27.455-29.49 3.305-4.701 5.507-10.825 6.794-15.238.374-1.307 2.259-1.175 2.455.17.849 5.795 1.676 14.531.14 20.133-2.457 8.974-1.202 11.139-1.202 11.139s2.062 3.161 4.371-3.475c1.055-3.015 2.4-4.64 3.676-5.486 1.425-.952 3.362.271 3.169 1.971-.215 1.827.006 4.659 1.744 8.709 3.479 8.135 4.508 16.426 4.508 16.426l3.434-8.212c.414-.982 1.76-1.085 2.309-.165 2.031 3.441 5.414 10.695 3.587 18.416-3.501 14.813-15.095 20.693-31.565 24.665-8.53 2.044-25.126 3.996-33.746-4.556z"/><path fill="#FA1B43" d="M446.107 494.204c3.059.194 9.283-2.218 9.389-7.867.139-7.206-5.318-18.376-4.805-24.728.967-12.018 6.106-21.873 6.106-21.873s-8.06 8.124-10.257 16.641a115.616 115.616 0 0 1-3.994 12.369s-6.088-12.868-5.477-10.264c.3 1.297 1.384 5.102-1.684 11.495-3.215 6.698-3.06 12.645.392 18.456 1.613 2.716 6.166 5.513 10.33 5.771z"/><path stroke="#fff" stroke-linecap="round" stroke-linejoin="round" stroke-miterlimit="10" stroke-width="2.362" d="M261.245 64.666s-10.225 34.375 6.952 45.315c9.062 5.773 21.564-1.425 21.564-1.425"/><path stroke="#fff" stroke-linecap="round" stroke-linejoin="round" stroke-miterlimit="10" stroke-width="2.362" d="M279.123 112.367l.111.741c.499 3.433 4.618 6.726 11.37 5.384 8.108-1.626 8.877-5.726 8.877-5.726l-1.057-11.277s4.856-.856 7.308-3.095c2.44-2.243 3.639-6.102 3.639-6.102M270.125 196.588s.164 5.647 2.312 5.346c2.148-.3 9.443-4.485 15.434-8.266 3.68-2.322 22.573-13.047 29.816-19.669 7.805-7.139 12.625-11.499 12.625-11.499"/><path fill="#fff" d="M266.362 99.551c.178-1.626 1.356-2.832 2.631-2.692 1.276.14 2.166 1.57 1.989 3.197-.178 1.626-1.356 2.832-2.632 2.692-1.275-.139-2.165-1.57-1.988-3.197z"/><path fill="#F48B44" d="M343.016 107.743c.159-.025-1.535-.508-2.752-1.292-.955-.62-1.485-1.598-1.351-1.558 3.263.904 4.993 1.489 9.22 1.995 8.989 1.084 11.301-8.985 11.301-8.985s-3.244.747-5.443-.617c-2.274-1.43-2.85-3.287-2.899-3.48.261.226 4.17 3.575 9.583 2.087 10.815-2.98 11.807-17.674 11.807-17.674s-9.129 4.544-15.432-2.014c-6.303-6.558.239-13.652-19.771-13.181-7.675-4.948-15.547-11.416-34.15-16.368-12.99-3.458-20.224 4.712-20.224 4.712s-5.592-2.77-14.397 3.06-8.686 10.723-8.686 10.723-5.111 13.17 25.493 4.927c10.002 14.368 26.295 9.97 23.518 19.614-1.181 4.103-2.841 5.814-5.33 7.926-2.915 2.469-7.154 1.71-7.154 1.71s.407 10.205 1.545 11.22c3.765 3.368 14.157-.279 24.086-5.76 4.202-2.319 7.521-.433 11.04 1.93 4.417 2.973 8.895 1.196 9.996 1.025z"/><path stroke="#fff" stroke-linecap="round" stroke-linejoin="round" stroke-miterlimit="10" stroke-width="2.362" d="M268.222 86.688s-1.354 2.365-2.074 3.419c-.479.687.22 1.294 1.753 1.777"/><path fill="#F48B44" stroke="#fff" stroke-linecap="round" stroke-linejoin="round" stroke-width="2.362" d="M254.352 86.863c4.878 1.893 10.367-.526 12.26-5.404 1.893-4.877-.527-10.366-5.405-12.26-4.878-1.892-10.367.527-12.26 5.405-1.892 4.877.527 10.366 5.405 12.259zM277.524 94.429c4.878 1.893 10.367-.527 12.26-5.404 1.893-4.878-.527-10.367-5.405-12.26-4.878-1.893-10.367.527-12.26 5.404-1.893 4.878.527 10.367 5.405 12.26z"/><path stroke="#fff" stroke-linecap="round" stroke-linejoin="round" stroke-width="2.362" d="M267.257 77s1.213-1.165 3.799-.218c2.426.886 2.704 2.448 2.704 2.448M291.936 86.253s16.868-4.843 19.033-4.147c2.166.695 1.424 3.23 1.424 3.23"/></svg>