<svg xmlns="http://www.w3.org/2000/svg" fill="none" viewBox="0 0 386 89"><g clip-path="url(#clip0_416_330)"><g fill="#fff" filter="url(#filter0_d_416_330)"><path d="M171.426 70.656h5.416V43.548l12.812 27.108h2.612l12.784-27.108v27.08h5.444V31.067h-5.251L190.974 60.84l-14.352-29.775h-5.196v39.59zM229.716 71.481c2.878 0 5.49-.724 7.836-2.172 2.346-1.466 4.096-3.528 5.251-6.186l-5.636-1.787c-1.503 3.153-4.078 4.729-7.726 4.729-2.492 0-4.454-.752-5.883-2.255-1.43-1.503-2.264-3.629-2.502-6.378h22.132c.202-3.556-.22-6.626-1.265-9.21-1.044-2.585-2.63-4.573-4.756-5.966-2.126-1.412-4.701-2.117-7.726-2.117-2.896 0-5.434.65-7.615 1.952-2.181 1.301-3.886 3.143-5.114 5.526-1.21 2.383-1.815 5.196-1.815 8.44 0 3.061.614 5.756 1.842 8.083 1.247 2.31 2.979 4.115 5.197 5.416 2.236 1.284 4.829 1.925 7.78 1.925zm-.055-26.256c4.491 0 7.039 2.575 7.643 7.726h-16.111c.367-2.511 1.256-4.427 2.667-5.746 1.412-1.32 3.345-1.98 5.801-1.98zM264.698 70.656V65.79c-1.943.293-3.639.357-5.087.192-1.429-.183-2.474-.834-3.134-1.952-.348-.605-.541-1.347-.577-2.227-.019-.88-.028-1.915-.028-3.106V45.582h8.826v-4.618h-8.826v-8.248h-5.773v8.248h-5.691v4.618h5.691v13.39c0 1.612.018 3.06.055 4.343.055 1.265.403 2.512 1.044 3.74a6.7 6.7 0 0 0 3.217 3.024c1.411.641 3.015.99 4.811 1.045 1.797.055 3.62-.101 5.472-.468zM277.694 71.481c4.729 0 8.294-1.714 10.695-5.141v4.316h5.086V52.373c0-1.246-.055-2.41-.165-3.491a8.996 8.996 0 0 0-.88-3.08c-.916-1.96-2.364-3.39-4.344-4.289-1.961-.916-4.27-1.374-6.928-1.374-3.428 0-6.177.751-8.248 2.254-2.071 1.503-3.464 3.529-4.179 6.076l5.361 1.65c.513-1.65 1.421-2.841 2.722-3.574 1.301-.733 2.731-1.1 4.289-1.1 2.309 0 3.977.495 5.004 1.484 1.044.972 1.613 2.484 1.704 4.537-2.419.33-4.784.678-7.093 1.045-2.309.348-4.326.77-6.048 1.264-2.292.733-4.033 1.824-5.224 3.272-1.192 1.448-1.787 3.29-1.787 5.526 0 1.613.375 3.098 1.127 4.454.77 1.338 1.897 2.42 3.382 3.244 1.503.807 3.345 1.21 5.526 1.21zm1.017-4.701c-1.833 0-3.189-.422-4.069-1.265-.861-.843-1.292-1.842-1.292-2.997 0-1.173.385-2.098 1.155-2.777.788-.678 1.768-1.218 2.941-1.622 1.247-.366 2.713-.687 4.399-.962 1.705-.275 3.675-.577 5.911-.907a40.26 40.26 0 0 1-.137 2.337c-.073.861-.229 1.631-.468 2.31-.219.97-.687 1.905-1.402 2.803-.696.899-1.64 1.64-2.832 2.227-1.173.569-2.575.853-4.206.853zM298.937 83.853h5.774V68.567a10.992 10.992 0 0 0 3.601 2.144c1.375.513 2.905.77 4.592.77 2.767 0 5.15-.687 7.148-2.062 2.016-1.393 3.565-3.272 4.646-5.636 1.1-2.364 1.65-5.031 1.65-8 0-2.988-.55-5.655-1.65-8.001-1.099-2.365-2.667-4.225-4.701-5.581-2.016-1.375-4.417-2.062-7.203-2.062-1.833 0-3.483.311-4.949.934a11.095 11.095 0 0 0-3.794 2.557v-2.666h-5.114v42.889zm13.169-17.568c-2.822 0-4.875-.98-6.158-2.942-1.265-1.961-1.897-4.481-1.897-7.56 0-3.08.632-5.59 1.897-7.534 1.265-1.943 3.253-2.914 5.966-2.914 1.906 0 3.473.467 4.701 1.402 1.228.935 2.136 2.19 2.722 3.767.605 1.576.907 3.336.907 5.278 0 1.962-.293 3.74-.879 5.334-.587 1.576-1.485 2.832-2.695 3.767-1.191.934-2.712 1.402-4.564 1.402zM339.154 71.481c4.729 0 8.294-1.714 10.695-5.141v4.316h5.086V52.373c0-1.246-.055-2.41-.165-3.491a9.017 9.017 0 0 0-.879-3.08c-.917-1.96-2.365-3.39-4.344-4.289-1.962-.916-4.271-1.374-6.929-1.374-3.427 0-6.177.751-8.248 2.254-2.071 1.503-3.464 3.529-4.179 6.076l5.362 1.65c.513-1.65 1.42-2.841 2.721-3.574 1.302-.733 2.731-1.1 4.289-1.1 2.31 0 3.978.495 5.004 1.484 1.045.972 1.613 2.484 1.705 4.537-2.42.33-4.784.678-7.094 1.045-2.309.348-4.325.77-6.048 1.264-2.291.733-4.032 1.824-5.224 3.272-1.191 1.448-1.787 3.29-1.787 5.526 0 1.613.376 3.098 1.127 4.454.77 1.338 1.897 2.42 3.382 3.244 1.503.807 3.345 1.21 5.526 1.21zm1.017-4.701c-1.832 0-3.189-.422-4.069-1.265-.861-.843-1.292-1.842-1.292-2.997 0-1.173.385-2.098 1.155-2.777.788-.678 1.769-1.218 2.942-1.622 1.246-.366 2.712-.687 4.399-.962 1.704-.275 3.675-.577 5.911-.907a40.326 40.326 0 0 1-.138 2.337c-.073.861-.229 1.631-.467 2.31-.22.97-.687 1.905-1.402 2.803-.697.899-1.641 1.64-2.832 2.227-1.173.569-2.575.853-4.207.853zM357.126 70.656h6.846l7.615-10.53 7.561 10.53h6.846l-11.135-15.011 10.86-14.681H378.9l-7.313 10.2-7.395-10.2h-6.819l10.86 14.68-11.107 15.012z"/></g><path fill="#2C2C2C" fill-rule="evenodd" d="M72.534 73.141c-2.279-1.215-4.697-3.417-12.153-11.062-22.566-23.141-42.71-17.475-41.738-22.086.956-4.54 21.601-11.56 40.973-21.123C79.41 9.099 79.37 9.113 83.361 10.28c4.198 1.23 3.073-.046 28.912 32.784 12.89 16.379 17.32 21.844 17.735 21.886.644.064 12.155-16.234 12.269-17.37.048-.478-9.166-13.714-12.292-17.66l-1.416-1.785-1.321 1.141c-.726.628-2.732 2.516-4.458 4.195-2.686 2.614-4.649 7.187-6.171 8.578-1.589-.71-2.06-.849-2.134-.856-.623-.063-3.612-4.252-3.33-4.666 1.062-1.558 15.031-13.433 15.886-13.517 2.814-.276 3.804 1.432 12.881 14.451 5.472 7.85 5.752 8.422 5.624 11.483l-.068 1.63-1.04 1.807c-1.481 2.577-8.051 12.877-9.82 15.396-2.1 2.991-3.238 3.671-5.422 3.238-1.832-.363-3.185-1.895-18.718-21.215C87.477 21.194 83.148 16.034 82.3 16.213c-1.634.344-35.823 18.171-35.885 18.792-.086.852 27.353 29.862 29.481 31.231 1.45.934 2.372-.315 11.603-8.453.56-.495 3.878-3.48 7.371-6.633 3.494-3.153 6.594-5.938 6.89-6.189l.539-.455 2.617.805c1.878 2.245 1.522 4.202 1.269 4.462-.534.548-10.162 10.055-13.186 13.02-9.609 9.42-11.452 10.748-15.295 11.02-2.38.169-3.986-.04-5.17-.672z" clip-rule="evenodd"/><path fill="#fff" fill-rule="evenodd" d="M144.66 45.67c1.392 1.73.176 4.302-2.044 4.324l-17.287.17a.728.728 0 0 1-.71-.916.729.729 0 0 1 .535-.52l16.825-3.977a2.658 2.658 0 0 1 2.681.92zM48.81 36.882a2.78 2.78 0 0 1-2.423 3.784L13.032 42.66c-1.428.086-2.06-1.765-.877-2.57a1.41 1.41 0 0 1 .462-.205l31.792-7.672a2.78 2.78 0 0 1 3.242 1.693l1.16 2.975z" clip-rule="evenodd"/><path fill="#fff" fill-rule="evenodd" d="M76.309 72.746c-2.188-1.167-4.51-3.28-11.666-10.62-21.662-22.213-22.15-22.839-21.217-27.265.918-4.358 1.887-5.03 20.482-14.21 19-9.38 18.961-9.367 22.793-8.245 4.03 1.18 2.95-.045 27.753 31.47 12.374 15.721 16.625 20.968 17.025 21.008.617.061 11.667-15.583 11.776-16.674.046-.458-8.798-13.165-11.799-16.951l-1.359-1.715-1.268 1.096c-.697.603-2.623 2.415-4.279 4.027-4.277 4.16-7.793 7.43-7.973 7.412-.598-.06-3.467-4.081-3.196-4.479 1.02-1.495 14.429-12.895 15.249-12.975 2.702-.264 3.652 1.375 12.364 13.872 5.253 7.535 5.523 8.084 5.399 11.022l-.065 1.566-.998 1.734c-1.422 2.473-7.728 12.36-9.426 14.779-2.016 2.87-3.109 3.523-5.205 3.108-1.759-.349-3.057-1.82-17.968-20.365C90.652 22.881 86.498 17.928 85.683 18.1c-1.569.33-34.387 17.442-34.447 18.038-.082.818 26.257 28.665 28.3 29.98 1.392.896 2.277-.303 11.138-8.115.538-.475 3.722-3.34 7.075-6.367 3.354-3.027 6.33-5.7 6.614-5.94l.517-.438 2 2.39c1.803 2.154 1.973 2.417 1.73 2.666-.512.526-9.754 9.652-12.657 12.498C86.73 71.855 84.96 73.129 81.272 73.39c-2.285.162-3.827-.038-4.963-.644z" clip-rule="evenodd"/></g><defs><filter id="filter0_d_416_330" width="250.566" height="88.787" x="153.426" y="13.066" color-interpolation-filters="sRGB" filterUnits="userSpaceOnUse"><feFlood flood-opacity="0" result="BackgroundImageFix"/><feColorMatrix in="SourceAlpha" result="hardAlpha" values="0 0 0 0 0 0 0 0 0 0 0 0 0 0 0 0 0 0 127 0"/><feOffset/><feGaussianBlur stdDeviation="9"/><feComposite in2="hardAlpha" operator="out"/><feColorMatrix values="0 0 0 0 1 0 0 0 0 1 0 0 0 0 1 0 0 0 0.11 0"/><feBlend in2="BackgroundImageFix" result="effect1_dropShadow_416_330"/><feBlend in="SourceGraphic" in2="effect1_dropShadow_416_330" result="shape"/></filter><clipPath id="clip0_416_330"><path fill="#fff" d="M0 0h386v89H0z"/></clipPath></defs></svg>