<svg xmlns="http://www.w3.org/2000/svg" fill="none" viewBox="0 0 120 75"><g fill-rule="evenodd" clip-path="url(#clip0_416_325)" clip-rule="evenodd"><path fill="#2C2C2C" d="M48.639 66.143c-1.977-1.055-4.075-2.964-10.542-9.596C18.522 36.474 1.05 41.39 1.892 37.39c.83-3.938 18.738-10.027 35.541-18.322 17.168-8.476 17.134-8.463 20.596-7.45 3.642 1.066 2.666-.04 25.08 28.437 11.18 14.207 15.023 18.948 15.383 18.984.558.056 10.544-14.08 10.642-15.066.042-.415-7.95-11.897-10.662-15.319l-1.228-1.549-1.146.99c-.63.545-2.37 2.182-3.867 3.639-2.33 2.268-4.033 6.234-5.353 7.44-1.378-.615-1.787-.736-1.851-.742-.54-.054-3.133-3.688-2.888-4.047.921-1.352 13.038-11.652 13.78-11.725 2.44-.24 3.3 1.242 11.172 12.535 4.747 6.809 4.99 7.305 4.879 9.96l-.059 1.415-.902 1.567c-1.285 2.235-6.984 11.17-8.518 13.355-1.821 2.594-2.809 3.184-4.703 2.809-1.59-.315-2.763-1.645-16.236-18.403C61.6 21.083 57.845 16.607 57.109 16.762c-1.417.299-31.073 15.762-31.127 16.3-.074.74 23.727 25.903 25.573 27.091 1.258.81 2.057-.273 10.064-7.332.487-.43 3.364-3.018 6.394-5.754 3.03-2.735 5.72-5.15 5.977-5.368l.467-.395 2.27.699c1.63 1.946 1.32 3.644 1.1 3.87A3239.1 3239.1 0 0 1 66.39 57.166c-8.335 8.172-9.934 9.323-13.267 9.56-2.064.146-3.457-.035-4.484-.583z"/><path fill="#fff" d="M111.197 42.314c1.208 1.5.153 3.732-1.773 3.75l-14.995.148a.63.63 0 1 1-.151-1.244l14.593-3.451a2.306 2.306 0 0 1 2.326.797zM28.064 34.69a2.411 2.411 0 0 1-2.102 3.283l-28.933 1.731c-1.238.074-1.786-1.531-.76-2.23.121-.082.257-.142.4-.177l27.577-6.655a2.411 2.411 0 0 1 2.812 1.468l1.006 2.58z"/><path fill="#fff" d="M51.914 65.8c-1.897-1.012-3.911-2.846-10.119-9.211-18.79-19.269-19.212-19.812-18.404-23.652.797-3.78 1.637-4.363 17.767-12.326 16.48-8.136 16.447-8.124 19.77-7.151 3.496 1.023 2.56-.039 24.074 27.297C95.735 54.394 99.423 58.945 99.77 58.98c.536.054 10.121-13.517 10.216-14.463.039-.398-7.632-11.42-10.236-14.704l-1.178-1.487-1.1.95c-.605.524-2.275 2.095-3.712 3.493-3.71 3.61-6.76 6.445-6.915 6.43-.519-.052-3.008-3.54-2.772-3.885.884-1.297 12.515-11.185 13.226-11.255 2.344-.23 3.168 1.192 10.725 12.033 4.557 6.535 4.79 7.012 4.684 9.56l-.057 1.358-.866 1.505c-1.233 2.145-6.704 10.721-8.176 12.82-1.749 2.49-2.697 3.056-4.515 2.695-1.526-.302-2.652-1.578-15.585-17.664-19.152-23.82-22.756-28.116-23.463-27.967-1.36.286-29.827 15.13-29.88 15.646-.07.71 22.777 24.865 24.548 26.005 1.208.778 1.975-.262 9.661-7.038.467-.412 3.23-2.897 6.138-5.523a909.311 909.311 0 0 1 5.737-5.153l.448-.38 1.735 2.073c1.564 1.869 1.712 2.097 1.5 2.313-.443.456-8.46 8.372-10.978 10.84-8.001 7.845-9.535 8.95-12.735 9.177-1.982.14-3.32-.033-4.305-.56z"/></g><defs><clipPath id="clip0_416_325"><path fill="#fff" d="M0 0h120v75H0z"/></clipPath></defs></svg>