<svg xmlns="http://www.w3.org/2000/svg" fill="none" viewBox="0 0 372 65"><g fill="#fff" filter="url(#filter0_i_757_292)"><path d="M158.934 63.092V21.9h5.406l14.932 30.98 14.846-30.98h5.464v41.163h-5.664V34.887l-13.302 28.205h-2.717l-13.33-28.205v28.205h-5.635zM217.865 63.95c-3.07 0-5.769-.668-8.095-2.002-2.308-1.354-4.11-3.233-5.406-5.636-1.278-2.421-1.917-5.225-1.917-8.41 0-3.375.629-6.302 1.888-8.781 1.278-2.48 3.051-4.396 5.32-5.75 2.27-1.354 4.911-2.03 7.924-2.03 3.147 0 5.826.733 8.038 2.202 2.212 1.449 3.862 3.518 4.949 6.207 1.106 2.689 1.545 5.883 1.316 9.583h-5.979v-2.174c-.038-3.585-.724-6.236-2.059-7.953-1.316-1.716-3.328-2.574-6.036-2.574-2.994 0-5.244.944-6.751 2.832-1.506 1.888-2.26 4.615-2.26 8.181 0 3.394.754 6.026 2.26 7.895 1.507 1.85 3.681 2.775 6.522 2.775 1.869 0 3.48-.42 4.834-1.259 1.373-.858 2.441-2.078 3.204-3.661l5.864 1.859c-1.201 2.765-3.022 4.91-5.463 6.436-2.441 1.507-5.159 2.26-8.153 2.26zm-11.013-14.617V44.67h22.055v4.663h-22.055zM252.545 63.092a25.596 25.596 0 0 1-5.721.486c-1.869-.057-3.538-.42-5.006-1.087a6.825 6.825 0 0 1-3.318-3.146c-.668-1.278-1.03-2.575-1.087-3.89a160.393 160.393 0 0 1-.057-4.52V23.617h6.007v27.032c0 1.24.009 2.317.028 3.232.038.915.239 1.688.601 2.317.686 1.182 1.773 1.86 3.261 2.031 1.507.153 3.27.086 5.292-.2v5.063zm-21.111-26.088v-4.806h21.111v4.806h-21.111zM264.35 63.95c-2.288 0-4.205-.42-5.749-1.259-1.545-.858-2.718-1.983-3.519-3.375-.782-1.411-1.173-2.956-1.173-4.634 0-1.564.277-2.937.83-4.12.553-1.182 1.373-2.183 2.46-3.003 1.087-.839 2.422-1.516 4.005-2.03 1.373-.401 2.927-.754 4.662-1.06 1.736-.304 3.557-.59 5.464-.857 1.926-.267 3.833-.534 5.721-.801l-2.174 1.201c.038-2.422-.477-4.214-1.545-5.378-1.048-1.182-2.86-1.773-5.435-1.773-1.621 0-3.108.381-4.462 1.144-1.354.744-2.298 1.983-2.832 3.719l-5.578-1.716c.763-2.651 2.212-4.759 4.348-6.322 2.155-1.564 5.015-2.346 8.582-2.346 2.765 0 5.168.477 7.208 1.43 2.06.935 3.566 2.422 4.52 4.463a9.355 9.355 0 0 1 .915 3.204c.115 1.125.172 2.336.172 3.632v19.023h-5.292v-7.066l1.03.916c-1.278 2.364-2.909 4.128-4.892 5.292-1.964 1.144-4.386 1.716-7.266 1.716zm1.059-4.892c1.697 0 3.156-.295 4.376-.886 1.221-.61 2.203-1.383 2.947-2.317.743-.935 1.23-1.907 1.459-2.918.324-.915.505-1.945.543-3.09.057-1.144.086-2.059.086-2.745l1.945.715c-1.888.286-3.604.543-5.149.772-1.545.229-2.946.458-4.205.687-1.239.21-2.346.467-3.318.772-.82.286-1.554.63-2.203 1.03-.629.4-1.134.886-1.516 1.458-.362.573-.543 1.269-.543 2.089 0 .8.2 1.544.6 2.23.401.668 1.011 1.202 1.831 1.603.82.4 1.869.6 3.147.6zM284.765 63.092V21.9h16.648c.401 0 .897.02 1.488.058.591.019 1.153.076 1.687.171 2.289.363 4.196 1.144 5.721 2.346a11.041 11.041 0 0 1 3.462 4.548c.763 1.83 1.144 3.852 1.144 6.064 0 2.232-.381 4.262-1.144 6.093a11.042 11.042 0 0 1-3.462 4.548c-1.525 1.202-3.432 1.984-5.721 2.346-.534.076-1.106.134-1.716.172a23.51 23.51 0 0 1-1.459.057h-10.669v14.789h-5.979zm5.979-20.453h10.44c.382 0 .801-.019 1.259-.057a9.493 9.493 0 0 0 1.345-.2c1.22-.286 2.202-.81 2.946-1.574a6.922 6.922 0 0 0 1.602-2.688 9.884 9.884 0 0 0 .486-3.033c0-1.01-.162-2.012-.486-3.003a6.684 6.684 0 0 0-1.602-2.66c-.744-.782-1.726-1.316-2.946-1.602a7.33 7.33 0 0 0-1.345-.23 15.27 15.27 0 0 0-1.259-.056h-10.44v15.103zM324.975 63.95c-2.288 0-4.205-.42-5.749-1.259-1.545-.858-2.718-1.983-3.519-3.375-.782-1.411-1.172-2.956-1.172-4.634 0-1.564.276-2.937.829-4.12.553-1.182 1.373-2.183 2.46-3.003 1.087-.839 2.422-1.516 4.005-2.03 1.373-.401 2.927-.754 4.663-1.06 1.735-.304 3.556-.59 5.463-.857 1.926-.267 3.833-.534 5.721-.801l-2.174 1.201c.038-2.422-.477-4.214-1.545-5.378-1.048-1.182-2.86-1.773-5.435-1.773-1.62 0-3.108.381-4.462 1.144-1.354.744-2.298 1.983-2.832 3.719l-5.578-1.716c.763-2.651 2.212-4.759 4.348-6.322 2.155-1.564 5.016-2.346 8.582-2.346 2.765 0 5.168.477 7.208 1.43 2.06.935 3.566 2.422 4.52 4.463a9.355 9.355 0 0 1 .915 3.204c.115 1.125.172 2.336.172 3.632v19.023h-5.292v-7.066l1.03.916c-1.278 2.364-2.909 4.128-4.892 5.292-1.964 1.144-4.386 1.716-7.266 1.716zm1.059-4.892c1.697 0 3.156-.295 4.376-.886 1.221-.61 2.203-1.383 2.947-2.317.743-.935 1.23-1.907 1.459-2.918.324-.915.505-1.945.543-3.09.057-1.144.086-2.059.086-2.745l1.945.715c-1.888.286-3.604.543-5.149.772-1.545.229-2.946.458-4.205.687-1.239.21-2.345.467-3.318.772-.82.286-1.554.63-2.203 1.03-.629.4-1.134.886-1.516 1.458-.362.573-.543 1.269-.543 2.089 0 .8.2 1.544.601 2.23.4.668 1.01 1.202 1.83 1.603.82.4 1.869.6 3.147.6zM341.958 63.092l11.556-15.619-11.299-15.275h7.094l7.695 10.613 7.609-10.613h7.094l-11.299 15.275 11.585 15.619h-7.123l-7.866-10.956-7.924 10.956h-7.122z"/></g><path fill="#2C2C2C" fill-rule="evenodd" d="M61.535 64.141c-2.28-1.215-4.698-3.417-12.153-11.062C26.815 29.938 6.672 35.605 7.643 30.993c.956-4.54 21.602-11.56 40.973-21.123C68.41.099 68.37.113 72.361 1.282c4.198 1.229 3.073-.047 28.912 32.783 12.89 16.379 17.32 21.844 17.735 21.886.644.065 12.155-16.233 12.269-17.37.048-.478-9.166-13.714-12.292-17.66l-1.416-1.785-1.321 1.142c-.726.628-2.732 2.515-4.458 4.194-2.686 2.614-4.649 7.187-6.171 8.578-1.589-.71-2.06-.849-2.134-.856-.623-.063-3.612-4.252-3.33-4.666 1.062-1.558 15.031-13.433 15.886-13.517 2.814-.275 3.804 1.432 12.881 14.451 5.472 7.85 5.752 8.422 5.624 11.483l-.068 1.63-1.04 1.808c-1.481 2.576-8.051 12.876-9.82 15.395-2.1 2.991-3.238 3.671-5.422 3.239-1.832-.364-3.185-1.896-18.718-21.216C76.477 12.194 72.148 7.034 71.3 7.213c-1.634.344-35.823 18.171-35.885 18.792-.085.852 27.354 29.862 29.481 31.231 1.451.934 2.372-.315 11.603-8.453.561-.494 3.878-3.48 7.372-6.633 3.493-3.153 6.593-5.938 6.89-6.189l.538-.455 2.617.806c1.878 2.244 1.522 4.201 1.27 4.461-.535.548-10.163 10.055-13.187 13.02-9.609 9.42-11.452 10.748-15.294 11.02-2.38.169-3.987-.04-5.17-.672z" clip-rule="evenodd"/><path fill="#fff" fill-rule="evenodd" d="M133.66 36.67c1.392 1.73.176 4.302-2.044 4.324l-17.287.17a.728.728 0 0 1-.175-1.435l16.825-3.978a2.658 2.658 0 0 1 2.681.92zM37.81 27.882a2.78 2.78 0 0 1-2.424 3.784L2.031 33.662c-1.428.085-2.059-1.765-.877-2.57a1.41 1.41 0 0 1 .463-.205l31.792-7.672a2.78 2.78 0 0 1 3.242 1.692l1.16 2.975z" clip-rule="evenodd"/><path fill="#fff" fill-rule="evenodd" d="M65.308 63.746c-2.187-1.167-4.509-3.28-11.665-10.619-21.662-22.214-22.15-22.84-21.217-27.266.918-4.358 1.887-5.03 20.482-14.21 18.999-9.38 18.96-9.367 22.793-8.245 4.03 1.18 2.95-.045 27.753 31.47 12.374 15.721 16.625 20.968 17.025 21.008.617.062 11.667-15.583 11.776-16.674.046-.458-8.798-13.164-11.799-16.951l-1.359-1.715-1.268 1.096c-.697.603-2.623 2.415-4.279 4.027-4.277 4.161-7.793 7.43-7.973 7.412-.598-.06-3.467-4.081-3.196-4.479 1.02-1.495 14.429-12.894 15.249-12.975 2.702-.264 3.652 1.375 12.364 13.872 5.253 7.535 5.523 8.084 5.399 11.022l-.065 1.566-.998 1.734c-1.422 2.473-7.728 12.36-9.426 14.779-2.016 2.87-3.109 3.523-5.205 3.108-1.759-.348-3.057-1.82-17.968-20.365C79.651 13.881 75.497 8.928 74.682 9.1c-1.568.33-34.387 17.442-34.446 18.038-.082.818 26.257 28.665 28.3 29.98 1.392.896 2.276-.303 11.137-8.115.538-.474 3.722-3.34 7.076-6.367 3.354-3.027 6.33-5.7 6.614-5.94l.516-.438 2 2.39c1.803 2.154 1.974 2.417 1.73 2.667-.511.525-9.754 9.65-12.656 12.497C75.729 62.855 73.96 64.129 70.27 64.39c-2.285.161-3.826-.039-4.963-.645z" clip-rule="evenodd"/><defs><filter id="filter0_i_757_292" width="213.059" height="42.05" x="158.934" y="21.9" color-interpolation-filters="sRGB" filterUnits="userSpaceOnUse"><feFlood flood-opacity="0" result="BackgroundImageFix"/><feBlend in="SourceGraphic" in2="BackgroundImageFix" result="shape"/><feColorMatrix in="SourceAlpha" result="hardAlpha" values="0 0 0 0 0 0 0 0 0 0 0 0 0 0 0 0 0 0 127 0"/><feOffset/><feGaussianBlur stdDeviation="9"/><feComposite in2="hardAlpha" k2="-1" k3="1" operator="arithmetic"/><feColorMatrix values="0 0 0 0 1 0 0 0 0 1 0 0 0 0 1 0 0 0 0.11 0"/><feBlend in2="shape" result="effect1_innerShadow_757_292"/></filter></defs></svg>