<svg width="46" height="46" viewBox="0 0 46 46" fill="none" xmlns="http://www.w3.org/2000/svg">
<path fill-rule="evenodd" clip-rule="evenodd" d="M7 0C3.13403 0 0 3.13403 0 7V39C0 42.866 3.13403 46 7 46H39C42.866 46 46 42.866 46 39V7C46 3.13403 42.866 0 39 0H7ZM11.1157 14.9403C11.3828 15.1194 11.5608 15.5671 11.5608 15.9254V29.2687C11.6499 29.7164 11.4718 30.2538 11.1157 30.6119L8 34.4626V34.9104H16.9021V34.4626L13.7864 30.6119C13.4303 30.2538 13.2522 29.7164 13.3412 29.2687V17.7164L21.175 34.9104H22.0653L28.8308 17.7164V31.418C28.8308 31.7761 28.8308 31.8657 28.5638 32.1343L26.1603 34.4626V35H38V34.4626L35.5964 32.2239C35.5089 32.1359 35.4429 32.0261 35.3984 31.9054C35.3524 31.7806 35.3293 31.644 35.3293 31.5074V14.4926C35.3293 14.2239 35.4185 13.9552 35.5964 13.8657L38 11.5374V11H29.7211L23.7567 25.8657L17.0801 11H8.35608V11.5374L11.1157 14.9403Z" fill="white"/>
</svg>
