<svg xmlns="http://www.w3.org/2000/svg" fill="none" viewBox="0 0 199 40"><path fill="#F48B44" d="M0 39.184h4.443V10.64L17.3 39.183h2.498L32.655 10.64v28.517H37.1V0h-4.312L18.563 31.21 4.258 0H0v39.184zM54.673 40c2.752 0 5.232-.708 7.44-2.122 2.209-1.434 3.874-3.447 4.996-6.041l-4.496-1.606c-1.63 3.447-4.347 5.17-8.15 5.17-2.612 0-4.663-.825-6.153-2.476-1.473-1.669-2.305-4.027-2.498-7.075h21.77c.14-3.483-.298-6.485-1.314-9.007-1-2.521-2.507-4.462-4.523-5.823-1.998-1.36-4.426-2.04-7.283-2.04-2.752 0-5.153.644-7.204 1.932-2.05 1.27-3.646 3.083-4.785 5.442-1.122 2.34-1.683 5.115-1.683 8.326 0 3.066.57 5.75 1.71 8.055 1.156 2.285 2.778 4.072 4.863 5.36C49.45 39.365 51.886 40 54.673 40zm-.053-26.667c4.82 0 7.52 2.876 8.098 8.626H45.891c.333-2.793 1.236-4.925 2.708-6.394 1.473-1.488 3.48-2.232 6.021-2.232zM87.187 39.184V35.02c-1.946.309-3.61.363-4.996.164-1.367-.2-2.366-.88-2.997-2.041-.333-.617-.517-1.343-.552-2.177a154.71 154.71 0 0 1-.026-3.102V13.796h8.57v-4h-8.57V1.633h-4.68v8.163h-5.759v4h5.758v14.286c0 1.523.018 2.884.053 4.081.053 1.18.36 2.34.92 3.483.666 1.325 1.64 2.304 2.919 2.939 1.28.617 2.734.952 4.364 1.007a20.353 20.353 0 0 0 4.996-.408zM98.92 40c4.733 0 8.239-1.796 10.517-5.388v4.572h4.155V21.007c0-1.161-.053-2.268-.158-3.32a9.552 9.552 0 0 0-.763-2.966c-.806-1.923-2.138-3.356-3.996-4.3-1.858-.96-4.067-1.441-6.626-1.441-3.208 0-5.802.734-7.782 2.204-1.964 1.47-3.278 3.492-3.944 6.068l4.443 1.388c.508-1.797 1.411-3.103 2.708-3.919 1.297-.816 2.805-1.224 4.523-1.224 2.454 0 4.215.571 5.284 1.714 1.087 1.125 1.657 2.857 1.709 5.197-2.103.309-4.312.635-6.625.98-2.297.326-4.339.734-6.126 1.224-2.157.653-3.857 1.678-5.101 3.075-1.245 1.379-1.867 3.23-1.867 5.551 0 1.578.36 3.03 1.078 4.354.736 1.324 1.814 2.394 3.234 3.21C95.02 39.602 96.799 40 98.92 40zm.71-4.054c-2.015 0-3.47-.481-4.364-1.443-.894-.98-1.341-2.077-1.341-3.292 0-1.379.438-2.431 1.314-3.157a9.267 9.267 0 0 1 3.103-1.687c1.385-.399 2.997-.734 4.838-1.007 1.84-.272 3.76-.544 5.758-.816 0 .671-.035 1.433-.105 2.286a11.641 11.641 0 0 1-.369 2.34c-.333 1.814-1.262 3.401-2.787 4.762-1.507 1.342-3.523 2.014-6.047 2.014zM118.324 39.184h4.68V24.708h10.281c.35 0 .78-.019 1.288-.055.508-.036 1.008-.09 1.499-.163 3.049-.49 5.372-1.85 6.967-4.082 1.595-2.25 2.393-4.934 2.393-8.054s-.798-5.796-2.393-8.027c-1.578-2.25-3.9-3.62-6.967-4.11-.491-.09-.991-.144-1.499-.163A17.75 17.75 0 0 0 133.285 0h-14.961v39.184zm4.68-19.075V4.599h10.123c.333 0 .71.018 1.13.054.439.036.85.1 1.236.19 1.823.418 3.138 1.37 3.944 2.858.806 1.47 1.209 3.02 1.209 4.653 0 1.632-.403 3.193-1.209 4.68-.806 1.47-2.121 2.413-3.944 2.83-.386.09-.797.154-1.236.19-.42.037-.797.055-1.13.055h-10.123zM155.617 40c4.733 0 8.239-1.796 10.517-5.388v4.572h4.155V21.007c0-1.161-.053-2.268-.158-3.32a9.525 9.525 0 0 0-.763-2.966c-.806-1.923-2.138-3.356-3.996-4.3-1.858-.96-4.067-1.441-6.626-1.441-3.207 0-5.802.734-7.782 2.204-1.963 1.47-3.278 3.492-3.944 6.068l4.443 1.388c.509-1.797 1.411-3.103 2.708-3.919 1.298-.816 2.805-1.224 4.523-1.224 2.454 0 4.215.571 5.284 1.714 1.087 1.125 1.657 2.857 1.709 5.197-2.103.309-4.311.635-6.625.98-2.296.326-4.338.734-6.126 1.224-2.156.653-3.857 1.678-5.101 3.075-1.245 1.379-1.867 3.23-1.867 5.551 0 1.578.359 3.03 1.078 4.354.736 1.324 1.814 2.394 3.234 3.21 1.437.799 3.217 1.198 5.337 1.198zm.71-4.054c-2.015 0-3.47-.481-4.364-1.443-.894-.98-1.341-2.077-1.341-3.292 0-1.379.438-2.431 1.315-3.157a9.26 9.26 0 0 1 3.102-1.687c1.385-.399 2.997-.734 4.838-1.007 1.84-.272 3.76-.544 5.758-.816 0 .671-.035 1.433-.105 2.286a11.715 11.715 0 0 1-.368 2.34c-.333 1.814-1.262 3.401-2.787 4.762-1.508 1.342-3.524 2.014-6.048 2.014zM171.866 39.184h5.6l7.993-11.102 7.941 11.102h5.6l-10.885-14.857 10.622-14.531h-5.574l-7.704 10.775-7.782-10.775h-5.574l10.622 14.53-10.859 14.858z"/></svg>