<svg xmlns="http://www.w3.org/2000/svg" fill="none" viewBox="0 0 283 334"><path fill="#fff" d="M216.011 33.131a2.977 2.977 0 1 0 2.056-5.587 2.977 2.977 0 0 0-2.056 5.587z"/><path fill="#fff" d="M216.14 30.058l-12.722 8.853 5.45 4.478 8.021-12.17-.749-1.16z"/><path fill="#fff" stroke="#161616" stroke-linecap="round" stroke-linejoin="round" stroke-miterlimit="10" stroke-width="2" d="M137.128 25.553S76.913.828 68.468 3.589C60.02 6.36 240.265 188.326 240.265 188.326s10.222-7.949-.123-38.311c-10.344-30.362-20.769-48.619-20.769-48.619s-23.691-48.042-36.149-57.002c-12.458-8.96-46.096-18.841-46.096-18.841z"/><path fill="#161616" stroke="#fff" stroke-linecap="round" stroke-linejoin="round" stroke-miterlimit="10" stroke-width="2" d="M138.33 26.233s33.956-16.7 67.501 9.523c33.533 26.22 14.682 67.422 14.682 67.422s-7.333-15.415-29.987-39.732C163.427 34.36 138.33 26.234 138.33 26.234z"/><path fill="#161616" stroke="#fff" stroke-linecap="round" stroke-linejoin="round" stroke-width="2" d="M240.921 189.402c-9.265 7.971-59.049-23.727-108.469-74.047C83.012 65.014 54.684 15.027 64.478 4.793c8.443-8.829 61.756 20.573 110.472 71.586 51.997 54.454 77.066 103.492 65.971 113.023z"/><path fill="#F48B44" d="M108.309 62.848s20.313 5.467 45.512 33.933c23.295 26.311 27.238 45.514 27.238 45.514s-15.006-2.073-24.594-5.866c-24.713-9.782-42.173-24.257-48.188-57.19-2.034-11.137.032-16.391.032-16.391z"/><path stroke="#F48B44" stroke-linecap="round" stroke-linejoin="round" stroke-miterlimit="10" stroke-width="2" d="M86.294 115.357l-70.537 25.481M2.827 215.007l91.8-81.897M117.462 150.932L1.989 323.982M136.125 156.873L107.1 315.261"/></svg>