<svg xmlns="http://www.w3.org/2000/svg" fill="none" viewBox="0 0 264 446"><path fill="#161616" stroke="#fff" stroke-linecap="round" stroke-linejoin="round" stroke-miterlimit="10" stroke-width="2" d="M182.307 171.354S1 416.264 1 423.943c0 7.679 141.844 24.33 159.187 20.49C177.53 440.594 263 415.841 263 407.292c0-3.84-103.521-.858-175.898-.858-21.67 0-37.787 0-38.4-1.28C48.09 403.874 178 243.5 178 243.5l4.307-72.146z"/><path fill="#161616" stroke="#fff" stroke-linecap="round" stroke-linejoin="round" stroke-miterlimit="10" stroke-width="2" d="M244.625 91.673l-2.723 251.977-68.451 70.856-7.998-1.599 3.2-409.898L175.857 1l68.768 90.673z"/><path stroke="#fff" stroke-linecap="round" stroke-linejoin="round" stroke-miterlimit="10" stroke-width="2" d="M173.45 414.506L175.855 1"/><mask id="a" style="mask-type:alpha" width="65" height="330" x="177" y="20" maskUnits="userSpaceOnUse"><path fill="#F48B44" stroke="#fff" stroke-linecap="round" stroke-linejoin="round" stroke-miterlimit="10" stroke-width="2" d="M178.344 348.118l58.549-40.505 3.318-210.64-58.919-75.496-2.948 326.641z"/></mask><g mask="url(#a)"><path fill="#F48B44" stroke="#fff" stroke-linecap="round" stroke-linejoin="round" stroke-miterlimit="10" stroke-width="2" d="M178.344 348.118l58.549-40.505 3.318-210.64-58.919-75.496-2.948 326.641z"/></g></svg>