<svg xmlns="http://www.w3.org/2000/svg" fill="none" viewBox="0 0 300 93"><mask id="a" style="mask-type:alpha" width="300" height="93" x="0" y="0" maskUnits="userSpaceOnUse"><rect width="300" height="93" fill="#C4C4C4" rx="20"/></mask><g mask="url(#a)"><path fill="#fff" d="M74.958 31.189c.613-4.454-5.659-8.121-10.363-8.499-2.25-.181-4.58.161-6.708-.584-4.61-1.612-6.453-7.587-10.951-9.491-3.364-1.42-7.236-.156-10.495 1.511-3.258 1.668-6.482 3.718-10.122 3.955-3.168.201-6.608-.978-9.38.574-2.068 1.159-3.148 3.526-5.05 4.957-1.904 1.43-4.294 1.667-6.603 1.793-2.31.126-4.705.151-6.809 1.119-2.104.967-3.846 3.199-3.41 5.476l79.891-.811zM-36.07 24.726c.183-1.328-1.694-2.422-3.106-2.536-.671-.054-1.37.048-2.005-.174-1.383-.483-1.934-2.263-3.28-2.833-1.008-.423-2.165-.045-3.142.447-.978.491-1.94 1.109-3.031 1.178-.95.06-1.98-.3-2.81.17-.617.348-.941 1.06-1.499 1.479-.557.42-1.286.5-1.978.537-.693.035-1.41.044-2.04.332-.629.288-1.15.957-1.018 1.637l23.91-.237zM-66.032 46.404c.466-3.346-4.31-6.097-7.909-6.376-1.708-.144-3.489.117-5.105-.442-3.517-1.209-4.923-5.691-8.357-7.125-2.557-1.064-5.48-.117-8 1.118-2.521 1.236-4.978 2.796-7.718 2.968-2.411.153-5.042-.731-7.151.433-1.58.901-2.402 2.66-3.855 3.724a9.264 9.264 0 0 1-5.032 1.344 14.294 14.294 0 0 0-5.188.839c-1.607.721-2.931 2.399-2.603 4.113l60.918-.596zM-67.762 15.365c.138-1.014-1.293-1.847-2.366-1.934-.512-.042-1.043.036-1.529-.132-1.052-.366-1.472-1.724-2.497-2.159-.768-.323-1.65-.036-2.399.34-.75.374-1.48.845-2.311.899-.723.045-1.5-.222-2.138.132-.47.26-.72.803-1.154 1.124-.45.28-.97.422-1.5.408a4.286 4.286 0 0 0-1.552.255c-.48.218-.876.728-.777 1.247l18.223-.18zM177.238 43.365c.138-1.014-1.292-1.847-2.366-1.934-.512-.042-1.043.036-1.529-.132-1.052-.366-1.472-1.724-2.497-2.158-.768-.324-1.649-.036-2.399.338-.749.375-1.481.846-2.311.9-.723.045-1.499-.222-2.138.132-.471.26-.719.803-1.154 1.124-.449.28-.97.422-1.499.408a4.284 4.284 0 0 0-1.553.255c-.48.218-.876.728-.777 1.247l18.223-.18zM209.973 27.485c.401-2.898-3.753-5.282-6.871-5.531-1.489-.12-3.03.103-4.441-.377-3.057-1.047-4.276-4.932-7.254-6.175-2.229-.926-4.789-.103-6.966.969-2.178 1.072-4.302 2.418-6.715 2.573-2.098.128-4.354-.635-6.209.377-1.367.746-2.09 2.298-3.352 3.216a7.93 7.93 0 0 1-4.354 1.166 12.626 12.626 0 0 0-4.511.73c-1.394.625-2.543 2.083-2.256 3.567l52.929-.515zM317.38 24.726c.183-1.328-1.694-2.422-3.106-2.536-.672-.054-1.37.048-2.006-.174-1.382-.483-1.934-2.263-3.28-2.833-1.007-.423-2.164-.045-3.142.447-.977.491-1.94 1.109-3.031 1.178-.95.06-1.979-.3-2.809.17-.618.348-.941 1.06-1.499 1.479-.558.42-1.286.5-1.979.537-.692.035-1.409.044-2.039.332-.629.288-1.151.957-1.019 1.637l23.91-.237zM287.418 46.404c.466-3.346-4.311-6.097-7.909-6.376-1.708-.144-3.489.117-5.106-.442-3.516-1.209-4.923-5.691-8.357-7.125-2.557-1.064-5.479-.117-8 1.118-2.521 1.236-4.978 2.796-7.718 2.968-2.411.153-5.041-.731-7.151.433-1.58.901-2.402 2.66-3.854 3.724a9.268 9.268 0 0 1-5.032 1.344 14.29 14.29 0 0 0-5.188.839c-1.607.721-2.932 2.399-2.603 4.113l60.918-.596zM285.687 15.365c.138-1.014-1.292-1.847-2.365-1.934-.513-.042-1.044.036-1.529-.132-1.053-.366-1.472-1.724-2.498-2.159-.767-.323-1.649-.036-2.398.34-.75.374-1.481.845-2.312.899-.722.045-1.499-.222-2.137.132-.471.26-.72.803-1.155 1.124-.449.28-.97.422-1.499.408a4.288 4.288 0 0 0-1.553.255c-.479.218-.875.728-.776 1.247l18.222-.18z"/><path fill="#263238" d="M234.133 83.414h-2.611v6.922h2.611v-6.922z"/><path fill="#161616" stroke="#fff" d="M173.461 65.57V108.3h-28.886V64.193l14.792-21.048 14.094 22.424z"/><path fill="#FA1B43" d="M159.391 42.242h47.281l14.8 23.934h-13.894l-9.579-15.961-9.953 15.21h-14.085l-14.57-23.183z"/><path fill="#161616" stroke="#fff" d="M207.134 66.433l.145.241.282.001 12.34.049-.004 1.299-.013 4.748-.039 14.46-.057 21.069h-45.322V65.925h13.84l.148-.226 9.512-14.543 9.168 15.277z"/><path fill="#000" d="M197.999 50.215l-19.737.305 9.723 14.905 10.014-15.21z" opacity=".3"/><path fill="#263238" d="M198.915 73.336h-2.611v6.922h2.611v-6.922zM211.798 73.336h-2.61v6.922h2.61v-6.922zM198.91 91.066h-2.611v6.923h2.611v-6.923zM211.794 91.066h-2.611v6.923h2.611v-6.923zM173.946 108.783v-.205-.605-2.366c0-2.07 0-5.086-.035-8.893 0-7.627-.031-18.416-.051-31.106v.065L159.265 42.31h.22l-.19.265-15.135 21.718v-.07c0 13.07-.035 24.208-.045 32.091 0 3.931-.03 7.048-.035 9.193v0c0-2.145 0-5.262-.035-9.193 0-7.883 0-19.007-.045-32.091v-.07l15.125-21.723.185-.27.11-.16.105.165 14.551 23.373v.065c0 12.69-.035 23.479-.045 31.106 0 3.807-.025 6.823-.035 8.893v2.971a1.645 1.645 0 0 1-.05.21zM220.417 66.223c.075 0 .13 9.448.13 21.092 0 11.644-.055 21.097-.13 21.097-.075 0-.13-9.443-.13-21.097 0-11.654.06-21.092.13-21.092z"/><path fill="#161616" stroke="#fff" d="M97.094 27.852h27.455V116H97.094V27.852z"/><path fill="#4B69D3" d="M154.733 62h-30.68v18.231h38.683L154.733 62z"/><path fill="#161616" stroke="#fff" d="M124.553 80.73h34.571v27.68h-34.571V80.73z"/><path fill="#fff" d="M107 60h7V48.247a3.13 3.13 0 0 0-1.026-2.296 3.649 3.649 0 0 0-2.477-.951 3.646 3.646 0 0 0-2.473.953A3.13 3.13 0 0 0 107 48.247V60z"/><path fill="#4B69D3" d="M110.822-16L95 27.35h31.228L110.822-16z"/><path fill="#fff" stroke="#fff" d="M125 60H97h28z"/><path fill="#fff" d="M118.939 59.911c-.006-.029-.049.03-.043 0v-1.3c0-.91 0-2.226-.027-3.877 0-3.326-.023-8.014-.038-13.488l.027.06c-1.877-1.61-3.92-3.352-6.039-5.161l.069.026h-4.611l.069-.026-6.246 5.338.027-.056c0 5.42-.027 10.06-.039 13.356 0 1.642-.019 2.938-.027 3.841v1.287a.22.22 0 0 1 0 .089.438.438 0 0 1 0-.089v-.262-1.025c0-.903 0-2.203-.026-3.841 0-3.283-.02-7.935-.035-13.356v-.036l.027-.023 6.196-5.345.027-.023h4.665l.031.023 6.027 5.168.027.023v.032c0 5.474-.027 10.162-.035 13.488 0 1.641 0 2.955-.026 3.877v1.3z"/><path stroke="#fff" d="M102.061 58.624c.008-.903.027-2.2.027-3.841.012-3.296.039-7.935.039-13.356l-.027.056 6.246-5.338-.069.026h4.611l-.069-.026c2.119 1.808 4.162 3.552 6.039 5.16l-.027-.059c.015 5.474.038 10.162.038 13.488.027 1.651.027 2.968.027 3.877v1.3c-.006.03.037-.029.043 0v-1.3c.026-.922.026-2.236.026-3.877.008-3.326.035-8.014.035-13.488v-.032l-.027-.023-6.027-5.168-.031-.023h-4.665l-.027.023-6.196 5.345-.027.023v.036c.015 5.42.035 10.073.035 13.356.026 1.638.026 2.938.026 3.841zm0 0v1.287m0 0a.22.22 0 0 1 0 .089.438.438 0 0 1 0-.089z"/><path fill="#263238" d="M96.353 110.655c-.05 0-.085-18.525-.085-41.373s.036-41.38.085-41.38c.05 0 .086 18.522.086 41.38 0 22.858-.04 41.373-.086 41.373z"/><path fill="#FA1B43" d="M68.284 52.32L44.226 76.264h47.651L68.284 52.32z"/><path fill="#161616" stroke="#fff" d="M33.142 76.762h55.84v41.515h-55.84V76.762z"/><path fill="#000" d="M51.938 76.262H32.642v42.66h19.296v-42.66z" opacity=".3"/><path fill="#FA1B43" d="M68.284 52.32h-15.19L29 76.264h18.316L68.284 52.32z"/><path fill="#000" d="M68.284 52.32h-15.19L29 76.264h18.316L68.284 52.32z" opacity=".3"/><path fill="#263238" d="M89.487 118.774a2.332 2.332 0 0 1-.03-.425v-1.236-4.531c0-3.822.065-9.109.16-14.94.095-5.833.175-11.1.235-14.946.03-1.896.05-3.436.065-4.531 0-.5 0-.926.03-1.231a2.235 2.235 0 0 1 .025-.43c.014.143.014.287 0 .43 0 .305 0 .715.025 1.23v4.532c0 3.826-.065 9.108-.16 14.945s-.175 11.099-.24 14.946c0 1.89-.05 3.431-.065 4.526v1.236a4.03 4.03 0 0 1-.045.425zM32.641 118.923c-.07 0-.16-9.503-.2-21.253-.04-11.749 0-21.252.055-21.252s.16 9.503.205 21.252c.045 11.75.015 21.253-.06 21.253z"/><path fill="#fff" stroke="#fff" d="M53 119V98 77v42z"/><path fill="#fff" d="M257.532 14.867a4.292 4.292 0 0 0-1.792-2.416 2.66 2.66 0 0 0-2.903.08c-1.452 1.13-1.016 3.632-2.421 4.81-1.281 1.08-3.2.41-4.87.51a5.148 5.148 0 0 0-2.234.683 5.093 5.093 0 0 0-1.695 1.597c-.773 1.188-1.053 2.718-2.134 3.636-2.177 1.865-6.024 0-8.263 1.8a4.08 4.08 0 0 0-1.361 2.812c-.054 1.069.034 2.14.262 3.186l2.22-.018c-.141-1.3-.228-2.779.679-3.726.907-.947 2.54-.929 3.908-.673 1.242.297 2.503.511 3.774.64 1.274.07 2.62-.165 3.629-.95 1.259-.986 1.847-2.736 3.288-3.438 1.259-.62 2.757-.234 4.162-.295a6.394 6.394 0 0 0 2.789-.78 6.343 6.343 0 0 0 2.151-1.928 6.271 6.271 0 0 0 .822-5.54l-.011.01z"/><path fill="#161616" stroke="#fff" d="M193.506 118.384V76.452l45.367-40.718h9.112l33.392 40.225v42.425h-87.871z"/><path fill="#FA1B43" d="M191 76.309h27.024l30.196-41.075h-26.434L191 76.31z"/><path fill="#FA1B43" d="M239.677 40.7V29.926h-13.164v18.491h7.512l5.652-7.717z"/><path fill="#161616" stroke="#fff" d="M193.506 76.809h23.175l.152 41.575h-23.327V76.809z"/><path fill="#000" d="M234.025 29.926h-7.512v18.491h7.512V29.926z" opacity=".3"/><path fill="#263238" d="M193.016 118.843c-.075 0-.13-9.358-.13-20.892 0-11.534.055-20.892.13-20.892.075 0 .13 9.348.13 20.892 0 11.544-.065 20.892-.13 20.892zM281.877 118.988c-.07 0-.075-9.619 0-21.508s.18-21.507.25-21.507.075 9.618 0 21.507c-.075 11.889-.175 21.508-.25 21.508z"/><path fill="#FA1B43" d="M248.22 35.23l33.657 40.545 1.63-.62L249.97 35.23h-1.75z"/><path fill="#263238" d="M248.22 35.227a.805.805 0 0 1-.105.17c-.085.12-.2.28-.34.5l-1.326 1.845-4.916 6.748-16.306 22.243a3358.028 3358.028 0 0 0-7.097 9.648l-.04.05h-.066l-19.411-.05-5.597-.035H191a.378.378 0 0 1 .13 0h1.886l5.607-.04 19.411-.045-.1.05 7.093-9.733 16.366-22.198 5.001-6.713 1.366-1.815.36-.47.1-.155z"/></g></svg>