<svg xmlns="http://www.w3.org/2000/svg" fill="none" viewBox="0 0 320 420"><path fill="#fff" d="M63.552 31.88a2.865 2.865 0 1 1-1.979-5.376 2.865 2.865 0 0 1 1.98 5.376z"/><path fill="#fff" d="M63.433 28.923l12.241 8.52-5.244 4.308-7.718-11.71.72-1.118z"/><path fill="#fff" stroke="#161616" stroke-linecap="round" stroke-linejoin="round" stroke-miterlimit="10" stroke-width="2" d="M139.46 24.588S197.401.797 205.527 3.453c8.13 2.668-165.31 177.762-165.31 177.762s-9.836-7.649.118-36.865C50.29 115.135 60.32 97.567 60.32 97.567s22.797-46.227 34.785-54.85c11.988-8.62 44.355-18.13 44.355-18.13z"/><path fill="#161616" stroke="#fff" stroke-linecap="round" stroke-linejoin="round" stroke-miterlimit="10" stroke-width="2" d="M138.3 25.243s-32.674-16.07-64.952 9.163C41.08 59.636 59.22 99.282 59.22 99.282s7.056-14.833 28.855-38.232C114.151 33.062 138.3 25.243 138.3 25.243z"/><path fill="#161616" stroke="#fff" stroke-linecap="round" stroke-linejoin="round" stroke-width="2" d="M39.578 182.251c8.915 7.669 56.819-22.832 104.373-71.252 47.573-48.44 74.832-96.54 65.408-106.387-8.125-8.495-59.424 19.796-106.301 68.883-50.034 52.398-74.156 99.584-63.48 108.756z"/><path fill="#fff" d="M167.19 60.475s-19.546 5.26-43.793 32.651c-22.415 25.318-26.21 43.796-26.21 43.796s14.44-1.994 23.666-5.644c23.779-9.413 40.58-23.342 46.368-55.03 1.957-10.718-.031-15.773-.031-15.773z"/><path stroke="#F48B44" stroke-linecap="round" stroke-linejoin="round" stroke-miterlimit="10" stroke-width="2" d="M172 115.051l99.642 34.755M252.335 210.938l-88.333-78.804M142.002 149.283l176.05 253.985M124.051 155l19.765 189.342"/></svg>