<svg xmlns="http://www.w3.org/2000/svg" fill="none" viewBox="0 0 2247 2681"><g filter="url(#filter0_f_73_124)"><path fill="url(#paint0_radial_73_124)" d="M1040.74 1740.99c242.28-102.22 355.83-381.5 253.61-623.79l-21.11-50.02c-102.22-242.285-381.492-355.829-623.777-253.609l-48.096 20.292c-242.285 102.22-355.829 381.497-253.609 623.777l21.105 50.03c102.22 242.28 381.496 355.83 623.78 253.61l48.097-20.29z"/><path stroke="#00E29A" stroke-width="55.947" d="M1040.74 1740.99c242.28-102.22 355.83-381.5 253.61-623.79l-21.11-50.02c-102.22-242.285-381.492-355.829-623.777-253.609l-48.096 20.292c-242.285 102.22-355.829 381.497-253.609 623.777l21.105 50.03c102.22 242.28 381.496 355.83 623.78 253.61l48.097-20.29z"/></g><g filter="url(#filter1_f_73_124)"><rect width="933.302" height="932.217" fill="url(#paint1_radial_73_124)" rx="466.109" transform="scale(-1 1) rotate(-59.957 810.708 2179.815)"/></g><g filter="url(#filter2_f_73_124)"><path fill="url(#paint2_radial_73_124)" d="M1611.54 1576.76c238.51-218.44 254.79-588.87 36.35-827.384l-103.96-113.509c-218.43-238.514-588.866-254.788-827.38-36.351l-80.934 74.121c-238.513 218.438-254.788 588.873-36.351 827.383l103.955 113.51c218.437 238.51 588.87 254.79 827.38 36.35l80.94-74.12z"/></g><g filter="url(#filter3_f_73_124)"><rect width="1357.74" height="1356.16" fill="url(#paint3_radial_73_124)" rx="652.038" transform="scale(-1 1) rotate(-59.957 630.447 2760.855)"/></g><g filter="url(#filter4_f_73_124)"><path fill="url(#paint4_angular_73_124)" d="M639.117 1846.73c230.364 125.43 519.263 39.49 644.683-190.88 125.42-230.36 40.82-519.65-189.54-645.08-230.362-125.419-519.258-39.479-644.681 190.88-125.423 230.37-40.825 519.66 189.538 645.08z"/></g><defs><filter id="filter0_f_73_124" width="1610.97" height="1612.08" x="15.569" y="481.383" color-interpolation-filters="sRGB" filterUnits="userSpaceOnUse"><feFlood flood-opacity="0" result="BackgroundImageFix"/><feBlend in="SourceGraphic" in2="BackgroundImageFix" result="shape"/><feGaussianBlur result="effect1_foregroundBlur_73_124" stdDeviation="133.319"/></filter><filter id="filter1_f_73_124" width="1445.43" height="1445.99" x="122.304" y="896.684" color-interpolation-filters="sRGB" filterUnits="userSpaceOnUse"><feFlood flood-opacity="0" result="BackgroundImageFix"/><feBlend in="SourceGraphic" in2="BackgroundImageFix" result="shape"/><feGaussianBlur result="effect1_foregroundBlur_73_124" stdDeviation="128.23"/></filter><filter id="filter2_f_73_124" width="2246.04" height="2248.78" x=".556" y=".807" color-interpolation-filters="sRGB" filterUnits="userSpaceOnUse"><feFlood flood-opacity="0" result="BackgroundImageFix"/><feBlend in="SourceGraphic" in2="BackgroundImageFix" result="shape"/><feGaussianBlur result="effect1_foregroundBlur_73_124" stdDeviation="222.48"/></filter><filter id="filter3_f_73_124" width="2007.09" height="2007.67" x="144.718" y="672.36" color-interpolation-filters="sRGB" filterUnits="userSpaceOnUse"><feFlood flood-opacity="0" result="BackgroundImageFix"/><feBlend in="SourceGraphic" in2="BackgroundImageFix" result="shape"/><feGaussianBlur result="effect1_foregroundBlur_73_124" stdDeviation="157.712"/></filter><filter id="filter4_f_73_124" width="1616.43" height="1617.54" x="58.475" y="619.981" color-interpolation-filters="sRGB" filterUnits="userSpaceOnUse"><feFlood flood-opacity="0" result="BackgroundImageFix"/><feBlend in="SourceGraphic" in2="BackgroundImageFix" result="shape"/><feGaussianBlur result="effect1_foregroundBlur_73_124" stdDeviation="166.544"/></filter><radialGradient id="paint0_radial_73_124" cx="0" cy="0" r="1" gradientTransform="matrix(-2023.44796 828.88651 -830.61506 -2027.66764 916.024 1488)" gradientUnits="userSpaceOnUse"><stop stop-color="#5AE9FD"/><stop offset="1" stop-color="#5AE9FD" stop-opacity="0"/></radialGradient><radialGradient id="paint1_radial_73_124" cx="0" cy="0" r="1" gradientTransform="matrix(0 466.109 -466.651 0 466.651 466.109)" gradientUnits="userSpaceOnUse"><stop stop-color="#38B7FF"/><stop offset="1" stop-color="#4AE0E0" stop-opacity=".65"/></radialGradient><radialGradient id="paint2_radial_73_124" cx="0" cy="0" r="1" gradientTransform="matrix(-472.33663 432.57419 -1422.96042 -1553.75967 1123.58 1125.2)" gradientUnits="userSpaceOnUse"><stop stop-color="#6012C3"/><stop offset="1" stop-color="#9949FF" stop-opacity=".37"/></radialGradient><radialGradient id="paint3_radial_73_124" cx="0" cy="0" r="1" gradientTransform="matrix(-560.95263 309.24108 -309.60123 -561.60593 1081.38 792.265)" gradientUnits="userSpaceOnUse"><stop stop-color="#FFF9C5"/><stop offset=".755" stop-color="#FF5C00"/><stop offset="1" stop-color="#F3411A"/></radialGradient><radialGradient id="paint4_angular_73_124" cx="0" cy="0" r="1" gradientTransform="rotate(-151.434 615.21 604.054) scale(474.926 481.06)" gradientUnits="userSpaceOnUse"><stop stop-color="#FFD748"/><stop offset="1" stop-color="#FFD84B" stop-opacity="0"/></radialGradient></defs></svg>