<svg width="644" height="635" viewBox="0 0 644 635" fill="none" xmlns="http://www.w3.org/2000/svg">
<path d="M618.722 317.901L618.403 331.686L622.185 331.774L622.385 323.158L632.783 323.399L632.903 318.23L618.722 317.901Z" fill="white"/>
<path d="M629.443 335.64C629.356 337.143 630.242 338.286 631.587 338.364C632.932 338.441 633.924 337.408 634.011 335.904C634.098 334.401 633.232 333.26 631.887 333.182C630.542 333.104 629.53 334.137 629.443 335.64ZM618.285 332.652L618.014 337.319L628.22 337.91L628.49 333.243L618.285 332.652Z" fill="white"/>
<path d="M617.533 343.748L616.955 349.723L626.593 356.268L627.071 351.318L620.099 347.062L620.101 347.042L627.76 344.2L628.238 339.25L617.533 343.748Z" fill="white"/>
<path d="M614.631 364.784C614.211 367.485 614.417 370.163 615.085 371.671L617.475 370.739C617.049 369.61 616.931 367.527 617.241 365.53C617.536 363.631 618.28 361.942 619.536 361.596L617.895 372.167C618.213 372.317 618.637 372.423 618.931 372.468C622.181 372.973 624.785 370.27 625.5 365.669C626.226 360.99 624.521 357.378 621.37 356.888C618.081 356.378 615.439 359.576 614.631 364.784ZM621.526 361.824C622.634 362.177 623.239 363.574 622.98 365.238C622.728 366.863 621.738 368.072 620.574 367.952L621.526 361.824Z" fill="white"/>
<path d="M610.658 385.242C610.102 387.696 610.292 389.547 611.333 391.408L614.121 391.024C613.381 389.719 613.126 388.604 613.432 387.252C613.747 385.861 614.506 385.383 615.704 385.654L618.312 386.245L616.933 392.331L619.715 392.962L621.094 386.875L624.572 387.663L624.794 382.92L622.127 382.316L622.758 379.533L619.976 378.903L619.345 381.685L615.708 380.881C613.313 380.339 611.393 381.996 610.658 385.242Z" fill="white"/>
<path d="M606.967 399.595C605.612 404.38 606.785 408.089 609.95 408.985C613.114 409.881 616.077 407.344 617.432 402.559C618.782 397.794 617.59 394.08 614.425 393.183C611.261 392.287 608.317 394.83 606.967 399.595ZM609.598 400.34C610.181 398.282 611.588 397.239 613.151 397.682C614.714 398.125 615.366 399.75 614.783 401.809C614.199 403.868 612.792 404.91 611.229 404.468C609.666 404.025 609.015 402.399 609.598 400.34Z" fill="white"/>
<path d="M599.724 421.775C598.783 424.342 598.46 427.009 598.819 428.618L601.346 428.173C601.149 426.982 601.442 424.916 602.138 423.019C602.8 421.215 603.86 419.705 605.16 419.612L601.477 429.656C601.759 429.865 602.155 430.052 602.434 430.154C605.521 431.286 608.606 429.147 610.209 424.776C611.839 420.33 610.876 416.453 607.881 415.355C604.757 414.21 601.539 416.828 599.724 421.775ZM607.066 420.226C608.083 420.789 608.403 422.278 607.823 423.859C607.257 425.403 606.049 426.395 604.931 426.048L607.066 420.226Z" fill="white"/>
<path d="M594.971 433.824C593.856 436.407 593.86 438.847 594.896 440.395L594.888 440.413L592.6 440.115L590.99 443.844L597.065 446.467C599.375 447.464 601.862 445.302 603.645 441.173C604.925 438.208 605.397 434.916 604.946 432.564L602.221 432.725C602.598 435.002 602.226 437.863 601.244 440.136C600.561 441.719 599.768 442.606 599.313 442.41C599.131 442.331 599.088 442.032 599.224 441.616L600.444 437.892C601.761 433.843 601.469 431.019 599.596 430.21C597.959 429.504 596.259 430.841 594.971 433.824ZM596.858 436.451C597.408 435.178 597.971 434.623 598.444 434.827C598.935 435.039 598.886 435.903 598.39 437.35L597.071 441.355L597.034 441.34C595.889 440.845 595.805 438.889 596.858 436.451Z" fill="white"/>
<path d="M595.791 457.916C596.609 456.265 596.424 454.316 595.266 452.903L595.275 452.886L597.669 453.363L599.401 449.866L590.239 445.33L588.156 449.538L592.24 451.56C593.98 452.421 594.729 453.676 594.14 454.866C593.709 455.736 592.54 455.909 591.138 455.303L589.985 459.507C592.506 460.578 594.78 459.958 595.791 457.916Z" fill="white"/>
<path d="M588.361 471.693C589.611 469.465 589.594 467.229 588.574 465.565L588.584 465.548L590.986 466.328L592.964 462.804L584.049 457.801L581.761 461.878L585.942 464.224C587.635 465.175 588.045 466.791 587.076 468.518C586.222 470.039 584.881 470.445 583.465 469.649L578.852 467.06L576.573 471.12L581.608 473.969C584.172 475.431 586.77 474.526 588.361 471.693Z" fill="white"/>
<path d="M570.191 480.615C568.637 482.96 568.211 485.362 568.958 487.069L568.947 487.086L566.747 486.389L564.504 489.775L570.021 493.429C572.118 494.818 574.948 493.128 577.432 489.379C579.215 486.687 580.26 483.529 580.231 481.134L577.521 480.812C577.49 483.12 576.619 485.87 575.251 487.935C574.3 489.372 573.362 490.105 572.949 489.832C572.784 489.722 572.794 489.42 573.002 489.035L574.86 485.584C576.871 481.831 577.082 479 575.381 477.874C573.894 476.889 571.985 477.906 570.191 480.615ZM571.584 483.534C572.35 482.377 573.003 481.93 573.432 482.215C573.878 482.51 573.677 483.351 572.934 484.689L570.929 488.398L570.896 488.376C569.855 487.687 570.118 485.747 571.584 483.534Z" fill="white"/>
<path d="M566.188 505.228C567.713 503.178 567.983 500.958 567.184 499.178L567.196 499.162L569.478 500.243L571.891 497.001L563.69 490.898L560.899 494.648L564.745 497.511C566.302 498.67 566.502 500.326 565.32 501.915C564.279 503.313 562.897 503.544 561.594 502.574L557.35 499.416L554.571 503.151L559.199 506.621C561.555 508.399 564.248 507.834 566.188 505.228Z" fill="white"/>
<path d="M549.627 508.617C547.984 510.574 547.451 512.998 548.31 514.779L548.297 514.794L545.884 513.571L543.286 516.666L554.607 526.167L557.625 522.57L552.132 517.96L552.144 517.945C554.02 518.484 556.316 517.566 557.959 515.608C560.302 512.816 560.176 509.607 557.657 507.493C555.137 505.379 551.97 505.824 549.627 508.617ZM550.609 512.285C551.984 510.646 553.574 510.17 554.651 511.074C555.729 511.978 555.551 513.639 554.175 515.278C552.8 516.917 551.195 517.381 550.118 516.477C549.04 515.573 549.234 513.924 550.609 512.285Z" fill="white"/>
<path d="M533.296 526.8C530.508 529.67 529.234 532.603 531.067 534.384C532.53 535.805 534.467 535.063 537.275 532.57L539.198 530.903C540.125 530.091 540.666 529.761 540.951 530.037C541.32 530.396 540.621 531.485 539.476 532.664C538.192 533.986 536.484 535.033 535.132 535.487L535.908 537.788C537.803 537.116 539.621 535.899 541.125 534.35C543.928 531.465 545.132 528.575 543.299 526.795C541.963 525.497 540.138 526.182 537.566 528.489L535.657 530.17C534.606 531.11 533.939 531.484 533.64 531.194C533.299 530.863 533.762 529.931 535.308 528.34C536.923 526.677 539.172 525.271 540.749 524.87L539.9 522.333C538.003 522.893 535.339 524.697 533.296 526.8Z" fill="white"/>
<path d="M527.97 532.696L524.546 535.88L527.811 539.391C529.133 540.813 529.031 542.477 527.58 543.826C526.303 545.013 524.902 544.99 523.796 543.801L520.194 539.927L516.785 543.097L520.709 547.347C522.705 549.522 525.455 549.454 527.834 547.242C529.706 545.501 530.242 543.488 529.792 541.579L529.807 541.566L534.596 546.716L538.034 543.519L527.97 532.696Z" fill="white"/>
<path d="M511.647 546.981C509.479 548.773 508.373 550.948 508.591 552.798L508.576 552.811L506.673 551.505L503.543 554.093L507.76 559.192C509.363 561.131 512.562 560.337 516.028 557.471C518.517 555.414 520.435 552.697 521.103 550.396L518.604 549.301C517.903 551.5 516.27 553.878 514.362 555.456C513.033 556.554 511.923 556.984 511.608 556.602C511.481 556.449 511.579 556.163 511.89 555.855L514.67 553.093C517.685 550.086 518.71 547.439 517.41 545.867C516.274 544.493 514.151 544.911 511.647 546.981ZM512.132 550.179C513.201 549.295 513.955 549.057 514.283 549.454C514.624 549.866 514.188 550.613 513.088 551.677L510.091 554.643L510.065 554.612C509.27 553.651 510.086 551.87 512.132 550.179Z" fill="white"/>
<path d="M501.537 568.745C503.015 567.645 503.734 565.825 503.345 564.04L503.361 564.029L505.277 565.541L508.408 563.211L502.304 555.011L498.537 557.814L501.258 561.469C502.417 563.027 502.515 564.485 501.45 565.278C500.671 565.857 499.552 565.481 498.577 564.304L495.641 567.527C497.401 569.625 499.709 570.105 501.537 568.745Z" fill="white"/>
<path d="M483.987 567.705C481.714 569.223 479.88 571.186 479.221 572.698L481.524 573.828C482.068 572.751 483.523 571.255 485.203 570.133C486.801 569.066 488.548 568.472 489.653 569.163L480.756 575.103C480.86 575.438 481.07 575.823 481.235 576.07C483.061 578.805 486.813 578.896 490.685 576.311C494.623 573.682 496.132 569.983 494.361 567.331C492.513 564.562 488.37 564.779 483.987 567.705ZM490.83 570.783C491.32 571.838 490.7 573.229 489.299 574.164C487.932 575.077 486.371 575.166 485.673 574.226L490.83 570.783Z" fill="white"/>
<path d="M459.263 582.9L446.952 589.11L448.656 592.488L456.35 588.607L461.034 597.894L465.651 595.566L459.263 582.9Z" fill="white"/>
<path d="M448.426 600.812C447.06 601.444 446.471 602.765 447.037 603.988C447.603 605.21 448.983 605.597 450.349 604.964C451.715 604.332 452.313 603.029 451.747 601.806C451.181 600.584 449.792 600.179 448.426 600.812ZM445.794 589.564L441.551 591.529L445.847 600.805L450.089 598.841L445.794 589.564Z" fill="white"/>
<path d="M435.436 594.198L429.89 596.495L428.64 608.077L433.234 606.175L433.716 598.019L433.735 598.012L439.842 603.438L444.436 601.535L435.436 594.198Z" fill="white"/>
<path d="M415.878 601.35C413.297 602.253 411.032 603.696 410.017 604.995L411.965 606.665C412.76 605.757 414.542 604.672 416.45 604.005C418.264 603.37 420.104 603.231 421.001 604.176L410.903 607.708C410.92 608.058 411.027 608.483 411.125 608.763C412.21 611.868 415.822 612.892 420.217 611.355C424.686 609.792 427.07 606.587 426.017 603.576C424.918 600.435 420.852 599.611 415.878 601.35ZM421.736 606.039C421.947 607.182 421 608.374 419.41 608.93C417.858 609.473 416.325 609.169 415.883 608.086L421.736 606.039Z" fill="white"/>
<path d="M395.777 607.478C393.348 608.136 391.802 609.171 390.645 610.962L392.291 613.246C393.097 611.981 393.962 611.233 395.3 610.87C396.677 610.497 397.455 610.943 397.776 612.129L398.476 614.71L392.452 616.343L393.199 619.096L399.222 617.464L400.155 620.906L404.45 618.88L403.734 616.241L406.488 615.495L405.742 612.741L402.988 613.487L401.995 609.898C401.352 607.527 398.989 606.607 395.777 607.478Z" fill="white"/>
<path d="M381.341 610.941C376.479 611.984 373.752 614.758 374.442 617.973C375.132 621.189 378.761 622.618 383.623 621.575C388.466 620.536 391.19 617.743 390.5 614.527C389.81 611.312 386.184 609.902 381.341 610.941ZM381.915 613.614C384.007 613.165 385.587 613.92 385.928 615.508C386.269 617.097 385.138 618.434 383.046 618.883C380.954 619.332 379.373 618.576 379.032 616.988C378.692 615.4 379.823 614.063 381.915 613.614Z" fill="white"/>
<path d="M358.617 614.895C355.909 615.273 353.404 616.243 352.154 617.318L353.736 619.337C354.694 618.603 356.654 617.89 358.656 617.61C360.559 617.345 362.391 617.569 363.085 618.672L352.489 620.151C352.438 620.499 352.459 620.936 352.5 621.23C352.955 624.487 356.294 626.201 360.905 625.558C365.595 624.903 368.562 622.229 368.121 619.07C367.661 615.773 363.836 614.167 358.617 614.895ZM363.44 620.643C363.422 621.806 362.259 622.788 360.591 623.021C358.963 623.248 357.519 622.65 357.298 621.5L363.44 620.643Z" fill="white"/>
<path d="M345.693 616.359C342.889 616.586 340.736 617.735 339.856 619.377L339.836 619.378L339.025 617.218L334.977 617.546L335.512 624.142C335.716 626.649 338.793 627.831 343.275 627.467C346.494 627.206 349.622 626.077 351.488 624.574L350.067 622.245C348.232 623.646 345.532 624.66 343.064 624.86C341.346 625 340.19 624.716 340.15 624.222C340.134 624.025 340.378 623.846 340.809 623.771L344.67 623.1C348.864 622.362 351.22 620.78 351.055 618.746C350.91 616.969 348.931 616.096 345.693 616.359ZM344.259 619.258C345.641 619.145 346.396 619.382 346.437 619.896C346.481 620.429 345.695 620.791 344.184 621.033L340.028 621.748L340.025 621.708C339.924 620.464 341.613 619.472 344.259 619.258Z" fill="white"/>
<path d="M324.943 628.403C326.785 628.346 328.417 627.265 329.118 625.578L329.137 625.578L329.844 627.914L333.745 627.794L333.429 617.576L328.736 617.721L328.877 622.276C328.937 624.216 328.183 625.468 326.856 625.509C325.886 625.539 325.182 624.59 325.056 623.068L320.805 624.031C321.047 626.759 322.666 628.473 324.943 628.403Z" fill="white"/>
<path d="M308.226 628.311C310.781 628.37 312.748 627.306 313.738 625.625L313.758 625.625L314.195 628.112L318.236 628.206L318.473 617.986L313.798 617.878L313.687 622.671C313.642 624.612 312.408 625.733 310.427 625.687C308.684 625.646 307.696 624.653 307.734 623.028L307.857 617.74L303.202 617.632L303.048 623.415C302.96 626.366 304.978 628.236 308.226 628.311Z" fill="white"/>
<path d="M291.874 616.453C289.074 616.182 286.752 616.933 285.596 618.393L285.576 618.391L285.159 616.122L281.116 615.731L280.479 622.317C280.237 624.821 283.058 626.527 287.534 626.96C290.748 627.271 294.027 626.712 296.128 625.562L295.14 623.018C293.088 624.074 290.251 624.595 287.786 624.357C286.07 624.191 284.982 623.708 285.03 623.215C285.049 623.018 285.321 622.885 285.758 622.887L289.677 622.908C293.935 622.922 296.534 621.78 296.73 619.749C296.902 617.974 295.108 616.765 291.874 616.453ZM289.951 619.053C291.331 619.187 292.032 619.553 291.982 620.066C291.931 620.598 291.094 620.816 289.564 620.787L285.347 620.758L285.351 620.718C285.471 619.476 287.308 618.798 289.951 619.053Z" fill="white"/>
<path d="M268.144 624.456C270.67 624.838 272.756 624.032 273.951 622.49L273.971 622.493L274.09 625.015L278.086 625.62L279.616 615.512L274.993 614.813L274.275 619.553C273.985 621.473 272.618 622.428 270.659 622.132C268.936 621.871 268.082 620.76 268.325 619.154L269.116 613.924L264.513 613.227L263.628 618.944C263.167 621.86 264.931 623.97 268.144 624.456Z" fill="white"/>
<path d="M257.562 611.444C255.061 610.917 252.672 611.589 251.506 613.185L251.486 613.181L251.428 610.476L247.474 609.643L244.428 624.105L249.022 625.073L250.5 618.055L250.52 618.059C250.928 619.967 252.819 621.56 255.32 622.087C258.887 622.838 261.658 621.215 262.336 617.997C263.014 614.779 261.129 612.195 257.562 611.444ZM254.788 614.039C256.882 614.479 258.051 615.657 257.761 617.033C257.471 618.41 255.922 619.035 253.829 618.594C251.735 618.153 250.57 616.956 250.86 615.58C251.15 614.204 252.694 613.598 254.788 614.039Z" fill="white"/>
<path d="M233.984 605.59C230.138 604.484 226.951 604.744 226.245 607.2C225.682 609.161 227.25 610.519 230.772 611.819L233.149 612.729C234.302 613.163 234.849 613.485 234.739 613.866C234.597 614.361 233.307 614.259 231.727 613.804C229.956 613.296 228.227 612.283 227.189 611.305L225.526 613.074C227.013 614.429 228.943 615.458 231.019 616.054C234.884 617.165 238 616.864 238.706 614.408C239.22 612.618 237.756 611.332 234.508 610.151L232.126 609.261C230.801 608.777 230.157 608.365 230.272 607.965C230.403 607.508 231.443 607.477 233.575 608.09C235.803 608.73 238.103 610.05 239.201 611.252L241.038 609.307C239.649 607.898 236.802 606.399 233.984 605.59Z" fill="white"/>
<path d="M226.098 603.597L221.685 602.054L220.102 606.579C219.461 608.412 217.941 609.098 216.071 608.444C214.426 607.868 213.792 606.618 214.329 605.085L216.075 600.092L211.68 598.555L209.752 604.009C208.759 606.789 210.102 609.189 213.169 610.262C215.581 611.106 217.612 610.64 219.09 609.353L219.109 609.359L216.787 615.998L221.219 617.548L226.098 603.597Z" fill="white"/>
<path d="M206.027 595.905C203.428 594.828 200.988 594.868 199.456 595.928L199.437 595.92L199.701 593.628L195.949 592.074L193.417 598.187C192.454 600.511 194.654 602.966 198.808 604.687C201.792 605.923 205.091 606.346 207.436 605.859L207.234 603.138C204.963 603.548 202.097 603.219 199.809 602.271C198.217 601.612 197.317 600.832 197.507 600.374C197.583 600.191 197.881 600.143 198.299 600.273L202.041 601.437C206.11 602.694 208.929 602.36 209.709 600.475C210.392 598.828 209.029 597.148 206.027 595.905ZM203.428 597.83C204.709 598.361 205.273 598.916 205.076 599.392C204.871 599.886 204.007 599.85 202.552 599.376L198.528 598.117L198.543 598.08C199.021 596.927 200.976 596.815 203.428 597.83Z" fill="white"/>
<path d="M182.059 597.135C183.722 597.928 185.668 597.714 187.063 596.536L187.081 596.544L186.639 598.945L190.162 600.625L194.561 591.397L190.323 589.377L188.362 593.49C187.526 595.242 186.283 596.01 185.084 595.439C184.208 595.021 184.018 593.855 184.603 592.444L180.382 591.353C179.349 593.89 180.003 596.155 182.059 597.135Z" fill="white"/>
<path d="M174.791 581.132C172.387 579.829 169.795 579.123 168.151 579.246L168.226 581.81C169.432 581.788 171.434 582.377 173.211 583.34C174.9 584.256 176.241 585.523 176.145 586.823L166.74 581.725C166.492 581.974 166.249 582.338 166.108 582.6C164.541 585.491 166.211 588.853 170.304 591.071C174.467 593.328 178.442 592.936 179.962 590.132C181.548 587.206 179.424 583.643 174.791 581.132ZM175.261 588.62C174.557 589.545 173.037 589.646 171.557 588.843C170.111 588.06 169.305 586.721 169.809 585.665L175.261 588.62Z" fill="white"/>
<path d="M149.827 566.362L138.588 558.373L136.396 561.458L143.42 566.45L137.394 574.928L141.609 577.923L149.827 566.362Z" fill="white"/>
<path d="M128.836 565.072C127.641 564.155 126.198 564.246 125.378 565.315C124.558 566.384 124.856 567.786 126.05 568.703C127.245 569.619 128.676 569.544 129.496 568.475C130.316 567.406 130.03 565.988 128.836 565.072ZM137.576 557.52L133.867 554.674L127.644 562.784L131.354 565.63L137.576 557.52Z" fill="white"/>
<path d="M128.828 550.665L124.202 546.84L113.382 551.158L117.215 554.327L124.646 550.935L124.662 550.947L122.727 558.884L126.559 562.053L128.828 550.665Z" fill="white"/>
<path d="M113.257 536.645C111.255 534.783 108.922 533.452 107.299 533.161L106.731 535.663C107.905 535.942 109.696 537.013 111.176 538.389C112.583 539.697 113.565 541.26 113.147 542.494L105.313 535.209C105.011 535.389 104.685 535.681 104.483 535.898C102.244 538.307 103.022 541.979 106.431 545.149C109.899 548.374 113.846 548.987 116.018 546.651C118.284 544.214 117.116 540.233 113.257 536.645ZM111.843 544.014C110.93 544.734 109.434 544.452 108.201 543.305C106.996 542.185 106.549 540.688 107.302 539.791L111.843 544.014Z" fill="white"/>
<path d="M98.4374 521.777C96.7174 519.941 95.0783 519.06 92.9538 518.879L91.7079 521.403C93.2037 521.522 94.2694 521.935 95.2175 522.947C96.1926 523.988 96.1632 524.884 95.2668 525.724L93.3148 527.552L89.0487 522.998L86.9666 524.948L91.2327 529.503L88.63 531.94L92.4335 534.784L94.4289 532.915L96.3791 534.997L98.4612 533.047L96.511 530.965L99.2157 528.404C101.009 526.725 100.713 524.206 98.4374 521.777Z" fill="white"/>
<path d="M88.7372 510.817C85.5269 507.02 81.7954 505.92 79.2839 508.043C76.7724 510.166 77.2208 514.041 80.4311 517.839C83.6285 521.621 87.3752 522.708 89.8867 520.585C92.3982 518.462 91.9346 514.6 88.7372 510.817ZM86.6493 512.582C88.0306 514.216 88.1089 515.966 86.8683 517.015C85.6276 518.063 83.9154 517.695 82.5341 516.061C81.1528 514.427 81.0745 512.677 82.3151 511.629C83.5557 510.58 85.268 510.948 86.6493 512.582Z" fill="white"/>
<path d="M74.6261 492.73C73.0179 490.52 70.9829 488.766 69.4462 488.169L68.4094 490.516C69.5076 491.015 71.0605 492.409 72.2491 494.043C73.3796 495.597 74.0439 497.319 73.3973 498.45L67.1042 489.799C66.7736 489.917 66.3978 490.141 66.1575 490.316C63.4981 492.251 63.5581 496.004 66.2968 499.769C69.0821 503.598 72.8386 504.957 75.418 503.081C78.1095 501.123 77.726 496.992 74.6261 492.73ZM71.8258 499.692C70.7917 500.223 69.3774 499.66 68.3868 498.298C67.4195 496.968 67.2679 495.413 68.1782 494.677L71.8258 499.692Z" fill="white"/>
<path d="M67.0909 481.792C65.5721 479.424 63.5463 478.064 61.6834 478.058L61.6727 478.042L63.1981 476.31L61.0054 472.892L55.4357 476.464C53.318 477.823 53.7218 481.094 56.1498 484.879C57.8933 487.598 60.3598 489.828 62.5634 490.769L63.9513 488.419C61.8525 487.459 59.688 485.552 58.351 483.468C57.4204 482.017 57.1275 480.863 57.5444 480.596C57.7112 480.489 57.9836 480.62 58.2523 480.965L60.6596 484.058C63.2821 487.413 65.7864 488.748 67.504 487.647C69.0048 486.684 68.8451 484.527 67.0909 481.792ZM63.8579 481.889C64.6066 483.056 64.7522 483.833 64.3187 484.112C63.8684 484.4 63.1798 483.877 62.2561 482.657L59.6717 479.325L59.705 479.304C60.7556 478.63 62.4246 479.654 63.8579 481.889Z" fill="white"/>
<path d="M46.6995 469.125C47.6131 470.725 49.3329 471.659 51.1513 471.487L51.1612 471.505L49.4283 473.224L51.3636 476.613L60.2408 471.544L57.9125 467.467L53.9556 469.726C52.2696 470.689 50.81 470.61 50.1518 469.457C49.6705 468.614 50.1794 467.548 51.4648 466.723L48.6203 463.419C46.3248 464.913 45.5697 467.146 46.6995 469.125Z" fill="white"/>
<path d="M39.4239 455.311C40.5747 457.593 42.4395 458.827 44.389 458.909L44.3979 458.927L42.4098 460.484L44.2297 464.093L53.3572 459.489L51.2518 455.315L46.9711 457.474C45.2376 458.348 43.6675 457.786 42.7754 456.017C41.9903 454.461 42.4021 453.122 43.8526 452.39L48.5755 450.008L46.479 445.851L41.305 448.438C38.6604 449.75 37.9608 452.41 39.4239 455.311Z" fill="white"/>
<path d="M42.3929 435.82C41.3067 433.225 39.5468 431.535 37.713 431.207L37.7054 431.189L39.5074 429.748L37.9393 426.001L31.8355 428.556C29.5146 429.528 29.3462 432.819 31.0825 436.968C32.3294 439.947 34.3726 442.571 36.3803 443.878L38.1538 441.804C36.2529 440.495 34.451 438.243 33.4948 435.958C32.8293 434.368 32.7405 433.181 33.1974 432.99C33.3802 432.914 33.6258 433.09 33.8306 433.477L35.6665 436.939C37.6689 440.697 39.9043 442.446 41.7866 441.658C43.4314 440.97 43.6473 438.817 42.3929 435.82ZM39.1918 435.356C39.7273 436.635 39.7362 437.426 39.261 437.625C38.7676 437.832 38.1799 437.197 37.4812 435.836L35.5124 432.107L35.5489 432.092C36.7002 431.61 38.1668 432.907 39.1918 435.356Z" fill="white"/>
<path d="M24.1702 418.805C25.0229 421.214 26.7166 422.674 28.64 423.002L28.6466 423.02L26.4774 424.314L27.8258 428.123L37.4626 424.713L35.9026 420.305L31.383 421.905C29.5528 422.553 28.0664 421.797 27.4053 419.929C26.8236 418.286 27.4016 417.009 28.9331 416.467L33.9195 414.702L32.3661 410.314L26.9062 412.225C24.1169 413.191 23.0861 415.742 24.1702 418.805Z" fill="white"/>
<path d="M30.4795 402.841C29.7737 400.385 28.0621 398.589 26.1051 398.306L26.0996 398.287L28.4624 396.969L27.3463 393.085L13.1419 397.166L14.4386 401.679L21.3313 399.698L21.3368 399.717C19.842 400.971 19.3204 403.389 20.0262 405.845C21.0328 409.348 23.7648 411.037 26.9256 410.129C30.0863 409.221 31.4862 406.345 30.4795 402.841ZM26.8883 401.606C27.4792 403.662 26.9863 405.247 25.6344 405.635C24.2825 406.024 23.0046 404.948 22.4137 402.891C21.8228 400.835 22.3348 399.245 23.6867 398.857C25.0386 398.468 26.2974 399.549 26.8883 401.606Z" fill="white"/>
<path d="M24.5627 379.355C23.738 375.439 22.0165 372.744 19.5158 373.271C17.519 373.692 17.0539 375.713 17.5541 379.434L17.8635 381.96C18.0197 383.183 17.9911 383.816 17.6034 383.898C17.0994 384.004 16.5861 382.816 16.2472 381.207C15.8675 379.404 15.9521 377.403 16.3305 376.027L13.9888 375.387C13.488 377.334 13.483 379.522 13.928 381.635C14.7568 385.57 16.4814 388.183 18.9822 387.657C20.8044 387.273 21.2553 385.376 20.7775 381.954L20.4488 379.432C20.2558 378.035 20.318 377.273 20.7251 377.187C21.1904 377.089 21.7047 377.993 22.162 380.164C22.6396 382.432 22.55 385.083 22.0022 386.616L24.5817 387.328C25.1764 385.441 25.167 382.224 24.5627 379.355Z" fill="white"/>
<path d="M22.6147 371.552L21.8974 366.932L17.1599 367.667C15.2414 367.965 13.9205 366.947 13.6166 364.99C13.3492 363.267 14.1534 362.12 15.7587 361.87L20.9856 361.059L20.2714 356.458L14.552 357.326C11.632 357.76 10.1471 360.075 10.6455 363.286C11.0376 365.811 12.4044 367.383 14.2369 368.081L14.2399 368.101L7.29023 369.18L8.01053 373.819L22.6147 371.552Z" fill="white"/>
<path d="M19.8902 349.859C19.6194 347.059 18.4377 344.924 16.7826 344.069L16.7807 344.05L18.9283 343.205L18.5374 339.163L11.9512 339.799C9.44683 340.042 8.31307 343.137 8.74592 347.613C9.05673 350.827 10.2333 353.938 11.7649 355.78L14.0721 354.323C12.6429 352.511 11.5872 349.826 11.3488 347.361C11.183 345.646 11.4489 344.486 11.9419 344.438C12.1391 344.419 12.3216 344.66 12.403 345.09L13.1336 348.94C13.9361 353.122 15.5548 355.453 17.5858 355.257C19.3605 355.085 20.2029 353.093 19.8902 349.859ZM16.9693 348.47C17.1028 349.85 16.8776 350.608 16.3649 350.658C15.8324 350.709 15.4585 349.93 15.1933 348.423L14.4144 344.278L14.4539 344.275C15.6962 344.154 16.7138 345.827 16.9693 348.47Z" fill="white"/>
<path d="M7.52608 329.541C7.61137 331.382 8.71748 332.996 10.4147 333.671L10.4156 333.691L8.08995 334.434L8.27062 338.332L18.4822 337.859L18.2649 333.169L13.7132 333.38C11.7738 333.47 10.5101 332.735 10.4487 331.409C10.4037 330.439 11.3423 329.721 12.8624 329.572L11.8331 325.336C9.10947 325.62 7.42062 327.265 7.52608 329.541Z" fill="white"/>
<path d="M18.1987 314.383C18.2198 311.649 17.6259 309.029 16.7451 307.635L14.5164 308.906C15.1026 309.96 15.5227 312.004 15.5071 314.025C15.4923 315.947 15.0031 317.726 13.8103 318.252L13.8929 307.554C13.5569 307.452 13.1213 307.409 12.8242 307.407C9.53563 307.382 7.35258 310.436 7.31663 315.091C7.28008 319.826 9.49313 323.151 12.6826 323.176C16.0108 323.202 18.1581 319.652 18.1987 314.383ZM11.8088 318.315C10.6612 318.128 9.85889 316.834 9.87189 315.15C9.88458 313.506 10.6874 312.165 11.8567 312.115L11.8088 318.315Z" fill="white"/>
<path d="M19.4473 285.755L21.196 272.078L17.4426 271.598L16.3497 280.146L6.03283 278.827L5.3771 283.956L19.4473 285.755Z" fill="white"/>
<path d="M10.5678 267.364C10.8102 265.878 10.0471 264.649 8.71748 264.432C7.3879 264.216 6.29351 265.141 6.05113 266.627C5.80875 268.113 6.55232 269.338 7.88191 269.555C9.21149 269.772 10.3254 268.85 10.5678 267.364ZM21.3561 271.492L22.1088 266.878L12.0195 265.232L11.2669 269.846L21.3561 271.492Z" fill="white"/>
<path d="M23.4268 259.588L24.6415 253.709L15.7608 246.169L14.7546 251.039L21.231 256.018L21.227 256.038L13.3075 258.043L12.3013 262.913L23.4268 259.588Z" fill="white"/>
<path d="M28.4868 239.255C29.1919 236.614 29.2729 233.929 28.7692 232.359L26.2933 233.031C26.5968 234.199 26.4916 236.283 25.9705 238.235C25.4749 240.092 24.5557 241.692 23.2693 241.902L26.0282 231.566C25.7284 231.384 25.3175 231.233 25.0304 231.156C21.853 230.308 18.9747 232.718 17.774 237.216C16.5529 241.791 17.8626 245.565 20.9443 246.387C24.16 247.246 27.1277 244.347 28.4868 239.255ZM21.3156 241.463C20.2514 240.994 19.7987 239.54 20.233 237.914C20.6571 236.325 21.7701 235.228 22.9148 235.472L21.3156 241.463Z" fill="white"/>
<path d="M34.4139 219.9C35.2266 217.519 35.2336 215.659 34.3955 213.698L31.5819 213.784C32.1798 215.161 32.3158 216.296 31.8679 217.608C31.4072 218.958 30.6024 219.353 29.44 218.956L26.9088 218.093L28.9245 212.187L26.2246 211.265L24.2089 217.171L20.8341 216.019L20.1114 220.713L22.6988 221.596L21.7773 224.296L24.4772 225.217L25.3987 222.517L28.9299 223.702C31.2548 224.495 33.3389 223.05 34.4139 219.9Z" fill="white"/>
<path d="M39.9983 204.971C41.8667 200.363 41.1047 196.548 38.057 195.312C35.0093 194.076 31.7873 196.276 29.9189 200.884C28.058 205.474 28.8384 209.296 31.8861 210.532C34.9337 211.768 38.1373 209.561 39.9983 204.971ZM37.4647 203.944C36.6608 205.926 35.1483 206.81 33.6428 206.199C32.1373 205.589 31.667 203.902 32.4709 201.919C33.2748 199.936 34.7873 199.053 36.2928 199.663C37.7983 200.274 38.2686 201.961 37.4647 203.944Z" fill="white"/>
<path d="M48.8071 185.287C50.011 182.833 50.6111 180.214 50.4213 178.577L47.8621 178.756C47.9334 179.96 47.4262 181.984 46.5363 183.798C45.6901 185.524 44.4781 186.915 43.1754 186.872L47.8862 177.267C47.6274 177.03 47.2535 176.802 46.9867 176.671C44.0341 175.223 40.7431 177.029 38.6931 181.209C36.6081 185.46 37.1612 189.417 40.0249 190.821C43.0131 192.287 46.4866 190.019 48.8071 185.287ZM41.344 186.062C40.3908 185.396 40.2286 183.882 40.9701 182.37C41.6942 180.894 42.9989 180.033 44.0745 180.495L41.344 186.062Z" fill="white"/>
<path d="M55.3512 172.705C56.7372 170.257 56.9954 167.831 56.1312 166.18L56.141 166.163L58.3842 166.705L60.3851 163.17L54.627 159.91C52.4375 158.671 49.7321 160.554 47.5165 164.467C45.9256 167.278 45.1029 170.5 45.2992 172.888L48.0248 173.019C47.8952 170.715 48.5721 167.911 49.7922 165.756C50.6413 164.256 51.5252 163.459 51.9562 163.703C52.1286 163.8 52.1397 164.103 51.9594 164.501L50.3469 168.073C48.603 171.958 48.5897 174.796 50.3654 175.801C51.917 176.68 53.7505 175.532 55.3512 172.705ZM53.7575 169.89C53.0743 171.097 52.4545 171.589 52.0063 171.335C51.5408 171.071 51.6824 170.218 52.3305 168.832L54.0722 164.992L54.1067 165.011C55.1928 165.626 55.0654 167.58 53.7575 169.89Z" fill="white"/>
<path d="M57.0587 148.708C56.0697 150.262 56.0455 152.219 57.0454 153.748L57.0348 153.765L54.7054 153.034L52.6103 156.327L61.2351 161.814L63.7556 157.853L59.9112 155.407C58.2732 154.365 57.6623 153.037 58.3748 151.917C58.8959 151.098 60.0765 151.051 61.4061 151.803L63.0012 147.746C60.6095 146.412 58.2818 146.786 57.0587 148.708Z" fill="white"/>
<path d="M65.9385 135.73C64.4579 137.813 64.2374 140.038 65.0752 141.8L65.0637 141.816L62.7583 140.785L60.4169 144.079L68.749 150.002L71.4577 146.191L67.55 143.413C65.9676 142.289 65.7311 140.638 66.8789 139.023C67.8889 137.602 69.2655 137.341 70.5896 138.282L74.901 141.347L77.5983 137.552L72.8946 134.184C70.5001 132.458 67.8209 133.082 65.9385 135.73Z" fill="white"/>
<path d="M84.8553 128.872C86.6479 126.704 87.3263 124.36 86.7639 122.584L86.7765 122.569L88.8905 123.494L91.4784 120.364L86.3788 116.148C84.4397 114.544 81.4468 115.926 78.5812 119.392C76.5235 121.88 75.1503 124.909 74.9261 127.295L77.5868 127.901C77.862 125.609 79.0187 122.967 80.5966 121.058C81.6949 119.73 82.7046 119.099 83.0863 119.415C83.239 119.541 83.197 119.841 82.9498 120.202L80.7377 123.437C78.3416 126.957 77.8324 129.749 79.405 131.049C80.7792 132.185 82.785 131.376 84.8553 128.872ZM83.7782 125.822C82.8945 126.891 82.1984 127.266 81.8014 126.938C81.3892 126.597 81.6777 125.782 82.5582 124.531L84.9443 121.054L84.9748 121.079C85.9367 121.874 85.4698 123.776 83.7782 125.822Z" fill="white"/>
<path d="M91.019 105.243C89.2855 107.121 88.7838 109.3 89.3908 111.154L89.3773 111.169L87.2217 109.853L84.4805 112.823L91.992 119.756L95.1632 116.321L91.6404 113.069C90.2138 111.752 90.1892 110.085 91.5329 108.629C92.7154 107.348 94.1141 107.264 95.3078 108.366L99.1945 111.954L102.352 108.533L98.1151 104.595C95.9595 102.578 93.2228 102.855 91.019 105.243Z" fill="white"/>
<path d="M108.153 103.25C109.992 101.476 110.777 99.1222 110.111 97.2607L110.125 97.2469L112.396 98.7173L115.305 95.9119L105.046 85.2734L101.667 88.5326L106.645 93.695L106.631 93.7087C104.822 92.9753 102.442 93.6466 100.603 95.4206C97.9788 97.951 97.7665 101.156 100.049 103.523C102.332 105.89 105.529 105.78 108.153 103.25ZM107.562 99.4981C106.022 100.983 104.391 101.29 103.415 100.277C102.438 99.2649 102.79 97.6321 104.33 96.1469C105.871 94.6617 107.515 94.3693 108.492 95.3818C109.468 96.3943 109.102 98.0129 107.562 99.4981Z" fill="white"/>
<path d="M125.144 87.8218C128.209 85.2494 129.775 82.4614 128.132 80.5037C126.82 78.9406 124.818 79.4827 121.772 81.6771L119.689 83.1402C118.685 83.8538 118.112 84.1272 117.858 83.8237C117.526 83.4291 118.332 82.4168 119.592 81.3598C121.003 80.1755 122.809 79.3069 124.2 78.9927L123.662 76.6254C121.708 77.1013 119.776 78.1276 118.122 79.5157C115.041 82.1008 113.549 84.853 115.192 86.8107C116.389 88.2372 118.274 87.7413 121.068 85.7075L123.138 84.2293C124.279 83.401 124.98 83.0967 125.248 83.4154C125.553 83.7796 124.998 84.6592 123.299 86.0855C121.523 87.5754 119.143 88.7453 117.533 88.9842L118.12 91.5948C120.064 91.2305 122.897 89.7065 125.144 87.8218Z" fill="white"/>
<path d="M131.697 81.9173L135.438 79.1121L132.561 75.2766C131.396 73.7234 131.673 72.0791 133.258 70.8905C134.653 69.8444 136.044 70.0148 137.018 71.3144L140.192 75.5461L143.917 72.7528L140.462 68.113C138.706 65.7396 135.965 65.5177 133.365 67.4671C131.321 69.0005 130.576 70.9459 130.822 72.8914L130.806 72.9032L126.586 67.2769L122.83 70.094L131.697 81.9173Z" fill="white"/>
<path d="M148.651 69.8992C150.99 68.3372 152.313 66.2868 152.284 64.4241L152.301 64.4131L154.06 65.9065L157.438 63.6515L153.764 58.1483C152.367 56.0558 149.103 56.5195 145.363 59.0165C142.677 60.8095 140.492 63.3165 139.593 65.5369L141.967 66.8815C142.889 64.7655 144.756 62.5664 146.815 61.1914C148.249 60.2344 149.397 59.9205 149.672 60.3324C149.782 60.4971 149.656 60.7719 149.315 61.0469L146.267 63.5105C142.961 66.194 141.672 68.7224 142.805 70.4195C143.795 71.9024 145.948 71.7032 148.651 69.8992ZM148.495 66.6684C147.341 67.4384 146.567 67.5983 146.281 67.1699C145.984 66.725 146.494 66.0269 147.697 65.081L150.981 62.4359L151.003 62.4689C151.696 63.5069 150.702 65.1944 148.495 66.6684Z" fill="white"/>
<path d="M160.936 49.2276C159.353 50.1705 158.45 51.9073 158.655 53.7222L158.638 53.7324L156.887 52.0314L153.534 54.0288L158.766 62.8112L162.8 60.4082L160.468 56.4936C159.474 54.8256 159.526 53.3648 160.667 52.6855C161.501 52.1887 162.576 52.6779 163.425 53.9479L166.675 51.043C165.14 48.7754 162.893 48.0616 160.936 49.2276Z" fill="white"/>
<path d="M178.566 51.8621C180.983 50.586 183.01 48.8223 183.82 47.3866L181.645 46.0253C180.994 47.041 179.393 48.3789 177.606 49.3221C175.906 50.219 174.108 50.6308 173.08 49.8292L182.541 44.8358C182.471 44.4917 182.303 44.0878 182.164 43.825C180.629 40.9166 176.906 40.4401 172.788 42.6131C168.601 44.8231 166.72 48.3472 168.208 51.1681C169.762 54.1115 173.905 54.3218 178.566 51.8621ZM172.076 48.0966C171.697 46.9972 172.457 45.6778 173.946 44.8918C175.4 44.1243 176.962 44.1963 177.56 45.2023L172.076 48.0966Z" fill="white"/>
<path d="M205.04 39.0915L217.931 34.1991L216.589 30.6614L208.532 33.7191L204.841 23.995L200.007 25.8297L205.04 39.0915Z" fill="white"/>
<path d="M218.253 22.1955C219.679 21.7145 220.408 20.4654 219.978 19.1888C219.548 17.9122 218.218 17.3779 216.791 17.8589C215.364 18.3398 214.629 19.5702 215.059 20.8468C215.49 22.1234 216.826 22.6764 218.253 22.1955ZM219.651 33.6617L224.081 32.1683L220.816 22.4813L216.385 23.9748L219.651 33.6617Z" fill="white"/>
<path d="M229.168 30.5185L234.925 28.8171L237.385 17.4303L232.617 18.8397L231.28 26.899L231.261 26.9046L225.758 20.8668L220.989 22.2761L229.168 30.5185Z" fill="white"/>
<path d="M249.46 25.356C252.122 24.7315 254.527 23.5363 255.674 22.3516L253.913 20.4856C253.027 21.304 251.14 22.1944 249.173 22.6559C247.302 23.0949 245.457 23.0392 244.665 22.0041L255.08 19.5607C255.1 19.2102 255.039 18.7768 254.971 18.4875C254.22 15.2858 250.737 13.8848 246.204 14.9481C241.595 16.0296 238.885 18.9647 239.613 22.07C240.374 25.3103 244.33 26.5596 249.46 25.356ZM244.131 20.0742C244.042 18.9148 245.11 17.8299 246.75 17.4453C248.35 17.0697 249.843 17.5335 250.168 18.6579L244.131 20.0742Z" fill="white"/>
<path d="M269.488 21.3751C271.971 20.9701 273.616 20.0997 274.951 18.4367L273.549 15.9957C272.616 17.1715 271.679 17.8261 270.311 18.0494C268.903 18.279 268.175 17.7554 267.977 16.5431L267.547 13.9035L273.706 12.8989L273.247 10.0833L267.088 11.0879L266.514 7.56839L262.033 9.14226L262.473 11.8405L259.658 12.2998L260.117 15.1154L262.932 14.6561L263.552 18.3289C263.947 20.7534 266.203 21.9109 269.488 21.3751Z" fill="white"/>
<path d="M284.551 19.3033C289.494 18.7676 292.494 16.2904 292.14 13.0209C291.785 9.75141 288.323 7.95458 283.379 8.49028C278.455 9.02385 275.458 11.5207 275.812 14.7902C276.166 18.0597 279.627 19.8369 284.551 19.3033ZM284.256 16.5853C282.129 16.8158 280.635 15.9016 280.46 14.2865C280.285 12.6715 281.549 11.4585 283.676 11.228C285.803 10.9975 287.297 11.9117 287.472 13.5267C287.647 15.1418 286.383 16.3548 284.256 16.5853Z" fill="white"/>
<path d="M307.53 17.6216C310.262 17.5266 312.854 16.822 314.209 15.8829L312.845 13.7101C311.816 14.3405 309.792 14.847 307.773 14.9172C305.852 14.9839 304.054 14.5706 303.478 13.4013L314.17 13.0297C314.257 12.6897 314.281 12.2528 314.271 11.9558C314.157 8.66911 311.013 6.61764 306.36 6.77932C301.628 6.94375 298.399 9.29596 298.51 12.4836C298.626 15.8099 302.263 17.8046 307.53 17.6216ZM303.329 11.4043C303.468 10.2498 304.726 9.39327 306.409 9.33479C308.053 9.27769 309.426 10.0229 309.526 11.189L303.329 11.4043Z" fill="white"/>
<path d="M323.339 17.4605C326.151 17.5365 328.415 16.6266 329.467 15.0894L329.487 15.0899L330.061 17.3251L334.121 17.4348L334.3 10.8203C334.368 8.3052 331.436 6.79904 326.94 6.67755C323.712 6.59031 320.48 7.37498 318.463 8.66813L319.625 11.1372C321.6 9.94199 324.394 9.22476 326.869 9.29166C328.592 9.33822 329.711 9.745 329.698 10.2401C329.692 10.4381 329.431 10.5896 328.994 10.6174L325.083 10.8685C320.834 11.15 318.321 12.4694 318.266 14.5092C318.218 16.2916 320.091 17.3727 323.339 17.4605ZM325.077 14.7329C323.691 14.6955 322.966 14.3786 322.98 13.8637C322.995 13.329 323.815 13.0539 325.343 12.9763L329.552 12.7134L329.55 12.7531C329.517 14.0007 327.731 14.8046 325.077 14.7329Z" fill="white"/>
<path d="M344.884 7.67374C343.047 7.53175 341.309 8.43061 340.43 10.0318L340.41 10.0302L339.96 7.63088L336.069 7.33009L335.281 17.5222L339.962 17.8841L340.313 13.3411C340.463 11.4054 341.348 10.2418 342.671 10.3441C343.639 10.4189 344.236 11.4387 344.197 12.9657L348.528 12.4659C348.58 9.7279 347.156 7.84933 344.884 7.67374Z" fill="white"/>
<path d="M359.87 9.31332C357.335 8.98923 355.268 9.84348 354.109 11.4129L354.089 11.4104L353.912 8.89117L349.903 8.37865L348.607 18.5187L353.244 19.1116L353.852 14.356C354.099 12.4302 355.443 11.4437 357.408 11.6949C359.137 11.916 360.017 13.007 359.811 14.6184L359.14 19.8653L363.758 20.4557L364.511 14.7201C364.905 11.7945 363.092 9.72535 359.87 9.31332Z" fill="white"/>
<path d="M374.439 22.6584C377.196 23.2171 379.583 22.7103 380.884 21.3771L380.903 21.381L381.084 23.6816L385.064 24.4882L386.378 18.0031C386.878 15.5372 384.249 13.549 379.841 12.6558C376.677 12.0145 373.358 12.2314 371.149 13.1583L371.869 15.7905C374.019 14.9528 376.895 14.727 379.322 15.2188C381.011 15.5611 382.043 16.1543 381.945 16.6397C381.906 16.8339 381.622 16.9381 381.187 16.8903L377.291 16.4647C373.057 16.0111 370.354 16.8784 369.949 18.8783C369.595 20.6258 371.254 22.0131 374.439 22.6584ZM376.621 20.2706C375.261 19.9952 374.602 19.5584 374.704 19.0535C374.811 18.5293 375.666 18.3994 377.184 18.5858L381.375 19.051L381.368 19.0899C381.12 20.3131 379.222 20.7978 376.621 20.2706Z" fill="white"/>
<path d="M399.184 17.1893C396.712 16.5396 394.552 17.119 393.2 18.525L393.18 18.52L393.331 15.999L389.422 14.9716L386.823 24.8583L391.345 26.0469L392.564 21.4101C393.058 19.5324 394.519 18.7283 396.435 19.232C398.121 19.6752 398.851 20.8709 398.438 22.442L397.093 27.5578L401.596 28.7414L403.086 23.1517C403.855 20.3018 402.326 18.0153 399.184 17.1893Z" fill="white"/>
<path d="M407.875 31.0243C410.306 31.8132 412.752 31.399 414.081 29.935L414.1 29.9411L413.871 32.6369L417.715 33.8845L422.277 19.8271L417.811 18.3778L415.597 25.1992L415.578 25.193C415.375 23.2525 413.663 21.468 411.232 20.6791C407.765 19.5539 404.837 20.874 403.822 24.002C402.807 27.13 404.408 29.899 407.875 31.0243ZM410.908 28.7385C408.873 28.078 407.835 26.7831 408.269 25.4453C408.703 24.1074 410.31 23.6498 412.345 24.3103C414.38 24.9707 415.412 26.2845 414.977 27.6224C414.543 28.9603 412.943 29.399 410.908 28.7385Z" fill="white"/>
<path d="M432.143 39.7992C435.846 41.3167 439.042 41.4062 440.011 39.0414C440.785 37.1532 439.374 35.633 436.015 33.9565L433.751 32.7932C432.652 32.2358 432.144 31.8563 432.294 31.4896C432.489 31.013 433.76 31.2555 435.282 31.879C436.987 32.5777 438.595 33.7722 439.521 34.8579L441.366 33.2805C440.036 31.772 438.229 30.539 436.231 29.7201C432.509 28.1951 429.379 28.154 428.41 30.5188C427.704 32.2419 429.02 33.6805 432.119 35.2076L434.391 36.3525C435.655 36.9776 436.25 37.4572 436.092 37.8421C435.912 38.2821 434.875 38.1998 432.822 37.3584C430.677 36.4794 428.535 34.9162 427.575 33.6021L425.536 35.3361C426.763 36.8879 429.43 38.6873 432.143 39.7992Z" fill="white"/>
<path d="M602.166 217.492C603.966 222.382 607.007 224.851 609.752 223.82C612.169 222.931 612.684 220.546 611.493 215.875L610.843 213.307C610.381 211.535 610.424 210.675 610.926 210.49C611.639 210.248 612.598 211.479 613.315 213.368C614.086 215.406 614.28 217.826 613.847 219.632L617.135 219.963C617.593 217.937 617.29 215.051 616.257 212.243C614.512 207.502 611.704 204.862 608.841 205.916C606.48 206.785 605.972 209.019 607.073 213.386L607.697 215.942C608.219 218.051 608.181 219.036 607.605 219.248C606.917 219.501 606.033 218.476 605.342 216.598C604.404 214.051 604.236 210.841 604.895 208.846L601.398 208.233C600.679 210.524 600.989 214.294 602.166 217.492Z" fill="white"/>
<path d="M438.89 42.1943L443.118 44.1906L445.165 39.8552C445.994 38.0996 447.577 37.5765 449.369 38.4224C450.945 39.1667 451.444 40.4759 450.751 41.9449L448.492 46.7281L452.702 48.7159L455.19 43.4933C456.468 40.8324 455.383 38.3046 452.445 36.9174C450.134 35.8263 448.066 36.0767 446.461 37.2029L446.443 37.1944L449.446 30.8347L445.2 28.83L438.89 42.1943Z" fill="white"/>
<path d="M605.613 227.86L606.997 232.326L611.576 230.907C613.431 230.332 614.886 231.147 615.472 233.039C615.988 234.704 615.36 235.957 613.808 236.437L608.756 238.003L610.133 242.45L615.665 240.757C618.491 239.902 619.622 237.395 618.66 234.291C617.904 231.85 616.322 230.494 614.408 230.071L614.402 230.052L621.12 227.971L619.73 223.486L605.613 227.86Z" fill="white"/>
<path d="M457.646 51.6736C460.119 53.0142 462.55 53.2276 464.184 52.3331L464.202 52.3425L463.702 54.5953L467.272 56.5307L470.425 50.7134C471.624 48.5014 469.691 45.8313 465.738 43.6882C462.899 42.1494 459.662 41.3864 457.278 41.6267L457.197 44.3543C459.498 44.1822 462.314 44.8072 464.492 45.9873C466.007 46.8086 466.82 47.6777 466.584 48.1131C466.49 48.2873 466.188 48.3039 465.786 48.131L462.185 46.5847C458.269 44.9128 455.431 44.9519 454.458 46.7458C453.609 48.3134 454.79 50.1253 457.646 51.6736ZM460.431 50.0283C459.212 49.3674 458.709 48.7568 458.954 48.304C459.209 47.8337 460.065 47.9595 461.463 48.582L465.334 50.2525L465.316 50.2873C464.721 51.3846 462.765 51.2933 460.431 50.0283Z" fill="white"/>
<path d="M611.29 248.094C611.972 250.823 613.457 252.76 615.22 253.36L615.225 253.38L613.226 254.533L614.21 258.473L620.63 256.869C623.071 256.259 623.734 253.03 622.644 248.667C621.861 245.534 620.238 242.632 618.451 241.036L616.384 242.819C618.066 244.4 619.507 246.898 620.107 249.301C620.525 250.973 620.434 252.16 619.953 252.28C619.761 252.328 619.545 252.116 619.401 251.703L618.109 248.003C616.696 243.986 614.751 241.92 612.771 242.414C611.041 242.847 610.503 244.942 611.29 248.094ZM614.385 249.036C614.048 247.69 614.159 246.907 614.659 246.782C615.178 246.653 615.663 247.369 616.148 248.82L617.531 252.803L617.493 252.813C616.282 253.115 615.028 251.611 614.385 249.036Z" fill="white"/>
<path d="M481.751 52.9508C480.179 51.9905 478.222 52.0022 476.712 53.03L476.695 53.0197L477.383 50.6773L474.052 48.6431L468.723 57.3671L472.73 59.8144L475.106 55.9258C476.117 54.2689 477.434 53.6337 478.567 54.3256C479.395 54.8316 479.464 56.0111 478.737 57.3543L482.822 58.8746C484.112 56.4589 483.695 54.1383 481.751 52.9508Z" fill="white"/>
<path d="M626.63 266.731C626.276 264.923 624.946 263.488 623.168 263.069L623.164 263.049L625.356 261.974L624.606 258.144L614.574 260.108L615.476 264.716L619.948 263.84C621.853 263.468 623.211 264.009 623.466 265.312C623.652 266.265 622.829 267.112 621.347 267.483L622.985 271.523C625.638 270.842 627.068 268.967 626.63 266.731Z" fill="white"/>
<path d="M487.597 69.7452C489.854 71.2881 492.359 72.2569 494.007 72.3036L494.196 69.7451C492.994 69.6432 491.064 68.8514 489.395 67.711C487.809 66.6265 486.605 65.2278 486.835 63.9446L495.666 69.982C495.938 69.7599 496.217 69.4224 496.384 69.1771C498.24 66.4622 496.924 62.9466 493.081 60.3192C489.172 57.6471 485.177 57.6281 483.377 60.2612C481.499 63.0088 483.246 66.7712 487.597 69.7452ZM487.898 62.2481C488.694 61.4001 490.216 61.4563 491.606 62.4066C492.963 63.3346 493.628 64.749 493.017 65.7475L487.898 62.2481Z" fill="white"/>
<path d="M618.195 282.387C618.581 285.094 619.559 287.595 620.638 288.842L622.652 287.254C621.916 286.298 621.195 284.34 620.91 282.339C620.638 280.437 620.856 278.605 621.957 277.907L623.471 288.498C623.818 288.548 624.255 288.526 624.549 288.484C627.805 288.018 629.508 284.673 628.85 280.064C628.18 275.377 625.496 272.418 622.338 272.87C619.043 273.34 617.449 277.17 618.195 282.387ZM623.927 277.546C625.09 277.56 626.076 278.72 626.314 280.387C626.547 282.014 625.953 283.46 624.804 283.684L623.927 277.546Z" fill="white"/>
<path d="M510.711 86.738L521.078 95.8298L523.573 92.9849L517.094 87.3026L523.952 79.483L520.064 76.0736L510.711 86.738Z" fill="white"/>
<path d="M531.527 90.1836C532.622 91.2168 534.067 91.2729 534.992 90.2931C535.916 89.3132 535.762 87.8882 534.667 86.8549C533.572 85.8216 532.141 85.7512 531.216 86.731C530.292 87.7109 530.432 89.1503 531.527 90.1836ZM522.063 96.8073L525.464 100.016L532.479 92.5804L529.079 89.3718L522.063 96.8073Z" fill="white"/>
<path d="M530.462 104.866L534.66 109.157L545.874 106.001L542.397 102.447L534.649 105.038L534.635 105.024L537.395 97.3347L533.917 93.7804L530.462 104.866Z" fill="white"/>
<path d="M543.978 119.778C545.781 121.833 547.967 123.395 549.552 123.849L550.371 121.418C549.232 121.021 547.558 119.774 546.226 118.255C544.959 116.81 544.141 115.156 544.682 113.97L551.736 122.013C552.054 121.865 552.408 121.608 552.631 121.412C555.104 119.243 554.703 115.511 551.633 112.011C548.511 108.451 544.646 107.44 542.248 109.543C539.746 111.737 540.504 115.816 543.978 119.778ZM546.134 112.591C547.115 111.967 548.575 112.4 549.685 113.666C550.77 114.902 551.062 116.438 550.222 117.253L546.134 112.591Z" fill="white"/>
<path d="M552.636 130.609C553.629 131.741 555.047 131.946 556.015 131.097C556.998 130.235 556.965 128.815 555.972 127.683C554.979 126.551 553.589 126.347 552.606 127.21C551.638 128.059 551.643 129.477 552.636 130.609Z" fill="white"/>
<path d="M597.571 201.108C598.564 202.24 599.983 202.446 600.951 201.597C601.934 200.734 601.901 199.314 600.908 198.182C599.915 197.05 598.524 196.847 597.541 197.709C596.573 198.558 596.579 199.976 597.571 201.108Z" fill="white"/>
<path d="M621.583 298.631C622.576 299.763 623.994 299.968 624.963 299.119C625.946 298.257 625.912 296.836 624.919 295.705C623.927 294.573 622.536 294.369 621.553 295.231C620.585 296.08 620.59 297.499 621.583 298.631Z" fill="white"/>
<path d="M561.864 139.423L570.752 151.699L573.352 149.817L567.403 141.601L569.537 140.056L574.905 147.469L577.135 145.854L571.768 138.441L573.693 137.046L579.526 145.102L582.125 143.22L573.353 131.104L561.864 139.423Z" fill="white"/>
<path d="M573.649 156.693C575.17 159.06 577.197 160.418 579.06 160.422L579.07 160.439L577.546 162.172L579.742 165.588L585.309 162.01C587.425 160.65 587.018 157.379 584.587 153.596C582.841 150.879 580.372 148.651 578.168 147.713L576.782 150.063C578.882 151.022 581.048 152.926 582.387 155.01C583.319 156.46 583.613 157.613 583.196 157.881C583.03 157.988 582.757 157.857 582.488 157.512L580.078 154.421C577.452 151.069 574.947 149.736 573.23 150.839C571.73 151.803 571.892 153.96 573.649 156.693ZM576.882 156.594C576.132 155.427 575.985 154.65 576.419 154.371C576.869 154.082 577.558 154.605 578.483 155.824L581.07 159.153L581.037 159.175C579.987 159.849 578.317 158.827 576.882 156.594Z" fill="white"/>
<path d="M594.19 169.532C593.275 167.933 591.555 166.999 589.737 167.171L589.727 167.154L591.459 165.434L589.523 162.045L580.647 167.118L582.977 171.194L586.933 168.933C588.619 167.97 590.078 168.048 590.737 169.201C591.219 170.044 590.71 171.11 589.425 171.936L592.271 175.238C594.566 173.744 595.32 171.51 594.19 169.532Z" fill="white"/>
<path d="M601.663 183.687C600.513 181.405 598.648 180.171 596.699 180.089L596.69 180.071L598.678 178.514L596.859 174.905L587.731 179.506L589.835 183.681L594.116 181.523C595.85 180.65 597.42 181.211 598.312 182.981C599.096 184.537 598.684 185.877 597.234 186.608L592.51 188.989L594.605 193.146L599.78 190.56C602.425 189.249 603.125 186.589 601.663 183.687Z" fill="white"/>
</svg>
